<?xml version="1.0" encoding="utf-8"?>
<!-- Generator: Adobe Illustrator 21.1.0, SVG Export Plug-In . SVG Version: 6.00 Build 0)  -->
<svg version="1.1" id="Ebene_1" xmlns="http://www.w3.org/2000/svg" xmlns:xlink="http://www.w3.org/1999/xlink" x="0px" y="0px"
	 viewBox="0 0 1000 301" style="enable-background:new 0 0 1000 301;" xml:space="preserve">
<style type="text/css">
	.st0{fill:#F4F4F0;}
</style>
<path class="st0" d="M735.9,196.8c-0.9,0.5-1.9,1-2.8,1.5c1.5,0.1,3,0.2,4.5,0.2c0.9-0.5,1.8-1,2.6-1.5
	C738.8,196.9,737.3,196.9,735.9,196.8 M730.5,196.5c-1,0.5-2,1-3,1.4c1.4,0.1,2.9,0.2,4.3,0.3c0.9-0.5,1.9-1,2.8-1.5
	C733.3,196.7,731.9,196.6,730.5,196.5 M725.2,196.2c-1.1,0.5-2.1,0.9-3.2,1.4c1.4,0.1,2.9,0.2,4.3,0.3c1-0.5,2-0.9,3-1.4
	C727.9,196.3,726.5,196.3,725.2,196.2 M719.7,195.8c-1.1,0.5-2.3,0.9-3.4,1.3c1.3,0.1,2.7,0.2,4,0.3c1.1-0.5,2.1-0.9,3.2-1.4
	C722.3,196,721,195.9,719.7,195.8 M714.1,195.4c-1.2,0.4-2.4,0.8-3.7,1.3c1.4,0.1,2.8,0.2,4.2,0.3c1.1-0.4,2.3-0.9,3.4-1.3
	C716.7,195.6,715.4,195.5,714.1,195.4 M708.6,195c-1.3,0.4-2.6,0.8-3.9,1.2c1.4,0.1,2.8,0.2,4.2,0.4c1.2-0.4,2.4-0.8,3.7-1.3
	C711.2,195.2,709.9,195.1,708.6,195 M703.1,194.5c-1.4,0.4-2.8,0.8-4.2,1.2c1.4,0.1,2.7,0.3,4.1,0.4c1.3-0.4,2.6-0.8,3.9-1.2
	C705.7,194.7,704.4,194.6,703.1,194.5 M697.6,194c-1.5,0.4-3.1,0.7-4.6,1.1c1.3,0.1,2.7,0.3,4,0.4c1.4-0.4,2.8-0.7,4.3-1.1
	C700.1,194.2,698.8,194.1,697.6,194 M691.9,193.5c-1.6,0.3-3.2,0.7-4.8,1c1.1,0.1,2.3,0.2,3.4,0.4c1.5-0.4,3-0.7,4.6-1.1
	C694,193.7,693,193.6,691.9,193.5 M686.1,193c-1.6,0.3-3.3,0.5-4.9,0.8c0.8,0.1,1.6,0.2,2.4,0.3c1.5-0.3,3-0.6,4.5-0.9
	C687.4,193.1,686.8,193,686.1,193 M680.3,192.4c-1.7,0.2-3.4,0.4-5.1,0.7c0.6,0.1,1.3,0.2,1.9,0.2c1.5-0.2,3.1-0.5,4.6-0.7
	C681.2,192.5,680.8,192.4,680.3,192.4 M674.4,191.8c-1.7,0.2-3.5,0.3-5.2,0.5c0.7,0.1,1.4,0.2,2,0.3c1.6-0.2,3.2-0.4,4.7-0.6
	C675.5,191.9,674.9,191.9,674.4,191.8 M668.5,191.2c-1.8,0.1-3.5,0.2-5.3,0.3c0.5,0.1,0.9,0.1,1.4,0.2c1.6-0.1,3.2-0.3,4.7-0.4
	C669.1,191.2,668.8,191.2,668.5,191.2 M662.1,190.4c-1.8,0.1-3.6,0.1-5.4,0.2c0.3,0,0.7,0.1,1,0.1c1.6-0.1,3.1-0.2,4.7-0.3
	C662.3,190.5,662.2,190.4,662.1,190.4 M656.2,189.7c-1.8,0-3.7,0-5.5,0c0.3,0,0.6,0.1,0.9,0.1c1.6,0,3.2-0.1,4.8-0.1
	C656.3,189.7,656.2,189.7,656.2,189.7 M1000,164.6c-70.2,22.2-144.2,33.3-221.7,33.3c-12.2,0-24.6-0.3-37-0.8
	c-0.9,0.5-1.8,1-2.6,1.5c14.1,0.7,28.2,1.1,42.1,1.1c37.4,0,74-2.6,109.4-7.7c37.4-5.4,74.1-13.7,109.8-24.8V164.6L1000,164.6z
	 M165.2,63.6c1.4,0.8,2.8,1.6,4.2,2.4c85.3,18.2,187.4,47.3,326,88.7c19.5,5.8,38.8,11.1,58,15.8c22.7,5.1,45.1,9.5,67.3,13
	c0.7,0.1,1.5,0.2,2.2,0.3c-41.5-7.3-83.8-17.4-127.1-30.4C351.9,110.4,249.3,81.4,165.2,63.6 M151.7,60.8c1.5,0.8,3.1,1.6,4.6,2.4
	c3.8,0.8,7.7,1.6,11.6,2.4c-1.4-0.8-2.8-1.6-4.3-2.4C159.6,62.4,155.6,61.6,151.7,60.8 M138.3,58.2c1.7,0.8,3.4,1.6,5,2.5
	c3.5,0.7,7,1.4,10.5,2.1c-1.6-0.8-3.1-1.6-4.7-2.4C145.5,59.5,141.9,58.8,138.3,58.2 M124.6,55.6c1.9,0.8,3.7,1.7,5.5,2.5
	c3.5,0.6,7,1.3,10.6,2c-1.7-0.9-3.4-1.7-5.2-2.5C131.8,56.9,128.2,56.2,124.6,55.6 M110.7,53.2c2.1,0.8,4.1,1.7,6.1,2.6
	c3.4,0.6,6.9,1.2,10.3,1.8c-1.9-0.9-3.8-1.7-5.7-2.6C117.8,54.4,114.3,53.8,110.7,53.2 M97.1,51c2.3,0.9,4.5,1.7,6.8,2.6
	c3.2,0.5,6.4,1,9.7,1.6c-2.1-0.9-4.2-1.8-6.4-2.6C103.8,52.1,100.5,51.5,97.1,51 M82.5,48.9c2.6,0.9,5.1,1.7,7.6,2.7
	c3.3,0.5,6.7,1,10,1.5c-2.3-0.9-4.7-1.8-7.1-2.7C89.5,49.9,86,49.3,82.5,48.9 M68.3,47c2.9,0.9,5.7,1.7,8.5,2.7
	c3,0.4,6.1,0.8,9.1,1.3c-2.6-0.9-5.3-1.8-8-2.7C74.7,47.8,71.5,47.4,68.3,47 M53.6,45.3c3.2,0.8,6.4,1.7,9.6,2.6
	c2.9,0.3,5.8,0.7,8.7,1.1c-3-0.9-6-1.8-9-2.7C59.7,46,56.7,45.6,53.6,45.3 M39.1,43.9c3.6,0.8,7.2,1.7,10.7,2.6
	c3.1,0.3,6.2,0.7,9.3,1c-3.3-0.9-6.6-1.8-9.9-2.6C45.8,44.5,42.5,44.2,39.1,43.9 M23.5,42.7c4.1,0.8,8.1,1.6,12.1,2.5
	c2.3,0.2,4.6,0.4,6.9,0.6c-3.9-0.9-7.8-1.8-11.8-2.6C28.2,43,25.9,42.8,23.5,42.7 M7.4,41.7c4.6,0.7,9.2,1.5,13.7,2.3
	c1.1,0.1,2.3,0.2,3.5,0.2c-4.7-0.9-9.5-1.7-14.4-2.4C9.3,41.8,8.4,41.7,7.4,41.7 M0,41.4v1.5v-0.7c2.2,0.3,4.3,0.6,6.4,0.9
	c2.5,0.1,5,0.3,7.6,0.4C9.4,42.8,4.7,42.1,0,41.4L0,41.4L0,41.4z"/>
<path class="st0" d="M738.6,195.4c-0.5,0.3-1.1,0.6-1.7,0.9c1.4,0,2.9,0.1,4.3,0.1c0.5-0.3,1-0.6,1.5-0.9
	C741.4,195.4,740,195.4,738.6,195.4 M733.3,195.1c-0.6,0.3-1.2,0.6-1.8,0.9c1.4,0.1,2.8,0.1,4.2,0.2c0.5-0.3,1.1-0.6,1.7-0.9
	C736,195.3,734.7,195.2,733.3,195.1 M728.1,194.9c-0.7,0.3-1.3,0.6-2,0.9c1.4,0.1,2.8,0.1,4.1,0.2c0.6-0.3,1.2-0.6,1.8-0.9
	C730.7,195,729.4,195,728.1,194.9 M722.7,194.6c-0.7,0.3-1.4,0.6-2.2,0.8c1.3,0.1,2.6,0.1,3.8,0.2c0.7-0.3,1.3-0.6,2-0.8
	C725.2,194.8,723.9,194.7,722.7,194.6 M717.2,194.3c-0.8,0.3-1.6,0.6-2.4,0.8c1.3,0.1,2.7,0.2,4,0.2c0.7-0.3,1.5-0.6,2.2-0.8
	C719.7,194.5,718.4,194.4,717.2,194.3 M711.8,194c-0.9,0.3-1.7,0.5-2.6,0.8c1.3,0.1,2.7,0.2,4,0.3c0.8-0.3,1.6-0.6,2.4-0.8
	C714.3,194.1,713,194.1,711.8,194 M706.3,193.6c-1,0.3-1.9,0.5-2.9,0.8c1.3,0.1,2.6,0.2,3.9,0.3c0.9-0.3,1.8-0.5,2.6-0.8
	C708.8,193.8,707.6,193.7,706.3,193.6 M700.9,193.2c-1.1,0.2-2.1,0.5-3.2,0.7c1.3,0.1,2.6,0.2,3.9,0.3c1-0.3,1.9-0.5,2.9-0.8
	C703.3,193.4,702.1,193.3,700.9,193.2 M695.5,192.8c-1.2,0.2-2.4,0.5-3.5,0.7c1,0.1,2.1,0.2,3.1,0.3c1.1-0.2,2.1-0.5,3.2-0.7
	C697.4,192.9,696.4,192.8,695.5,192.8 M690.1,192.3c-1.3,0.2-2.6,0.4-4,0.7c0.6,0.1,1.3,0.1,1.9,0.2c1.2-0.2,2.3-0.5,3.5-0.7
	C691.1,192.4,690.6,192.3,690.1,192.3 M684.8,191.8c-1.5,0.2-3,0.4-4.5,0.6c0.5,0,1,0.1,1.5,0.1c1.3-0.2,2.6-0.4,3.9-0.7
	C685.4,191.9,685.1,191.8,684.8,191.8 M679.5,191.3c-1.7,0.2-3.4,0.3-5.1,0.5c0.5,0,1.1,0.1,1.6,0.2c1.5-0.2,3-0.4,4.5-0.6
	C680.2,191.4,679.8,191.3,679.5,191.3 M673.8,190.8c-1.8,0.1-3.5,0.2-5.3,0.4c0.3,0,0.5,0.1,0.8,0.1c1.5-0.1,3.1-0.3,4.6-0.4
	C673.9,190.8,673.9,190.8,673.8,190.8 M664.1,190.4c-0.6,0-1.3,0-1.9,0.1c0.1,0,0.2,0,0.3,0C663,190.4,663.5,190.4,664.1,190.4
	 M657.3,189.7c-0.4,0-0.7,0-1.1,0c0.1,0,0.1,0,0.2,0C656.6,189.7,657,189.7,657.3,189.7 M1000,160c-72.6,23.9-149.6,35.9-231,35.9
	c-8.3,0-16.7-0.1-25-0.4c-0.5,0.3-1,0.6-1.5,0.9c8.3,0.2,16.5,0.4,24.7,0.4c42,0,83-3.1,122.4-9.4c37.7-6,74.7-14.9,110.5-26.7V160
	L1000,160z M179.8,72.2c1.1,0.7,2.2,1.4,3.3,2.1c61,14.3,130.8,33.4,217.1,57c32.2,8.8,65.5,17.9,102,27.8c22,6,43.9,11.2,65.6,15.8
	c17.8,3.4,35.5,6.3,52.9,8.7c-22.1-3.6-44.5-7.9-67.3-13c-16.8-3.8-33.8-8-50.9-12.6c-36.5-9.9-69.8-19-102-27.8
	C312.1,105.9,241.3,86.5,179.8,72.2 M166.9,69.2c1.2,0.7,2.4,1.4,3.5,2.1c3.7,0.8,7.4,1.7,11.2,2.6c-1.1-0.7-2.2-1.4-3.3-2.1
	C174.4,70.9,170.6,70.1,166.9,69.2 M154.2,66.4c1.3,0.7,2.6,1.4,3.8,2.2c3.4,0.7,6.7,1.5,10.1,2.3c-1.2-0.7-2.4-1.4-3.6-2.1
	C161.1,67.9,157.6,67.2,154.2,66.4 M141.2,63.6c1.4,0.7,2.8,1.5,4.2,2.2c3.4,0.7,6.8,1.4,10.2,2.2c-1.3-0.7-2.6-1.5-3.9-2.2
	C148.2,65.1,144.7,64.4,141.2,63.6 M128.2,61c1.6,0.7,3.1,1.5,4.6,2.3c3.3,0.7,6.6,1.3,9.9,2.1c-1.4-0.8-2.9-1.5-4.3-2.2
	C135,62.4,131.6,61.7,128.2,61 M115.4,58.5c1.7,0.8,3.4,1.5,5.1,2.3c3.1,0.6,6.2,1.2,9.4,1.8c-1.6-0.8-3.2-1.5-4.8-2.3
	C121.9,59.7,118.6,59.1,115.4,58.5 M101.8,56c1.9,0.8,3.8,1.6,5.7,2.4c3.2,0.6,6.4,1.2,9.7,1.8c-1.8-0.8-3.5-1.6-5.3-2.4
	C108.5,57.2,105.1,56.6,101.8,56 M88.6,53.7c2.2,0.8,4.3,1.6,6.5,2.5c2.9,0.5,5.8,1,8.7,1.5c-2-0.8-4-1.6-6-2.4
	C94.7,54.8,91.6,54.2,88.6,53.7 M74.8,51.6c2.4,0.8,4.9,1.6,7.3,2.5c2.7,0.4,5.5,0.9,8.2,1.3c-2.2-0.8-4.5-1.7-6.8-2.5
	C80.7,52.5,77.7,52,74.8,51.6 M61.2,49.6c2.8,0.8,5.5,1.7,8.3,2.5c2.9,0.4,5.8,0.9,8.8,1.3c-2.5-0.9-5-1.7-7.5-2.5
	C67.5,50.5,64.4,50.1,61.2,49.6 M46.5,47.8c3.2,0.8,6.4,1.7,9.5,2.6c2.3,0.3,4.6,0.6,6.9,0.9c-3-0.9-6-1.8-9-2.6
	C51.4,48.4,49,48.1,46.5,47.8 M31.2,46.1c3.7,0.8,7.4,1.7,11,2.6c1.4,0.2,2.9,0.3,4.3,0.5c-3.6-0.9-7.3-1.8-11.1-2.6
	C34.1,46.4,32.7,46.2,31.2,46.1 M15.3,44.7c4.4,0.8,8.7,1.6,13,2.5c2.5,0.2,4.9,0.5,7.4,0.7c-3.9-0.9-7.9-1.8-12-2.6
	C20.9,45.1,18.1,44.9,15.3,44.7 M0,43.6V45v-0.1C0.5,45,1,45,1.5,45.1c1.4,0.1,2.8,0.2,4.3,0.3c-1.9-0.3-3.9-0.6-5.8-0.9V43.6
	c5.1,0.7,10.1,1.5,15.2,2.5c0.8,0.1,1.5,0.1,2.3,0.2c-5.1-0.9-10.2-1.8-15.4-2.5C1.4,43.7,0.7,43.7,0,43.6"/>
<path class="st0" d="M743.4,192.8c-0.9,0.5-1.7,0.9-2.6,1.4c1.4,0,2.8,0,4.2,0c0.8-0.5,1.6-0.9,2.4-1.4
	C746.1,192.8,744.8,192.8,743.4,192.8 M738.3,192.8c-0.9,0.4-1.8,0.9-2.8,1.3c1.3,0,2.7,0,4,0.1c0.9-0.5,1.7-0.9,2.6-1.3
	C740.8,192.8,739.5,192.8,738.3,192.8 M733.2,192.7c-1,0.4-2,0.9-3,1.3c1.3,0,2.6,0.1,4,0.1c0.9-0.4,1.8-0.9,2.8-1.3
	C735.7,192.7,734.4,192.7,733.2,192.7 M728,192.6c-1.1,0.4-2.1,0.8-3.2,1.3c1.2,0,2.4,0.1,3.6,0.1c1-0.4,2-0.9,3-1.3
	C730.3,192.6,729.1,192.6,728,192.6 M722.6,192.4c-1.1,0.4-2.3,0.8-3.5,1.2c1.3,0,2.6,0.1,3.8,0.1c1.1-0.4,2.1-0.8,3.2-1.3
	C725,192.5,723.8,192.4,722.6,192.4 M717.4,192.2c-1.3,0.4-2.5,0.8-3.8,1.2c1.3,0.1,2.5,0.1,3.8,0.2c1.2-0.4,2.3-0.8,3.5-1.2
	C719.7,192.3,718.5,192.3,717.4,192.2 M712.1,192c-1.4,0.4-2.7,0.8-4.1,1.1c0.8,0,1.7,0.1,2.5,0.1c0.4,0,0.8,0,1.3,0.1
	c1.3-0.4,2.5-0.8,3.8-1.2C714.4,192.1,713.3,192,712.1,192 M706.9,191.8c-1.5,0.4-3,0.7-4.5,1.1c1.2,0.1,2.5,0.1,3.7,0.2
	c1.4-0.4,2.8-0.8,4.1-1.1C709.1,191.9,708,191.8,706.9,191.8 M701.5,191.5c-1.6,0.3-3.2,0.7-4.8,1c1,0.1,1.9,0.1,2.9,0.2
	c1.5-0.4,3-0.7,4.5-1.1C703.2,191.6,702.4,191.5,701.5,191.5 M696,191.3c-1.6,0.3-3.3,0.6-4.9,0.8c0.5,0,1,0.1,1.5,0.1
	c1.5-0.3,2.9-0.6,4.4-0.9C696.6,191.3,696.3,191.3,696,191.3 M690.4,191c-1.7,0.2-3.4,0.5-5,0.7c0.3,0,0.6,0,0.9,0.1
	c1.5-0.2,2.9-0.5,4.4-0.7C690.5,191,690.5,191,690.4,191 M674.6,190.7c-0.3,0-0.5,0-0.8,0.1c0,0,0.1,0,0.1,0
	C674.2,190.8,674.4,190.8,674.6,190.7 M684.8,190.7c-1.7,0.2-3.4,0.4-5.2,0.6c0.3,0,0.7,0.1,1,0.1c1.5-0.2,3-0.4,4.5-0.6
	C685,190.7,684.9,190.7,684.8,190.7 M1000,151.8c-77.8,27.4-160.7,41-249.1,41c-0.8,0-1.5,0-2.3,0c-0.8,0.5-1.6,0.9-2.4,1.4
	c2,0,4.1,0,6.1,0c47,0,92.8-3.8,136.5-11.4c38-6.6,75.3-16.3,111.2-28.7V151.8L1000,151.8z M192.6,80.6c0.9,0.6,1.8,1.3,2.8,1.9
	c29.5,7.5,61.2,15.9,95.9,25.1c62,16.5,132.2,35.1,217.7,55.7c25.8,6.2,51.4,11.5,76.6,15.9c17,2.6,33.9,4.8,50.5,6.5
	c1.8,0.1,3.5,0.3,5.3,0.4c-6.1-0.7-12.3-1.5-18.4-2.4c-0.7-0.1-1.5-0.2-2.2-0.3c-17.5-2.4-35.1-5.3-52.9-8.7
	c-19.3-3.7-38.8-7.9-58.5-12.6c-85.5-20.6-155.7-39.3-217.7-55.7C255.7,97,223,88.3,192.6,80.6 M180.2,77.5c1,0.7,2,1.3,3,2
	c3.6,0.9,7.1,1.8,10.8,2.7c-0.9-0.7-1.9-1.3-2.8-1.9C187.5,79.3,183.8,78.4,180.2,77.5 M168.1,74.6c1.1,0.7,2.1,1.3,3.2,2
	c3.3,0.8,6.5,1.6,9.8,2.4c-1-0.7-2-1.3-3-2C174.8,76.2,171.4,75.4,168.1,74.6 M155.7,71.6c1.2,0.7,2.3,1.4,3.5,2.1
	c3.3,0.8,6.6,1.6,9.9,2.4c-1.1-0.7-2.2-1.4-3.3-2C162.5,73.2,159.1,72.4,155.7,71.6 M143.4,68.7c1.3,0.7,2.6,1.4,3.8,2.1
	c3.2,0.7,6.4,1.5,9.6,2.2c-1.2-0.7-2.4-1.4-3.6-2.1C149.9,70.3,146.6,69.5,143.4,68.7 M131.2,66c1.4,0.7,2.8,1.4,4.2,2.2
	c3,0.7,6,1.4,9.1,2.1c-1.3-0.7-2.6-1.4-3.9-2.1C137.4,67.4,134.3,66.7,131.2,66 M118.3,63.2c1.6,0.7,3.1,1.5,4.7,2.2
	c3.1,0.7,6.2,1.3,9.3,2c-1.4-0.7-2.9-1.5-4.3-2.2C124.7,64.6,121.5,63.9,118.3,63.2 M106,60.7c1.8,0.7,3.5,1.5,5.2,2.3
	c2.8,0.6,5.5,1.2,8.3,1.7c-1.6-0.8-3.2-1.5-4.9-2.3C111.7,61.8,108.8,61.2,106,60.7 M93,58.1c2,0.8,4,1.6,5.9,2.4
	c2.6,0.5,5.2,1,7.8,1.6c-1.8-0.8-3.6-1.6-5.5-2.3C98.5,59.2,95.8,58.6,93,58.1 M80.1,55.7c2.3,0.8,4.5,1.6,6.7,2.4
	c2.7,0.5,5.5,1,8.2,1.6c-2-0.8-4-1.6-6.1-2.4C86,56.8,83,56.3,80.1,55.7 M66.2,53.4c2.6,0.8,5.2,1.7,7.7,2.5
	c2.3,0.4,4.5,0.8,6.8,1.2c-2.4-0.9-4.8-1.7-7.2-2.5C71.1,54.2,68.6,53.8,66.2,53.4 M51.8,51.1c3,0.8,6.1,1.7,9.1,2.6
	c1.6,0.2,3.1,0.5,4.7,0.8c-2.9-0.9-5.8-1.8-8.8-2.6C55.1,51.6,53.5,51.4,51.8,51.1 M36.6,49.1c3.6,0.8,7.2,1.7,10.8,2.7
	c2.3,0.3,4.6,0.7,6.9,1c-3.2-0.9-6.4-1.8-9.7-2.6C41.9,49.8,39.3,49.4,36.6,49.1 M22,47.3c4.3,0.8,8.6,1.7,12.8,2.7
	c0.8,0.1,1.6,0.2,2.4,0.3c-4.1-1-8.3-1.9-12.5-2.7C23.9,47.5,22.9,47.4,22,47.3 M6,45.8c5.4,0.8,10.7,1.8,15.9,2.8
	c1.1,0.1,2.3,0.2,3.4,0.4c-4.7-1-9.5-1.9-14.3-2.7C9.3,46.1,7.7,45.9,6,45.8 M0,45.3v1.2v-0.1V46V45.3L0,45.3z"/>
<path class="st0" d="M736.2,191.4c-0.6,0.3-1.3,0.6-1.9,0.8c0.6,0,1.2,0,1.8,0c0.7,0,1.3,0,2,0c0.6-0.3,1.1-0.6,1.7-0.8
	c-0.5,0-0.9,0-1.4,0C737.7,191.4,736.9,191.4,736.2,191.4 M744.9,191.3c-1.2,0-2.5,0-3.7,0c-0.6,0.3-1.1,0.6-1.7,0.8
	c1.3,0,2.6,0,3.8,0C743.8,191.9,744.4,191.6,744.9,191.3 M731.1,191.3c-0.7,0.3-1.4,0.6-2.1,0.8c1.1,0,2.3,0,3.4,0
	c0.6-0.3,1.2-0.6,1.9-0.8C733.3,191.3,732.2,191.3,731.1,191.3 M750.2,191.3c-1.3,0-2.6,0-3.9,0c-0.5,0.3-1,0.5-1.5,0.8
	c1.4,0,2.7,0,4.1,0C749.2,191.8,749.7,191.5,750.2,191.3 M725.8,191.3c-0.8,0.3-1.5,0.6-2.3,0.8c1.2,0,2.4,0,3.7,0
	c0.7-0.3,1.4-0.6,2.1-0.8C728,191.3,726.9,191.3,725.8,191.3 M720.6,191.2c-0.9,0.3-1.7,0.5-2.6,0.8c1.2,0,2.4,0,3.6,0.1
	c0.8-0.3,1.6-0.6,2.3-0.8C722.9,191.2,721.7,191.2,720.6,191.2 M715.5,191.1c-1,0.3-1.9,0.5-2.9,0.8c0.3,0,0.6,0,0.9,0
	c0.9,0,1.8,0,2.6,0.1c0.9-0.3,1.7-0.5,2.6-0.8C717.7,191.1,716.6,191.1,715.5,191.1 M710.3,190.9c-1.1,0.3-2.2,0.5-3.2,0.8
	c1.2,0,2.3,0.1,3.5,0.1c1-0.3,2-0.5,2.9-0.8C712.4,191,711.4,190.9,710.3,190.9 M692.1,190.8c-0.6,0.1-1.2,0.2-1.8,0.3
	c0.1,0,0.2,0,0.3,0C691.1,191,691.6,190.9,692.1,190.8 M705.2,190.7c-1.2,0.3-2.4,0.5-3.7,0.8c0.8,0,1.7,0.1,2.5,0.1
	c1.1-0.3,2.2-0.5,3.3-0.8C706.6,190.8,705.9,190.8,705.2,190.7 M700.2,190.6c-1.4,0.2-2.8,0.5-4.2,0.7c0.3,0,0.6,0,0.9,0
	c1.2-0.2,2.4-0.5,3.6-0.8C700.4,190.6,700.3,190.6,700.2,190.6 M687.5,190.4c-0.9,0.1-1.8,0.2-2.7,0.3c0.1,0,0.3,0,0.4,0
	C685.9,190.7,686.7,190.5,687.5,190.4 M1000,146.9c-77.1,28.4-159.9,43.1-248.6,44.4c-0.5,0.3-0.9,0.5-1.4,0.8
	c47.7-0.7,93.9-5.3,138-13.7c38.4-7.3,75.9-17.7,112-30.9V146.9L1000,146.9z M204,88.9c0.8,0.6,1.7,1.3,2.5,1.9
	c9.1,2.5,18.5,5,28.1,7.6c73,19.9,163.7,44.6,281.1,69.3c26.6,5.6,53,10.3,78.9,14c14,1.6,27.8,3,41.5,4.1
	c-16.7-1.8-33.5-3.9-50.5-6.5c-22.8-3.5-46-7.7-69.6-12.7c-117.3-24.7-208.1-49.5-281-69.3C224.4,94.4,214.1,91.6,204,88.9
	 M192.1,85.7c0.9,0.6,1.8,1.3,2.7,1.9c3.4,0.9,6.9,1.9,10.4,2.8c-0.8-0.6-1.7-1.3-2.5-1.9C199.1,87.5,195.6,86.6,192.1,85.7
	 M180.4,82.5c1,0.7,1.9,1.3,2.9,2c3.2,0.8,6.3,1.7,9.5,2.5c-0.9-0.7-1.8-1.3-2.7-1.9C186.9,84.3,183.6,83.4,180.4,82.5 M168.5,79.4
	c1.1,0.7,2.1,1.4,3.2,2c3.1,0.8,6.3,1.7,9.5,2.5c-1-0.7-2-1.3-3-2C175,81.1,171.8,80.3,168.5,79.4 M156.7,76.3
	c1.2,0.7,2.3,1.4,3.5,2.1c3.1,0.8,6.1,1.6,9.2,2.4c-1.1-0.7-2.2-1.4-3.2-2.1C163,78,159.8,77.2,156.7,76.3 M145,73.4
	c1.3,0.7,2.6,1.4,3.8,2.2c2.9,0.7,5.8,1.5,8.7,2.2c-1.2-0.7-2.4-1.4-3.6-2.1C151,74.9,148,74.1,145,73.4 M132.8,70.4
	c1.4,0.7,2.9,1.5,4.3,2.3c2.9,0.7,5.9,1.5,8.8,2.2c-1.3-0.7-2.6-1.5-3.9-2.2C138.9,71.9,135.8,71.1,132.8,70.4 M121.1,67.5
	c1.6,0.8,3.2,1.6,4.8,2.3c2.6,0.6,5.3,1.3,7.9,1.9c-1.5-0.8-2.9-1.5-4.4-2.3C126.6,68.8,123.8,68.2,121.1,67.5 M108.9,64.7
	c0.5,0.2,1,0.5,1.6,0.7c1.3,0.6,2.6,1.2,3.9,1.8c2.5,0.6,4.9,1.1,7.4,1.7c-1.7-0.8-3.3-1.6-5-2.4C114.1,65.9,111.5,65.3,108.9,64.7
	 M96.6,62c2.1,0.8,4.2,1.7,6.3,2.6c2.5,0.6,5,1.1,7.6,1.7c-1.9-0.8-3.7-1.7-5.6-2.5C102,63.2,99.3,62.6,96.6,62 M83.5,59.2
	c2.5,0.9,4.9,1.8,7.3,2.7c2.1,0.4,4.2,0.9,6.3,1.4c-2.2-0.9-4.5-1.8-6.7-2.7C88.2,60.2,85.8,59.7,83.5,59.2 M70,56.6
	c2.9,1,5.9,1.9,8.8,2.9c1.5,0.3,3.1,0.6,4.6,0.9c-2.7-1-5.5-1.9-8.3-2.9C73.4,57.2,71.7,56.9,70,56.6 M55.6,54
	c3.6,1,7.2,2.1,10.7,3.2c2,0.4,3.9,0.7,5.9,1.1c-3.1-1-6.2-2-9.4-3C60.4,54.8,58,54.4,55.6,54 M41.9,51.7c4.4,1.1,8.8,2.2,13.2,3.4
	c0.6,0.1,1.2,0.2,1.9,0.3c-4.1-1.2-8.2-2.3-12.4-3.3C43.7,52,42.8,51.9,41.9,51.7 M26.9,49.5c5.7,1.2,11.3,2.4,16.9,3.8
	c0.5,0.1,1,0.2,1.6,0.2c-4.9-1.2-9.8-2.4-14.8-3.5C29.4,49.9,28.1,49.7,26.9,49.5 M0,46.4L0,46.4v1.4v-0.9v-0.2V46.4L0,46.4z"/>
<path class="st0" d="M703,190c-0.7,0.1-1.4,0.3-2.1,0.4c0.1,0,0.2,0,0.3,0C701.8,190.3,702.4,190.2,703,190 M712.9,189.5
	c-0.6,0-1.2,0-1.8,0c-1.6,0.3-3.2,0.7-4.8,1c0.7,0,1.5,0,2.2,0C710,190.2,711.4,189.8,712.9,189.5 M719.5,189.4c0,0-0.1,0-0.1,0
	c-1,0-2,0-3,0.1c-1.5,0.4-3.1,0.8-4.7,1.2c1.1,0,2.2,0,3.3,0C716.5,190.2,718,189.8,719.5,189.4 M724.8,189.2
	c-1.1,0-2.1,0.1-3.2,0.1c-1.5,0.4-3,0.9-4.5,1.3c0.4,0,0.8,0,1.3,0c0.7,0,1.4,0,2.1,0C722,190.1,723.4,189.7,724.8,189.2
	 M730.1,189.1c-1.1,0-2.1,0.1-3.2,0.1c-1.5,0.5-2.9,1-4.4,1.4c1.1,0,2.3,0,3.4,0C727.3,190.1,728.7,189.6,730.1,189.1 M735.3,188.9
	c-1.1,0-2.2,0.1-3.3,0.1c-1.4,0.5-2.9,1-4.3,1.5c1.2,0,2.3,0,3.5,0C732.6,190,733.9,189.4,735.3,188.9 M740.4,188.7
	c-1,0-2,0.1-3,0.1c-1.4,0.6-2.8,1.1-4.2,1.7c1.1,0,2.1,0,3.2,0C737.8,189.8,739.1,189.2,740.4,188.7 M745.9,188.4
	c-1.1,0.1-2.3,0.1-3.4,0.2c-1.4,0.6-2.7,1.2-4.1,1.8c1.2,0,2.4,0,3.6-0.1C743.3,189.7,744.6,189,745.9,188.4 M750.8,188.2
	c-0.9,0-1.9,0.1-2.8,0.1c-0.2,0-0.4,0-0.6,0c-1.3,0.6-2.6,1.3-3.9,1.9c1.2,0,2.4-0.1,3.7-0.1C748.3,189.5,749.6,188.8,750.8,188.2
	 M755.9,188c-1.2,0-2.4,0.1-3.7,0.2c-1.2,0.7-2.5,1.3-3.7,2c1.3,0,2.6-0.1,3.9-0.1C753.6,189.3,754.8,188.6,755.9,188 M1000,137.7
	c-72,28.1-152.5,45.9-242.9,50.2c-1.1,0.7-2.3,1.3-3.5,2c46.2-1.8,90.9-7.1,133.4-15.9c38.8-8,76.6-19.2,112.9-33.2V137.7
	L1000,137.7z M214.5,97c0.8,0.6,1.5,1.2,2.3,1.9c77.9,22.5,174.4,49.6,305.7,73.3c31.4,5.7,62.4,10,92.6,13.1
	c18.7,1.5,37.1,2.5,55.2,3c1.4,0,2.9-0.1,4.3-0.1c-11-0.4-22.1-1.1-33.3-1.9c-1.8-0.1-3.5-0.3-5.3-0.4c-13.6-1.1-27.4-2.4-41.5-4.1
	c-23.4-2.8-47.4-6.3-71.9-10.7C390,147,292.9,119.6,214.5,97 M202.9,93.6c0.8,0.6,1.7,1.3,2.5,1.9c3.3,1,6.7,1.9,10,2.9
	c-0.8-0.6-1.5-1.2-2.3-1.9c-2.9-0.8-5.8-1.7-8.7-2.5C203.9,93.9,203.4,93.8,202.9,93.6 M191.5,90.3c0.9,0.7,1.8,1.3,2.7,2
	c3.1,0.9,6.2,1.8,9.3,2.7c-0.8-0.6-1.7-1.3-2.5-1.9C197.8,92.2,194.7,91.2,191.5,90.3 M180.1,87c1,0.7,2,1.4,2.9,2
	c3,0.9,6.1,1.8,9.2,2.7c-0.9-0.7-1.8-1.3-2.7-2C186.3,88.8,183.2,87.9,180.1,87 M168.6,83.8c1.1,0.7,2.2,1.4,3.2,2.1
	c3,0.8,5.9,1.7,8.9,2.5c-1-0.7-2-1.4-3-2C174.7,85.5,171.6,84.6,168.6,83.8 M157.3,80.6c1.2,0.7,2.4,1.5,3.6,2.2
	c2.8,0.8,5.6,1.6,8.4,2.4c-1.1-0.7-2.2-1.4-3.3-2.1C163.1,82.2,160.2,81.4,157.3,80.6 M145.6,77.3c1.4,0.8,2.7,1.5,4,2.3
	c2.8,0.8,5.6,1.6,8.4,2.4c-1.2-0.7-2.4-1.5-3.7-2.2C151.5,78.9,148.5,78.1,145.6,77.3 M134.3,74.2c1.5,0.8,3,1.6,4.5,2.4
	c2.5,0.7,5.1,1.4,7.6,2.1c-1.4-0.8-2.8-1.6-4.2-2.3C139.6,75.7,136.9,74.9,134.3,74.2 M122.6,71.1c1.7,0.8,3.4,1.7,5.2,2.5
	c2.4,0.6,4.7,1.3,7.1,1.9c-1.6-0.8-3.1-1.6-4.7-2.5C127.6,72.4,125.1,71.7,122.6,71.1 M110.8,68c2,0.9,4,1.8,6,2.7
	c2.3,0.6,4.7,1.2,7,1.8c-1.8-0.9-3.5-1.7-5.3-2.6C115.9,69.3,113.3,68.7,110.8,68 M98.3,64.9c2.4,1,4.7,1.9,7,2.9
	c2,0.5,3.9,1,5.9,1.5c-2.1-0.9-4.2-1.9-6.4-2.8C102.7,66,100.5,65.5,98.3,64.9 M85.3,61.8c2.8,1,5.7,2.1,8.5,3.2
	c1.4,0.3,2.9,0.7,4.3,1c-2.6-1-5.2-2.1-7.8-3C88.6,62.6,87,62.2,85.3,61.8 M71.5,58.8c3.5,1.1,7,2.3,10.5,3.5c1.7,0.4,3.3,0.8,5,1.1
	c-3-1.1-6-2.2-9-3.2C75.8,59.7,73.6,59.2,71.5,58.8 M58.3,56c3.6,1,7.1,2.1,10.7,3.1c0.8,0.2,1.6,0.5,2.3,0.7
	c0.3,0.1,0.6,0.1,0.9,0.2c-3.9-1.3-7.9-2.5-11.9-3.7C59.7,56.3,59,56.2,58.3,56 M43.9,53.3c4.6,1.1,9.1,2.3,13.6,3.5
	c-3.8-1.1-7.7-2.1-11.5-3.1C45.3,53.6,44.6,53.4,43.9,53.3 M0,46.9v0.9v0.3V47V46.9L0,46.9z"/>
<path class="st0" d="M716.7,188.5c-0.4,0-0.8,0-1.2,0c-1.5,0.3-2.9,0.6-4.4,0.9c0.6,0,1.2,0,1.8,0
	C714.2,189.2,715.4,188.8,716.7,188.5 M722.9,188.4c-0.9,0-1.8,0-2.7,0.1c-1.3,0.3-2.5,0.6-3.8,1c1,0,2,0,3-0.1c0,0,0.1,0,0.1,0
	C720.6,189,721.7,188.7,722.9,188.4 M727.8,188.3c-0.9,0-1.9,0.1-2.8,0.1c-1.1,0.3-2.2,0.6-3.3,1c1.1,0,2.1-0.1,3.2-0.1
	C725.8,188.9,726.8,188.6,727.8,188.3 M732.8,188.1c-1,0-1.9,0.1-2.9,0.1c-1,0.3-1.9,0.6-2.9,1c1.1,0,2.1-0.1,3.2-0.1
	C731,188.7,731.9,188.4,732.8,188.1 M737.7,187.9c-1,0-2,0.1-3,0.1c-0.9,0.3-1.7,0.6-2.6,1c1.1,0,2.2-0.1,3.3-0.1
	C736.1,188.6,736.9,188.2,737.7,187.9 M742.5,187.7c-0.9,0-1.8,0.1-2.8,0.1c-0.8,0.3-1.6,0.6-2.3,0.9c1,0,2-0.1,3-0.1
	C741.1,188.3,741.8,188,742.5,187.7 M747.8,187.5c-1.1,0-2.2,0.1-3.3,0.2c-0.7,0.3-1.4,0.6-2.1,0.9c1.1,0,2.3-0.1,3.4-0.2
	C746.6,188.1,747.2,187.8,747.8,187.5 M752.6,187.2c-1.1,0.1-2.2,0.1-3.3,0.2c-0.6,0.3-1.3,0.6-1.9,0.9c0.2,0,0.4,0,0.6,0
	c1,0,1.9-0.1,2.9-0.2C751.4,187.8,752,187.5,752.6,187.2 M757.7,186.9c-1.2,0.1-2.4,0.1-3.6,0.2c-0.6,0.3-1.1,0.6-1.7,0.9
	c1.3-0.1,2.5-0.1,3.8-0.2C756.7,187.5,757.2,187.2,757.7,186.9 M1000,133.1c-74.2,30.5-154.3,48.3-241,53.7c-0.5,0.3-1,0.6-1.6,0.9
	c44.6-2.8,87.8-8.8,128.7-18c39.3-8.8,77.4-20.8,113.9-35.6V133.1L1000,133.1z M224.1,104.9c0.7,0.6,1.4,1.2,2.1,1.8
	c77.3,23.7,172.5,50.2,302.9,69.7c35.3,5.3,70,8.9,103.7,11.1c10.3,0.4,20.5,0.7,30.7,0.9c2.3,0,4.5-0.1,6.7-0.1
	c-18.1-0.5-36.6-1.5-55.2-3c-28-2.2-56.5-5.5-85.7-9.9C397.6,155.7,301.8,128.8,224.1,104.9 M212.8,101.4c0.8,0.6,1.5,1.3,2.3,1.9
	c3.2,1,6.5,2,9.7,3c-0.7-0.6-1.4-1.2-2.1-1.8C219.4,103.5,216.1,102.5,212.8,101.4 M201.8,98c0.8,0.7,1.7,1.3,2.5,2
	c3,0.9,6,1.9,9.1,2.8c-0.8-0.6-1.6-1.3-2.3-1.9C207.9,99.9,204.9,99,201.8,98 M190.7,94.5c0.9,0.7,1.8,1.3,2.8,2
	c2.9,0.9,5.9,1.8,8.9,2.8c-0.9-0.7-1.7-1.3-2.6-2C196.7,96.4,193.7,95.5,190.7,94.5 M179.6,91.1c1,0.7,2,1.4,3.1,2.1
	c1.7,0.5,3.4,1.1,5.1,1.6c1.2,0.4,2.3,0.7,3.5,1.1c-0.9-0.7-1.9-1.4-2.8-2c-0.1,0-0.2-0.1-0.4-0.1C185.2,92.8,182.4,92,179.6,91.1
	 M168.7,87.7c1.1,0.7,2.3,1.5,3.4,2.2c2.7,0.8,5.4,1.7,8.1,2.5c-1-0.7-2.1-1.4-3.1-2.1C174.3,89.4,171.5,88.6,168.7,87.7
	 M157.4,84.2c1.3,0.8,2.6,1.6,3.9,2.4c2.7,0.8,5.3,1.6,8,2.5c-1.2-0.8-2.3-1.5-3.5-2.3C163,85.9,160.2,85.1,157.4,84.2 M146.5,80.9
	c1.5,0.8,2.9,1.7,4.4,2.5c2.4,0.7,4.8,1.5,7.3,2.2c-1.3-0.8-2.6-1.6-4-2.4C151.6,82.4,149,81.6,146.5,80.9 M135.2,77.5
	c1.7,0.9,3.4,1.8,5,2.7c2.2,0.7,4.5,1.3,6.7,2c-1.5-0.9-3-1.7-4.6-2.5C140,78.9,137.6,78.2,135.2,77.5 M123.9,74.2
	c2,1,3.9,1.9,5.9,2.9c2.1,0.6,4.3,1.3,6.4,1.9c-1.7-0.9-3.5-1.8-5.2-2.7C128.7,75.5,126.3,74.8,123.9,74.2 M112,70.7
	c2.4,1,4.7,2.1,7.1,3.2c1.8,0.5,3.5,1,5.3,1.5c-2.1-1-4.2-2-6.3-3C116.1,71.9,114.1,71.3,112,70.7 M99.7,67.3
	c2.9,1.2,5.8,2.4,8.7,3.6c1.2,0.3,2.4,0.7,3.7,1c-2.6-1.1-5.2-2.3-7.8-3.4C102.7,68.1,101.2,67.7,99.7,67.3 M86.6,63.9
	c3.7,1.3,7.4,2.7,11.1,4.1c1.1,0.3,2.3,0.6,3.4,0.9c-3.1-1.3-6.2-2.5-9.3-3.7C90.1,64.8,88.3,64.3,86.6,63.9 M74,60.7
	c2.4,0.8,4.8,1.6,7.2,2.4c-2.1-0.7-4.2-1.4-6.4-2.1C74.6,60.9,74.3,60.8,74,60.7 M0,47v1.1v0.2c12.2,1.5,24.1,3.3,35.9,5.5
	c-11.8-2.4-23.7-4.4-35.9-6V47L0,47z"/>
<path class="st0" d="M720,187.7c-0.3,0-0.5,0-0.8,0c-1.1,0.2-2.2,0.5-3.3,0.7c0.4,0,0.9,0,1.3,0C718.1,188.2,719.1,187.9,720,187.7
	 M726.3,187.4c-0.8,0-1.6,0.1-2.5,0.1c-0.9,0.2-1.8,0.5-2.8,0.7c0.4,0,0.8,0,1.2,0c0.5,0,1.1,0,1.6-0.1
	C724.7,187.9,725.5,187.6,726.3,187.4 M731.2,187.2c-0.9,0-1.8,0.1-2.6,0.1c-0.8,0.2-1.6,0.5-2.3,0.7c1,0,2-0.1,2.9-0.2
	C729.8,187.6,730.5,187.4,731.2,187.2 M736,186.9c-0.9,0-1.8,0.1-2.7,0.2c-0.7,0.2-1.3,0.4-2,0.7c1-0.1,2-0.1,3-0.2
	C734.9,187.3,735.4,187.1,736,186.9 M740.8,186.6c-0.9,0.1-1.9,0.1-2.8,0.2c-0.6,0.2-1.1,0.4-1.7,0.6c1-0.1,2-0.1,3-0.2
	C739.8,187,740.3,186.8,740.8,186.6 M745.6,186.3c-0.9,0-1.7,0.1-2.6,0.2c-0.5,0.2-1,0.4-1.4,0.6c0.9-0.1,1.8-0.1,2.7-0.2
	C744.8,186.7,745.2,186.5,745.6,186.3 M750.9,186c-1,0.1-2.1,0.1-3.1,0.2c-0.4,0.2-0.8,0.4-1.2,0.6c1.1-0.1,2.2-0.2,3.3-0.2
	C750.1,186.3,750.5,186.2,750.9,186 M755.6,185.6c-1.1,0.1-2.1,0.2-3.2,0.2c-0.4,0.2-0.7,0.4-1.1,0.5c1.1-0.1,2.2-0.2,3.3-0.3
	C754.9,186,755.2,185.8,755.6,185.6 M760.6,185.2c-1.2,0.1-2.3,0.2-3.5,0.3c-0.3,0.2-0.6,0.3-0.9,0.5c1.2-0.1,2.4-0.2,3.6-0.3
	C760.1,185.5,760.3,185.4,760.6,185.2 M862.3,170.7c-32.3,6.7-65.8,11.5-100.4,14.4c-0.3,0.2-0.5,0.3-0.8,0.5
	C795.9,182.5,829.8,177.6,862.3,170.7 M233.2,112.8c0.7,0.6,1.3,1.2,2,1.8C313.2,140,405,165.5,536,180.8
	c33.5,3.9,66.3,6.5,98.2,7.7c3.8,0,7.6,0.1,11.3,0.1c6.1,0,12.1-0.1,18.1-0.1c-10.1-0.2-20.3-0.4-30.7-0.9
	c-31.4-1.3-63.7-3.9-96.8-7.8C403.9,164.2,311.6,138.4,233.2,112.8 M222.2,109.2c0.7,0.6,1.5,1.3,2.2,1.9c3.1,1,6.3,2.1,9.5,3.1
	c-0.7-0.6-1.3-1.2-2-1.8C228.6,111.3,225.4,110.2,222.2,109.2 M211.4,105.6c0.8,0.7,1.6,1.3,2.4,2c2.9,1,5.9,2,8.8,2.9
	c-0.7-0.6-1.5-1.3-2.2-1.9C217.4,107.6,214.4,106.6,211.4,105.6 M200.6,101.9c0.9,0.7,1.8,1.4,2.7,2c2.9,1,5.7,1.9,8.6,2.9
	c-0.8-0.7-1.6-1.3-2.4-2C206.5,103.9,203.5,102.9,200.6,101.9 M189.8,98.3c1,0.7,2,1.4,3,2.2c2.7,0.9,5.5,1.9,8.3,2.8
	c-0.9-0.7-1.8-1.4-2.7-2.1C195.5,100.2,192.7,99.3,189.8,98.3 M179.2,94.7c1.1,0.8,2.2,1.5,3.3,2.3c2.6,0.9,5.2,1.8,7.8,2.7
	c-1-0.7-2-1.5-3-2.2c-2.4-0.8-4.8-1.6-7.2-2.5C179.8,94.9,179.5,94.8,179.2,94.7 M168.4,91c1.3,0.8,2.5,1.6,3.8,2.4
	c2.5,0.9,5,1.7,7.6,2.6c-1.1-0.8-2.3-1.5-3.4-2.3C173.7,92.8,171,91.9,168.4,91 M157.7,87.4c1.4,0.9,2.9,1.7,4.3,2.6
	c2.3,0.8,4.6,1.6,6.9,2.3c-1.3-0.8-2.6-1.7-3.9-2.5C162.6,89.1,160.2,88.2,157.7,87.4 M146.9,83.8c1.7,0.9,3.4,1.9,5,2.8
	c2.1,0.7,4.2,1.4,6.2,2.1c-1.5-0.9-3-1.8-4.5-2.7C151.4,85.3,149.1,84.5,146.9,83.8 M136,80.2c2,1,4,2.1,6,3.1
	c1.9,0.6,3.8,1.3,5.7,1.9c-1.7-1-3.5-1.9-5.2-2.9C140.3,81.6,138.2,80.9,136,80.2 M124.6,76.5c2.4,1.1,4.9,2.3,7.3,3.5
	c1.5,0.5,3,1,4.5,1.5c-2.1-1.1-4.2-2.2-6.3-3.2C128.2,77.6,126.4,77.1,124.6,76.5 M112.8,72.8c3.1,1.3,6.1,2.7,9.2,4
	c0.9,0.3,1.8,0.6,2.7,0.9c-2.7-1.2-5.3-2.5-8-3.7C115.4,73.6,114.1,73.2,112.8,72.8 M100.3,69c4.1,1.6,8.1,3.2,12.1,4.8
	c0.5,0.2,1,0.3,1.5,0.5c-3.3-1.4-6.5-2.8-9.8-4.2C102.8,69.7,101.5,69.3,100.3,69 M0,46.7v0.2V47v0.8c12.2,1.6,24.2,3.7,35.9,6
	c8.3,1.7,16.5,3.5,24.7,5.5C41.1,54.2,21,50,0,47.1V46.7L0,46.7z"/>
<path class="st0" d="M725,186.4c-1.4,0.3-2.9,0.7-4.3,1c0.2,0,0.5,0,0.7,0C722.6,187,723.8,186.7,725,186.4 M732.4,185.6
	c-0.7,0.1-1.5,0.1-2.2,0.2c-1.5,0.4-3,0.8-4.5,1.2c0.8-0.1,1.7-0.1,2.5-0.2C729.6,186.5,731,186,732.4,185.6 M737.5,185.1
	c-0.8,0.1-1.6,0.2-2.4,0.2c-1.5,0.4-2.9,0.9-4.4,1.3c0.9-0.1,1.8-0.1,2.7-0.2C734.8,186,736.1,185.6,737.5,185.1 M742.4,184.6
	c-0.8,0.1-1.6,0.2-2.5,0.3c-1.4,0.5-2.8,0.9-4.3,1.4c0.9-0.1,1.8-0.2,2.7-0.2C739.8,185.5,741.1,185.1,742.4,184.6 M747.3,184
	c-0.8,0.1-1.7,0.2-2.5,0.3c-1.4,0.5-2.8,1-4.1,1.5c0.9-0.1,1.9-0.2,2.8-0.2C744.7,185.1,746,184.6,747.3,184 M752,183.4
	c-0.7,0.1-1.4,0.2-2.2,0.3c-1.4,0.6-2.7,1.1-4.1,1.7c0.8-0.1,1.6-0.2,2.5-0.2C749.5,184.6,750.8,184,752,183.4 M757.4,182.8
	c-0.9,0.1-1.9,0.2-2.8,0.4c-1.3,0.6-2.6,1.2-3.9,1.8c1-0.1,2-0.2,3-0.3C754.9,184,756.1,183.4,757.4,182.8 M761.9,182.2
	c-1,0.1-1.9,0.3-2.9,0.4c-1.3,0.6-2.5,1.3-3.8,1.9c1-0.1,2.1-0.2,3.1-0.3C759.5,183.5,760.7,182.8,761.9,182.2 M767,181.5
	c-1.1,0.2-2.2,0.3-3.3,0.5c-1.2,0.7-2.5,1.3-3.7,2c1.1-0.1,2.3-0.3,3.4-0.4C764.6,182.9,765.8,182.2,767,181.5 M241.8,120.6
	c0.6,0.6,1.3,1.2,1.9,1.8c76.7,26.5,168.2,51.7,299,62.7c36.5,3.1,72,4.6,106.3,4.6c0.5,0,1.1,0,1.7,0c1.8,0,3.7,0,5.5,0
	c0.4,0,0.7,0,1.1,0c12.8-0.4,25.4-1,37.9-1.8c4.2-0.4,8.4-0.8,12.6-1.2c-10.9,0.6-21.9,1.1-33.1,1.4c-1.4,0-2.9,0.1-4.3,0.1
	c-2.2,0-4.5,0.1-6.7,0.1c-6,0.1-12,0.1-18.1,0.1c-3.8,0-7.5,0-11.3-0.1c-29.4-0.3-59.9-1.7-91.3-4.4
	C410.8,172.9,319,147.4,241.8,120.6 M1000,117.7c-67.3,30.6-143.1,52.5-229,63.2c-0.9,0.1-1.8,0.2-2.6,0.4c-1.2,0.7-2.4,1.4-3.6,2.1
	c85.7-9.7,163.8-30.6,235.2-62.9V117.7L1000,117.7z M231,116.9c0.7,0.6,1.4,1.2,2.1,1.9c3,1.1,6.1,2.1,9.2,3.2
	c-0.6-0.6-1.3-1.2-1.9-1.8C237.3,119,234.1,117.9,231,116.9 M220.5,113.1c0.8,0.7,1.5,1.3,2.3,2c2.9,1,5.7,2,8.6,3.1
	c-0.7-0.6-1.4-1.3-2.1-1.9C226.3,115.2,223.4,114.1,220.5,113.1 M209.9,109.3c0.9,0.7,1.7,1.4,2.6,2.1c2.8,1,5.6,2,8.4,3
	c-0.8-0.7-1.6-1.3-2.3-2C215.6,111.3,212.8,110.3,209.9,109.3 M199.5,105.4c1,0.7,1.9,1.5,2.9,2.2c2.6,1,5.3,2,8,2.9
	c-0.9-0.7-1.7-1.4-2.6-2.1C204.9,107.4,202.2,106.4,199.5,105.4 M189.1,101.6c1.1,0.8,2.2,1.6,3.3,2.3c2.5,0.9,5,1.8,7.5,2.8
	c-1-0.7-2-1.5-2.9-2.2C194.3,103.5,191.7,102.6,189.1,101.6 M178.6,97.7c1.3,0.8,2.5,1.7,3.8,2.5c2.4,0.9,4.7,1.8,7.1,2.6
	c-1.1-0.8-2.2-1.6-3.3-2.4C183.7,99.6,181.1,98.6,178.6,97.7 M168.3,93.9c1.5,0.9,2.9,1.8,4.4,2.8c1.4,0.5,2.9,1.1,4.3,1.6
	c0.7,0.3,1.4,0.5,2.1,0.8c-1.3-0.9-2.6-1.7-3.9-2.6C172.9,95.6,170.6,94.7,168.3,93.9 M157.8,90c1.7,1,3.5,2,5.2,3.1
	c1.9,0.7,3.8,1.4,5.7,2.1c-1.5-0.9-3-1.9-4.6-2.8C162,91.5,159.9,90.7,157.8,90 M147.3,86.1c2.1,1.1,4.2,2.3,6.3,3.4
	c1.6,0.6,3.3,1.2,4.9,1.8c-1.8-1-3.6-2.1-5.4-3.1C151.2,87.5,149.2,86.8,147.3,86.1 M136.3,82.2c2.6,1.3,5.2,2.6,7.8,4
	c1.2,0.4,2.3,0.8,3.5,1.3c-2.2-1.2-4.4-2.4-6.7-3.5C139.4,83.3,137.9,82.7,136.3,82.2 M125,78.2c3.4,1.6,6.9,3.1,10.3,4.8
	c0.4,0.1,0.8,0.3,1.2,0.4c-2.9-1.4-5.7-2.8-8.6-4.2C126.9,78.8,126,78.5,125,78.2 M113.1,74c2.6,1.1,5.1,2.1,7.7,3.2
	c-2-0.9-3.9-1.7-5.9-2.6C114.2,74.4,113.6,74.2,113.1,74 M0,46v0.5v0.3v0.4c21,2.9,41.1,7.1,60.6,12.2c8.8,2.3,17.6,4.8,26.3,7.5
	C59.4,57.8,31,50.6,0,46.2V46L0,46z"/>
<path class="st0" d="M736.1,184.6c-0.6,0.1-1.2,0.2-1.9,0.2c-1.3,0.4-2.7,0.7-4,1.1c0.7-0.1,1.5-0.1,2.2-0.2
	C733.6,185.3,734.9,184.9,736.1,184.6 M740.8,184c-0.6,0.1-1.2,0.1-1.9,0.2c-1.3,0.4-2.5,0.8-3.8,1.1c0.8-0.1,1.6-0.2,2.4-0.2
	C738.6,184.7,739.7,184.4,740.8,184 M745.2,183.5c-0.7,0.1-1.4,0.1-2,0.2c-1.1,0.4-2.1,0.7-3.2,1.1c0.8-0.1,1.6-0.2,2.5-0.3
	C743.4,184.2,744.3,183.9,745.2,183.5 M749.7,183c-0.7,0.1-1.5,0.2-2.2,0.3c-0.9,0.3-1.8,0.7-2.7,1c0.8-0.1,1.7-0.2,2.5-0.3
	C748.1,183.7,748.9,183.4,749.7,183 M754.1,182.5c-0.6,0.1-1.2,0.1-1.9,0.2c-0.8,0.3-1.6,0.7-2.4,1c0.7-0.1,1.4-0.2,2.2-0.3
	C752.7,183.1,753.4,182.8,754.1,182.5 M759.2,181.9c-0.9,0.1-1.7,0.2-2.6,0.3c-0.7,0.3-1.4,0.6-2.1,0.9c0.9-0.1,1.9-0.2,2.8-0.4
	C758,182.5,758.6,182.2,759.2,181.9 M763.6,181.3c-0.9,0.1-1.8,0.2-2.7,0.3c-0.6,0.3-1.2,0.6-1.8,0.9c1-0.1,1.9-0.3,2.9-0.4
	C762.5,181.9,763,181.6,763.6,181.3 M768.4,180.6c-1,0.1-2.1,0.3-3.1,0.4c-0.5,0.3-1.1,0.6-1.6,0.9c1.1-0.1,2.2-0.3,3.3-0.5
	C767.5,181.2,767.9,180.9,768.4,180.6 M250,128.4c0.6,0.6,1.2,1.2,1.9,1.8c75.7,27.7,166.8,52.7,297.6,59.3
	c23.2,1.2,46,1.8,68.3,1.8c13.1,0,26.1-0.2,38.9-0.6c1.8-0.1,3.6-0.1,5.4-0.2c0.6,0,1.3,0,1.9-0.1c10.5-0.7,20.9-1.5,31.1-2.4
	c-12.5,0.8-25.1,1.4-37.9,1.8c-0.3,0-0.6,0-0.9,0c-1.6,0-3.2,0.1-4.8,0.1c-10.4,0.3-20.9,0.4-31.6,0.4c-22.9,0-46.5-0.6-70.5-1.8
	C417.6,181.7,326.2,156.3,250,128.4 M239.5,124.4c0.7,0.6,1.4,1.3,2,1.9c3,1.1,5.9,2.2,8.9,3.3c-0.6-0.6-1.2-1.2-1.9-1.8
	C245.5,126.7,242.5,125.6,239.5,124.4 M229.1,120.5c0.8,0.7,1.5,1.3,2.3,2c2.8,1.1,5.6,2.1,8.4,3.2c-0.7-0.6-1.4-1.3-2.1-1.9
	C234.8,122.7,232,121.6,229.1,120.5 M218.8,116.5c0.8,0.7,1.7,1.4,2.5,2.1c2.7,1,5.4,2.1,8.1,3.1c-0.8-0.7-1.5-1.3-2.3-2
	C224.3,118.6,221.6,117.6,218.8,116.5 M1000,112.7c-69.8,33.7-146.1,56-230.2,67.7c-0.5,0.3-1,0.6-1.5,0.9c0.9-0.1,1.8-0.2,2.6-0.4
	c38.9-5.5,76.4-13.4,111.8-23.4c41.3-11.6,80.2-26.2,117.2-43.9V112.7L1000,112.7z M208.6,112.5c1,0.7,1.9,1.5,2.9,2.3
	c2.5,1,5.1,2,7.7,3c-0.9-0.7-1.7-1.4-2.6-2.1C213.9,114.5,211.2,113.5,208.6,112.5 M198.5,108.4c1.1,0.8,2.2,1.6,3.3,2.4
	c2.4,0.9,4.8,1.9,7.2,2.8c-1-0.8-2-1.5-2.9-2.3C203.5,110.4,201,109.4,198.5,108.4 M188.4,104.3c1.3,0.9,2.6,1.8,3.8,2.7
	c2.2,0.9,4.4,1.8,6.7,2.7c-1.1-0.8-2.2-1.7-3.4-2.5C193.1,106.2,190.7,105.3,188.4,104.3 M178.3,100.2c1.5,1,3,2,4.5,3
	c2,0.8,3.9,1.6,5.9,2.4c-1.3-0.9-2.6-1.8-3.9-2.7C182.6,102,180.4,101.1,178.3,100.2 M168.1,96.1c1.8,1.1,3.7,2.2,5.5,3.3
	c1.4,0.5,2.7,1.1,4.1,1.7c0.3,0.1,0.7,0.3,1,0.4c-1.6-1-3.1-2-4.7-3C172,97.7,170,96.9,168.1,96.1 M157.9,92
	c2.3,1.3,4.6,2.6,6.8,3.9c1.3,0.5,2.6,1.1,3.9,1.6c-1.9-1.1-3.8-2.3-5.7-3.4C161.3,93.3,159.6,92.7,157.9,92 M147.3,87.7
	c3,1.5,6,3.1,8.9,4.7c0.7,0.3,1.3,0.5,2,0.8c-2.4-1.4-4.8-2.7-7.3-4C149.8,88.7,148.5,88.2,147.3,87.7 M136.4,83.4
	c2.1,1,4.1,2,6.2,3c-1.6-0.8-3.3-1.7-4.9-2.5C137.3,83.8,136.8,83.6,136.4,83.4 M0,44.9V45v0.3V46v0.3c31,4.4,59.4,11.6,86.9,20.5
	c9.8,3.2,19.6,6.6,29.3,10.2C97,69.3,77.7,62.5,57.5,56.8c-4.5-1.2-9-2.4-13.6-3.5c0,0,0,0-0.1,0c-5.6-1.3-11.2-2.6-16.9-3.8
	c-1.7-0.3-3.3-0.7-5-1c-5.2-1-10.5-1.9-15.9-2.8c-1.5-0.2-3-0.5-4.5-0.7C1,45,0.5,45,0,44.9"/>
<path class="st0" d="M740.1,183.4c-0.4,0.1-0.9,0.1-1.3,0.2c-1.5,0.4-3,0.8-4.5,1.2c0.6-0.1,1.2-0.2,1.9-0.2
	C737.4,184.2,738.7,183.8,740.1,183.4 M745.1,182.6c-0.5,0.1-1.1,0.2-1.6,0.3c-1.5,0.4-2.9,0.9-4.4,1.3c0.7-0.1,1.4-0.2,2.1-0.3
	C742.5,183.5,743.8,183,745.1,182.6 M749.9,181.8c-0.6,0.1-1.2,0.2-1.8,0.3c-1.4,0.5-2.8,1-4.3,1.5c0.7-0.1,1.4-0.2,2.2-0.3
	C747.4,182.7,748.7,182.3,749.9,181.8 M754.6,181c-0.6,0.1-1.3,0.2-1.9,0.3c-1.4,0.5-2.8,1-4.1,1.6c0.8-0.1,1.5-0.2,2.3-0.3
	C752.1,182,753.4,181.5,754.6,181 M759.2,180.2c-0.5,0.1-1,0.2-1.5,0.3c-1.4,0.6-2.7,1.1-4.1,1.7c0.6-0.1,1.2-0.2,1.9-0.3
	C756.7,181.3,758,180.7,759.2,180.2 M764.3,179.3c-0.7,0.1-1.5,0.2-2.2,0.3c-1.3,0.6-2.6,1.2-3.9,1.8c0.9-0.1,1.7-0.3,2.6-0.4
	C762,180.5,763.2,179.9,764.3,179.3 M768.4,178.7c-0.8,0.1-1.5,0.2-2.3,0.4c-1.1,0.6-2.3,1.2-3.4,1.7c0.9-0.1,1.8-0.3,2.7-0.4
	C766.3,179.8,767.4,179.2,768.4,178.7 M773.1,177.9c-0.9,0.2-1.9,0.3-2.8,0.5c-1,0.6-2.1,1.1-3.1,1.7c1-0.2,2.1-0.3,3.1-0.5
	C771.2,179,772.2,178.4,773.1,177.9 M257.9,136.1c0.6,0.6,1.2,1.2,1.8,1.8c74.9,29,165.5,53.8,296.5,56c8.3,0.1,16.5,0.2,24.6,0.2
	c28.3,0,55.8-0.8,82.4-2.5c1.8-0.1,3.5-0.2,5.3-0.3c1.8-0.1,3.5-0.2,5.3-0.4c0.3,0,0.5,0,0.8-0.1c14.8-1.5,29.2-3.2,43.4-5.1
	c-3.4,0.4-6.8,0.8-10.3,1.1c-4.2,0.4-8.4,0.8-12.6,1.2c-10.2,0.9-20.6,1.7-31.1,2.4c-0.6,0-1.1,0.1-1.6,0.1
	c-1.6,0.1-3.1,0.2-4.7,0.3c-25.1,1.5-50.9,2.2-77.6,2.2c-7.9,0-15.9-0.1-23.9-0.2C424.1,190.6,333.1,165.3,257.9,136.1 M247.6,132
	c0.7,0.6,1.3,1.3,2,1.9c2.9,1.1,5.8,2.3,8.7,3.4c-0.6-0.6-1.2-1.2-1.8-1.8C253.5,134.3,250.5,133.2,247.6,132 M237.4,127.8
	c0.7,0.7,1.5,1.3,2.2,2c2.7,1.1,5.4,2.2,8.2,3.3c-0.7-0.6-1.3-1.3-2-1.9C243,130.1,240.2,129,237.4,127.8 M227.3,123.6
	c0.8,0.7,1.7,1.4,2.5,2.2c2.6,1.1,5.2,2.2,7.8,3.2c-0.8-0.7-1.5-1.4-2.3-2C232.7,125.9,230,124.8,227.3,123.6 M217.4,119.4
	c1,0.8,1.9,1.5,2.9,2.3c2.4,1,4.9,2.1,7.3,3.1c-0.9-0.7-1.7-1.4-2.6-2.2C222.5,121.6,219.9,120.5,217.4,119.4 M207.5,115.1
	c1.1,0.8,2.2,1.7,3.4,2.6c2.2,1,4.5,2,6.8,2.9c-1-0.8-2-1.6-3-2.4C212.3,117.2,209.9,116.2,207.5,115.1 M197.7,110.8
	c1.3,0.9,2.7,1.9,4,2.8c2.1,0.9,4.1,1.8,6.2,2.7c-1.1-0.9-2.3-1.7-3.4-2.6C202.1,112.8,199.9,111.8,197.7,110.8 M187.8,106.5
	c1.6,1.1,3.2,2.1,4.8,3.2c1.8,0.8,3.5,1.6,5.3,2.3c-1.4-1-2.7-1.9-4.1-2.9C191.8,108.3,189.8,107.4,187.8,106.5 M1000,105.6
	c-66.1,33.2-140.5,57.6-225.4,72c-0.9,0.6-1.8,1.1-2.8,1.7c38.3-6.4,74.8-14.9,109.8-25.5c41.9-12.7,81.2-28.3,118.4-47V105.6
	L1000,105.6z M177.9,102.1c2,1.3,4,2.5,6,3.8c1.4,0.6,2.8,1.2,4.2,1.9c-1.7-1.1-3.3-2.2-5-3.3c-0.7-0.3-1.4-0.6-2-0.9
	C180,103,179,102.6,177.9,102.1 M168,97.7c2.6,1.5,5.2,3,7.8,4.5c0.9,0.4,1.7,0.8,2.6,1.1c-2.1-1.3-4.2-2.6-6.3-3.9
	C170.8,99,169.4,98.3,168,97.7 M157.8,93.3c3.2,1.7,6.4,3.5,9.6,5.2c-2.5-1.4-4.9-2.8-7.4-4.2C159.3,93.9,158.5,93.6,157.8,93.3
	 M0,43.6v0.9c1.9,0.3,3.9,0.6,5.8,0.9c1.7,0.3,3.4,0.6,5.2,0.8c4.8,0.8,9.6,1.7,14.3,2.7c1.8,0.4,3.5,0.7,5.3,1.1
	c5,1.1,9.9,2.3,14.8,3.5c0.2,0,0.4,0.1,0.5,0.1c3.9,1,7.7,2,11.5,3.1c20.2,5.7,39.6,12.6,58.8,20.2c6.7,2.7,13.5,5.4,20.2,8.3
	c-18-8.1-36.2-15.6-55.2-22.1c-2.4-0.8-4.8-1.6-7.2-2.4c-0.9-0.3-1.8-0.6-2.7-0.8c-0.8-0.2-1.6-0.5-2.3-0.7
	c-3.6-1.1-7.1-2.1-10.7-3.1c-1.1-0.3-2.1-0.6-3.2-0.9c-4.4-1.2-8.8-2.4-13.2-3.4c-2.3-0.6-4.7-1.1-7-1.7c-4.3-1-8.6-1.9-12.8-2.7
	c-2.3-0.4-4.5-0.9-6.8-1.3C10.1,45.2,5.1,44.3,0,43.6"/>
<path class="st0" d="M743.8,182.3c-0.2,0-0.4,0.1-0.6,0.1c-1.5,0.4-3,0.8-4.5,1.2c0.4-0.1,0.9-0.1,1.3-0.2
	C741.3,183,742.6,182.7,743.8,182.3 M748.9,181.3c-0.4,0.1-0.7,0.1-1.1,0.2c-1.5,0.4-2.9,0.9-4.4,1.3c0.5-0.1,1.1-0.2,1.6-0.3
	C746.4,182.1,747.6,181.7,748.9,181.3 M753.7,180.4c-0.4,0.1-0.9,0.2-1.3,0.3c-1.4,0.5-2.8,1-4.2,1.4c0.6-0.1,1.2-0.2,1.8-0.3
	C751.2,181.3,752.5,180.8,753.7,180.4 M758.3,179.4c-0.5,0.1-1,0.2-1.5,0.3c-1.4,0.5-2.7,1-4.1,1.6c0.6-0.1,1.3-0.2,1.9-0.3
	C755.9,180.5,757.1,180,758.3,179.4 M762.8,178.5c-0.3,0.1-0.7,0.1-1,0.2c-1.3,0.6-2.7,1.1-4,1.7c0.5-0.1,1-0.2,1.5-0.3
	C760.4,179.6,761.6,179.1,762.8,178.5 M767.8,177.5c-0.6,0.1-1.3,0.2-1.9,0.4c-1.2,0.6-2.5,1.2-3.8,1.7c0.8-0.1,1.6-0.3,2.4-0.4
	C765.6,178.7,766.7,178.1,767.8,177.5 M771.8,176.8c-0.7,0.1-1.4,0.3-2,0.4c-1.1,0.6-2.2,1.1-3.3,1.7c0.8-0.1,1.6-0.3,2.4-0.5
	C769.8,177.9,770.8,177.3,771.8,176.8 M776.4,175.9c-0.9,0.2-1.7,0.3-2.6,0.5c-1,0.5-1.9,1.1-2.9,1.6c1-0.2,1.9-0.4,2.9-0.6
	C774.7,176.9,775.5,176.4,776.4,175.9 M265.6,143.7c0.6,0.6,1.2,1.3,1.8,1.9c22.5,9.3,46.5,17.9,72.6,25.5
	c63,18.3,130.3,27.2,205,27.2c5.9,0,11.9-0.1,17.9-0.2c37-0.7,72.3-2.6,106.2-5.8c1.7-0.2,3.5-0.3,5.2-0.5c1.7-0.2,3.4-0.3,5.1-0.5
	c0,0,0,0,0.1,0c1.7-0.2,3.5-0.4,5.2-0.6c0.9-0.1,1.8-0.2,2.7-0.3c12-1.7,23.8-3.5,35.5-5.4c0.6-0.1,1.1-0.2,1.7-0.3
	c-2.2,0.3-4.4,0.6-6.6,0.9c-14.2,2-28.6,3.7-43.4,5.1c-0.2,0-0.4,0-0.7,0.1c-1.5,0.1-3.1,0.3-4.6,0.4c-1.6,0.1-3.1,0.3-4.7,0.4
	c-32.4,3-66.3,4.8-101.6,5.5c-6,0.1-12,0.2-17.8,0.2C422.3,197.3,336.6,173,265.6,143.7 M255.4,139.5c0.7,0.7,1.4,1.3,2.1,2
	c2.8,1.2,5.6,2.4,8.4,3.5c-0.6-0.6-1.2-1.3-1.9-1.9C261.1,141.9,258.3,140.7,255.4,139.5 M245.4,135.1c0.8,0.7,1.5,1.4,2.3,2.1
	c2.6,1.2,5.3,2.3,8,3.4c-0.7-0.7-1.4-1.3-2.1-2C250.9,137.5,248.2,136.3,245.4,135.1 M235.6,130.7c0.9,0.8,1.7,1.5,2.6,2.3
	c2.5,1.1,5,2.2,7.5,3.3c-0.8-0.7-1.5-1.4-2.3-2.1C240.8,133.1,238.2,131.9,235.6,130.7 M225.9,126.3c1,0.8,2,1.7,3,2.5
	c2.3,1.1,4.6,2.1,7,3.2c-0.9-0.8-1.8-1.5-2.7-2.3C230.7,128.5,228.3,127.4,225.9,126.3 M216.2,121.8c1.2,0.9,2.4,1.8,3.6,2.8
	c2.1,1,4.2,2,6.4,2.9c-1-0.8-2-1.7-3.1-2.5C220.8,123.9,218.5,122.9,216.2,121.8 M206.6,117.3c1.4,1,2.9,2.1,4.3,3.1
	c1.9,0.9,3.7,1.8,5.6,2.6c-1.2-0.9-2.4-1.9-3.6-2.8C210.8,119.2,208.7,118.3,206.6,117.3 M197,112.7c1.8,1.2,3.6,2.4,5.3,3.6
	c1.5,0.7,3,1.4,4.5,2.2c-1.5-1.1-2.9-2.1-4.4-3.2C200.7,114.4,198.8,113.6,197,112.7 M187.4,108.1c2.3,1.5,4.6,2.9,6.9,4.4
	c1,0.5,2,1,3,1.4c-1.8-1.3-3.7-2.5-5.6-3.8C190.3,109.5,188.9,108.8,187.4,108.1 M177.8,103.4c3.1,1.9,6.3,3.7,9.4,5.6
	c0.1,0.1,0.2,0.1,0.3,0.2c0.1,0,0.2,0.1,0.3,0.1c-2.4-1.5-4.8-3.1-7.3-4.6C179.6,104.3,178.7,103.9,177.8,103.4 M1000,99
	c-64.7,34.2-138,60-222.1,76.6c-0.9,0.5-1.7,1-2.6,1.6c36.7-7.2,71.6-16.1,105-27c42.5-13.8,82.2-30.6,119.6-50.5V99L1000,99z
	 M0,42.2v0.7v0.5c0.7,0.1,1.4,0.2,2.1,0.3c5.2,0.7,10.4,1.6,15.4,2.5c2.5,0.4,4.9,0.9,7.3,1.4c4.2,0.8,8.4,1.8,12.5,2.7
	c2.4,0.6,4.9,1.2,7.3,1.8c4.2,1.1,8.3,2.2,12.4,3.3c1.1,0.3,2.3,0.7,3.4,1c4,1.2,8,2.4,11.9,3.7c0.9,0.3,1.8,0.6,2.6,0.9
	c2.1,0.7,4.3,1.4,6.4,2.1c19,6.5,37.2,14,55.2,22.1c7.3,3.3,14.6,6.7,22,10.1c-12.5-6.3-25-12.4-37.7-18.1c-2.6-1.1-5.1-2.2-7.7-3.2
	c-0.2-0.1-0.4-0.2-0.7-0.3c-4-1.6-8-3.3-12.1-4.8c-0.9-0.3-1.7-0.7-2.6-1c-3.7-1.4-7.4-2.8-11.1-4.1c-1.5-0.5-3.1-1.1-4.6-1.6
	c-3.5-1.2-6.9-2.4-10.5-3.5c-1.7-0.6-3.4-1.1-5.2-1.6C62.8,56,59.2,55,55.6,54c-2.7-0.8-5.5-1.5-8.3-2.2c-3.6-0.9-7.1-1.8-10.8-2.7
	c-2.8-0.6-5.6-1.3-8.4-1.9c-4.3-0.9-8.6-1.7-13-2.5c-2.9-0.5-5.9-1-8.9-1.5C4.3,42.9,2.2,42.5,0,42.2"/>
<path class="st0" d="M745.7,181.7c-0.8,0.2-1.7,0.5-2.5,0.7c0.2,0,0.4-0.1,0.6-0.1C744.4,182.1,745.1,181.9,745.7,181.7
	 M752.4,180.1c-0.1,0-0.2,0-0.3,0.1c-1.4,0.4-2.9,0.9-4.3,1.3c0.4-0.1,0.7-0.1,1.1-0.2C750.1,180.9,751.2,180.5,752.4,180.1
	 M757.2,179c-0.2,0-0.4,0.1-0.7,0.2c-1.4,0.5-2.8,1-4.2,1.4c0.4-0.1,0.9-0.2,1.3-0.3C754.9,179.9,756.1,179.5,757.2,179 M761.8,178
	c-0.3,0.1-0.7,0.2-1,0.2c-1.3,0.5-2.7,1-4,1.5c0.5-0.1,1-0.2,1.5-0.3C759.5,179,760.6,178.5,761.8,178 M766.2,176.9
	c-0.2,0-0.3,0.1-0.5,0.1c-1.3,0.6-2.7,1.1-4,1.7c0.3-0.1,0.7-0.1,1-0.2C763.9,178,765.1,177.5,766.2,176.9 M771.4,175.7
	c-0.5,0.1-1,0.2-1.6,0.3c-1.3,0.6-2.5,1.2-3.8,1.8c0.7-0.1,1.4-0.3,2.1-0.4C769.2,176.8,770.3,176.3,771.4,175.7 M775.2,174.9
	c-0.6,0.1-1.1,0.2-1.7,0.4c-1.1,0.6-2.2,1.1-3.3,1.7c0.7-0.1,1.4-0.3,2.1-0.5C773.3,176,774.2,175.4,775.2,174.9 M779.8,173.9
	c-0.8,0.2-1.6,0.4-2.4,0.5c-1,0.5-1.9,1.1-2.9,1.6c0.9-0.2,1.8-0.4,2.7-0.6C778.1,174.9,778.9,174.4,779.8,173.9 M273.3,151.6
	c0.5,0.6,1.1,1.1,1.6,1.7c21.9,9.5,45.2,18.4,70.6,26c55.1,16.4,114,24.5,178.8,24.5c14.8,0,30-0.4,45.5-1.3
	c36.8-2,71.9-5.1,105.4-9.4c1.7-0.2,3.4-0.4,5.1-0.7c1.5-0.2,3-0.4,4.5-0.6c0.2,0,0.4-0.1,0.6-0.1c1.7-0.2,3.4-0.5,5-0.7
	c0.6-0.1,1.2-0.2,1.8-0.3c10.4-1.8,20.7-3.7,30.8-5.8c-11.6,2-23.4,3.8-35.5,5.4c-0.8,0.1-1.5,0.2-2.3,0.3c-1.5,0.2-3,0.4-4.5,0.6
	c0,0-0.1,0-0.1,0c-1.5,0.2-3,0.4-4.5,0.6c-1.6,0.2-3.1,0.4-4.7,0.6c-32.3,4-66.2,7-101.5,9c-16.1,0.9-31.6,1.3-46.4,1.3
	C414.8,202.8,338.6,180.4,273.3,151.6 M263.3,147.1c0.6,0.6,1.3,1.2,1.9,1.9c2.7,1.2,5.4,2.4,8.2,3.6c-0.6-0.6-1.1-1.1-1.6-1.7
	C268.9,149.7,266.1,148.4,263.3,147.1 M253.5,142.6c0.7,0.7,1.5,1.4,2.2,2c2.5,1.2,5.1,2.4,7.7,3.6c-0.6-0.6-1.3-1.3-1.9-1.9
	C258.8,145,256.1,143.8,253.5,142.6 M243.8,137.9c0.9,0.8,1.7,1.5,2.6,2.3c2.4,1.1,4.8,2.3,7.2,3.4c-0.7-0.7-1.5-1.4-2.2-2.1
	C248.8,140.3,246.3,139.1,243.8,137.9 M234.2,133.2c1,0.9,2.1,1.7,3.1,2.6c2.2,1.1,4.4,2.1,6.6,3.2c-0.9-0.8-1.8-1.5-2.6-2.3
	C238.9,135.5,236.5,134.4,234.2,133.2 M224.7,128.5c1.3,1,2.5,2,3.8,3c1.9,1,3.9,1.9,5.8,2.9c-1.1-0.9-2.1-1.8-3.2-2.6
	C229,130.6,226.9,129.5,224.7,128.5 M215.3,123.7c1.6,1.2,3.1,2.3,4.7,3.5c1.6,0.8,3.2,1.6,4.9,2.5c-1.3-1-2.6-2-3.9-3
	C219.2,125.6,217.2,124.6,215.3,123.7 M206,118.8c2,1.4,4.1,2.8,6.1,4.2c1.1,0.6,2.3,1.2,3.4,1.8c-1.6-1.2-3.3-2.4-4.9-3.6
	C209.1,120.4,207.6,119.6,206,118.8 M196.6,113.9c2.8,1.8,5.7,3.7,8.5,5.5c0.4,0.2,0.8,0.4,1.1,0.6c-2.1-1.5-4.3-2.9-6.4-4.4
	C198.7,115.1,197.7,114.5,196.6,113.9 M187.2,109c0.7,0.4,1.5,0.9,2.2,1.3c-0.5-0.3-1-0.6-1.5-1c-0.1-0.1-0.3-0.1-0.4-0.2
	C187.4,109.1,187.3,109.1,187.2,109 M1000,92.2c-63.3,35.3-135.4,62.5-218.6,81.3c-0.8,0.5-1.7,1-2.5,1.5
	c35.1-7.9,68.4-17.3,100.3-28.4c43.2-15,83.3-33,120.9-54.1V92.2L1000,92.2z M0,40.6v0.7v0.1c4.7,0.6,9.4,1.3,14,2.1
	c3.3,0.6,6.5,1.2,9.7,1.8c4,0.8,8,1.7,12,2.6c3,0.7,6,1.4,9,2.2c3.3,0.8,6.5,1.7,9.7,2.6c2.9,0.8,5.7,1.7,8.6,2.5c3.2,1,6.3,2,9.4,3
	c1.9,0.6,3.8,1.3,5.7,1.9c3,1,6,2.1,9,3.2c1.6,0.6,3.3,1.2,4.9,1.8c3.1,1.2,6.2,2.4,9.3,3.7c1,0.4,1.9,0.8,2.9,1.2
	c3.3,1.4,6.6,2.7,9.8,4.2c0.3,0.1,0.6,0.3,0.9,0.4c2,0.9,3.9,1.7,5.9,2.6c12.7,5.7,25.2,11.8,37.7,18.1c6.5,3.3,12.9,6.6,19.4,10
	c-11.6-6.5-23.3-12.8-35.2-18.8c-2.1-1-4.1-2-6.2-3c-0.4-0.2-0.8-0.4-1.1-0.5c-3.4-1.6-6.8-3.2-10.3-4.8c-1-0.5-2-0.9-3.1-1.4
	c-3-1.4-6.1-2.7-9.2-4c-1.5-0.6-2.9-1.2-4.4-1.9c-2.9-1.2-5.8-2.4-8.7-3.6c-2-0.8-3.9-1.6-5.9-2.3c-2.8-1.1-5.6-2.1-8.5-3.2
	c-2.2-0.8-4.4-1.6-6.6-2.3c-2.9-1-5.8-2-8.8-2.9c-3-1-6-1.9-9.1-2.8c-3-0.9-6-1.8-9.1-2.6c-3.1-0.9-6.3-1.7-9.5-2.5
	c-3.6-0.9-7.3-1.8-11-2.6c-3.3-0.7-6.7-1.4-10.1-2.1c-4.5-0.9-9.1-1.6-13.7-2.3C5,41.3,2.5,41,0,40.6"/>
<path class="st0" d="M753.2,179.8c-0.4,0.1-0.7,0.2-1.1,0.3c0.1,0,0.2,0,0.3-0.1C752.7,180,752.9,179.9,753.2,179.8 M759.8,178
	c-1.1,0.4-2.2,0.8-3.3,1.2c0.2-0.1,0.4-0.1,0.7-0.2C758.1,178.7,759,178.4,759.8,178 M765.1,176.6c-0.1,0-0.2,0.1-0.3,0.1
	c-1.3,0.5-2.6,1-4,1.5c0.3-0.1,0.7-0.2,1-0.2C762.9,177.5,764,177,765.1,176.6 M768.5,175.9c-0.9,0.4-1.8,0.8-2.7,1.1
	c0.2,0,0.3-0.1,0.5-0.1C767,176.6,767.7,176.2,768.5,175.9 M775.1,173.9c-0.4,0.1-0.9,0.2-1.3,0.4c-1.3,0.6-2.5,1.2-3.8,1.8
	c0.6-0.1,1.1-0.3,1.7-0.4C772.8,175,773.9,174.5,775.1,173.9 M779,172.8c-0.5,0.1-1,0.3-1.5,0.4c-1.2,0.6-2.4,1.2-3.7,1.9
	c0.6-0.1,1.2-0.3,1.8-0.4C776.8,174,777.9,173.4,779,172.8 M783.9,171.4c-0.7,0.2-1.5,0.4-2.2,0.6c-1.2,0.7-2.4,1.3-3.5,2
	c0.8-0.2,1.7-0.4,2.5-0.6C781.7,172.7,782.8,172.1,783.9,171.4 M280.7,159.3c0.6,0.6,1.1,1.2,1.7,1.7c21.5,10,44.4,19.1,69.3,26.7
	c48.8,14.9,101,22.3,158,22.3c21.6,0,43.9-1.1,66.9-3.2c36.6-3.3,71.4-7.7,104.6-13.1c1.6-0.3,3.3-0.5,4.9-0.8
	c1.3-0.2,2.7-0.4,4-0.7c0.3-0.1,0.6-0.1,1-0.2c1.6-0.3,3.3-0.6,4.9-0.8c1.4-0.2,2.8-0.5,4.2-0.7c0.2,0,0.5-0.1,0.7-0.1
	c0.7-0.1,1.4-0.3,2.1-0.4c14.2-3,28.1-6.2,41.7-9.6c-6.6,1.5-13.3,2.9-20.1,4.2c-0.6,0.1-1.1,0.2-1.7,0.3c-10.1,2-20.4,4-30.8,5.8
	c-0.5,0.1-1,0.2-1.5,0.3c-1.5,0.2-2.9,0.5-4.4,0.7c-0.2,0-0.4,0.1-0.6,0.1c-1.3,0.2-2.6,0.4-3.9,0.7c-1.5,0.3-3.1,0.5-4.6,0.7
	c-32.1,5.2-65.6,9.4-100.7,12.6c-24,2.2-46.5,3.2-67.7,3.2C411.1,209.1,341,187.5,280.7,159.3 M270.9,154.6c0.6,0.6,1.3,1.3,1.9,1.9
	c2.6,1.3,5.3,2.5,7.9,3.7c-0.6-0.6-1.1-1.2-1.7-1.8C276.3,157.2,273.6,155.9,270.9,154.6 M261.2,149.8c0.8,0.7,1.5,1.4,2.3,2.1
	c2.5,1.2,4.9,2.4,7.4,3.6c-0.7-0.7-1.3-1.3-2-2C266.3,152.4,263.8,151.1,261.2,149.8 M251.7,144.9c0.9,0.8,1.8,1.6,2.7,2.4
	c2.3,1.2,4.5,2.3,6.8,3.5c-0.8-0.7-1.5-1.4-2.3-2.2C256.5,147.4,254.1,146.2,251.7,144.9 M242.3,140c1.1,0.9,2.2,1.9,3.3,2.8
	c2,1.1,4.1,2.1,6.1,3.2c-0.9-0.8-1.9-1.7-2.8-2.5C246.8,142.4,244.5,141.2,242.3,140 M233.1,135c1.4,1.1,2.8,2.2,4.2,3.3
	c1.7,0.9,3.5,1.9,5.2,2.8c-1.1-1-2.3-1.9-3.4-2.9C237,137.2,235,136.1,233.1,135 M223.9,130c1.8,1.3,3.6,2.7,5.4,4
	c1.3,0.7,2.6,1.4,3.9,2.1c-1.4-1.1-2.9-2.3-4.3-3.4C227.2,131.8,225.6,130.9,223.9,130 M214.7,124.9c2.5,1.8,5,3.5,7.6,5.3
	c0.6,0.3,1.2,0.7,1.8,1c-1.9-1.4-3.8-2.8-5.7-4.2C217.2,126.2,216,125.6,214.7,124.9 M205.6,119.8c1.4,0.9,2.8,1.8,4.2,2.7
	c-1-0.7-1.9-1.3-2.9-2C206.5,120.3,206,120,205.6,119.8 M1000,82.8c-57.5,34.3-122.5,62-197,83c-5.7,1.7-11.4,3.4-17.2,5.1
	c-1.1,0.7-2.3,1.4-3.4,2.1c33.5-8.5,65.3-18.4,95.5-29.6c43.9-16.3,84.4-35.5,122.1-58V82.8L1000,82.8z M0,39v1.5
	c3.4,0.4,6.8,0.9,10.2,1.4c4.9,0.7,9.7,1.5,14.4,2.4c3.7,0.7,7.4,1.5,11,2.3c3.7,0.8,7.4,1.7,11.1,2.6c3.4,0.9,6.8,1.8,10.1,2.7
	c3,0.8,5.9,1.7,8.8,2.6c3.2,1,6.4,2,9.5,3.1c2.8,0.9,5.5,1.9,8.3,2.9c2.3,0.8,4.7,1.7,7,2.6c2.6,1,5.2,2,7.8,3
	c2.1,0.8,4.1,1.7,6.1,2.5c2.6,1.1,5.2,2.2,7.8,3.4c1.5,0.7,3.1,1.4,4.6,2c2.7,1.2,5.3,2.4,8,3.7c1.1,0.5,2.1,1,3.2,1.5
	c2.9,1.4,5.8,2.8,8.6,4.2c0.4,0.2,0.8,0.4,1.2,0.6c1.6,0.8,3.3,1.6,4.9,2.5c11.9,6,23.6,12.4,35.2,18.8c6.3,3.5,12.6,7,18.8,10.6
	c-9.7-5.9-19.4-11.7-29.3-17.4c-3.2-1.7-6.4-3.5-9.6-5.2c-0.5-0.3-1-0.6-1.6-0.8c-3-1.6-5.9-3.1-8.9-4.7c-1.1-0.5-2.1-1.1-3.2-1.6
	c-2.6-1.3-5.2-2.7-7.8-4c-1.5-0.7-3-1.5-4.4-2.2c-2.4-1.2-4.8-2.3-7.3-3.5c-1.8-0.9-3.7-1.7-5.5-2.6c-2.3-1.1-4.7-2.1-7.1-3.2
	c-2.2-1-4.5-2-6.7-2.9c-2.3-1-4.7-2-7-2.9c-2.5-1-4.9-2-7.4-2.9c-2.4-0.9-4.9-1.8-7.3-2.7c-3.2-1.1-6.3-2.3-9.6-3.3
	c-2.6-0.9-5.1-1.7-7.7-2.5c-3.4-1.1-6.8-2.1-10.2-3c-3.1-0.9-6.3-1.7-9.5-2.6c-3.6-0.9-7.2-1.8-10.9-2.6c-4-0.9-8-1.7-12.1-2.5
	C15.9,41.2,8,40,0,39"/>
<path class="st0" d="M766.3,176.1c-0.5,0.2-1,0.4-1.5,0.6c0.1,0,0.2,0,0.3-0.1C765.5,176.4,765.9,176.2,766.3,176.1 M778.3,172.2
	c-0.3,0.1-0.5,0.2-0.8,0.2c-1.3,0.6-2.5,1.2-3.8,1.8c0.4-0.1,0.9-0.2,1.3-0.4C776.2,173.3,777.2,172.8,778.3,172.2 M782.2,171
	c-0.3,0.1-0.7,0.2-1,0.3c-1.2,0.6-2.4,1.2-3.6,1.9c0.5-0.1,1-0.3,1.5-0.4C780.1,172.2,781.1,171.6,782.2,171 M787.1,169.5
	c-0.6,0.2-1.3,0.4-1.9,0.6c-1.2,0.6-2.3,1.3-3.5,2c0.7-0.2,1.5-0.4,2.2-0.6C785,170.8,786,170.1,787.1,169.5 M288,166.9
	c0.6,0.6,1.2,1.3,1.8,1.9c55.9,27.4,120.6,48.1,208.9,48.1c26,0,54.1-1.8,84.7-5.7c36.4-4.7,71-10.3,103.8-16.7
	c1.6-0.3,3.2-0.6,4.8-1c1.2-0.2,2.4-0.5,3.5-0.7c0.4-0.1,0.8-0.2,1.3-0.3c1.6-0.3,3.2-0.7,4.8-1c1.2-0.3,2.5-0.5,3.7-0.8
	c0.4-0.1,0.7-0.2,1.1-0.2c1.6-0.3,3.2-0.7,4.8-1c1.5-0.3,2.9-0.6,4.4-0.9c0.1,0,0.2-0.1,0.4-0.1c1.1-0.2,2.2-0.5,3.3-0.7
	c0.5-0.1,1-0.2,1.5-0.3c1.4-0.3,2.9-0.6,4.3-1c15.5-4,30.6-8.2,45.4-12.6c0.6-0.2,1.1-0.4,1.7-0.6c-9,2.5-18.1,4.9-27.3,7.2
	c-13.6,3.4-27.5,6.6-41.7,9.6c-0.6,0.1-1.2,0.3-1.8,0.4c-0.2,0-0.4,0.1-0.6,0.1c-1.2,0.3-2.4,0.5-3.6,0.8c-1.5,0.3-2.9,0.6-4.4,0.9
	c-0.3,0.1-0.6,0.1-0.9,0.2c-1.2,0.2-2.3,0.5-3.5,0.7c-1.5,0.3-3,0.6-4.5,0.9c-31.9,6.3-65.3,11.7-100.4,16.2
	c-30.5,3.9-58.5,5.7-84.5,5.7C409.4,216,344.3,194.9,288,166.9 M278.3,162c0.7,0.7,1.4,1.4,2.1,2.1c2.5,1.3,5.1,2.6,7.6,3.9
	c-0.6-0.6-1.2-1.3-1.8-1.9C283.6,164.7,280.9,163.4,278.3,162 M268.8,157c0.8,0.8,1.7,1.6,2.5,2.4c2.3,1.3,4.7,2.5,7.1,3.7
	c-0.7-0.7-1.4-1.4-2.1-2.1C273.8,159.7,271.3,158.4,268.8,157 M259.5,151.9c1,0.9,2,1.8,3,2.7c2.1,1.2,4.3,2.3,6.4,3.5
	c-0.8-0.8-1.7-1.6-2.5-2.4C264.1,154.5,261.8,153.2,259.5,151.9 M250.3,146.8c0.8,0.7,1.6,1.4,2.5,2.1c0.4,0.4,0.9,0.7,1.3,1.1
	c1.8,1,3.7,2.1,5.5,3.1c-1-0.9-2-1.8-3.1-2.7C254.5,149.1,252.4,147.9,250.3,146.8 M241.3,141.5c0.5,0.4,0.9,0.7,1.4,1.1
	c1.2,0.9,2.3,1.9,3.5,2.8c1.4,0.8,2.9,1.6,4.3,2.5c-1.3-1.1-2.6-2.2-3.8-3.3C244.8,143.6,243,142.6,241.3,141.5 M232.3,136.2
	c0.2,0.2,0.4,0.3,0.6,0.5c2,1.5,4.1,3,6.1,4.6c0.8,0.5,1.6,0.9,2.3,1.4c-1.7-1.3-3.4-2.7-5-4C235,137.8,233.6,137,232.3,136.2
	 M223.4,130.9c0.1,0,0.2,0.1,0.2,0.2c2,1.4,3.9,2.7,5.9,4.1c-1.4-1-2.7-2-4.1-3.1C224.7,131.7,224,131.3,223.4,130.9 M1000,75.6
	c-55.4,34.9-118.3,63.8-190.6,86.6c-6.6,2.3-13.4,4.5-20.2,6.7c-1.1,0.7-2.2,1.4-3.4,2c5.8-1.7,11.5-3.3,17.2-5.1
	c25.6-7.8,50.1-16.3,73.6-25.7c44.6-17.7,85.5-38.3,123.4-62.1V75.6L1000,75.6z M0,37.3v1.1c10.6,1.2,20.8,2.8,30.6,4.8
	c4,0.8,7.9,1.7,11.8,2.6c3.9,0.9,7.7,1.9,11.5,2.9c3,0.8,6,1.7,9,2.6c3.6,1.1,7.1,2.2,10.6,3.3c2.4,0.8,4.8,1.6,7.2,2.5
	c3.3,1.2,6.5,2.4,9.7,3.6c2.3,0.9,4.5,1.8,6.7,2.7c2.6,1,5.1,2.1,7.7,3.2c2.1,0.9,4.2,1.8,6.4,2.8c2.3,1,4.6,2.1,6.9,3.1
	c2.1,1,4.2,2,6.3,3c1.9,0.9,3.8,1.8,5.7,2.8c2.1,1.1,4.2,2.1,6.3,3.2c1.5,0.8,3.1,1.6,4.6,2.4c2.2,1.2,4.4,2.4,6.7,3.5
	c1.1,0.6,2.2,1.2,3.3,1.8c2.4,1.3,4.9,2.7,7.3,4c0.6,0.3,1.2,0.7,1.8,1c2.5,1.4,5,2.8,7.4,4.2c9.8,5.7,19.5,11.5,29.3,17.4
	c3.1,1.9,6.2,3.7,9.3,5.6c2.9,1.8,5.8,3.5,8.7,5.3c-0.1-0.1-0.3-0.2-0.4-0.2c-8.3-5.4-16.6-10.8-24.9-16.1c-0.7-0.4-1.5-0.9-2.2-1.3
	c-3.1-1.9-6.3-3.8-9.4-5.6c-0.6-0.4-1.3-0.8-1.9-1.1c-2.6-1.5-5.2-3-7.8-4.5c-1.1-0.6-2.2-1.3-3.3-1.9c-2.3-1.3-4.5-2.6-6.8-3.9
	c-1.5-0.8-2.9-1.6-4.4-2.4c-2.1-1.1-4.2-2.3-6.3-3.4c-1.8-1-3.5-1.9-5.3-2.8c-2-1-4-2.1-6-3.1c-2.1-1.1-4.1-2.1-6.2-3.1
	c-2-1-3.9-1.9-5.9-2.9c-2.4-1.2-4.8-2.3-7.2-3.4c-2-0.9-4-1.8-6-2.7c-2.6-1.2-5.3-2.3-8-3.5c-2.1-0.9-4.2-1.7-6.3-2.6
	c-3.2-1.3-6.5-2.6-9.8-3.8c-2.2-0.8-4.4-1.6-6.7-2.4c-3.5-1.2-7-2.4-10.6-3.6c-2.7-0.9-5.5-1.7-8.3-2.5c-3.7-1.1-7.5-2.1-11.4-3.1
	c-3.5-0.9-7.1-1.8-10.7-2.6C26.6,41.1,13.6,38.9,0,37.3"/>
<path class="st0" d="M770.4,173.8c-14.8,4.4-29.9,8.6-45.4,12.6c-1.2,0.3-2.4,0.6-3.6,0.9c-0.4,0.1-0.9,0.2-1.4,0.3
	c-0.9,0.2-1.9,0.5-2.9,0.7c-0.1,0-0.3,0.1-0.4,0.1c-1.3,0.3-2.5,0.6-3.8,0.9c-1.5,0.4-2.9,0.7-4.4,1.1c-0.4,0.1-0.8,0.2-1.2,0.3
	c-1.1,0.3-2.2,0.5-3.3,0.8c-1.5,0.4-3,0.7-4.5,1.1c-0.4,0.1-0.9,0.2-1.3,0.3c-1.1,0.2-2.1,0.5-3.2,0.7c-1.5,0.4-3,0.7-4.6,1.1
	c-32,7.4-65.5,13.9-100.6,19.9c-35.9,6-68.3,8.7-98,8.7c-82.7,0-143.8-20.9-196.7-48.8c0.6,0.7,1.2,1.3,1.9,2
	c52.5,27.4,113.1,47.8,194.8,47.8c29.7,0,62.3-2.7,98.2-8.7c36.2-6.1,70.5-12.9,103-20.5c1.5-0.4,3.1-0.7,4.6-1.1c0,0,0.1,0,0.1,0
	c1.1-0.2,2.1-0.5,3.2-0.7c0.5-0.1,1-0.2,1.5-0.4c1.5-0.4,3-0.7,4.5-1.1c0.1,0,0.1,0,0.2,0c1.1-0.3,2.2-0.5,3.2-0.8
	c0.5-0.1,1-0.2,1.4-0.4c1.6-0.4,3.1-0.8,4.7-1.2c1.3-0.3,2.5-0.6,3.8-1c0.3-0.1,0.6-0.1,0.8-0.2c0.9-0.2,1.9-0.5,2.8-0.7
	c0.6-0.2,1.3-0.3,1.9-0.5c1.5-0.4,3-0.8,4.5-1.2c1.3-0.4,2.7-0.7,4-1.1c1.5-0.4,3-0.8,4.5-1.2c1.5-0.4,3-0.8,4.5-1.2
	c0.9-0.2,1.7-0.5,2.5-0.7c6.8-2,13.5-4.1,20.2-6.3C767.4,174.9,768.9,174.4,770.4,173.8 M781.4,170.6c-0.1,0-0.1,0-0.2,0
	c-1.2,0.6-2.5,1.2-3.7,1.8c0.3-0.1,0.5-0.2,0.8-0.2C779.4,171.7,780.4,171.2,781.4,170.6 M285.7,169.4c0.7,0.7,1.5,1.5,2.2,2.2
	c2.4,1.3,4.9,2.6,7.3,3.9c-0.6-0.7-1.3-1.3-1.9-2C290.8,172.2,288.2,170.8,285.7,169.4 M785.2,169.3c-0.2,0.1-0.3,0.1-0.5,0.2
	c-1.2,0.6-2.4,1.2-3.5,1.8c0.3-0.1,0.7-0.2,1-0.3C783.2,170.5,784.2,169.9,785.2,169.3 M789.8,167.9c-0.5,0.2-1,0.3-1.5,0.5
	c-1.1,0.6-2.1,1.2-3.2,1.8c0.6-0.2,1.3-0.4,1.9-0.6C788,168.9,788.9,168.4,789.8,167.9 M276.4,164.2c0.9,0.8,1.8,1.7,2.7,2.5
	c2.2,1.3,4.4,2.5,6.7,3.7c-0.3-0.3-0.5-0.5-0.8-0.8c-0.5-0.5-1-1-1.5-1.5C281.1,166.9,278.8,165.6,276.4,164.2 M267.3,158.9
	c1.1,1,2.2,2,3.3,3c1.9,1.1,3.9,2.3,5.9,3.4c-0.9-0.9-1.8-1.7-2.7-2.6C271.6,161.4,269.4,160.2,267.3,158.9 M258.3,153.5
	c1.5,1.2,2.9,2.4,4.3,3.7c1.6,0.9,3.1,1.9,4.7,2.8c-1.1-1-2.3-2-3.4-3.1C262,155.8,260.2,154.6,258.3,153.5 M249.4,148
	c2,1.6,4,3.2,6,4.8c1,0.6,2,1.2,2.9,1.8c-1.5-1.3-3-2.5-4.5-3.8C252.4,149.8,250.9,148.9,249.4,148 M240.6,142.4
	c2.6,1.9,5.2,3.9,7.8,5.8c-1.7-1.4-3.5-2.7-5.2-4.1C242.4,143.5,241.5,143,240.6,142.4 M1000,68.9c-60.8,41-129.4,73-208.2,98.3
	c-0.9,0.5-1.8,1.1-2.7,1.6c6.8-2.2,13.6-4.4,20.2-6.7c23-7.8,45-16.2,66-25.1c45.3-19.2,86.6-41.3,124.6-66.6V68.9L1000,68.9z
	 M0,35.7v0.6c17.4,1.8,33.7,4.7,49.2,8.6c3.3,0.8,6.7,1.7,9.9,2.6c3.9,1.1,7.8,2.3,11.6,3.5c2.5,0.8,5,1.6,7.5,2.5
	c3.6,1.2,7.2,2.5,10.7,3.9c2,0.8,4.1,1.6,6.1,2.4c3.3,1.3,6.5,2.7,9.8,4.1c1.9,0.8,3.8,1.6,5.6,2.5c2.7,1.2,5.4,2.5,8.1,3.7
	c1.8,0.8,3.6,1.7,5.3,2.6c2.4,1.2,4.8,2.4,7.2,3.6c1.7,0.9,3.5,1.8,5.2,2.7c2.1,1.1,4.2,2.2,6.3,3.4c1.7,1,3.5,1.9,5.2,2.9
	c1.8,1,3.6,2,5.4,3.1c1.8,1,3.6,2.1,5.4,3.1c1.5,0.9,3,1.8,4.5,2.7c1.9,1.1,3.8,2.3,5.7,3.4c1.2,0.7,2.3,1.4,3.5,2.1
	c2.1,1.3,4.2,2.6,6.3,3.9c0.7,0.4,1.4,0.9,2.1,1.3c2.4,1.5,4.8,3,7.3,4.6c0,0,0.1,0,0.1,0.1c0.5,0.3,1,0.6,1.5,1
	c8.3,5.3,16.6,10.7,24.9,16.1c0.1,0.1,0.3,0.2,0.4,0.2c5.8,3.8,11.6,7.5,17.4,11.3c-3-2.1-6-4.2-8.9-6.2c-4.4-3.1-8.8-6.2-13.3-9.3
	c-1.4-0.9-2.8-1.8-4.2-2.7c-0.2-0.1-0.3-0.2-0.5-0.3c-2.8-1.8-5.7-3.7-8.5-5.5c-0.8-0.5-1.5-1-2.3-1.5c-2.3-1.5-4.6-2.9-6.9-4.4
	c-1.1-0.7-2.3-1.5-3.4-2.2c-2-1.3-4-2.5-6-3.8c-1.4-0.9-2.9-1.8-4.3-2.7c-1.8-1.1-3.7-2.2-5.5-3.3c-1.7-1-3.4-2-5.1-3.1
	c-1.7-1-3.5-2-5.2-3.1c-1.9-1.1-3.9-2.3-5.9-3.4c-1.7-1-3.4-1.9-5-2.8c-2.2-1.2-4.4-2.4-6.6-3.6c-1.7-0.9-3.4-1.8-5-2.7
	c-2.5-1.3-5-2.6-7.5-3.8c-1.7-0.9-3.4-1.7-5.2-2.5c-2.7-1.3-5.5-2.6-8.3-3.9c-1.3-0.6-2.6-1.2-3.9-1.8c-0.5-0.2-1-0.5-1.6-0.7
	c-3.3-1.5-6.6-2.9-9.9-4.2c-2-0.8-4-1.6-5.9-2.4c-3.6-1.4-7.2-2.8-10.9-4c-2.4-0.9-4.9-1.7-7.3-2.5c-3.9-1.3-7.8-2.5-11.7-3.6
	c-3.2-0.9-6.4-1.8-9.6-2.6C36.1,40.7,18.2,37.5,0,35.7"/>
<path class="st0" d="M293.1,176.8c0.8,0.8,1.6,1.6,2.4,2.4c2.3,1.3,4.6,2.7,6.9,4c-0.7-0.7-1.4-1.4-2-2.2
	C297.9,179.7,295.5,178.3,293.1,176.8 M765.9,175.4c-6.6,2.1-13.4,4.2-20.2,6.3c-0.6,0.2-1.3,0.4-1.9,0.6c-1.2,0.4-2.5,0.7-3.7,1.1
	c-1.3,0.4-2.7,0.8-4,1.2c-1.2,0.4-2.4,0.7-3.7,1.1c-1.4,0.4-2.8,0.8-4.2,1.2c-0.7,0.2-1.3,0.4-2,0.6c-0.8,0.2-1.6,0.5-2.4,0.7
	c-0.3,0.1-0.7,0.2-1,0.3c-1.1,0.3-2.3,0.6-3.4,1c-1.5,0.4-2.9,0.8-4.4,1.2c-0.5,0.1-1,0.3-1.5,0.4c-1,0.3-1.9,0.5-2.9,0.8
	c-0.1,0-0.2,0.1-0.3,0.1c-1.4,0.4-2.8,0.7-4.1,1.1c-0.5,0.1-1.1,0.3-1.6,0.4c-1,0.3-1.9,0.5-2.9,0.8c-0.1,0-0.2,0-0.3,0.1
	c-1.4,0.4-2.8,0.8-4.3,1.1c-31.8,8.4-65.2,16.2-100.4,23.6c-40.4,8.4-76.5,12.1-109.1,12.1c-77.4,0-135.1-20.9-185.2-49
	c0.7,0.7,1.4,1.4,2,2.1c21.2,11.7,43.7,22.2,68.3,30.2c31.4,10.3,63.5,15.9,98.2,17.2c5.4,0.2,10.9,0.3,16.4,0.3
	c34.1,0,70.1-4,109.5-12.2c36-7.5,70-15.6,102.1-24.2c1.4-0.4,2.8-0.8,4.2-1.2c0.1,0,0.2-0.1,0.3-0.1c1-0.3,1.9-0.5,2.9-0.8
	c0.6-0.2,1.1-0.3,1.7-0.5c1.4-0.4,2.7-0.8,4.1-1.1c0.2,0,0.3-0.1,0.5-0.1c1-0.3,1.9-0.5,2.9-0.8c0.6-0.2,1.1-0.3,1.7-0.5
	c1.5-0.4,3-0.9,4.5-1.3c1.1-0.3,2.2-0.6,3.3-1c0.4-0.1,0.8-0.2,1.2-0.3c0.8-0.2,1.6-0.5,2.3-0.7c0.7-0.2,1.5-0.4,2.2-0.7
	c1.5-0.4,2.9-0.9,4.4-1.3c1.3-0.4,2.5-0.7,3.8-1.1c0.1,0,0.1,0,0.2-0.1c1.5-0.4,2.9-0.9,4.4-1.3c1.5-0.4,2.9-0.9,4.4-1.3
	c1.4-0.4,2.9-0.9,4.3-1.3c0.4-0.1,0.7-0.2,1.1-0.3C757.5,178.4,761.7,176.9,765.9,175.4 M284,171.4c1,0.9,2,1.9,3,2.8
	c2,1.2,4.1,2.5,6.2,3.7c-0.8-0.8-1.6-1.6-2.5-2.5C288.4,174.1,286.2,172.7,284,171.4 M782,170.3c-0.2,0.1-0.5,0.2-0.7,0.3
	c0.1,0,0.1,0,0.2,0C781.6,170.5,781.8,170.4,782,170.3 M786.4,168.7c-0.1,0-0.1,0-0.2,0.1c-0.5,0.2-1,0.5-1.5,0.8
	c0.2-0.1,0.3-0.1,0.5-0.2C785.6,169.1,786,168.9,786.4,168.7 M791.1,167.1c-0.5,0.2-0.9,0.3-1.4,0.5c-0.4,0.2-0.7,0.4-1.1,0.6
	c0.5-0.2,1.1-0.4,1.6-0.6C790.5,167.4,790.8,167.3,791.1,167.1 M275,165.8c1.3,1.2,2.6,2.3,3.9,3.5c1.7,1.1,3.4,2.1,5.1,3.2
	c-1-1-2-1.9-3.1-2.9C279,168.3,277,167,275,165.8 M266.2,160.1c1.8,1.5,3.6,3,5.4,4.5c1.2,0.7,2.3,1.5,3.5,2.2
	c-1.3-1.2-2.7-2.4-4-3.6C269.4,162.2,267.8,161.2,266.2,160.1 M257.5,154.4c2.6,2.1,5.3,4.1,7.9,6.2c0.3,0.2,0.5,0.4,0.8,0.6
	c-1.9-1.6-3.7-3.1-5.6-4.7C259.6,155.8,258.6,155.1,257.5,154.4 M835.1,150.8c-13.6,5.3-27.5,10.5-41.8,15.5
	c-0.3,0.2-0.6,0.3-0.8,0.5C807.1,161.7,821.3,156.3,835.1,150.8 M0,34.1v0.9c22.6,2,43.4,5.9,62.8,11.4c3,0.9,6,1.7,9,2.7
	c4,1.2,7.9,2.6,11.8,3.9c2.3,0.8,4.5,1.6,6.8,2.5c3.7,1.4,7.3,2.8,10.9,4.3c1.8,0.8,3.7,1.5,5.5,2.3c3.3,1.4,6.6,2.9,9.9,4.5
	c1.7,0.8,3.4,1.6,5,2.4c2.8,1.4,5.6,2.8,8.4,4.2c1.6,0.8,3.2,1.6,4.7,2.5c2.5,1.3,5.1,2.7,7.6,4.1c1.5,0.8,3,1.7,4.6,2.5
	c2.3,1.3,4.5,2.6,6.7,3.9c1.5,0.9,3,1.8,4.5,2.7c2,1.2,4,2.4,6,3.6c1.5,0.9,3,1.9,4.6,2.8c1.8,1.1,3.5,2.2,5.2,3.3
	c1.6,1,3.1,2,4.7,3c1.5,1,3,2,4.5,2.9c1.7,1.1,3.4,2.2,5,3.3c1.2,0.8,2.4,1.6,3.6,2.4c1.9,1.3,3.7,2.5,5.6,3.8
	c0.8,0.6,1.7,1.1,2.5,1.7c2.1,1.5,4.3,2.9,6.4,4.4c0.2,0.2,0.5,0.3,0.7,0.5c1,0.7,1.9,1.3,2.9,2c4.4,3.1,8.9,6.2,13.3,9.3
	c3,2.1,6,4.2,8.9,6.2c5.6,3.9,11.3,7.8,17,11.7c-5.6-4.1-11.1-8.2-16.6-12.3c-1-0.7-2-1.5-3-2.2c-2-1.4-3.9-2.7-5.9-4.1
	c-0.1,0-0.2-0.1-0.2-0.2c-0.3-0.2-0.7-0.5-1.1-0.7c-2.5-1.8-5-3.5-7.6-5.3c-0.9-0.6-1.7-1.2-2.6-1.8c-2-1.4-4.1-2.8-6.1-4.2
	c-1.2-0.8-2.4-1.7-3.6-2.5c-1.8-1.2-3.6-2.4-5.3-3.6c-1.5-1-2.9-2-4.4-3c-1.6-1.1-3.2-2.2-4.8-3.2c-1.7-1.1-3.3-2.2-5-3.3
	c-1.5-1-3-2-4.5-3c-1.9-1.2-3.7-2.4-5.6-3.6c-1.5-0.9-2.9-1.8-4.4-2.8c-2.1-1.3-4.1-2.6-6.2-3.8c-1.4-0.9-2.9-1.7-4.3-2.6
	c-2.3-1.4-4.6-2.7-6.9-4c-1.5-0.8-2.9-1.7-4.4-2.5c-2.5-1.4-5.1-2.8-7.7-4.2c-1.5-0.8-3-1.6-4.5-2.4c-2.8-1.5-5.6-2.9-8.4-4.3
	c-1.6-0.8-3.2-1.6-4.8-2.3c-0.3-0.1-0.6-0.3-0.8-0.4c-3-1.4-6-2.8-9-4.2c-1.7-0.8-3.5-1.5-5.2-2.3c-3.6-1.6-7.3-3-10.9-4.5
	c-2.2-0.8-4.3-1.7-6.5-2.5c-3.9-1.4-7.8-2.8-11.7-4.1c-2.8-0.9-5.7-1.8-8.5-2.7C46.1,40.4,23.5,36.1,0,34.1"/>
<path class="st0" d="M300.4,184.2c0.9,0.9,1.9,1.9,2.8,2.8c2.1,1.3,4.3,2.6,6.5,3.9c-0.8-0.8-1.5-1.6-2.3-2.4
	C305.1,187,302.7,185.6,300.4,184.2 M291.5,178.5c1.2,1.1,2.4,2.2,3.6,3.3c1.8,1.2,3.7,2.3,5.5,3.5c-0.9-0.9-1.9-1.9-2.8-2.8
	C295.6,181.2,293.6,179.8,291.5,178.5 M773.4,172.8c-0.4,0.2-0.9,0.3-1.3,0.5c-0.6,0.2-1.1,0.4-1.7,0.6c-1.5,0.5-3,1.1-4.5,1.6
	c-4.2,1.5-8.4,3-12.7,4.4c-0.3,0.1-0.5,0.2-0.8,0.3c-1.2,0.4-2.3,0.8-3.5,1.2c-1.3,0.4-2.5,0.8-3.8,1.3c-1.3,0.4-2.6,0.9-4,1.3
	c-0.1,0-0.3,0.1-0.4,0.1c-1.1,0.4-2.2,0.7-3.3,1.1c-1.4,0.4-2.7,0.9-4.1,1.3c-0.7,0.2-1.5,0.5-2.2,0.7c-0.7,0.2-1.4,0.4-2,0.7
	c-0.4,0.1-0.9,0.3-1.3,0.4c-1,0.3-2,0.6-3,1c-1.4,0.5-2.9,0.9-4.3,1.4c-0.6,0.2-1.2,0.4-1.8,0.6c-0.9,0.3-1.7,0.5-2.6,0.8
	c-0.2,0.1-0.4,0.1-0.6,0.2c-1.3,0.4-2.5,0.8-3.8,1.2c-0.6,0.2-1.2,0.4-1.8,0.5c-0.9,0.3-1.8,0.5-2.6,0.8c-0.2,0-0.3,0.1-0.5,0.1
	c-1.3,0.4-2.6,0.8-3.9,1.2c-31.4,9.6-64.6,18.6-99.6,27.4c-44.3,11.1-83.3,15.9-118.2,15.9c-73.1,0-128-21.1-175.7-49.5
	c0.8,0.8,1.5,1.6,2.3,2.4c21.3,12.5,43.9,23.6,68.6,31.8c31,10.3,62.9,15.7,97.4,16.3c2.2,0,4.4,0.1,6.6,0.1
	c36.8,0,75.9-5.3,119.1-16.1c35.8-8.9,69.5-18.3,101.1-28c1.3-0.4,2.6-0.8,3.9-1.2c0.2,0,0.4-0.1,0.5-0.2c0.9-0.3,1.7-0.5,2.6-0.8
	c0.6-0.2,1.2-0.4,1.9-0.6c1.3-0.4,2.5-0.8,3.8-1.2c0.2-0.1,0.5-0.1,0.7-0.2c0.9-0.3,1.7-0.6,2.6-0.8c0.6-0.2,1.2-0.4,1.9-0.6
	c1.5-0.5,2.9-0.9,4.4-1.4c1-0.3,2-0.6,2.9-1c0.5-0.2,1-0.3,1.5-0.5c0.7-0.2,1.3-0.4,2-0.7c0.8-0.3,1.6-0.5,2.4-0.8
	c1.4-0.5,2.9-0.9,4.3-1.4c1.1-0.4,2.1-0.7,3.2-1.1c0.2-0.1,0.5-0.2,0.7-0.2c1.4-0.5,2.9-1,4.3-1.5c1.4-0.5,2.8-1,4.2-1.4
	c1.4-0.5,2.8-1,4.2-1.4c1.1-0.4,2.2-0.8,3.3-1.2C764.4,176.3,768.9,174.5,773.4,172.8 M282.7,172.6c1.6,1.4,3.3,2.9,4.9,4.3
	c1.3,0.9,2.7,1.8,4,2.6c-1.2-1.1-2.4-2.3-3.6-3.4C286.2,175,284.5,173.8,282.7,172.6 M274,166.7c2.5,2.1,5,4.2,7.6,6.2
	c0.4,0.3,0.8,0.6,1.2,0.8c-1.7-1.5-3.4-3-5-4.5C276.5,168.4,275.3,167.5,274,166.7 M794.7,164.9c-0.3,0.1-0.6,0.2-0.9,0.3
	c-0.6,0.4-1.2,0.7-1.9,1.1c0.4-0.2,0.8-0.3,1.2-0.5C793.7,165.5,794.2,165.2,794.7,164.9 M265.4,160.6c0.5,0.4,1.1,0.9,1.7,1.3
	c-0.3-0.2-0.6-0.5-0.9-0.7C266,161,265.7,160.8,265.4,160.6 M887.2,124.4c-28.2,14.1-58.1,27.2-90,39.5c-0.5,0.3-1,0.6-1.4,0.9
	c27.5-10.6,53.2-21.7,77.4-33.4C877.9,129.1,882.6,126.8,887.2,124.4 M0,32.5v0.8c28.6,2,54.3,7.3,78,14.9c2.7,0.9,5.3,1.8,8,2.7
	c4,1.4,7.9,2.9,11.8,4.4c2,0.8,4,1.6,6,2.4c3.7,1.5,7.3,3.1,10.9,4.7c1.6,0.7,3.2,1.5,4.9,2.3c3.3,1.6,6.6,3.2,9.8,4.8
	c1.5,0.8,3,1.5,4.4,2.3c2.9,1.5,5.7,3,8.5,4.6c1.4,0.8,2.8,1.5,4.2,2.3c2.6,1.5,5.2,3,7.7,4.5c1.3,0.8,2.7,1.6,4,2.4
	c2.3,1.4,4.6,2.8,6.9,4.3c1.3,0.8,2.6,1.6,3.9,2.5c2.1,1.4,4.2,2.7,6.3,4.1c1.3,0.9,2.6,1.7,3.9,2.6c1.9,1.3,3.8,2.6,5.7,3.9
	c1.3,0.9,2.6,1.8,3.9,2.7c1.7,1.2,3.4,2.4,5.1,3.6c1.4,1,2.7,1.9,4.1,2.9c1.5,1.1,3,2.1,4.5,3.2c1.5,1.1,2.9,2.1,4.4,3.2
	c1.3,0.9,2.5,1.8,3.8,2.8c1.6,1.2,3.3,2.4,4.9,3.6c0.9,0.7,1.9,1.4,2.8,2.1c1.9,1.4,3.8,2.8,5.7,4.2c0.4,0.3,0.9,0.6,1.3,1
	c1.4,1,2.7,2,4.1,3.1c1,0.7,2,1.5,3,2.2c5.5,4.1,11,8.2,16.6,12.3c5.5,4,11,8,16.5,12c-5.7-4.4-11.4-8.9-17.1-13.5
	c-2.6-1.9-5.2-3.9-7.8-5.8c-0.5-0.4-1-0.8-1.6-1.2c-2.1-1.5-4.1-3.1-6.1-4.6c-0.2-0.2-0.4-0.3-0.6-0.5c-1-0.7-2-1.5-3-2.2
	c-1.8-1.3-3.6-2.7-5.4-4c-1.3-0.9-2.5-1.9-3.8-2.8c-1.6-1.2-3.1-2.3-4.7-3.5c-1.5-1.1-3-2.2-4.4-3.3c-1.4-1-2.9-2.1-4.3-3.1
	c-1.6-1.2-3.3-2.4-5-3.6c-1.3-0.9-2.7-1.9-4-2.8c-1.8-1.3-3.6-2.6-5.5-3.9c-1.3-0.9-2.6-1.8-3.8-2.7c-2-1.4-4-2.7-5.9-4.1
	c-1.3-0.9-2.5-1.7-3.8-2.5c-2.1-1.4-4.3-2.9-6.5-4.3c-1.3-0.8-2.5-1.6-3.8-2.4c-2.3-1.5-4.7-3-7.1-4.4c-1.3-0.8-2.6-1.6-3.9-2.4
	c-2.6-1.6-5.2-3.1-7.8-4.6c-1.3-0.8-2.7-1.5-4-2.3c-2.8-1.6-5.7-3.2-8.5-4.7c-1.4-0.8-2.8-1.5-4.3-2.3c-3.2-1.7-6.5-3.3-9.8-4.9
	c-1.6-0.8-3.1-1.5-4.7-2.2c-3.6-1.7-7.2-3.3-10.8-4.8c-1.9-0.8-3.8-1.6-5.7-2.4c-3.8-1.6-7.7-3-11.6-4.5c-2.5-0.9-5-1.8-7.6-2.7
	C57.6,40.5,30.4,34.7,0,32.5"/>
<path class="st0" d="M308.5,192.1c1,1,2,2,3,2.9c1.9,1.3,3.8,2.5,5.8,3.7c-0.8-0.8-1.5-1.6-2.3-2.4
	C312.8,195,310.6,193.6,308.5,192.1 M299.7,186.1c1.4,1.3,2.8,2.6,4.3,3.9c1.5,1,2.9,2,4.4,3c-1-1-2.1-2-3.1-3
	C303.4,188.7,301.6,187.4,299.7,186.1 M291.1,180c2.2,1.9,4.5,3.9,6.8,5.8c0.6,0.4,1.2,0.8,1.7,1.2c-1.5-1.3-2.9-2.7-4.4-4.1
	C293.8,181.9,292.5,181,291.1,180 M282.6,173.7c0.9,0.7,1.8,1.5,2.7,2.2c-0.4-0.4-0.9-0.8-1.3-1.2
	C283.5,174.4,283.1,174.1,282.6,173.7 M780.5,169.9c-2.4,0.9-4.8,1.9-7.1,2.8c-4.5,1.8-9,3.5-13.5,5.3c-0.9,0.3-1.7,0.7-2.6,1
	c-1.2,0.5-2.4,0.9-3.5,1.3c-1.2,0.5-2.5,0.9-3.8,1.4c-1.3,0.5-2.6,1-3.9,1.4c-0.3,0.1-0.6,0.2-0.9,0.3c-0.9,0.3-1.9,0.7-2.8,1
	c-1.3,0.5-2.7,1-4,1.5c-0.8,0.3-1.6,0.6-2.4,0.9c-0.6,0.2-1.2,0.4-1.7,0.6c-0.5,0.2-1,0.4-1.5,0.6c-0.9,0.3-1.8,0.6-2.6,0.9
	c-1.4,0.5-2.8,1-4.2,1.5c-0.6,0.2-1.3,0.4-1.9,0.7c-0.8,0.3-1.6,0.6-2.3,0.8c-0.3,0.1-0.5,0.2-0.8,0.3c-1.2,0.4-2.3,0.8-3.5,1.2
	c-0.6,0.2-1.3,0.4-1.9,0.7c-0.8,0.3-1.6,0.6-2.4,0.8c-0.2,0.1-0.4,0.1-0.6,0.2c-1.2,0.4-2.4,0.8-3.7,1.3
	c-31.1,10.7-63.9,21.1-98.7,31.2c-48.7,14.2-90.6,20.3-127.5,20.3c-68.4,0-119.5-21-165.2-50.2c0.7,0.8,1.5,1.6,2.3,2.3
	c21.2,13.3,43.7,24.7,68.8,33.3c30.1,10.2,61.1,15.2,94.7,15.2c0.6,0,1.2,0,1.9,0c38.5-0.2,79.5-6.8,125.3-20.2
	c35.5-10.4,68.8-21,100.1-31.9c1.2-0.4,2.4-0.8,3.7-1.3c0.2-0.1,0.5-0.2,0.7-0.2c0.8-0.3,1.6-0.6,2.4-0.8c0.7-0.2,1.3-0.5,2-0.7
	c1.2-0.4,2.3-0.8,3.5-1.2c0.3-0.1,0.6-0.2,0.9-0.3c0.8-0.3,1.5-0.6,2.3-0.8c0.7-0.2,1.3-0.5,2-0.7c1.4-0.5,2.9-1,4.3-1.5
	c0.9-0.3,1.7-0.6,2.6-1c0.6-0.2,1.1-0.4,1.7-0.6c0.6-0.2,1.1-0.4,1.7-0.6c0.9-0.3,1.7-0.6,2.6-1c1.4-0.5,2.8-1,4.1-1.5
	c0.9-0.3,1.8-0.7,2.7-1c0.4-0.1,0.7-0.3,1.1-0.4c1.4-0.5,2.8-1,4.1-1.6c1.4-0.5,2.7-1,4.1-1.6c1.3-0.5,2.7-1,4-1.5
	c1.3-0.5,2.6-1,4-1.5c0.5-0.2,1-0.4,1.5-0.6C771.1,174,775.8,172,780.5,169.9 M798.2,162.7c-0.1,0-0.1,0-0.1,0.1
	c-0.8,0.5-1.6,0.9-2.4,1.4c0.2-0.1,0.4-0.2,0.6-0.3C796.9,163.5,797.5,163.1,798.2,162.7 M1000,46.5
	c-56.3,45.1-121.2,82-198.6,114.8c-0.7,0.4-1.4,0.9-2.2,1.3C879.4,128.7,944.6,91,1000,47V46.5L1000,46.5z M0,31v0.8
	c34.9,1.9,65.5,8.6,93.1,18.5c2.4,0.9,4.8,1.7,7.1,2.7c4,1.5,7.8,3.1,11.7,4.8c1.8,0.8,3.6,1.6,5.3,2.4c3.6,1.6,7.2,3.4,10.8,5.1
	c1.5,0.7,2.9,1.4,4.3,2.2c3.3,1.7,6.5,3.4,9.7,5.1c1.3,0.7,2.6,1.5,3.9,2.2c2.9,1.6,5.7,3.3,8.5,4.9c1.2,0.7,2.5,1.5,3.7,2.2
	c2.6,1.6,5.2,3.2,7.7,4.8c1.2,0.7,2.3,1.5,3.5,2.3c2.4,1.5,4.7,3.1,7,4.7c1.1,0.8,2.3,1.5,3.4,2.3c2.2,1.5,4.3,3,6.5,4.5
	c1.1,0.8,2.2,1.6,3.3,2.4c2,1.4,4,2.9,6,4.3c1.1,0.8,2.2,1.6,3.4,2.5c1.8,1.4,3.7,2.7,5.5,4.1c1.1,0.9,2.3,1.7,3.4,2.6
	c1.7,1.3,3.4,2.6,5,3.8c1.2,0.9,2.4,1.9,3.6,2.8c1.5,1.2,3,2.4,4.6,3.5c1.3,1,2.6,2,3.9,3c1.3,1,2.7,2.1,4,3.1
	c1.4,1.1,2.9,2.3,4.3,3.4c1.1,0.8,2.1,1.7,3.2,2.5c1.7,1.3,3.4,2.7,5,4c0.3,0.2,0.5,0.4,0.8,0.6c0.4,0.3,0.7,0.6,1.1,0.8
	c1.7,1.4,3.5,2.8,5.2,4.1c5.7,4.5,11.4,9,17.1,13.5c5.7,4.4,11.3,8.7,17,13c-5.2-4.2-10.3-8.5-15.5-12.8c-0.6-0.4-1.1-0.9-1.7-1.3
	c-2.7-2.1-5.3-4.1-7.9-6.2c-0.7-0.5-1.4-1.1-2.1-1.6c-2-1.6-4-3.2-6-4.8c-1.1-0.9-2.2-1.7-3.3-2.6c-1.2-0.9-2.3-1.9-3.5-2.8
	c-0.5-0.4-0.9-0.7-1.4-1.1c-1.3-1.1-2.7-2.1-4-3.2c-1.4-1.1-2.8-2.2-4.2-3.3c-1.5-1.2-3-2.4-4.6-3.6c-1.3-1-2.5-2-3.8-3
	c-1.7-1.3-3.3-2.6-5-3.9c-1.2-0.9-2.4-1.8-3.6-2.8c-1.8-1.4-3.5-2.7-5.3-4.1c-1.1-0.8-2.2-1.7-3.4-2.6c-1.9-1.4-3.8-2.9-5.7-4.3
	c-1.1-0.8-2.2-1.6-3.3-2.4c-2-1.5-4.1-3-6.1-4.5c-1.1-0.8-2.2-1.6-3.3-2.3c-2.2-1.6-4.4-3.1-6.6-4.6c-1.1-0.8-2.2-1.5-3.3-2.3
	c-2.4-1.6-4.7-3.2-7.1-4.8c-1.1-0.7-2.3-1.5-3.4-2.2c-2.6-1.7-5.2-3.3-7.8-4.9c-1.2-0.7-2.4-1.5-3.6-2.2c-2.8-1.7-5.6-3.4-8.5-5
	c-1.3-0.7-2.5-1.5-3.8-2.2c-3.2-1.8-6.4-3.5-9.6-5.2c-1.4-0.7-2.8-1.5-4.2-2.2c-3.5-1.8-7.1-3.5-10.7-5.2c-1.7-0.8-3.4-1.6-5.1-2.3
	c-3.8-1.7-7.6-3.3-11.5-4.9c-2.2-0.9-4.5-1.8-6.8-2.6C68.5,40.3,36.6,33,0,31"/>
<path class="st0" d="M316.1,199.5c1.3,1.2,2.6,2.5,3.9,3.7c1.6,1.1,3.1,2.2,4.7,3.3c-0.9-1-1.9-1.9-2.8-2.9
	C319.9,202.2,318,200.8,316.1,199.5 M307.5,193.2c2,1.8,4.1,3.7,6.2,5.5c0.8,0.6,1.5,1.1,2.3,1.7c-1.3-1.3-2.7-2.5-4-3.8
	C310.5,195.4,309,194.3,307.5,193.2 M299.1,186.8c1.3,1.1,2.6,2.2,3.9,3.3c-0.6-0.6-1.3-1.2-1.9-1.7
	C300.4,187.8,299.7,187.3,299.1,186.8 M787.5,166.8c-2.3,1-4.6,2-7,3.1c-4.7,2.1-9.4,4.1-14.2,6.2c-0.4,0.2-0.8,0.3-1.2,0.5
	c-1.1,0.5-2.2,0.9-3.3,1.4c-1.2,0.5-2.3,1-3.5,1.5c-1.2,0.5-2.4,1-3.7,1.5c-1.3,0.5-2.5,1-3.8,1.6c-0.4,0.2-0.8,0.3-1.2,0.5
	c-0.8,0.3-1.6,0.7-2.4,1c-1.3,0.5-2.6,1.1-3.9,1.6c-0.8,0.3-1.7,0.7-2.6,1c-0.5,0.2-1,0.4-1.5,0.6c-0.6,0.2-1.1,0.5-1.7,0.7
	c-0.8,0.3-1.6,0.6-2.3,0.9c-1.4,0.5-2.7,1.1-4.1,1.6c-0.7,0.3-1.4,0.5-2,0.8c-0.7,0.3-1.4,0.5-2.1,0.8c-0.3,0.1-0.6,0.2-0.9,0.4
	c-1.1,0.4-2.1,0.8-3.2,1.3c-0.7,0.3-1.3,0.5-2,0.8c-0.7,0.3-1.5,0.6-2.2,0.8c-0.3,0.1-0.5,0.2-0.8,0.3c-1.1,0.4-2.3,0.9-3.4,1.3
	c-30.7,11.9-63.2,23.5-97.8,35.1c-51.6,17.3-95.4,24.7-133.7,24.7c-65.4,0-114.5-21.5-158.5-51.4c0.9,0.9,1.8,1.9,2.7,2.8
	c21.3,14.2,43.9,26.3,69.3,35.1c27.5,9.5,55.9,14.2,86.5,14.2c3,0,6,0,9.1-0.1c38.1-1.1,78.9-9.1,124.7-24.5
	c35.8-12,68.7-23.9,99.2-35.7c1.1-0.4,2.3-0.9,3.4-1.3c0.3-0.1,0.5-0.2,0.8-0.3c0.7-0.3,1.4-0.6,2.2-0.8c0.7-0.3,1.4-0.5,2.1-0.8
	c1.1-0.4,2.1-0.8,3.2-1.3c0.3-0.1,0.7-0.3,1-0.4c0.7-0.3,1.4-0.6,2.1-0.8c0.7-0.3,1.4-0.6,2.1-0.9c1.4-0.6,2.8-1.1,4.2-1.7
	c0.8-0.3,1.6-0.6,2.3-0.9c0.6-0.2,1.2-0.5,1.8-0.7c0.5-0.2,1-0.4,1.4-0.6c0.9-0.4,1.8-0.7,2.7-1.1c1.4-0.6,2.7-1.1,4.1-1.7
	c0.8-0.3,1.6-0.7,2.4-1c0.5-0.2,0.9-0.4,1.4-0.6c1.4-0.6,2.7-1.1,4.1-1.7c1.3-0.6,2.7-1.1,4-1.7c1.3-0.6,2.7-1.1,4-1.7
	c0.9-0.4,1.8-0.8,2.7-1.1C774.9,172.9,781.2,169.9,787.5,166.8 M798.6,162.5c-0.2,0.1-0.4,0.2-0.6,0.3c0.1,0,0.1,0,0.1-0.1
	C798.3,162.6,798.4,162.6,798.6,162.5 M1000,37.5c-53.5,45.7-115.4,84-189.7,118.9c-1.8,0.9-3.6,1.8-5.4,2.7c-1,0.7-2.1,1.3-3.1,2
	c24.7-11.4,47.7-23,69.4-34.9c48.4-26.6,91-55.5,128.8-87.6V37.5L1000,37.5z M0,29.8v0.8c6.3,0.2,12.4,0.6,18.5,1.1
	c33.2,3,62.3,10.4,88.7,20.9c2.1,0.9,4.3,1.7,6.4,2.6c3.9,1.7,7.7,3.4,11.5,5.1c1.6,0.8,3.2,1.5,4.8,2.3c3.6,1.8,7.1,3.6,10.6,5.4
	c1.3,0.7,2.6,1.4,3.9,2.1c3.2,1.8,6.4,3.6,9.6,5.4c1.2,0.7,2.4,1.4,3.6,2.1c2.9,1.7,5.7,3.5,8.5,5.3c1.1,0.7,2.2,1.4,3.3,2.1
	c2.6,1.7,5.2,3.4,7.7,5.1c1,0.7,2.1,1.4,3.1,2.1c2.4,1.7,4.8,3.3,7.1,5c1,0.7,2,1.4,3,2.2c2.2,1.6,4.4,3.2,6.6,4.9
	c1,0.7,2,1.5,2.9,2.2c2.1,1.6,4.1,3.1,6.1,4.7c1,0.8,2,1.5,2.9,2.3c1.9,1.5,3.8,3,5.8,4.6c1,0.8,2,1.6,3,2.4
	c1.8,1.4,3.6,2.9,5.4,4.4c1,0.8,2,1.7,3.1,2.5c1.7,1.4,3.4,2.8,5.1,4.2c1.1,0.9,2.1,1.8,3.2,2.6c1.6,1.3,3.1,2.6,4.7,3.9
	c1.1,1,2.3,1.9,3.4,2.9c1.4,1.2,2.8,2.4,4.2,3.5c1.3,1.1,2.6,2.2,3.8,3.3c0.6,0.5,1.2,1,1.9,1.6c0.5,0.4,1.1,0.9,1.6,1.3
	c1.5,1.3,3,2.5,4.5,3.8c0.8,0.7,1.5,1.3,2.3,2c1.9,1.6,3.7,3.1,5.6,4.7c0.3,0.2,0.6,0.5,0.9,0.7c5.2,4.3,10.3,8.6,15.5,12.8
	c5.5,4.5,11.1,8.9,16.6,13.2c-4.7-3.9-9.3-7.9-13.9-12c-0.9-0.7-1.8-1.5-2.7-2.2c-0.3-0.3-0.7-0.6-1-0.8c-2.5-2.1-5-4.1-7.6-6.2
	c-0.8-0.7-1.6-1.4-2.5-2.1c-1.8-1.5-3.6-3-5.4-4.5c-1.2-1-2.4-2-3.6-3c-1.5-1.2-2.9-2.4-4.3-3.7c-1.4-1.2-2.8-2.4-4.2-3.5
	c-0.4-0.4-0.9-0.7-1.3-1.1c-0.8-0.7-1.6-1.4-2.5-2.1c-1.6-1.3-3.1-2.6-4.7-4c-1.1-0.9-2.2-1.9-3.3-2.8c-1.7-1.4-3.4-2.8-5-4.2
	c-1-0.9-2.1-1.7-3.1-2.6c-1.8-1.5-3.6-3-5.3-4.4c-1-0.8-2-1.7-3-2.5c-1.9-1.5-3.7-3-5.6-4.6c-1-0.8-1.9-1.6-2.9-2.3
	c-2-1.6-3.9-3.1-5.9-4.7c-1-0.7-1.9-1.5-2.9-2.3c-2.1-1.6-4.2-3.2-6.3-4.8c-1-0.7-1.9-1.5-2.9-2.2c-2.2-1.7-4.4-3.3-6.7-5
	c-1-0.7-2-1.4-3-2.2c-2.4-1.7-4.8-3.4-7.2-5.1c-1-0.7-2-1.4-3.1-2.1c-2.6-1.8-5.1-3.5-7.8-5.2c-1.1-0.7-2.2-1.4-3.2-2.1
	c-2.8-1.8-5.6-3.6-8.5-5.3c-1.1-0.7-2.3-1.4-3.5-2.1c-3.1-1.9-6.3-3.7-9.5-5.5c-1.3-0.7-2.5-1.4-3.8-2.1c-3.5-1.9-7-3.7-10.5-5.5
	c-1.5-0.8-3.1-1.5-4.6-2.3c-3.7-1.8-7.5-3.5-11.4-5.2c-2-0.9-4.1-1.7-6.1-2.6C83.4,42,53.2,34,18.6,31C12.5,30.4,6.3,30.1,0,29.8"/>
<path class="st0" d="M323.7,206.7c1.8,1.7,3.6,3.3,5.4,5c0.9,0.7,1.9,1.4,2.9,2.1c-1.2-1.2-2.3-2.3-3.5-3.5
	C326.9,209.1,325.3,207.9,323.7,206.7 M315.4,200.2c1.6,1.4,3.3,2.9,4.9,4.3c-0.8-0.7-1.6-1.5-2.4-2.3
	C317.1,201.5,316.2,200.9,315.4,200.2 M802.7,159.3c-5,2.5-10.1,5-15.3,7.5c-6.2,3-12.6,6-19,9c-0.7,0.3-1.5,0.7-2.2,1
	c-1.2,0.5-2.3,1.1-3.4,1.6c-1.2,0.5-2.4,1.1-3.6,1.6c-1.2,0.6-2.5,1.1-3.7,1.7c-0.5,0.2-0.9,0.4-1.4,0.6c-0.7,0.3-1.4,0.6-2.1,0.9
	c-1.3,0.6-2.5,1.1-3.8,1.7c-0.9,0.4-1.8,0.8-2.6,1.2c-0.4,0.2-0.8,0.4-1.3,0.6c-0.6,0.3-1.2,0.5-1.8,0.8c-0.7,0.3-1.4,0.6-2.1,0.9
	c-1.3,0.6-2.6,1.2-4,1.8c-0.7,0.3-1.4,0.6-2.1,0.9c-0.6,0.3-1.2,0.5-1.9,0.8c-0.4,0.2-0.7,0.3-1.1,0.5c-1,0.4-2,0.9-3,1.3
	c-0.7,0.3-1.4,0.6-2.1,0.9c-0.7,0.3-1.3,0.6-2,0.8c-0.3,0.1-0.6,0.3-0.9,0.4c-1.1,0.5-2.1,0.9-3.2,1.4c-30.3,13.1-62.5,26-96.8,39.1
	c-54.1,20.6-99.5,29.3-138.8,29.3c-62.9,0-110.3-22.2-152.7-52.9c1.1,1.1,2.3,2.2,3.4,3.4c41.5,29.4,88,50.3,149.2,50.3
	c39.4,0,84.9-8.7,139.1-29.4c35.5-13.5,68.1-26.7,98.1-39.7c1.1-0.5,2.1-0.9,3.2-1.4c0.3-0.1,0.6-0.3,0.9-0.4c0.7-0.3,1.3-0.6,2-0.9
	c0.7-0.3,1.4-0.6,2.1-0.9c1-0.4,2-0.9,3-1.3c0.4-0.2,0.8-0.3,1.1-0.5c0.6-0.3,1.3-0.6,1.9-0.8c0.7-0.3,1.5-0.7,2.2-1
	c1.4-0.6,2.7-1.2,4.1-1.8c0.7-0.3,1.4-0.6,2.1-0.9c0.7-0.3,1.3-0.6,2-0.9c0.4-0.2,0.8-0.4,1.2-0.6c0.9-0.4,1.9-0.8,2.8-1.3
	c1.3-0.6,2.6-1.2,3.9-1.8c0.7-0.3,1.4-0.6,2.1-0.9c0.5-0.3,1.1-0.5,1.6-0.7c1.3-0.6,2.6-1.2,3.9-1.8c0,0,0,0,0.1,0
	c1.3-0.6,2.5-1.2,3.8-1.7c0,0,0.1,0,0.1-0.1c1.3-0.6,2.5-1.2,3.8-1.8c0,0,0,0,0.1,0c1.3-0.6,2.5-1.2,3.8-1.8
	c1.3-0.6,2.5-1.2,3.8-1.8c1.3-0.6,2.5-1.2,3.7-1.8c0.2-0.1,0.5-0.2,0.7-0.3c6.2-3.2,12.4-6.4,18.4-9.6
	C801.2,160.2,802,159.8,802.7,159.3 M0,28.6v0.8c9.8,0.2,19.3,0.7,28.6,1.6c35,3.5,65.5,12.1,92.8,24c1.9,0.8,3.8,1.7,5.7,2.6
	c3.8,1.8,7.6,3.6,11.3,5.5c1.5,0.7,2.9,1.5,4.3,2.2c3.5,1.9,7,3.8,10.4,5.7c1.2,0.7,2.4,1.4,3.6,2.1c3.2,1.9,6.3,3.8,9.4,5.7
	c1.1,0.7,2.2,1.4,3.2,2.1c2.8,1.8,5.6,3.7,8.4,5.5c1,0.7,2,1.4,3,2c2.6,1.8,5.1,3.6,7.7,5.4c0.9,0.7,1.9,1.4,2.8,2
	c2.4,1.8,4.8,3.5,7.1,5.3c0.9,0.7,1.8,1.4,2.7,2.1c2.2,1.7,4.4,3.4,6.6,5.2c0.9,0.7,1.7,1.4,2.6,2.1c2.1,1.7,4.2,3.4,6.2,5.1
	c0.9,0.7,1.7,1.4,2.6,2.1c2,1.6,3.9,3.3,5.9,4.9c0.9,0.7,1.7,1.4,2.6,2.2c1.9,1.6,3.7,3.2,5.6,4.8c0.9,0.8,1.8,1.5,2.7,2.3
	c1.8,1.6,3.6,3.1,5.4,4.7c0.9,0.8,1.8,1.5,2.6,2.3c1.7,1.5,3.4,3,5.1,4.5c0.9,0.8,1.9,1.7,2.8,2.5c1.6,1.4,3.2,2.8,4.8,4.3
	c1,0.9,2,1.8,3.1,2.7c1.1,1,2.1,1.9,3.2,2.9c0.4,0.3,0.7,0.7,1.1,1c1.1,1,2.3,2,3.4,3.1c1.2,1.1,2.5,2.2,3.7,3.3
	c1.3,1.2,2.7,2.4,4,3.6c0.9,0.8,1.8,1.6,2.7,2.4c1.7,1.5,3.4,3,5,4.5c0.4,0.3,0.8,0.7,1.1,1c0.4,0.4,0.9,0.8,1.3,1.2
	c4.6,4,9.2,8,13.9,12c5.2,4.4,10.4,8.7,15.7,12.9c-4-3.5-8-7.1-12-10.7c-1.3-1.1-2.6-2.2-3.9-3.3c-0.4-0.3-0.8-0.7-1.2-1
	c-2.3-1.9-4.5-3.9-6.8-5.8c-1.2-1-2.3-2-3.5-3c-1.6-1.4-3.3-2.9-4.9-4.3c-1.3-1.1-2.5-2.2-3.8-3.4c-1.3-1.2-2.6-2.3-3.9-3.5
	c-1.5-1.3-2.9-2.6-4.4-3.9c-1.1-1-2.2-2-3.3-3c-1.3-1.2-2.6-2.4-3.9-3.5c-0.3-0.2-0.5-0.5-0.8-0.7c-1-0.9-2-1.8-3-2.7
	c-1.7-1.5-3.4-3-5.1-4.6c-0.9-0.8-1.8-1.6-2.7-2.4c-1.8-1.6-3.6-3.2-5.3-4.7c-0.9-0.8-1.7-1.5-2.6-2.3c-1.9-1.6-3.7-3.3-5.6-4.9
	c-0.9-0.8-1.7-1.5-2.6-2.3c-1.9-1.7-3.8-3.3-5.7-4.9c-0.8-0.7-1.7-1.4-2.5-2.2c-2-1.7-4-3.4-6-5.1c-0.8-0.7-1.7-1.4-2.5-2.1
	c-2.1-1.7-4.2-3.4-6.3-5.2c-0.9-0.7-1.7-1.4-2.6-2.1c-2.2-1.8-4.4-3.5-6.7-5.3c-0.9-0.7-1.8-1.4-2.7-2c-2.4-1.8-4.7-3.6-7.1-5.4
	c-0.9-0.7-1.8-1.4-2.8-2c-2.5-1.8-5.1-3.7-7.7-5.5c-1-0.7-2-1.4-2.9-2c-2.8-1.9-5.5-3.7-8.4-5.6c-1.1-0.7-2.1-1.4-3.2-2
	c-3.1-1.9-6.2-3.9-9.3-5.7c-1.2-0.7-2.3-1.4-3.5-2.1c-3.4-2-6.8-3.9-10.3-5.8c-1.4-0.7-2.8-1.5-4.2-2.2c-3.7-1.9-7.4-3.7-11.1-5.5
	c-1.8-0.9-3.7-1.7-5.5-2.5C96.4,43,65,33.9,28.7,30.3C19.3,29.4,9.8,28.8,0,28.6 M1000,28.1c-50.5,46.2-108.9,85.4-179.4,122.1
	c-4,2.2-8,4.4-12.1,6.7c-1.2,0.7-2.4,1.5-3.6,2.2c1.8-0.9,3.6-1.8,5.4-2.7c21.3-10.8,41.2-21.7,60-32.7
	c49.2-28.8,92-59.8,129.7-93.9V28.1L1000,28.1z"/>
<path class="st0" d="M331.6,213.9c1.9,1.7,3.8,3.4,5.6,5c-0.9-0.9-1.8-1.8-2.7-2.6C333.5,215.4,332.5,214.7,331.6,213.9
	 M800.4,160.7c-6,3.2-12.2,6.4-18.4,9.6c-0.2,0.1-0.4,0.2-0.6,0.3c-1,0.5-2.1,1.1-3.1,1.6c-1.1,0.6-2.2,1.1-3.3,1.7
	c-1.1,0.6-2.3,1.2-3.4,1.7c-0.1,0-0.1,0.1-0.2,0.1c-1.1,0.6-2.2,1.1-3.3,1.7c-0.1,0-0.2,0.1-0.3,0.1c-1.1,0.6-2.2,1.1-3.3,1.7
	c-0.1,0-0.1,0.1-0.2,0.1c-1.1,0.6-2.3,1.2-3.5,1.7c-0.5,0.3-1.1,0.6-1.6,0.8c-0.6,0.3-1.2,0.6-1.9,0.9c-1.2,0.6-2.5,1.2-3.7,1.8
	c-0.9,0.5-1.8,0.9-2.8,1.3c-0.4,0.2-0.7,0.4-1.1,0.5c-0.7,0.3-1.3,0.6-2,1c-0.6,0.3-1.3,0.6-1.9,0.9c-1.3,0.6-2.6,1.3-3.9,1.9
	c-0.7,0.4-1.5,0.7-2.2,1.1c-0.6,0.3-1.1,0.6-1.7,0.8c-0.4,0.2-0.8,0.4-1.2,0.6c-0.9,0.4-1.8,0.9-2.8,1.3c-0.7,0.4-1.4,0.7-2.1,1
	c-0.6,0.3-1.2,0.6-1.8,0.9c-0.3,0.2-0.6,0.3-1,0.5c-1,0.5-2,1-3,1.4c-29.9,14.2-61.8,28.4-95.9,43.1C574.1,265,527.5,275,487.3,275
	c-60.9,0-106.8-23-147.9-54.9c1.8,1.7,3.5,3.4,5.3,5c21.4,16,44,29.4,69.5,38.5c23.2,8.2,47.1,12.3,72.6,12.3
	c6.8,0,13.7-0.3,20.7-0.9c37.3-3,77.6-14,123-33.4c34.9-14.9,67.1-29.4,96.9-43.6c1-0.5,2-1,3-1.4c0.3-0.2,0.7-0.3,1-0.5
	c0.6-0.3,1.2-0.6,1.8-0.9c0.7-0.4,1.5-0.7,2.2-1c0.9-0.4,1.8-0.9,2.8-1.3c0.4-0.2,0.8-0.4,1.2-0.6c0.6-0.3,1.1-0.6,1.7-0.8
	c0.8-0.4,1.5-0.7,2.3-1.1c1.3-0.6,2.6-1.3,3.9-1.9c0.6-0.3,1.3-0.6,1.9-0.9c0.7-0.3,1.4-0.7,2-1c0.4-0.2,0.7-0.3,1.1-0.5
	c0.9-0.5,1.9-0.9,2.8-1.4c1.3-0.6,2.6-1.3,3.8-1.9c0.6-0.3,1.2-0.6,1.8-0.9c0.6-0.3,1.2-0.6,1.8-0.9c1.1-0.6,2.3-1.2,3.4-1.7
	c0.1-0.1,0.2-0.1,0.4-0.2c1.1-0.6,2.2-1.1,3.3-1.7c0.2-0.1,0.3-0.1,0.5-0.2c1.1-0.6,2.2-1.1,3.3-1.7c0.1-0.1,0.3-0.1,0.4-0.2
	c1.2-0.6,2.4-1.2,3.7-1.9c1.2-0.6,2.4-1.2,3.6-1.9c1.2-0.6,2.4-1.2,3.5-1.8c0.5-0.3,1-0.5,1.5-0.8c0.3-0.2,0.7-0.4,1-0.5
	C791.6,165.7,796,163.2,800.4,160.7 M0,27.6v0.8c0.1,0,0.2,0,0.4,0c13.3,0,26.2,0.7,38.6,2.1c36.7,4.1,68.3,13.8,96.5,27.2
	c1.7,0.8,3.5,1.7,5.2,2.5c3.7,1.9,7.4,3.8,11,5.8c1.3,0.7,2.6,1.4,3.9,2.2c3.4,1.9,6.8,3.9,10.2,6c1.1,0.7,2.2,1.3,3.3,2
	c3.1,1.9,6.1,3.9,9.2,5.9c1,0.7,2,1.3,3,2c2.8,1.9,5.5,3.8,8.3,5.8c0.9,0.7,1.8,1.3,2.7,2c2.6,1.9,5.1,3.8,7.6,5.7
	c0.9,0.7,1.7,1.3,2.6,2c2.4,1.8,4.7,3.7,7.1,5.6c0.8,0.7,1.6,1.3,2.4,2c2.2,1.8,4.4,3.6,6.6,5.5c0.8,0.7,1.6,1.3,2.3,2
	c2.1,1.8,4.2,3.6,6.3,5.4c0.8,0.7,1.5,1.3,2.3,2c2,1.8,4,3.5,6,5.3c0.8,0.7,1.5,1.3,2.3,2c1.9,1.7,3.8,3.4,5.7,5.2
	c0.8,0.7,1.6,1.4,2.3,2.1c1.9,1.7,3.7,3.4,5.6,5.2c0.7,0.7,1.5,1.4,2.2,2.1c1.8,1.7,3.6,3.4,5.4,5c0.8,0.7,1.5,1.5,2.3,2.2
	c1.7,1.6,3.4,3.3,5.2,4.9c0.8,0.8,1.7,1.6,2.5,2.4c1.6,1.5,3.2,3,4.8,4.6c0,0,0,0,0,0c0.9,0.9,1.8,1.7,2.7,2.6
	c1.5,1.4,3,2.8,4.5,4.3c1,1,2,1.9,3.1,2.9c1.3,1.3,2.6,2.5,4,3.7c1.2,1.1,2.4,2.3,3.6,3.4c1.2,1.1,2.4,2.2,3.6,3.3
	c1.5,1.4,2.9,2.7,4.4,4.1c0.5,0.4,1,0.9,1.5,1.3c0.6,0.6,1.3,1.2,1.9,1.7c4,3.6,8,7.2,12,10.7c5.5,4.8,11,9.5,16.6,14.1
	c-3.8-3.4-7.5-6.9-11.2-10.4c-1.7-1.4-3.3-2.8-4.9-4.3c-0.6-0.5-1.2-1-1.7-1.5c-2.1-1.8-4.1-3.6-6.2-5.5c-1.2-1.1-2.3-2.1-3.5-3.2
	c-1.4-1.3-2.8-2.6-4.3-3.9c-1.6-1.4-3.1-2.9-4.6-4.3c-1.2-1.1-2.4-2.2-3.6-3.3c-1.5-1.4-3-2.8-4.5-4.3c-1-0.9-2-1.9-3-2.8
	c-1.6-1.5-3.2-3.1-4.9-4.6c-0.9-0.8-1.8-1.7-2.7-2.5c-0.7-0.7-1.5-1.4-2.2-2.1c-1-0.9-1.9-1.9-2.9-2.8c-0.8-0.8-1.7-1.6-2.5-2.4
	c-1.8-1.7-3.6-3.4-5.4-5.1c-0.8-0.7-1.5-1.4-2.3-2.1c-1.8-1.7-3.7-3.5-5.5-5.2c-0.7-0.7-1.5-1.4-2.2-2c-1.9-1.8-3.8-3.5-5.7-5.3
	c-0.8-0.7-1.5-1.4-2.3-2.1c-1.9-1.8-3.9-3.5-5.8-5.3c-0.7-0.7-1.5-1.3-2.2-2c-2-1.8-4-3.6-6-5.4c-0.7-0.7-1.5-1.3-2.3-2
	c-2.1-1.8-4.2-3.6-6.3-5.4c-0.8-0.7-1.5-1.3-2.3-2c-2.2-1.9-4.4-3.7-6.7-5.5c-0.8-0.7-1.6-1.3-2.4-2c-2.3-1.9-4.7-3.8-7.1-5.6
	c-0.8-0.7-1.7-1.3-2.5-2c-2.5-1.9-5-3.8-7.6-5.7c-0.9-0.7-1.8-1.3-2.7-2c-2.7-2-5.5-3.9-8.2-5.8c-1-0.7-1.9-1.3-2.9-2
	c-3-2-6-4-9.1-5.9c-1.1-0.7-2.1-1.3-3.2-2c-3.3-2-6.7-4.1-10.1-6c-1.3-0.7-2.5-1.4-3.8-2.2c-3.6-2-7.2-3.9-10.9-5.8
	c-1.7-0.8-3.3-1.7-5-2.5c-28.9-14-61.4-24.2-99.2-28.4C26.4,28.3,13.4,27.6,0,27.6 M1000,20.1c-50.2,49-109.1,90.7-181.9,131
	c-2.1,1.3-4.3,2.5-6.4,3.8c-1,0.7-2.1,1.3-3.1,2c4.1-2.2,8.1-4.4,12.1-6.7c74.7-41.6,131.6-82.9,179.4-129.4V20.1L1000,20.1z"/>
<path class="st0" d="M816.9,151c-4.6,2.8-9.4,5.5-14.1,8.3c-0.8,0.5-1.6,0.9-2.4,1.4c-4.3,2.5-8.7,5-13.2,7.5
	c-0.3,0.1-0.5,0.3-0.8,0.5c-0.4,0.2-0.8,0.4-1.2,0.7c-1,0.6-2,1.1-3,1.7c-1,0.6-2.1,1.2-3.2,1.8c-1.1,0.6-2.2,1.2-3.3,1.8
	c-0.2,0.1-0.3,0.2-0.5,0.3c-1,0.5-1.9,1-2.9,1.6c-0.2,0.1-0.4,0.2-0.6,0.3c-1,0.5-1.9,1.1-2.9,1.6c-0.2,0.1-0.3,0.2-0.5,0.3
	c-1,0.6-2,1.1-3.1,1.7c-0.6,0.3-1.2,0.6-1.7,1c-0.5,0.3-1.1,0.6-1.6,0.9c-1.2,0.7-2.4,1.3-3.6,2c-0.9,0.5-1.9,1-2.8,1.5
	c-0.3,0.2-0.6,0.3-0.9,0.5c-0.7,0.4-1.3,0.7-2,1.1c-0.6,0.3-1.1,0.6-1.7,0.9c0,0-0.1,0-0.1,0c-1.2,0.7-2.4,1.3-3.7,2
	c-0.7,0.4-1.5,0.8-2.2,1.2c-0.5,0.3-1,0.5-1.5,0.8c-0.4,0.2-0.8,0.4-1.3,0.7c-0.9,0.5-1.7,0.9-2.6,1.3c-0.7,0.4-1.5,0.8-2.2,1.1
	c-0.5,0.3-1.1,0.6-1.7,0.9c-0.4,0.2-0.7,0.4-1,0.6c-0.9,0.5-1.9,1-2.8,1.5c-29.4,15.4-61,30.9-94.8,47.1
	c-57.9,27.6-105.6,39-146.3,39c-59.5,0-104.2-24.3-144.4-57.6c3.4,3.2,6.8,6.2,10.2,9.3c20.6,15.9,42.3,29.2,66.7,38
	c21.3,7.7,43.3,11.4,66.7,11.4c8.3,0,16.8-0.5,25.4-1.4c36.9-4,76.7-16.5,121.9-38c34.9-16.7,66.7-32.5,95.8-47.6
	c0.9-0.5,1.9-1,2.8-1.5c0.4-0.2,0.7-0.4,1.1-0.6c0.5-0.3,1.1-0.6,1.7-0.9c0.7-0.4,1.5-0.8,2.2-1.2c0.9-0.5,1.7-0.9,2.6-1.4
	c0.4-0.2,0.9-0.5,1.3-0.7c0.5-0.3,1-0.5,1.5-0.8c0.8-0.4,1.5-0.8,2.3-1.2c1.2-0.7,2.5-1.3,3.7-2c0,0,0.1,0,0.1-0.1
	c0.6-0.3,1.1-0.6,1.7-0.9c0.7-0.4,1.4-0.7,2.1-1.1c0.3-0.2,0.6-0.3,0.9-0.5c1-0.5,1.9-1,2.9-1.5c1.2-0.7,2.5-1.3,3.7-2
	c0.5-0.3,1.1-0.6,1.6-0.9c0.6-0.3,1.3-0.7,1.9-1c1-0.6,2.1-1.1,3.1-1.7c0.2-0.1,0.4-0.2,0.6-0.3c1-0.5,1.9-1.1,2.9-1.6
	c0.2-0.1,0.5-0.3,0.7-0.4c1-0.5,1.9-1.1,2.9-1.6c0.2-0.1,0.5-0.3,0.7-0.4c1.2-0.7,2.4-1.3,3.5-2c1.2-0.7,2.3-1.3,3.5-2
	c1.1-0.6,2.1-1.2,3.2-1.8c0.1,0,0.2-0.1,0.3-0.1c0.4-0.2,0.7-0.4,1.1-0.6c0.8-0.4,1.5-0.9,2.3-1.3c0.6-0.3,1.2-0.7,1.9-1.1
	c0.6-0.3,1.2-0.7,1.8-1c0.8-0.5,1.6-0.9,2.4-1.4c0.2-0.1,0.4-0.2,0.6-0.3C804.8,158.6,810.9,154.8,816.9,151 M6.7,26.6
	c-2.2,0-4.5,0-6.7,0.1v0.7c2.2,0,4.5-0.1,6.7-0.1c57.1,0,103.2,12.9,142.4,32.9c1.6,0.8,3.1,1.6,4.7,2.4c3.6,1.9,7.2,3.9,10.8,6
	c1.2,0.7,2.4,1.4,3.6,2.1c3.4,2,6.7,4.1,9.9,6.2c1,0.7,2,1.3,3,2c3,2,6,4,9,6.1c0.9,0.6,1.8,1.3,2.7,1.9c2.7,2,5.5,4,8.1,6
	c0.8,0.6,1.7,1.3,2.5,1.9c2.5,1.9,5,3.9,7.5,5.9c0.8,0.6,1.6,1.3,2.3,1.9c2.4,1.9,4.7,3.9,7,5.8c0.7,0.6,1.5,1.3,2.2,1.9
	c2.2,1.9,4.4,3.8,6.6,5.7c0.7,0.6,1.4,1.3,2.1,1.9c2.1,1.9,4.2,3.8,6.3,5.7c0.7,0.6,1.4,1.3,2.1,1.9c2,1.9,4,3.7,6,5.6
	c0.7,0.6,1.3,1.3,2,1.9c1.9,1.8,3.9,3.7,5.8,5.5c0.7,0.7,1.4,1.3,2.1,2c1.9,1.9,3.8,3.7,5.7,5.6c0.6,0.6,1.3,1.3,1.9,1.9
	c1.9,1.8,3.7,3.7,5.6,5.5c0.7,0.7,1.3,1.3,2,2c1.8,1.8,3.6,3.6,5.4,5.4c0.7,0.7,1.4,1.4,2.1,2.1c1.7,1.7,3.4,3.4,5.1,5.1
	c0.5,0.5,1,1,1.5,1.5c0.3,0.3,0.5,0.5,0.8,0.8c1.6,1.7,3.3,3.3,4.9,4.9c0.8,0.8,1.6,1.6,2.5,2.5c1.5,1.5,3.1,3.1,4.6,4.6
	c0.9,0.9,1.9,1.9,2.8,2.8c1.6,1.5,3.1,3.1,4.7,4.6c1,1,2.1,2,3.1,3c1.2,1.2,2.4,2.4,3.6,3.5c1.3,1.3,2.6,2.6,4,3.8
	c0.6,0.6,1.3,1.2,1.9,1.9c0.8,0.8,1.6,1.5,2.4,2.3c3.7,3.5,7.5,7,11.2,10.4c5.3,4.8,10.7,9.4,16.1,13.9c-3.5-3.2-7-6.6-10.5-9.9
	c-1.9-1.6-3.8-3.3-5.6-5c-0.8-0.7-1.6-1.4-2.4-2.1c-1.8-1.7-3.6-3.3-5.4-5c-1.3-1.2-2.5-2.4-3.8-3.5c-1.3-1.2-2.6-2.5-3.9-3.7
	c-1.5-1.5-3-2.9-4.6-4.4c-1-1-2-2-3-2.9c-1.8-1.7-3.5-3.4-5.3-5.2c-0.9-0.9-1.9-1.8-2.8-2.8c-1.6-1.6-3.3-3.3-4.9-4.9
	c-0.8-0.8-1.6-1.6-2.4-2.4c-1.7-1.7-3.4-3.4-5.2-5.2c-0.7-0.7-1.5-1.5-2.2-2.2c-0.1-0.1-0.2-0.2-0.2-0.2c-1.7-1.7-3.4-3.4-5.1-5.1
	c-0.7-0.7-1.4-1.4-2.1-2.1c-1.8-1.8-3.7-3.7-5.5-5.5c-0.6-0.7-1.3-1.3-1.9-1.9c-1.9-1.9-3.8-3.7-5.7-5.6c-0.6-0.6-1.3-1.2-1.9-1.9
	c-1.9-1.9-3.9-3.8-5.8-5.7c-0.7-0.7-1.4-1.3-2.1-2c-1.9-1.9-3.9-3.7-5.9-5.6c-0.7-0.6-1.3-1.3-2-1.9c-2-1.9-4-3.8-6.1-5.7
	c-0.7-0.6-1.4-1.3-2-1.9c-2.1-1.9-4.2-3.8-6.3-5.7c-0.7-0.6-1.4-1.3-2.1-1.9c-2.2-2-4.4-3.9-6.6-5.8c-0.7-0.6-1.5-1.3-2.2-1.9
	c-2.3-2-4.7-3.9-7-5.9c-0.8-0.6-1.5-1.3-2.3-1.9c-2.5-2-5-4-7.5-5.9c-0.8-0.6-1.7-1.3-2.5-1.9c-2.7-2-5.4-4-8.1-6
	c-0.9-0.6-1.8-1.3-2.7-1.9c-2.9-2.1-5.9-4.1-8.9-6.1c-1-0.7-2-1.3-3-2c-3.2-2.1-6.5-4.2-9.8-6.2c-1.2-0.7-2.3-1.4-3.5-2.1
	c-3.5-2.1-7-4.1-10.6-6c-1.5-0.8-3-1.6-4.6-2.4C111.8,40,65,26.6,6.7,26.6 M1000,9.5c-46.9,49.5-102,92.1-170.5,134
	c-5.8,3.8-11.7,7.6-17.8,11.5c2.2-1.3,4.3-2.5,6.4-3.8c18.2-10.8,35.1-21.5,51-32c51.7-34.5,94.1-69.3,131-107.9V9.5L1000,9.5z"/>
<path class="st0" d="M1000,0c-48.8,55.5-107.2,102.7-183.1,151c-6,3.8-12.1,7.6-18.3,11.5c-0.1,0.1-0.3,0.2-0.4,0.2
	c-0.6,0.4-1.3,0.8-1.9,1.2c-0.5,0.3-1,0.6-1.6,1c-0.5,0.3-1,0.6-1.5,0.9c-0.7,0.4-1.4,0.9-2.1,1.3c-0.3,0.2-0.6,0.4-0.9,0.5
	c-0.1,0.1-0.3,0.2-0.4,0.2c-0.9,0.6-1.8,1.1-2.7,1.6c-1.1,0.6-2.1,1.3-3.2,1.9c-1.1,0.7-2.2,1.3-3.3,2c-0.3,0.2-0.6,0.3-0.8,0.5
	c-0.8,0.5-1.7,1-2.5,1.5c-0.3,0.2-0.6,0.3-0.8,0.5c-0.9,0.5-1.7,1-2.6,1.5c-0.2,0.1-0.5,0.3-0.7,0.4c-0.9,0.6-1.9,1.1-2.8,1.7
	c-0.6,0.4-1.2,0.7-1.9,1.1c-0.5,0.3-1,0.6-1.5,0.9c-1.2,0.7-2.4,1.4-3.5,2.1c-0.9,0.6-1.9,1.1-2.8,1.6c-0.3,0.2-0.5,0.3-0.8,0.5
	c-0.7,0.4-1.4,0.8-2.1,1.2c-0.5,0.3-1,0.6-1.6,0.9c-0.1,0-0.2,0.1-0.2,0.1c-1.1,0.7-2.3,1.3-3.4,2c-0.8,0.5-1.5,0.9-2.3,1.3
	c-0.5,0.3-0.9,0.5-1.4,0.8c-0.4,0.3-0.9,0.5-1.3,0.8c-0.8,0.5-1.6,0.9-2.4,1.4c-0.7,0.4-1.5,0.8-2.2,1.3c-0.5,0.3-1,0.6-1.5,0.9
	c-0.4,0.2-0.7,0.4-1.1,0.6c-0.9,0.5-1.8,1-2.6,1.5c-29,16.5-60.2,33.4-93.8,51.1c-56.8,30-105.7,44.7-149.5,44.7
	c-21.5,0-41.9-3.6-61.3-10.6c-28.3-10.3-53-27.3-76.4-47.8c-3.4-3-6.8-6.1-10.2-9.3c-0.5-0.5-1.1-1-1.6-1.5c-1.8-1.7-3.5-3.3-5.3-5
	c-1.3-1.3-2.6-2.6-3.9-3.8c-1.1-1.1-2.3-2.2-3.4-3.4c-1.5-1.5-3.1-3.1-4.6-4.6c-0.9-0.9-1.8-1.9-2.7-2.8c-1.7-1.7-3.4-3.5-5.1-5.2
	c-0.7-0.8-1.5-1.6-2.3-2.3c-1.9-1.9-3.7-3.9-5.6-5.8c-0.8-0.8-1.5-1.6-2.3-2.4c-1.7-1.8-3.4-3.6-5.1-5.4c-0.7-0.7-1.4-1.4-2-2.1
	c-1.8-1.9-3.5-3.7-5.3-5.6c0,0,0,0,0,0c-0.6-0.7-1.2-1.3-1.9-2c-1.8-1.9-3.6-3.8-5.4-5.7c-0.6-0.6-1.2-1.3-1.8-1.9
	c-1.9-2-3.7-3.9-5.6-5.9c-0.6-0.6-1.1-1.2-1.7-1.7c-1.9-2-3.8-4-5.7-6c-0.5-0.6-1.1-1.1-1.6-1.7c-1.9-2-3.9-4-5.9-6
	c-0.6-0.6-1.2-1.3-1.8-1.9c-1.9-2-3.9-3.9-5.9-5.9c-0.6-0.6-1.2-1.2-1.8-1.8c-2-2-4-4-6-5.9c-0.6-0.6-1.2-1.2-1.9-1.8
	c-2.1-2-4.2-4-6.3-6c-0.6-0.6-1.3-1.2-1.9-1.8c-2.2-2-4.4-4-6.6-6c-0.7-0.6-1.3-1.2-2-1.8c-2.3-2-4.6-4.1-7-6.1
	c-0.7-0.6-1.4-1.2-2.1-1.8c-2.4-2.1-4.9-4.1-7.4-6.1c-0.8-0.6-1.5-1.2-2.3-1.9c-2.6-2.1-5.3-4.2-7.9-6.2c-0.8-0.6-1.7-1.3-2.5-1.9
	c-2-1.5-4-3-6.1-4.4c-0.9-0.6-1.7-1.2-2.6-1.9c-0.9-0.7-1.8-1.3-2.8-1.9c-3.2-2.2-6.4-4.3-9.6-6.4c-1.1-0.7-2.2-1.4-3.3-2.1
	c-3.4-2.2-6.9-4.2-10.3-6.2c-1.4-0.8-2.8-1.6-4.2-2.4C132.3,45.3,97.8,33.8,60.5,28.7c-15.1-2.1-30.7-3.1-46.9-3.1
	c-4.5,0-9.1,0.1-13.6,0.2v0.8c4.9-0.2,9.7-0.3,14.5-0.3c15.9,0,31.2,1,45.9,3c39.8,5.4,73.5,17.5,103.2,33.8
	c1.4,0.8,2.8,1.6,4.3,2.4c3.5,2,7,4.1,10.4,6.2c1.1,0.7,2.2,1.4,3.3,2.1c3.2,2.1,6.5,4.2,9.6,6.4c0.9,0.6,1.9,1.3,2.8,1.9
	c2.9,2.1,5.8,4.2,8.7,6.3c0.8,0.6,1.7,1.3,2.5,1.9c2.7,2,5.3,4.1,7.9,6.2c0.8,0.6,1.5,1.2,2.3,1.9c2.5,2,4.9,4,7.4,6.1
	c0.7,0.6,1.4,1.2,2.1,1.8c2.3,2,4.6,4,6.9,6c0.7,0.6,1.4,1.2,2,1.8c2.2,2,4.4,4,6.5,6c0.6,0.6,1.3,1.2,1.9,1.8
	c2.1,2,4.2,3.9,6.2,5.9c0.6,0.6,1.2,1.2,1.9,1.8c2,1.9,4,3.9,6,5.9c0.6,0.6,1.2,1.2,1.8,1.8c1.9,1.9,3.9,3.9,5.8,5.8
	c0.6,0.6,1.2,1.3,1.9,1.9c1.9,2,3.9,4,5.8,5.9c0.6,0.6,1.1,1.1,1.6,1.7c1.9,2,3.8,3.9,5.7,5.9c0.6,0.6,1.1,1.2,1.7,1.8
	c1.8,1.9,3.7,3.9,5.5,5.8c0.6,0.6,1.2,1.3,1.8,1.9c1.8,1.9,3.5,3.7,5.3,5.6c0.6,0.7,1.3,1.3,1.9,2c0.5,0.5,0.9,1,1.4,1.4
	c1.3,1.3,2.5,2.7,3.8,4c0.7,0.7,1.4,1.4,2,2.2c1.7,1.7,3.3,3.5,4.9,5.2c0.8,0.8,1.5,1.6,2.3,2.4c1.8,1.8,3.5,3.7,5.3,5.5
	c0.8,0.8,1.5,1.6,2.3,2.4c1.5,1.6,3.1,3.2,4.6,4.8c0.9,1,1.9,1.9,2.8,2.9c1.3,1.3,2.6,2.6,3.9,3.9c1.2,1.2,2.3,2.3,3.5,3.5
	c0.8,0.8,1.6,1.6,2.5,2.4c0.9,0.9,1.8,1.8,2.7,2.6c3.5,3.4,6.9,6.7,10.5,9.9c26,24,53.2,44,85,55.6c19.6,7.1,39.8,10.6,61.2,10.6
	c9.6,0,19.4-0.7,29.5-2.1c36.4-5.1,75.8-19,120.6-42.7c35-18.4,66.3-35.5,94.6-51.7c0.9-0.5,1.8-1,2.6-1.5c0.4-0.2,0.8-0.4,1.1-0.7
	c0.5-0.3,1-0.6,1.5-0.9c0.8-0.4,1.5-0.9,2.3-1.3c0.8-0.5,1.6-0.9,2.4-1.4c0.5-0.3,0.9-0.5,1.4-0.8c0.5-0.3,0.9-0.5,1.4-0.8
	c0.8-0.5,1.6-0.9,2.3-1.4c1.2-0.7,2.3-1.3,3.5-2c0.1,0,0.2-0.1,0.3-0.2c0.5-0.3,1-0.6,1.6-0.9c0.7-0.4,1.4-0.8,2.1-1.2
	c0.3-0.2,0.5-0.3,0.8-0.5c1-0.6,1.9-1.1,2.9-1.7c1.2-0.7,2.4-1.4,3.6-2.1c0.5-0.3,1-0.6,1.5-0.9c0.7-0.4,1.3-0.8,2-1.2
	c0.9-0.6,1.9-1.1,2.8-1.7c0.3-0.2,0.5-0.3,0.8-0.5c0.9-0.5,1.7-1,2.6-1.6c0.3-0.2,0.6-0.4,0.9-0.6c0.8-0.5,1.7-1,2.5-1.5
	c0.3-0.2,0.6-0.4,0.9-0.6c1.1-0.7,2.3-1.4,3.4-2.1c1.1-0.7,2.3-1.4,3.4-2c0.9-0.6,1.8-1.1,2.7-1.6c0.2-0.1,0.4-0.3,0.6-0.4
	c0.3-0.2,0.6-0.3,0.8-0.5c0.8-0.5,1.6-1,2.4-1.5c0.5-0.3,1-0.6,1.4-0.9c0.7-0.4,1.4-0.8,2-1.3c0.7-0.5,1.4-0.9,2.2-1.3
	c0.1-0.1,0.2-0.2,0.4-0.2c1.1-0.7,2.1-1.3,3.1-2c1.2-0.7,2.4-1.5,3.6-2.2c1-0.7,2.1-1.3,3.1-2c6.1-3.9,12-7.7,17.8-11.5
	c13.8-9,26.8-17.9,39.1-26.7c52.7-37.5,95-74.8,131.4-116V0L1000,0z"/>
</svg>
