<?xml version="1.0" encoding="utf-8"?>
<!-- Generator: Adobe Illustrator 21.1.0, SVG Export Plug-In . SVG Version: 6.00 Build 0)  -->
<svg version="1.1" id="Ebene_1" xmlns="http://www.w3.org/2000/svg" xmlns:xlink="http://www.w3.org/1999/xlink" x="0px" y="0px"
	 viewBox="0 0 1000 1000" style="enable-background:new 0 0 1000 1000;" xml:space="preserve">
<style type="text/css">
	.st0{fill:#FEFFFA;}
	.st1{fill:#FDCF8F;}
</style>
<path class="st0" d="M264.1,196.8c0.9,0.5,1.9,1,2.8,1.5c-1.5,0.1-3,0.2-4.5,0.2c-0.9-0.5-1.8-1-2.6-1.5
	C261.2,196.9,262.7,196.9,264.1,196.8 M269.5,196.5c1,0.5,2,1,3,1.4c-1.4,0.1-2.9,0.2-4.3,0.3c-0.9-0.5-1.9-1-2.8-1.5
	C266.7,196.6,268.1,196.6,269.5,196.5 M274.8,196.2c1.1,0.5,2.1,0.9,3.2,1.4c-1.4,0.1-2.9,0.2-4.3,0.3c-1-0.5-2-0.9-3-1.4
	C272.1,196.3,273.5,196.3,274.8,196.2 M280.3,195.8c1.1,0.4,2.3,0.9,3.4,1.3c-1.3,0.1-2.7,0.2-4,0.3c-1.1-0.5-2.1-0.9-3.2-1.4
	C277.7,196,279,195.9,280.3,195.8 M285.9,195.4c1.2,0.4,2.4,0.9,3.7,1.3c-1.4,0.1-2.8,0.2-4.2,0.3c-1.1-0.4-2.3-0.9-3.4-1.3
	C283.3,195.6,284.6,195.5,285.9,195.4 M291.4,195c1.3,0.4,2.6,0.8,3.9,1.2c-1.4,0.1-2.8,0.2-4.2,0.4c-1.2-0.4-2.4-0.8-3.7-1.3
	C288.8,195.2,290.1,195.1,291.4,195 M296.9,194.5c1.4,0.4,2.8,0.8,4.2,1.1c-1.4,0.1-2.7,0.3-4.1,0.4c-1.3-0.4-2.6-0.8-3.9-1.2
	C294.3,194.7,295.6,194.6,296.9,194.5 M302.4,194c1.5,0.4,3.1,0.7,4.6,1.1c-1.3,0.1-2.7,0.3-4,0.4c-1.4-0.4-2.8-0.8-4.3-1.1
	C299.9,194.2,301.2,194.1,302.4,194 M308.1,193.5c1.6,0.3,3.2,0.6,4.8,1c-1.1,0.1-2.3,0.2-3.4,0.4c-1.5-0.4-3-0.7-4.6-1.1
	C306,193.7,307,193.6,308.1,193.5 M313.9,193c1.6,0.3,3.3,0.5,4.9,0.8c-0.8,0.1-1.6,0.2-2.4,0.3c-1.5-0.3-3-0.6-4.5-0.9
	C312.6,193.1,313.2,193,313.9,193 M319.7,192.4c1.7,0.2,3.4,0.4,5.1,0.7c-0.6,0.1-1.3,0.2-1.9,0.2c-1.5-0.2-3.1-0.5-4.6-0.7
	C318.8,192.5,319.2,192.4,319.7,192.4 M325.6,191.8c1.7,0.2,3.5,0.3,5.2,0.5c-0.7,0.1-1.4,0.2-2,0.3c-1.6-0.2-3.2-0.4-4.7-0.6
	C324.5,191.9,325.1,191.9,325.6,191.8 M331.5,191.2c1.8,0.1,3.5,0.2,5.3,0.3c-0.5,0.1-0.9,0.1-1.4,0.2c-1.6-0.1-3.2-0.3-4.7-0.4
	C330.9,191.2,331.2,191.2,331.5,191.2 M337.9,190.4c1.8,0.1,3.6,0.1,5.4,0.2c-0.3,0-0.7,0.1-1,0.1c-1.6-0.1-3.1-0.2-4.7-0.3
	C337.7,190.4,337.8,190.4,337.9,190.4 M343.8,189.7c1.8,0,3.7,0,5.5,0c-0.3,0-0.6,0.1-0.9,0.1c-1.6,0-3.2-0.1-4.8-0.1
	C343.7,189.7,343.8,189.7,343.8,189.7 M0,164.6c70.2,22.2,144.2,33.3,221.7,33.3c12.2,0,24.6-0.3,37-0.8c0.9,0.5,1.8,1,2.6,1.5
	c-14.1,0.7-28.2,1.1-42.1,1.1c-37.4,0-74-2.6-109.4-7.7C72.5,186.6,35.7,178.2,0,167.1V164.6L0,164.6z M834.8,63.6
	c-1.4,0.8-2.8,1.6-4.2,2.4c-85.3,18.2-187.4,47.2-326,88.7c-19.5,5.8-38.8,11.1-58,15.8c-22.7,5.1-45.1,9.5-67.3,13
	c-0.7,0.1-1.5,0.2-2.2,0.3c41.5-7.3,83.8-17.4,127.1-30.3C648.1,110.4,750.7,81.4,834.8,63.6 M848.3,60.8c-1.5,0.8-3.1,1.6-4.6,2.4
	c-3.8,0.8-7.7,1.6-11.6,2.4c1.4-0.8,2.8-1.6,4.3-2.4C840.4,62.4,844.4,61.6,848.3,60.8 M861.7,58.2c-1.7,0.8-3.4,1.6-5,2.5
	c-3.5,0.7-7,1.4-10.5,2.1c1.6-0.8,3.1-1.6,4.7-2.4C854.5,59.5,858.1,58.8,861.7,58.2 M875.4,55.6c-1.9,0.8-3.7,1.7-5.5,2.5
	c-3.5,0.6-7,1.3-10.6,2c1.7-0.9,3.4-1.7,5.2-2.5C868.2,56.9,871.8,56.2,875.4,55.6 M889.3,53.2c-2.1,0.8-4.1,1.7-6.1,2.6
	c-3.4,0.6-6.9,1.2-10.3,1.8c1.9-0.9,3.8-1.7,5.7-2.6C882.2,54.4,885.7,53.8,889.3,53.2 M902.9,51c-2.3,0.9-4.5,1.7-6.8,2.6
	c-3.2,0.5-6.4,1-9.7,1.6c2.1-0.9,4.2-1.8,6.4-2.6C896.2,52.1,899.6,51.5,902.9,51 M917.5,48.9c-2.6,0.9-5.1,1.7-7.6,2.7
	c-3.3,0.5-6.7,1-10,1.5c2.3-0.9,4.7-1.8,7.1-2.7C910.5,49.9,914,49.3,917.5,48.9 M931.7,47c-2.8,0.9-5.7,1.7-8.5,2.7
	c-3,0.4-6.1,0.8-9.1,1.3c2.6-0.9,5.3-1.8,8-2.7C925.3,47.8,928.5,47.4,931.7,47 M946.4,45.3c-3.2,0.8-6.4,1.7-9.6,2.6
	c-2.9,0.3-5.8,0.7-8.7,1.1c3-0.9,6-1.8,9-2.7C940.3,46,943.3,45.6,946.4,45.3 M960.9,43.9c-3.6,0.8-7.2,1.7-10.7,2.6
	c-3.1,0.3-6.2,0.7-9.3,1c3.3-0.9,6.6-1.8,9.9-2.6C954.2,44.5,957.5,44.2,960.9,43.9 M976.5,42.7c-4.1,0.8-8.1,1.6-12.1,2.5
	c-2.3,0.2-4.6,0.4-6.9,0.6c3.9-0.9,7.8-1.8,11.8-2.6C971.8,43,974.1,42.8,976.5,42.7 M992.6,41.7c-4.6,0.7-9.2,1.5-13.7,2.3
	c-1.2,0.1-2.3,0.2-3.5,0.2c4.7-0.9,9.5-1.7,14.4-2.4C990.7,41.8,991.7,41.7,992.6,41.7 M1000,41.4v1.5v-0.7
	c-2.1,0.3-4.3,0.6-6.4,0.9c-2.5,0.1-5,0.3-7.6,0.4C990.6,42.8,995.3,42.1,1000,41.4L1000,41.4L1000,41.4z"/>
<path class="st0" d="M261.4,195.3c0.5,0.3,1.1,0.6,1.7,0.9c-1.4,0.1-2.9,0.1-4.3,0.1c-0.5-0.3-1-0.6-1.5-0.9
	C258.6,195.4,260,195.4,261.4,195.3 M266.7,195.1c0.6,0.3,1.2,0.6,1.8,0.9c-1.4,0.1-2.8,0.1-4.2,0.2c-0.5-0.3-1.1-0.6-1.7-0.9
	C264,195.3,265.3,195.2,266.7,195.1 M271.9,194.9c0.7,0.3,1.3,0.6,2,0.9c-1.4,0.1-2.8,0.1-4.1,0.2c-0.6-0.3-1.2-0.6-1.8-0.9
	C269.3,195,270.6,195,271.9,194.9 M277.3,194.6c0.7,0.3,1.4,0.6,2.2,0.8c-1.3,0.1-2.6,0.1-3.8,0.2c-0.7-0.3-1.3-0.6-2-0.9
	C274.8,194.8,276.1,194.7,277.3,194.6 M282.8,194.3c0.8,0.3,1.6,0.6,2.4,0.8c-1.3,0.1-2.7,0.2-4,0.2c-0.7-0.3-1.5-0.6-2.2-0.8
	C280.3,194.5,281.6,194.4,282.8,194.3 M288.2,194c0.9,0.3,1.7,0.5,2.6,0.8c-1.3,0.1-2.7,0.2-4,0.3c-0.8-0.3-1.6-0.6-2.4-0.8
	C285.7,194.1,287,194.1,288.2,194 M293.7,193.6c1,0.3,1.9,0.5,2.9,0.8c-1.3,0.1-2.6,0.2-3.9,0.3c-0.9-0.3-1.8-0.5-2.6-0.8
	C291.2,193.8,292.4,193.7,293.7,193.6 M299.1,193.2c1.1,0.3,2.1,0.5,3.2,0.8c-1.3,0.1-2.6,0.2-3.9,0.3c-1-0.3-1.9-0.5-2.9-0.8
	C296.7,193.4,297.9,193.3,299.1,193.2 M304.5,192.8c1.2,0.2,2.4,0.5,3.5,0.7c-1,0.1-2.1,0.2-3.1,0.3c-1.1-0.2-2.1-0.5-3.2-0.8
	C302.6,192.9,303.6,192.8,304.5,192.8 M309.9,192.3c1.3,0.2,2.7,0.4,4,0.7c-0.6,0.1-1.3,0.1-1.9,0.2c-1.2-0.2-2.3-0.5-3.5-0.7
	C308.9,192.4,309.4,192.3,309.9,192.3 M315.2,191.8c1.5,0.2,3,0.4,4.5,0.6c-0.5,0-1,0.1-1.5,0.1c-1.3-0.2-2.6-0.4-3.9-0.7
	C314.6,191.9,314.9,191.8,315.2,191.8 M320.5,191.3c1.7,0.2,3.4,0.3,5.1,0.5c-0.5,0.1-1.1,0.1-1.6,0.2c-1.5-0.2-3-0.4-4.5-0.6
	C319.8,191.3,320.2,191.3,320.5,191.3 M326.2,190.8c1.8,0.1,3.5,0.3,5.3,0.4c-0.3,0-0.5,0.1-0.8,0.1c-1.5-0.1-3.1-0.3-4.6-0.4
	C326.1,190.8,326.1,190.8,326.2,190.8 M335.9,190.4c0.6,0,1.3,0,1.9,0.1c-0.1,0-0.2,0-0.3,0C337,190.4,336.5,190.4,335.9,190.4
	 M342.8,189.7c0.4,0,0.7,0,1.1,0c-0.1,0-0.1,0-0.2,0C343.4,189.7,343,189.7,342.8,189.7 M0,160.1c72.6,23.9,149.6,35.8,231,35.8
	c8.3,0,16.7-0.1,25-0.4c0.5,0.3,1,0.6,1.5,0.9c-8.3,0.2-16.5,0.4-24.7,0.4c-42,0-83-3.1-122.4-9.4c-37.7-6-74.7-14.9-110.5-26.7
	V160.1L0,160.1z M820.2,72.2c-1.1,0.7-2.2,1.4-3.3,2.1c-61,14.3-130.8,33.4-217.1,57c-32.2,8.8-65.5,17.9-102,27.8
	c-22,6-43.9,11.2-65.6,15.8c-17.8,3.4-35.5,6.3-52.9,8.7c22.1-3.6,44.5-7.9,67.3-13c16.8-3.8,33.8-8,50.9-12.6
	c36.5-9.9,69.8-19,102-27.8C687.9,105.9,758.7,86.5,820.2,72.2 M833.1,69.2c-1.2,0.7-2.4,1.4-3.5,2.1c-3.7,0.8-7.4,1.7-11.2,2.6
	c1.1-0.7,2.2-1.4,3.3-2.1C825.6,70.9,829.4,70.1,833.1,69.2 M845.8,66.4c-1.3,0.7-2.6,1.4-3.8,2.2c-3.4,0.7-6.7,1.5-10.1,2.3
	c1.2-0.7,2.4-1.4,3.6-2.1C838.9,67.9,842.4,67.2,845.8,66.4 M858.8,63.6c-1.4,0.7-2.8,1.5-4.2,2.2c-3.4,0.7-6.8,1.4-10.2,2.2
	c1.3-0.7,2.6-1.5,3.9-2.2C851.8,65.1,855.3,64.4,858.8,63.6 M871.8,61c-1.6,0.7-3.1,1.5-4.6,2.3c-3.3,0.7-6.6,1.3-9.9,2.1
	c1.4-0.8,2.9-1.5,4.3-2.2C865,62.4,868.4,61.7,871.8,61 M884.6,58.5c-1.7,0.8-3.4,1.5-5.1,2.3c-3.1,0.6-6.2,1.2-9.4,1.8
	c1.6-0.8,3.2-1.5,4.8-2.3C878.1,59.7,881.4,59.1,884.6,58.5 M898.3,56c-1.9,0.8-3.8,1.6-5.7,2.4c-3.2,0.6-6.4,1.2-9.7,1.8
	c1.8-0.8,3.5-1.6,5.3-2.4C891.5,57.2,894.9,56.6,898.3,56 M911.4,53.7c-2.2,0.8-4.3,1.6-6.5,2.5c-2.9,0.5-5.8,1-8.7,1.5
	c2-0.8,4-1.6,6-2.4C905.3,54.8,908.4,54.2,911.4,53.7 M925.2,51.6c-2.4,0.8-4.9,1.6-7.3,2.5c-2.7,0.4-5.5,0.9-8.2,1.3
	c2.2-0.8,4.5-1.7,6.8-2.5C919.3,52.5,922.3,52,925.2,51.6 M938.8,49.6c-2.8,0.8-5.5,1.7-8.3,2.5c-2.9,0.4-5.8,0.9-8.8,1.3
	c2.5-0.9,5-1.7,7.5-2.5C932.5,50.5,935.6,50.1,938.8,49.6 M953.5,47.8c-3.2,0.8-6.4,1.7-9.5,2.6c-2.3,0.3-4.6,0.6-6.9,0.9
	c3-0.9,6-1.8,9-2.6C948.6,48.4,951,48.1,953.5,47.8 M968.8,46.1c-3.7,0.8-7.4,1.7-11,2.6c-1.4,0.2-2.9,0.3-4.4,0.5
	c3.7-0.9,7.3-1.8,11.1-2.6C965.9,46.4,967.3,46.2,968.8,46.1 M984.7,44.7c-4.4,0.8-8.7,1.6-12.9,2.5c-2.5,0.2-4.9,0.5-7.4,0.7
	c3.9-0.9,7.9-1.8,12-2.6C979.1,45.1,981.9,44.9,984.7,44.7 M1000,43.6V45v-0.1c-0.5,0.1-1,0.1-1.5,0.2c-1.4,0.1-2.8,0.2-4.3,0.3
	c1.9-0.3,3.9-0.6,5.8-0.9V43.6c-5.1,0.7-10.1,1.5-15.2,2.5c-0.8,0.1-1.5,0.1-2.3,0.2c5.1-0.9,10.2-1.8,15.4-2.5
	C998.6,43.7,999.3,43.7,1000,43.6"/>
<path class="st0" d="M256.6,192.8c0.9,0.5,1.7,0.9,2.6,1.4c-1.4,0-2.8,0-4.2,0c-0.8-0.5-1.6-0.9-2.4-1.4
	C253.9,192.8,255.2,192.8,256.6,192.8 M261.7,192.8c0.9,0.4,1.8,0.9,2.8,1.3c-1.3,0-2.7,0-4,0.1c-0.9-0.4-1.7-0.9-2.6-1.3
	C259.2,192.8,260.5,192.8,261.7,192.8 M266.8,192.7c1,0.4,2,0.9,3,1.3c-1.3,0-2.6,0.1-4,0.1c-0.9-0.4-1.8-0.9-2.8-1.3
	C264.3,192.7,265.6,192.7,266.8,192.7 M272,192.6c1.1,0.4,2.1,0.8,3.2,1.3c-1.2,0-2.4,0.1-3.6,0.1c-1-0.4-2-0.9-3-1.3
	C269.7,192.6,270.9,192.6,272,192.6 M277.4,192.4c1.1,0.4,2.3,0.8,3.5,1.2c-1.3,0-2.6,0.1-3.8,0.1c-1.1-0.4-2.1-0.8-3.2-1.3
	C275,192.5,276.2,192.4,277.4,192.4 M282.6,192.2c1.3,0.4,2.5,0.8,3.8,1.2c-1.3,0.1-2.5,0.1-3.8,0.2c-1.2-0.4-2.3-0.8-3.5-1.2
	C280.3,192.3,281.5,192.3,282.6,192.2 M287.9,192c1.4,0.4,2.7,0.8,4.1,1.1c-0.8,0-1.7,0.1-2.5,0.1c-0.4,0-0.8,0-1.3,0.1
	c-1.3-0.4-2.5-0.8-3.8-1.2C285.6,192.1,286.7,192,287.9,192 M293.1,191.7c1.5,0.4,3,0.7,4.5,1.1c-1.2,0.1-2.5,0.1-3.7,0.2
	c-1.4-0.4-2.8-0.8-4.1-1.1C290.9,191.9,292,191.8,293.1,191.7 M298.5,191.5c1.6,0.3,3.2,0.7,4.8,1c-1,0.1-1.9,0.1-2.9,0.2
	c-1.5-0.4-3-0.7-4.5-1.1C296.8,191.6,297.6,191.5,298.5,191.5 M304,191.3c1.6,0.3,3.3,0.6,4.9,0.8c-0.5,0-1,0.1-1.5,0.1
	c-1.5-0.3-2.9-0.6-4.4-0.9C303.4,191.3,303.7,191.3,304,191.3 M309.6,191c1.7,0.2,3.4,0.5,5,0.7c-0.3,0-0.6,0-0.9,0.1
	c-1.5-0.2-2.9-0.5-4.4-0.8C309.5,191,309.5,191,309.6,191 M325.4,190.7c0.3,0,0.5,0,0.8,0.1c0,0-0.1,0-0.1,0
	C325.8,190.8,325.6,190.8,325.4,190.7 M315.2,190.7c1.7,0.2,3.4,0.4,5.2,0.5c-0.3,0-0.7,0.1-1,0.1c-1.5-0.2-3-0.4-4.5-0.6
	C315,190.7,315.1,190.7,315.2,190.7 M0,151.8c77.8,27.4,160.7,41,249.1,41c0.8,0,1.5,0,2.3,0c0.8,0.5,1.6,0.9,2.4,1.4
	c-2,0-4.1,0-6.1,0c-47,0-92.8-3.8-136.5-11.4C73.2,176.2,36,166.5,0,154.1V151.8L0,151.8z M807.4,80.6c-0.9,0.6-1.8,1.3-2.8,1.9
	c-29.5,7.5-61.2,15.9-95.9,25.1c-62,16.5-132.2,35.1-217.7,55.7c-25.8,6.2-51.4,11.5-76.6,15.9c-17,2.6-33.9,4.8-50.5,6.5
	c-1.8,0.1-3.5,0.3-5.3,0.4c6.1-0.7,12.3-1.5,18.4-2.4c0.7-0.1,1.5-0.2,2.2-0.3c17.5-2.4,35.1-5.3,52.9-8.7
	c19.3-3.6,38.8-7.9,58.5-12.6c85.5-20.6,155.7-39.3,217.7-55.7C744.3,97,777,88.3,807.4,80.6 M819.8,77.5c-1,0.7-2,1.3-3,2
	c-3.6,0.9-7.1,1.8-10.8,2.7c0.9-0.7,1.9-1.3,2.8-1.9C812.5,79.3,816.2,78.4,819.8,77.5 M831.9,74.6c-1.1,0.7-2.1,1.3-3.2,2
	c-3.3,0.8-6.5,1.6-9.8,2.4c1-0.7,2-1.3,3-2C825.2,76.2,828.6,75.4,831.9,74.6 M844.3,71.6c-1.2,0.7-2.3,1.4-3.5,2.1
	c-3.3,0.8-6.6,1.6-9.9,2.4c1.1-0.7,2.2-1.4,3.3-2C837.6,73.2,840.9,72.4,844.3,71.6 M856.6,68.7c-1.3,0.7-2.6,1.4-3.8,2.1
	c-3.2,0.7-6.4,1.5-9.6,2.2c1.2-0.7,2.4-1.4,3.6-2.1C850.1,70.3,853.4,69.5,856.6,68.7 M868.8,66c-1.4,0.7-2.8,1.4-4.2,2.2
	c-3,0.7-6,1.4-9.1,2.1c1.3-0.7,2.6-1.4,3.9-2.1C862.6,67.4,865.7,66.7,868.8,66 M881.7,63.2c-1.6,0.7-3.1,1.5-4.7,2.2
	c-3.1,0.7-6.2,1.3-9.3,2c1.4-0.7,2.9-1.5,4.3-2.2C875.3,64.6,878.5,63.9,881.7,63.2 M894.1,60.7c-1.8,0.7-3.5,1.5-5.3,2.3
	c-2.8,0.6-5.5,1.2-8.3,1.7c1.6-0.8,3.2-1.5,4.9-2.3C888.3,61.8,891.2,61.2,894.1,60.7 M907,58.1c-2,0.8-4,1.6-5.9,2.4
	c-2.6,0.5-5.2,1-7.8,1.6c1.8-0.8,3.6-1.6,5.5-2.3C901.5,59.2,904.2,58.6,907,58.1 M919.9,55.7c-2.2,0.8-4.5,1.6-6.7,2.4
	c-2.7,0.5-5.5,1-8.2,1.6c2-0.8,4-1.6,6.1-2.4C914,56.8,917,56.3,919.9,55.7 M933.8,53.4c-2.6,0.8-5.2,1.7-7.7,2.5
	c-2.3,0.4-4.5,0.8-6.8,1.2c2.4-0.9,4.8-1.7,7.2-2.5C928.9,54.2,931.4,53.8,933.8,53.4 M948.2,51.1c-3,0.8-6.1,1.7-9.1,2.6
	c-1.6,0.2-3.2,0.5-4.7,0.8c2.9-0.9,5.8-1.8,8.8-2.6C944.9,51.6,946.5,51.4,948.2,51.1 M963.4,49.1c-3.6,0.8-7.2,1.7-10.8,2.7
	c-2.3,0.3-4.6,0.7-6.9,1c3.2-0.9,6.4-1.8,9.7-2.6C958.1,49.8,960.7,49.4,963.4,49.1 M978,47.3c-4.3,0.8-8.6,1.7-12.8,2.7
	c-0.8,0.1-1.6,0.2-2.4,0.3c4.1-1,8.3-1.9,12.5-2.7C976.1,47.5,977.1,47.4,978,47.3 M994,45.8c-5.4,0.8-10.6,1.8-15.9,2.8
	c-1.1,0.1-2.3,0.2-3.4,0.4c4.7-1,9.5-1.9,14.3-2.7C990.7,46.1,992.4,45.9,994,45.8 M1000,45.3v1.2v-0.1V46V45.3L1000,45.3z"/>
<path class="st0" d="M263.8,191.3c0.6,0.3,1.3,0.6,1.9,0.8c-0.6,0-1.2,0-1.8,0c-0.7,0-1.3,0-2,0c-0.6-0.3-1.1-0.5-1.7-0.8
	c0.5,0,0.9,0,1.4,0C262.3,191.4,263.1,191.3,263.8,191.3 M255.1,191.3c1.2,0,2.5,0,3.7,0c0.6,0.3,1.1,0.5,1.7,0.8
	c-1.3,0-2.6,0-3.8,0C256.2,191.9,255.6,191.6,255.1,191.3 M268.9,191.3c0.7,0.3,1.4,0.6,2.1,0.8c-1.1,0-2.3,0-3.4,0
	c-0.6-0.3-1.2-0.5-1.9-0.8C266.7,191.3,267.8,191.3,268.9,191.3 M249.8,191.3c1.3,0,2.6,0,3.9,0c0.5,0.3,1,0.5,1.5,0.8
	c-1.4,0-2.7,0-4.1,0C250.7,191.8,250.3,191.5,249.8,191.3 M274.2,191.3c0.8,0.3,1.5,0.5,2.3,0.8c-1.2,0-2.4,0-3.7,0
	c-0.7-0.3-1.4-0.5-2.1-0.8C272,191.3,273.1,191.3,274.2,191.3 M279.4,191.2c0.9,0.3,1.7,0.5,2.6,0.8c-1.2,0-2.4,0-3.6,0.1
	c-0.8-0.3-1.6-0.5-2.3-0.8C277.1,191.2,278.3,191.2,279.4,191.2 M284.5,191.1c1,0.3,1.9,0.5,2.9,0.8c-0.3,0-0.6,0-0.9,0
	c-0.9,0-1.8,0-2.6,0.1c-0.9-0.3-1.7-0.5-2.6-0.8C282.3,191.1,283.4,191.1,284.5,191.1 M289.7,190.9c1.1,0.3,2.2,0.5,3.2,0.8
	c-1.2,0-2.3,0.1-3.5,0.1c-1-0.3-2-0.5-2.9-0.8C287.6,191,288.6,190.9,289.7,190.9 M307.9,190.8c0.6,0.1,1.2,0.2,1.7,0.2
	c-0.1,0-0.2,0-0.3,0C308.9,190.9,308.4,190.9,307.9,190.8 M294.8,190.7c1.2,0.3,2.4,0.5,3.7,0.8c-0.8,0-1.7,0.1-2.5,0.1
	c-1.1-0.3-2.2-0.5-3.3-0.8C293.4,190.8,294.1,190.8,294.8,190.7 M299.8,190.5c1.4,0.2,2.8,0.5,4.2,0.7c-0.3,0-0.6,0-0.9,0
	c-1.2-0.3-2.4-0.5-3.6-0.8C299.6,190.6,299.7,190.6,299.8,190.5 M312.5,190.4c0.9,0.1,1.8,0.2,2.7,0.3c-0.1,0-0.3,0-0.4,0
	C314.1,190.6,313.3,190.5,312.5,190.4 M0,146.9c77.1,28.4,159.9,43.1,248.6,44.4c0.5,0.3,0.9,0.5,1.4,0.8
	c-47.7-0.7-93.9-5.3-138-13.7C73.6,171,36.1,160.7,0,147.5V146.9L0,146.9z M796,88.9c-0.8,0.6-1.7,1.3-2.5,1.9
	c-9.1,2.5-18.5,5-28.1,7.6c-73,19.9-163.7,44.6-281.1,69.3c-26.6,5.6-53,10.3-78.9,14c-14,1.7-27.8,3-41.5,4.1
	c16.7-1.8,33.5-3.9,50.5-6.5c22.8-3.5,46-7.7,69.6-12.7c117.3-24.7,208.1-49.5,281-69.3C775.6,94.4,785.9,91.6,796,88.9 M807.9,85.7
	c-0.9,0.6-1.8,1.3-2.7,1.9c-3.4,0.9-6.9,1.9-10.4,2.8c0.8-0.6,1.7-1.3,2.5-1.9C800.9,87.5,804.4,86.6,807.9,85.7 M819.6,82.5
	c-1,0.7-1.9,1.3-2.9,2c-3.2,0.8-6.3,1.7-9.5,2.6c0.9-0.7,1.8-1.3,2.7-1.9C813.1,84.3,816.4,83.4,819.6,82.5 M831.5,79.4
	c-1.1,0.7-2.1,1.4-3.2,2c-3.1,0.8-6.3,1.7-9.5,2.5c1-0.7,2-1.3,3-2C825,81.1,828.2,80.3,831.5,79.4 M843.3,76.3
	c-1.2,0.7-2.3,1.4-3.5,2.1c-3.1,0.8-6.1,1.6-9.2,2.4c1.1-0.7,2.2-1.4,3.2-2.1C837,78,840.2,77.1,843.3,76.3 M855,73.4
	c-1.3,0.7-2.6,1.4-3.8,2.2c-2.9,0.7-5.8,1.5-8.7,2.2c1.2-0.7,2.4-1.4,3.6-2.1C849,74.9,852,74.1,855,73.4 M867.2,70.4
	c-1.4,0.7-2.9,1.5-4.3,2.3c-2.9,0.7-5.9,1.5-8.8,2.2c1.3-0.7,2.6-1.5,3.9-2.2C861.1,71.8,864.2,71.1,867.2,70.4 M878.9,67.5
	c-1.6,0.8-3.2,1.6-4.8,2.3c-2.6,0.6-5.3,1.3-7.9,1.9c1.5-0.8,2.9-1.5,4.4-2.3C873.4,68.8,876.2,68.2,878.9,67.5 M891.1,64.7
	c-0.5,0.2-1,0.5-1.6,0.7c-1.3,0.6-2.6,1.2-3.9,1.8c-2.5,0.6-4.9,1.1-7.4,1.7c1.7-0.8,3.3-1.6,5-2.4
	C885.9,65.9,888.5,65.3,891.1,64.7 M903.4,62c-2.1,0.8-4.2,1.7-6.2,2.6c-2.5,0.6-5,1.1-7.6,1.7c1.9-0.8,3.7-1.7,5.6-2.5
	C898,63.2,900.7,62.6,903.4,62 M916.5,59.2c-2.5,0.9-4.9,1.8-7.3,2.7c-2.1,0.4-4.2,0.9-6.3,1.4c2.2-0.9,4.5-1.8,6.7-2.7
	C911.8,60.2,914.2,59.7,916.5,59.2 M930,56.6c-2.9,1-5.9,1.9-8.8,2.9c-1.5,0.3-3.1,0.6-4.6,0.9c2.7-1,5.5-1.9,8.3-2.9
	C926.6,57.2,928.3,56.9,930,56.6 M944.4,54c-3.6,1-7.2,2.1-10.7,3.2c-2,0.4-3.9,0.7-5.9,1.1c3.1-1,6.2-2,9.4-3
	C939.6,54.8,942,54.4,944.4,54 M958.1,51.7c-4.4,1.1-8.8,2.2-13.2,3.4c-0.6,0.1-1.2,0.2-1.9,0.3c4.1-1.2,8.2-2.3,12.4-3.3
	C956.3,52,957.2,51.9,958.1,51.7 M973.1,49.5c-5.7,1.2-11.3,2.4-16.9,3.8c-0.5,0.1-1,0.2-1.6,0.2c4.9-1.2,9.8-2.4,14.8-3.5
	C970.7,49.9,971.9,49.7,973.1,49.5 M1000,46.4L1000,46.4v1.4v-0.9v-0.2V46.4L1000,46.4z"/>
<path class="st0" d="M297,190c0.7,0.1,1.4,0.3,2.1,0.4c-0.1,0-0.2,0-0.3,0C298.2,190.3,297.6,190.2,297,190 M287.1,189.5
	c0.6,0,1.2,0,1.8,0c1.6,0.3,3.2,0.7,4.8,1c-0.7,0-1.5,0-2.2,0C290,190.2,288.6,189.8,287.1,189.5 M280.5,189.3c0,0,0.1,0,0.1,0
	c1,0,2,0,3,0.1c1.5,0.4,3.1,0.8,4.7,1.2c-1.1,0-2.2,0-3.3,0C283.5,190.2,282,189.8,280.5,189.3 M275.2,189.2c1.1,0,2.1,0.1,3.2,0.1
	c1.5,0.4,3,0.9,4.5,1.3c-0.4,0-0.8,0-1.3,0c-0.7,0-1.4,0-2.1,0C278,190.1,276.6,189.7,275.2,189.2 M269.9,189.1
	c1.1,0,2.1,0.1,3.2,0.1c1.5,0.5,2.9,1,4.4,1.4c-1.1,0-2.3,0-3.4,0C272.7,190.1,271.3,189.6,269.9,189.1 M264.7,188.9
	c1.1,0,2.2,0.1,3.3,0.1c1.4,0.5,2.9,1,4.3,1.6c-1.2,0-2.3,0-3.5,0C267.4,190,266.1,189.4,264.7,188.9 M259.6,188.7c1,0,2,0.1,3,0.1
	c1.4,0.6,2.8,1.1,4.2,1.7c-1.1,0-2.1,0-3.2-0.1C262.2,189.8,260.9,189.2,259.6,188.7 M254.1,188.4c1.1,0.1,2.3,0.1,3.4,0.2
	c1.4,0.6,2.7,1.2,4.1,1.8c-1.2,0-2.4-0.1-3.6-0.1C256.7,189.7,255.4,189,254.1,188.4 M249.2,188.2c0.9,0,1.9,0.1,2.8,0.1
	c0.2,0,0.4,0,0.6,0c1.3,0.6,2.6,1.3,3.9,1.9c-1.2,0-2.4-0.1-3.7-0.1C251.7,189.5,250.4,188.8,249.2,188.2 M244.1,188
	c1.2,0.1,2.4,0.1,3.7,0.2c1.2,0.7,2.5,1.3,3.7,2c-1.3,0-2.6-0.1-3.9-0.1C246.4,189.3,245.2,188.6,244.1,188 M0,137.7
	c72,28,152.5,45.9,242.9,50.2c1.1,0.7,2.3,1.3,3.5,2c-46.2-1.8-90.9-7.1-133.4-15.9c-38.8-8-76.7-19.2-112.9-33.2V137.7L0,137.7z
	 M785.5,97c-0.8,0.6-1.5,1.2-2.3,1.9c-77.9,22.5-174.4,49.6-305.7,73.3c-31.4,5.7-62.4,10-92.6,13.1c-18.7,1.5-37.1,2.5-55.2,3
	c-1.4,0-2.9-0.1-4.3-0.1c11-0.4,22.1-1.1,33.3-1.9c1.8-0.1,3.5-0.3,5.3-0.4c13.6-1.1,27.4-2.4,41.5-4.1c23.4-2.8,47.4-6.3,71.9-10.8
	C610.1,147,707.1,119.6,785.5,97 M797.1,93.6c-0.8,0.6-1.7,1.3-2.5,1.9c-3.3,1-6.7,1.9-10,2.9c0.8-0.6,1.5-1.2,2.3-1.9
	c2.9-0.8,5.8-1.7,8.7-2.5C796.1,93.9,796.6,93.8,797.1,93.6 M808.5,90.3c-0.9,0.7-1.8,1.3-2.7,2c-3.1,0.9-6.2,1.8-9.3,2.7
	c0.8-0.6,1.7-1.3,2.5-1.9C802.2,92.2,805.3,91.2,808.5,90.3 M819.9,87c-1,0.7-2,1.4-2.9,2c-3,0.9-6.1,1.8-9.2,2.7
	c0.9-0.7,1.8-1.3,2.7-2C813.7,88.8,816.8,87.9,819.9,87 M831.4,83.8c-1.1,0.7-2.2,1.4-3.2,2.1c-2.9,0.8-5.9,1.7-8.9,2.5
	c1-0.7,2-1.4,3-2C825.3,85.5,828.4,84.6,831.4,83.8 M842.7,80.6c-1.2,0.7-2.4,1.5-3.6,2.2c-2.8,0.8-5.6,1.6-8.4,2.4
	c1.1-0.7,2.2-1.4,3.3-2.1C836.9,82.2,839.8,81.4,842.7,80.6 M854.4,77.3c-1.4,0.8-2.7,1.5-4,2.3c-2.8,0.8-5.6,1.6-8.4,2.4
	c1.2-0.7,2.4-1.5,3.7-2.2C848.5,78.9,851.5,78.1,854.4,77.3 M865.7,74.2c-1.5,0.8-3,1.6-4.5,2.4c-2.5,0.7-5.1,1.4-7.6,2.1
	c1.4-0.8,2.8-1.6,4.2-2.3C860.4,75.7,863.1,74.9,865.7,74.2 M877.4,71.1c-1.7,0.8-3.4,1.7-5.2,2.5c-2.4,0.6-4.7,1.3-7.1,1.9
	c1.6-0.8,3.1-1.6,4.7-2.5C872.4,72.4,874.9,71.7,877.4,71.1 M889.2,68c-2,0.9-4,1.8-6,2.7c-2.3,0.6-4.7,1.2-7,1.8
	c1.8-0.9,3.5-1.7,5.3-2.6C884.1,69.3,886.7,68.7,889.2,68 M901.7,64.9c-2.4,1-4.7,1.9-7,2.9c-2,0.5-3.9,1-5.9,1.5
	c2.1-0.9,4.2-1.9,6.4-2.8C897.3,66,899.5,65.4,901.7,64.9 M914.7,61.8c-2.8,1-5.7,2.1-8.5,3.2c-1.4,0.3-2.9,0.7-4.3,1
	c2.6-1,5.2-2.1,7.8-3C911.4,62.6,913,62.2,914.7,61.8 M928.5,58.8c-3.5,1.1-7,2.3-10.5,3.5c-1.7,0.4-3.3,0.8-5,1.1
	c3-1.1,6-2.2,9-3.2C924.2,59.7,926.4,59.2,928.5,58.8 M941.7,56c-3.6,1-7.1,2.1-10.7,3.1c-0.8,0.2-1.6,0.5-2.3,0.7
	c-0.3,0.1-0.6,0.1-0.9,0.2c3.9-1.3,7.9-2.5,11.9-3.7C940.3,56.3,941,56.2,941.7,56 M956.1,53.3c-4.6,1.1-9.1,2.3-13.6,3.5
	c3.8-1.1,7.7-2.1,11.5-3.1C954.8,53.6,955.4,53.4,956.1,53.3 M1000,46.9v0.9v0.3V47V46.9L1000,46.9z"/>
<path class="st0" d="M283.3,188.5c0.4,0,0.8,0,1.2,0c1.5,0.3,2.9,0.6,4.4,1c-0.6,0-1.2,0-1.8,0C285.8,189.1,284.6,188.8,283.3,188.5
	 M277.1,188.4c0.9,0,1.8,0,2.7,0.1c1.3,0.3,2.5,0.6,3.8,1c-1,0-2,0-3-0.1c0,0-0.1,0-0.1,0C279.4,189,278.3,188.7,277.1,188.4
	 M272.2,188.3c0.9,0,1.9,0.1,2.8,0.1c1.1,0.3,2.2,0.6,3.3,1c-1.1,0-2.1-0.1-3.2-0.1C274.2,188.9,273.2,188.6,272.2,188.3
	 M267.3,188.1c1,0,1.9,0.1,2.9,0.1c1,0.3,1.9,0.6,2.9,1c-1.1,0-2.1-0.1-3.2-0.1C269,188.7,268.1,188.4,267.3,188.1 M262.4,187.9
	c1,0,2,0.1,3,0.1c0.9,0.3,1.7,0.6,2.6,0.9c-1.1,0-2.2-0.1-3.3-0.1C263.9,188.6,263.1,188.2,262.4,187.9 M257.5,187.7
	c0.9,0,1.8,0.1,2.8,0.1c0.8,0.3,1.6,0.6,2.3,0.9c-1,0-2-0.1-3-0.1C258.9,188.3,258.2,188,257.5,187.7 M252.2,187.5
	c1.1,0.1,2.2,0.1,3.3,0.2c0.7,0.3,1.4,0.6,2.1,0.9c-1.1-0.1-2.3-0.1-3.4-0.2C253.4,188.1,252.8,187.8,252.2,187.5 M247.4,187.2
	c1.1,0.1,2.2,0.1,3.3,0.2c0.6,0.3,1.3,0.6,1.9,0.9c-0.2,0-0.4,0-0.6,0c-1-0.1-1.9-0.1-2.9-0.2C248.5,187.8,248,187.5,247.4,187.2
	 M242.3,186.9c1.2,0.1,2.4,0.1,3.6,0.2c0.6,0.3,1.1,0.6,1.7,0.9c-1.3-0.1-2.5-0.1-3.8-0.2C243.3,187.5,242.8,187.2,242.3,186.9
	 M0,133.1c74.2,30.5,154.3,48.3,241,53.7c0.5,0.3,1,0.6,1.6,0.9c-44.6-2.8-87.8-8.9-128.7-18C74.6,160.9,36.5,148.9,0,134.1V133.1
	L0,133.1z M775.9,104.9c-0.7,0.6-1.4,1.2-2.1,1.8c-77.3,23.7-172.5,50.2-302.9,69.7c-35.3,5.3-70,9-103.7,11.1
	c-10.3,0.4-20.5,0.7-30.7,0.9c-2.3,0-4.5-0.1-6.7-0.1c18.1-0.5,36.6-1.5,55.2-3c28-2.2,56.5-5.5,85.7-9.9
	C602.4,155.7,698.2,128.8,775.9,104.9 M787.2,101.4c-0.8,0.6-1.5,1.3-2.3,1.9c-3.2,1-6.5,2-9.7,3c0.7-0.6,1.4-1.2,2.1-1.8
	C780.6,103.5,783.9,102.5,787.2,101.4 M798.2,98c-0.8,0.7-1.7,1.3-2.5,2c-3,0.9-6,1.9-9.1,2.8c0.8-0.6,1.6-1.3,2.3-1.9
	C792.1,99.9,795.1,99,798.2,98 M809.3,94.5c-0.9,0.7-1.8,1.3-2.8,2c-2.9,0.9-5.9,1.8-8.9,2.8c0.9-0.7,1.7-1.3,2.6-2
	C803.3,96.4,806.3,95.5,809.3,94.5 M820.4,91.1c-1,0.7-2,1.4-3.1,2.1c-1.7,0.5-3.4,1.1-5.1,1.6c-1.2,0.4-2.3,0.7-3.5,1.1
	c0.9-0.7,1.9-1.4,2.8-2c0.1,0,0.2-0.1,0.4-0.1C814.8,92.8,817.6,92,820.4,91.1 M831.3,87.7c-1.1,0.7-2.3,1.5-3.4,2.2
	c-2.7,0.8-5.4,1.7-8.1,2.5c1-0.7,2.1-1.4,3.1-2.1C825.7,89.4,828.5,88.6,831.3,87.7 M842.6,84.2c-1.3,0.8-2.6,1.6-3.9,2.4
	c-2.7,0.8-5.3,1.6-8,2.5c1.2-0.8,2.3-1.5,3.5-2.3C837,85.9,839.8,85.1,842.6,84.2 M853.5,80.9c-1.5,0.8-2.9,1.7-4.4,2.5
	c-2.4,0.7-4.8,1.5-7.3,2.2c1.3-0.8,2.6-1.6,4-2.4C848.4,82.4,851,81.6,853.5,80.9 M864.8,77.5c-1.7,0.9-3.4,1.8-5,2.7
	c-2.2,0.7-4.5,1.3-6.7,2c1.5-0.9,3-1.7,4.6-2.5C860,78.9,862.4,78.2,864.8,77.5 M876.1,74.1c-2,1-3.9,1.9-5.9,2.9
	c-2.1,0.6-4.3,1.3-6.4,1.9c1.7-0.9,3.5-1.8,5.2-2.7C871.3,75.5,873.7,74.8,876.1,74.1 M888,70.7c-2.4,1-4.7,2.1-7.1,3.2
	c-1.8,0.5-3.5,1-5.3,1.5c2.1-1,4.2-2,6.3-3C883.9,71.9,886,71.3,888,70.7 M900.3,67.3c-2.9,1.2-5.8,2.4-8.7,3.6
	c-1.2,0.3-2.4,0.7-3.7,1c2.6-1.1,5.2-2.3,7.8-3.4C897.3,68.1,898.8,67.7,900.3,67.3 M913.4,63.9c-3.7,1.3-7.4,2.7-11.1,4.1
	c-1.1,0.3-2.3,0.6-3.4,0.9c3.1-1.3,6.2-2.5,9.3-3.7C909.9,64.8,911.7,64.3,913.4,63.9 M926,60.7c-2.4,0.8-4.8,1.6-7.2,2.4
	c2.1-0.7,4.2-1.4,6.4-2.1C925.4,60.9,925.7,60.8,926,60.7 M1000,47v1.1v0.2c-12.2,1.5-24.1,3.3-35.9,5.5c11.8-2.4,23.7-4.4,35.9-6
	V47L1000,47z"/>
<path class="st0" d="M280,187.7c0.3,0,0.5,0,0.8,0c1.1,0.2,2.2,0.5,3.3,0.7c-0.4,0-0.9,0-1.3-0.1C281.9,188.2,280.9,187.9,280,187.7
	 M273.7,187.4c0.8,0,1.6,0.1,2.5,0.1c0.9,0.2,1.9,0.5,2.8,0.7c-0.4,0-0.8,0-1.2-0.1c-0.5,0-1.1-0.1-1.6-0.1
	C275.3,187.9,274.5,187.6,273.7,187.4 M268.8,187.2c0.9,0,1.8,0.1,2.6,0.1c0.8,0.2,1.6,0.5,2.3,0.7c-1,0-2-0.1-2.9-0.2
	C270.2,187.6,269.5,187.4,268.8,187.2 M264,186.9c0.9,0.1,1.8,0.1,2.7,0.1c0.7,0.2,1.3,0.4,2,0.7c-1-0.1-2-0.1-3-0.2
	C265.1,187.3,264.6,187.1,264,186.9 M259.2,186.6c0.9,0.1,1.9,0.1,2.8,0.2c0.6,0.2,1.1,0.4,1.7,0.6c-1-0.1-2-0.1-3-0.2
	C260.2,187,259.7,186.8,259.2,186.6 M254.4,186.3c0.9,0.1,1.7,0.1,2.6,0.2c0.5,0.2,1,0.4,1.4,0.6c-0.9-0.1-1.8-0.1-2.7-0.2
	C255.2,186.7,254.8,186.5,254.4,186.3 M249.1,186c1,0.1,2.1,0.1,3.1,0.2c0.4,0.2,0.8,0.4,1.2,0.6c-1.1-0.1-2.2-0.2-3.3-0.2
	C249.9,186.3,249.5,186.2,249.1,186 M244.4,185.6c1.1,0.1,2.1,0.2,3.2,0.2c0.4,0.2,0.7,0.4,1.1,0.5c-1.1-0.1-2.2-0.2-3.3-0.3
	C245.1,186,244.8,185.8,244.4,185.6 M239.4,185.2c1.2,0.1,2.3,0.2,3.5,0.3c0.3,0.2,0.6,0.3,0.9,0.5c-1.2-0.1-2.4-0.2-3.6-0.3
	C239.9,185.5,239.7,185.4,239.4,185.2 M137.7,170.7c32.3,6.7,65.8,11.5,100.4,14.4c0.3,0.2,0.5,0.3,0.8,0.5
	C204.1,182.5,170.2,177.6,137.7,170.7 M766.8,112.8c-0.7,0.6-1.3,1.2-2,1.8C686.8,140,595,165.5,464,180.8
	c-33.5,3.9-66.3,6.5-98.2,7.7c-3.8,0-7.6,0.1-11.3,0.1c-6.1,0-12.1,0-18.1-0.1c10.1-0.1,20.3-0.4,30.7-0.9
	c31.4-1.3,63.7-3.9,96.8-7.8C596.1,164.2,688.4,138.4,766.8,112.8 M777.8,109.2c-0.7,0.6-1.5,1.2-2.2,1.9c-3.1,1-6.3,2.1-9.5,3.1
	c0.7-0.6,1.3-1.2,2-1.8C771.4,111.3,774.6,110.2,777.8,109.2 M788.6,105.6c-0.8,0.6-1.6,1.3-2.4,2c-2.9,1-5.9,2-8.8,2.9
	c0.7-0.6,1.5-1.3,2.2-1.9C782.6,107.6,785.6,106.6,788.6,105.6 M799.4,101.9c-0.9,0.7-1.8,1.4-2.7,2c-2.9,1-5.7,1.9-8.6,2.9
	c0.8-0.7,1.6-1.3,2.4-2C793.5,103.9,796.5,102.9,799.4,101.9 M810.2,98.3c-1,0.7-2,1.4-3,2.2c-2.7,0.9-5.5,1.9-8.3,2.8
	c0.9-0.7,1.8-1.4,2.7-2.1C804.5,100.2,807.3,99.3,810.2,98.3 M820.8,94.7c-1.1,0.8-2.2,1.5-3.3,2.3c-2.6,0.9-5.2,1.8-7.8,2.7
	c1-0.7,2-1.5,3-2.2c2.4-0.8,4.8-1.6,7.2-2.5C820.2,94.9,820.5,94.8,820.8,94.7 M831.6,91c-1.3,0.8-2.5,1.6-3.8,2.4
	c-2.5,0.9-5,1.7-7.6,2.6c1.1-0.8,2.3-1.5,3.4-2.3C826.3,92.8,829,91.9,831.6,91 M842.3,87.4c-1.4,0.9-2.9,1.7-4.3,2.6
	c-2.3,0.8-4.6,1.6-6.9,2.3c1.3-0.8,2.6-1.7,3.9-2.5C837.4,89,839.8,88.2,842.3,87.4 M853.1,83.8c-1.7,0.9-3.4,1.9-5,2.8
	c-2.1,0.7-4.2,1.4-6.2,2.1c1.5-0.9,3-1.8,4.5-2.7C848.6,85.3,850.9,84.5,853.1,83.8 M864,80.2c-2,1-4,2.1-6,3.1
	c-1.9,0.6-3.8,1.3-5.7,1.9c1.7-1,3.5-1.9,5.2-2.9C859.7,81.6,861.8,80.9,864,80.2 M875.4,76.5c-2.4,1.1-4.9,2.3-7.3,3.5
	c-1.5,0.5-3,1-4.5,1.5c2.1-1.1,4.2-2.2,6.3-3.2C871.8,77.6,873.6,77.1,875.4,76.5 M887.2,72.8c-3.1,1.3-6.1,2.7-9.2,4
	c-0.9,0.3-1.8,0.6-2.7,0.9c2.7-1.2,5.3-2.5,8-3.7C884.6,73.6,885.9,73.2,887.2,72.8 M899.7,69c-4.1,1.6-8.1,3.2-12.1,4.8
	c-0.5,0.2-1,0.3-1.5,0.5c3.3-1.4,6.5-2.8,9.8-4.2C897.2,69.7,898.5,69.3,899.7,69 M1000,46.7v0.2V47v0.8c-12.2,1.6-24.2,3.7-35.9,6
	c-8.3,1.7-16.5,3.5-24.7,5.5c19.6-5.1,39.6-9.3,60.6-12.2V46.7L1000,46.7z"/>
<path class="st0" d="M275,186.4c1.4,0.3,2.9,0.6,4.3,1c-0.2,0-0.5,0-0.7,0C277.4,187,276.2,186.7,275,186.4 M267.6,185.6
	c0.7,0.1,1.5,0.1,2.2,0.2c1.5,0.4,3,0.8,4.5,1.2c-0.8-0.1-1.7-0.1-2.5-0.2C270.4,186.4,269,186,267.6,185.6 M262.5,185.1
	c0.8,0.1,1.6,0.2,2.4,0.3c1.5,0.4,2.9,0.9,4.4,1.3c-0.9-0.1-1.8-0.1-2.7-0.2C265.2,186,263.9,185.6,262.5,185.1 M257.6,184.6
	c0.8,0.1,1.6,0.2,2.5,0.3c1.4,0.5,2.8,0.9,4.3,1.4c-0.9-0.1-1.8-0.2-2.7-0.2C260.2,185.5,258.9,185.1,257.6,184.6 M252.7,184
	c0.8,0.1,1.7,0.2,2.5,0.3c1.4,0.5,2.8,1,4.1,1.5c-0.9-0.1-1.9-0.2-2.8-0.2C255.3,185.1,254,184.5,252.7,184 M248,183.4
	c0.7,0.1,1.4,0.2,2.2,0.3c1.4,0.6,2.7,1.1,4.1,1.7c-0.8-0.1-1.6-0.2-2.5-0.2C250.5,184.6,249.2,184,248,183.4 M242.6,182.8
	c0.9,0.1,1.9,0.2,2.8,0.4c1.3,0.6,2.6,1.2,3.9,1.8c-1-0.1-2-0.2-3-0.3C245.1,184,243.9,183.4,242.6,182.8 M238.1,182.2
	c1,0.1,1.9,0.3,2.9,0.4c1.3,0.6,2.5,1.3,3.8,1.9c-1-0.1-2.1-0.2-3.1-0.3C240.5,183.5,239.3,182.8,238.1,182.2 M233,181.5
	c1.1,0.1,2.2,0.3,3.3,0.4c1.2,0.7,2.5,1.3,3.7,2c-1.1-0.1-2.3-0.2-3.4-0.4C235.4,182.9,234.2,182.2,233,181.5 M758.2,120.6
	c-0.6,0.6-1.3,1.2-1.9,1.8c-76.7,26.5-168.2,51.7-299,62.7c-36.5,3.1-72,4.6-106.3,4.6c-0.5,0-1.1,0-1.7,0c-1.8,0-3.7,0-5.5,0
	c-0.4,0-0.7,0-1.1,0c-12.8-0.4-25.4-1-37.9-1.8c-4.2-0.4-8.4-0.8-12.6-1.2c10.9,0.6,21.9,1.1,33.1,1.4c1.4,0,2.9,0.1,4.3,0.1
	c2.2,0.1,4.5,0.1,6.7,0.1c6,0.1,12,0.1,18.1,0.1c3.8,0,7.5,0,11.3-0.1c29.4-0.3,59.9-1.7,91.3-4.4
	C589.2,172.9,681,147.4,758.2,120.6 M0,117.7c67.3,30.6,143.1,52.5,229,63.2c0.9,0.1,1.8,0.2,2.6,0.4c1.2,0.7,2.4,1.4,3.6,2.1
	C149.6,173.7,71.4,152.8,0,120.5V117.7L0,117.7z M769,116.9c-0.7,0.6-1.4,1.2-2.1,1.9c-3,1.1-6.1,2.1-9.2,3.2
	c0.6-0.6,1.3-1.2,1.9-1.8C762.7,119,765.9,117.9,769,116.9 M779.5,113.1c-0.8,0.7-1.5,1.3-2.3,2c-2.9,1-5.7,2-8.6,3.1
	c0.7-0.6,1.4-1.3,2.1-1.9C773.7,115.2,776.6,114.1,779.5,113.1 M790.1,109.3c-0.9,0.7-1.7,1.4-2.6,2.1c-2.8,1-5.6,2-8.4,3
	c0.8-0.7,1.6-1.3,2.3-2C784.4,111.3,787.2,110.3,790.1,109.3 M800.5,105.4c-1,0.7-1.9,1.5-2.9,2.2c-2.6,1-5.3,1.9-8,2.9
	c0.9-0.7,1.7-1.4,2.6-2.1C795.1,107.4,797.8,106.4,800.5,105.4 M810.9,101.6c-1.1,0.8-2.2,1.6-3.3,2.3c-2.5,0.9-5,1.8-7.5,2.8
	c1-0.7,2-1.5,2.9-2.2C805.7,103.5,808.3,102.6,810.9,101.6 M821.4,97.7c-1.3,0.8-2.5,1.7-3.8,2.5c-2.4,0.9-4.7,1.8-7.1,2.6
	c1.1-0.8,2.2-1.6,3.3-2.4C816.3,99.6,818.9,98.6,821.4,97.7 M831.7,93.9c-1.5,0.9-2.9,1.8-4.4,2.8c-1.4,0.5-2.9,1.1-4.3,1.6
	c-0.7,0.3-1.4,0.5-2.1,0.8c1.3-0.9,2.6-1.7,3.9-2.6C827.1,95.6,829.4,94.7,831.7,93.9 M842.2,90c-1.7,1-3.5,2-5.2,3.1
	c-1.9,0.7-3.8,1.4-5.7,2.1c1.5-0.9,3-1.9,4.6-2.8C838,91.5,840.1,90.7,842.2,90 M852.7,86.1c-2.1,1.1-4.2,2.3-6.3,3.4
	c-1.6,0.6-3.3,1.2-4.9,1.8c1.8-1,3.6-2.1,5.4-3.1C848.8,87.5,850.8,86.8,852.7,86.1 M863.7,82.2c-2.6,1.3-5.2,2.6-7.8,4
	c-1.2,0.4-2.3,0.8-3.5,1.3c2.2-1.2,4.4-2.4,6.7-3.5C860.6,83.3,862.1,82.7,863.7,82.2 M875,78.2c-3.4,1.6-6.9,3.1-10.3,4.8
	c-0.4,0.1-0.8,0.3-1.2,0.4c2.9-1.4,5.7-2.8,8.6-4.2C873.1,78.8,874.1,78.5,875,78.2 M886.9,74c-2.6,1.1-5.1,2.1-7.7,3.2
	c2-0.9,3.9-1.7,5.9-2.6C885.8,74.4,886.4,74.2,886.9,74 M1000,46v0.5v0.3v0.4c-21,2.9-41.1,7.1-60.6,12.2
	c-8.8,2.3-17.6,4.8-26.3,7.5c27.6-8.9,56-16.2,86.9-20.5V46L1000,46z"/>
<path class="st0" d="M263.9,184.6c0.6,0.1,1.2,0.2,1.9,0.2c1.3,0.4,2.7,0.7,4,1.1c-0.7-0.1-1.5-0.1-2.2-0.2
	C266.4,185.3,265.1,184.9,263.9,184.6 M259.2,184c0.6,0.1,1.2,0.1,1.9,0.2c1.3,0.4,2.5,0.8,3.8,1.1c-0.8-0.1-1.6-0.2-2.4-0.3
	C261.4,184.8,260.3,184.4,259.2,184 M254.8,183.5c0.7,0.1,1.4,0.2,2,0.2c1.1,0.4,2.1,0.7,3.2,1.1c-0.8-0.1-1.6-0.2-2.5-0.3
	C256.6,184.2,255.7,183.9,254.8,183.5 M250.3,183c0.7,0.1,1.5,0.2,2.2,0.3c0.9,0.3,1.8,0.7,2.7,1c-0.8-0.1-1.7-0.2-2.5-0.3
	C251.9,183.7,251.1,183.4,250.3,183 M245.9,182.5c0.6,0.1,1.2,0.2,1.9,0.2c0.8,0.3,1.6,0.7,2.4,1c-0.7-0.1-1.4-0.2-2.2-0.3
	C247.3,183.1,246.6,182.8,245.9,182.5 M240.8,181.9c0.9,0.1,1.7,0.2,2.6,0.3c0.7,0.3,1.4,0.6,2.1,0.9c-0.9-0.1-1.9-0.2-2.8-0.4
	C242,182.5,241.4,182.2,240.8,181.9 M236.4,181.3c0.9,0.1,1.8,0.2,2.7,0.3c0.6,0.3,1.2,0.6,1.8,0.9c-1-0.1-1.9-0.3-2.9-0.4
	C237.5,181.9,237,181.6,236.4,181.3 M231.6,180.6c1,0.1,2.1,0.3,3.1,0.4c0.5,0.3,1.1,0.6,1.6,0.9c-1.1-0.1-2.2-0.3-3.3-0.4
	C232.5,181.2,232.1,180.9,231.6,180.6 M750,128.4c-0.6,0.6-1.2,1.2-1.9,1.8c-75.7,27.7-166.8,52.7-297.6,59.3
	c-23.2,1.2-46,1.8-68.3,1.8c-13.1,0-26.1-0.2-38.9-0.6c-1.8-0.1-3.6-0.1-5.4-0.2c-0.6,0-1.3,0-1.9-0.1c-10.5-0.7-20.9-1.5-31.1-2.4
	c12.5,0.8,25.1,1.4,37.9,1.8c0.3,0,0.6,0,0.9,0c1.6,0,3.2,0.1,4.8,0.1c10.4,0.3,20.9,0.4,31.6,0.4c22.9,0,46.5-0.6,70.5-1.8
	C582.4,181.7,673.8,156.3,750,128.4 M760.5,124.4c-0.7,0.6-1.4,1.3-2,1.9c-3,1.1-5.9,2.2-8.9,3.3c0.6-0.6,1.2-1.2,1.9-1.8
	C754.5,126.7,757.5,125.6,760.5,124.4 M770.9,120.5c-0.8,0.7-1.5,1.3-2.3,2c-2.8,1.1-5.6,2.1-8.4,3.2c0.7-0.6,1.4-1.3,2.1-1.9
	C765.2,122.7,768,121.6,770.9,120.5 M781.2,116.5c-0.8,0.7-1.7,1.4-2.5,2.1c-2.7,1-5.4,2.1-8.1,3.1c0.8-0.7,1.5-1.3,2.3-2
	C775.7,118.6,778.4,117.6,781.2,116.5 M0,112.7c69.8,33.7,146.1,56,230.2,67.7c0.5,0.3,1,0.6,1.5,0.9c-0.9-0.1-1.8-0.2-2.6-0.4
	c-38.9-5.6-76.4-13.4-111.8-23.4C75.9,145.9,37,131.4,0,113.7V112.7L0,112.7z M791.4,112.4c-1,0.7-1.9,1.5-2.9,2.3
	c-2.5,1-5.1,2-7.7,3c0.9-0.7,1.7-1.4,2.6-2.1C786.1,114.5,788.8,113.5,791.4,112.4 M801.5,108.4c-1.1,0.8-2.2,1.6-3.3,2.4
	c-2.4,1-4.8,1.9-7.2,2.9c1-0.8,1.9-1.5,2.9-2.3C796.5,110.4,799,109.4,801.5,108.4 M811.6,104.3c-1.3,0.9-2.6,1.8-3.8,2.7
	c-2.2,0.9-4.4,1.8-6.7,2.7c1.1-0.8,2.2-1.7,3.4-2.5C806.9,106.2,809.3,105.3,811.6,104.3 M821.7,100.2c-1.5,1-3,2-4.5,3
	c-2,0.8-3.9,1.6-5.9,2.4c1.3-0.9,2.6-1.8,4-2.7C817.4,102,819.6,101.1,821.7,100.2 M831.9,96.1c-1.8,1.1-3.7,2.2-5.5,3.3
	c-1.4,0.5-2.7,1.1-4.1,1.7c-0.3,0.1-0.7,0.3-1,0.4c1.6-1,3.1-2,4.7-3C828,97.7,830,96.9,831.9,96.1 M842.1,92
	c-2.3,1.3-4.6,2.6-6.8,3.9c-1.3,0.5-2.6,1.1-3.9,1.6c1.9-1.1,3.8-2.3,5.7-3.4C838.7,93.3,840.4,92.6,842.1,92 M852.7,87.7
	c-3,1.5-5.9,3.1-8.9,4.7c-0.7,0.3-1.3,0.5-2,0.8c2.4-1.4,4.8-2.7,7.3-4C850.2,88.7,851.5,88.2,852.7,87.7 M863.6,83.4
	c-2.1,1-4.1,2-6.2,3c1.6-0.8,3.3-1.7,4.9-2.5C862.7,83.8,863.2,83.6,863.6,83.4 M1000,44.9V45v0.3V46v0.3
	c-30.9,4.4-59.4,11.6-86.9,20.5c-9.9,3.2-19.6,6.6-29.3,10.2c19.2-7.6,38.6-14.5,58.8-20.2c4.5-1.2,9-2.4,13.6-3.5c0,0,0,0,0.1,0
	c5.6-1.3,11.2-2.6,16.9-3.8c1.7-0.3,3.3-0.7,5-1c5.2-1,10.5-1.9,15.9-2.8c1.5-0.2,3-0.5,4.5-0.7C999,45,999.5,45,1000,44.9"/>
<path class="st0" d="M259.9,183.4c0.4,0.1,0.9,0.1,1.3,0.2c1.5,0.4,3,0.8,4.5,1.2c-0.6-0.1-1.2-0.2-1.9-0.2
	C262.6,184.2,261.3,183.8,259.9,183.4 M254.9,182.6c0.5,0.1,1.1,0.2,1.6,0.3c1.5,0.4,2.9,0.9,4.4,1.3c-0.7-0.1-1.4-0.2-2.1-0.3
	C257.5,183.5,256.2,183,254.9,182.6 M250.1,181.8c0.6,0.1,1.2,0.2,1.8,0.3c1.4,0.5,2.8,1,4.3,1.5c-0.7-0.1-1.4-0.2-2.2-0.3
	C252.6,182.7,251.3,182.3,250.1,181.8 M245.4,181c0.6,0.1,1.3,0.2,1.9,0.3c1.4,0.5,2.8,1,4.1,1.6c-0.8-0.1-1.5-0.2-2.3-0.3
	C247.9,182,246.6,181.5,245.4,181 M240.8,180.2c0.5,0.1,1,0.2,1.5,0.3c1.4,0.6,2.7,1.1,4.1,1.7c-0.6-0.1-1.2-0.2-1.9-0.3
	C243.3,181.3,242,180.7,240.8,180.2 M235.7,179.3c0.7,0.1,1.5,0.2,2.2,0.3c1.3,0.6,2.6,1.2,3.9,1.8c-0.9-0.1-1.7-0.3-2.6-0.4
	C238,180.5,236.8,179.9,235.7,179.3 M231.6,178.7c0.8,0.1,1.5,0.3,2.3,0.4c1.1,0.6,2.3,1.2,3.4,1.7c-0.9-0.1-1.8-0.3-2.7-0.4
	C233.7,179.8,232.6,179.2,231.6,178.7 M226.9,177.9c0.9,0.2,1.9,0.3,2.8,0.5c1,0.6,2.1,1.1,3.1,1.7c-1-0.2-2.1-0.3-3.1-0.5
	C228.8,179,227.8,178.4,226.9,177.9 M742.1,136.1c-0.6,0.6-1.2,1.2-1.8,1.8c-74.9,29-165.5,53.8-296.5,56
	c-8.3,0.1-16.5,0.2-24.6,0.2c-28.3,0-55.8-0.8-82.4-2.5c-1.8-0.1-3.5-0.2-5.3-0.3c-1.8-0.1-3.5-0.2-5.3-0.4c-0.3,0-0.5,0-0.8-0.1
	c-14.8-1.5-29.2-3.2-43.4-5.1c3.4,0.4,6.8,0.8,10.3,1.1c4.2,0.4,8.4,0.8,12.6,1.2c10.2,0.9,20.6,1.7,31.1,2.4c0.6,0,1.1,0.1,1.6,0.1
	c1.6,0.1,3.1,0.2,4.7,0.3c25.1,1.5,50.9,2.2,77.6,2.2c7.9,0,15.9-0.1,23.9-0.2C575.9,190.6,666.9,165.3,742.1,136.1 M752.4,132
	c-0.7,0.6-1.3,1.3-2,1.9c-2.9,1.1-5.8,2.3-8.7,3.4c0.6-0.6,1.2-1.2,1.8-1.8C746.5,134.3,749.5,133.1,752.4,132 M762.6,127.8
	c-0.7,0.7-1.5,1.3-2.2,2c-2.7,1.1-5.4,2.2-8.2,3.3c0.7-0.6,1.3-1.3,2-1.9C757,130.1,759.8,129,762.6,127.8 M772.7,123.6
	c-0.8,0.7-1.7,1.4-2.5,2.2c-2.6,1.1-5.2,2.2-7.8,3.2c0.8-0.7,1.5-1.4,2.3-2C767.3,125.9,770,124.8,772.7,123.6 M782.6,119.4
	c-1,0.8-1.9,1.6-2.9,2.3c-2.4,1-4.9,2.1-7.3,3.1c0.9-0.7,1.7-1.5,2.6-2.2C777.5,121.6,780.1,120.5,782.6,119.4 M792.5,115.1
	c-1.1,0.9-2.2,1.7-3.4,2.6c-2.2,1-4.5,1.9-6.8,2.9c1-0.8,2-1.6,3-2.4C787.7,117.2,790.1,116.2,792.5,115.1 M802.4,110.8
	c-1.3,1-2.7,1.9-4,2.9c-2.1,0.9-4.1,1.8-6.2,2.7c1.1-0.9,2.3-1.7,3.4-2.6C797.9,112.8,800.1,111.8,802.4,110.8 M812.2,106.5
	c-1.6,1.1-3.2,2.2-4.8,3.2c-1.8,0.8-3.5,1.6-5.3,2.3c1.4-1,2.7-1.9,4.1-2.9C808.2,108.3,810.2,107.4,812.2,106.5 M0,105.6
	c66.1,33.2,140.5,57.6,225.4,72c0.9,0.6,1.8,1.1,2.8,1.7c-38.3-6.4-74.8-14.9-109.8-25.5c-41.9-12.7-81.2-28.3-118.4-47V105.6
	L0,105.6z M822.1,102.1c-2,1.3-4,2.5-6,3.8c-1.4,0.6-2.8,1.2-4.2,1.9c1.7-1.1,3.3-2.2,5-3.3c0.7-0.3,1.4-0.6,2-0.9
	C820,103,821,102.6,822.1,102.1 M832,97.7c-2.6,1.5-5.2,3-7.8,4.5c-0.9,0.4-1.7,0.8-2.6,1.1c2.1-1.3,4.2-2.6,6.3-3.9
	C829.2,98.9,830.6,98.3,832,97.7 M842.2,93.3c-3.2,1.7-6.4,3.5-9.6,5.2c2.5-1.4,4.9-2.8,7.4-4.2C840.7,93.9,841.5,93.6,842.2,93.3
	 M1000,43.6v0.9c-1.9,0.3-3.9,0.6-5.8,0.9c-1.7,0.3-3.4,0.6-5.2,0.8c-4.8,0.8-9.6,1.7-14.3,2.7c-1.8,0.4-3.5,0.7-5.3,1.1
	c-5,1.1-9.9,2.3-14.8,3.5c-0.2,0-0.4,0.1-0.5,0.1c-3.9,1-7.7,2-11.5,3.1c-20.2,5.7-39.6,12.6-58.8,20.2c-6.7,2.7-13.5,5.4-20.2,8.3
	c18-8.1,36.2-15.6,55.2-22.1c2.4-0.8,4.8-1.6,7.2-2.4c0.9-0.3,1.8-0.6,2.7-0.8c0.8-0.2,1.6-0.5,2.3-0.7c3.6-1.1,7.2-2.1,10.7-3.1
	c1.1-0.3,2.1-0.6,3.2-0.9c4.4-1.2,8.8-2.4,13.2-3.4c2.3-0.6,4.7-1.1,7-1.7c4.3-1,8.6-1.9,12.8-2.7c2.3-0.4,4.5-0.9,6.8-1.3
	C989.9,45.2,994.9,44.3,1000,43.6"/>
<path class="st0" d="M256.2,182.3c0.2,0,0.4,0.1,0.6,0.1c1.5,0.4,3,0.8,4.5,1.2c-0.4-0.1-0.9-0.1-1.3-0.2
	C258.7,183,257.4,182.6,256.2,182.3 M251.1,181.3c0.4,0.1,0.7,0.1,1.1,0.2c1.5,0.4,2.9,0.9,4.4,1.3c-0.5-0.1-1.1-0.2-1.6-0.3
	C253.6,182.1,252.4,181.7,251.1,181.3 M246.3,180.4c0.4,0.1,0.9,0.2,1.3,0.3c1.4,0.5,2.8,1,4.2,1.5c-0.6-0.1-1.2-0.2-1.8-0.3
	C248.8,181.3,247.5,180.8,246.3,180.4 M241.7,179.4c0.5,0.1,1,0.2,1.5,0.3c1.4,0.5,2.7,1,4.1,1.6c-0.6-0.1-1.3-0.2-1.9-0.3
	C244.1,180.5,242.9,180,241.7,179.4 M237.2,178.5c0.3,0.1,0.7,0.1,1,0.2c1.3,0.6,2.7,1.1,4,1.7c-0.5-0.1-1-0.2-1.5-0.3
	C239.6,179.6,238.4,179.1,237.2,178.5 M232.2,177.5c0.6,0.1,1.3,0.2,1.9,0.4c1.2,0.6,2.5,1.2,3.8,1.7c-0.8-0.1-1.6-0.3-2.4-0.4
	C234.4,178.7,233.3,178.1,232.2,177.5 M228.2,176.8c0.7,0.1,1.4,0.3,2,0.4c1.1,0.6,2.2,1.1,3.3,1.7c-0.8-0.1-1.6-0.3-2.4-0.5
	C230.2,177.9,229.2,177.3,228.2,176.8 M223.6,175.9c0.9,0.2,1.7,0.3,2.6,0.5c1,0.5,1.9,1.1,2.9,1.6c-1-0.2-1.9-0.4-2.9-0.6
	C225.3,176.9,224.5,176.4,223.6,175.9 M734.4,143.7c-0.6,0.6-1.2,1.3-1.8,1.9c-22.5,9.2-46.5,17.9-72.6,25.5
	c-63,18.3-130.3,27.2-205,27.2c-5.9,0-11.9-0.1-17.9-0.2c-37-0.7-72.3-2.6-106.2-5.8c-1.7-0.2-3.5-0.3-5.2-0.5
	c-1.7-0.2-3.4-0.3-5.1-0.5c0,0,0,0-0.1,0c-1.7-0.2-3.5-0.4-5.2-0.5c-0.9-0.1-1.8-0.2-2.7-0.3c-12-1.7-23.8-3.5-35.5-5.4
	c-0.6-0.1-1.1-0.2-1.7-0.3c2.2,0.3,4.4,0.6,6.6,0.9c14.2,2,28.6,3.7,43.4,5.1c0.2,0,0.4,0,0.7,0.1c1.5,0.2,3.1,0.3,4.6,0.4
	c1.6,0.2,3.1,0.3,4.7,0.4c32.4,3,66.3,4.8,101.6,5.5c6,0.1,12,0.2,17.8,0.2C577.7,197.3,663.4,173,734.4,143.7 M744.6,139.5
	c-0.7,0.7-1.4,1.3-2.1,2c-2.8,1.2-5.6,2.4-8.4,3.5c0.6-0.6,1.2-1.3,1.9-1.9C738.9,141.9,741.7,140.7,744.6,139.5 M754.6,135.1
	c-0.8,0.7-1.5,1.4-2.3,2.1c-2.6,1.2-5.3,2.3-8,3.4c0.7-0.7,1.4-1.3,2.1-2C749.1,137.5,751.9,136.3,754.6,135.1 M764.4,130.7
	c-0.9,0.8-1.7,1.5-2.6,2.3c-2.5,1.1-5,2.2-7.5,3.3c0.8-0.7,1.5-1.4,2.3-2.1C759.2,133.1,761.8,131.9,764.4,130.7 M774.2,126.3
	c-1,0.8-2,1.7-3,2.5c-2.3,1.1-4.6,2.1-7,3.2c0.9-0.8,1.8-1.5,2.7-2.3C769.3,128.5,771.7,127.4,774.2,126.3 M783.8,121.8
	c-1.2,0.9-2.4,1.8-3.6,2.8c-2.1,1-4.2,2-6.4,2.9c1-0.8,2-1.7,3.1-2.5C779.2,123.9,781.5,122.9,783.8,121.8 M793.4,117.3
	c-1.4,1-2.9,2.1-4.3,3.1c-1.9,0.9-3.7,1.8-5.6,2.6c1.2-0.9,2.4-1.9,3.6-2.8C789.2,119.2,791.3,118.2,793.4,117.3 M803,112.7
	c-1.8,1.2-3.6,2.4-5.3,3.6c-1.5,0.7-3,1.4-4.5,2.2c1.5-1.1,2.9-2.1,4.4-3.2C799.3,114.4,801.2,113.6,803,112.7 M812.6,108.1
	c-2.3,1.5-4.6,2.9-6.9,4.4c-1,0.5-2,1-3,1.4c1.8-1.3,3.7-2.5,5.6-3.8C809.7,109.5,811.1,108.8,812.6,108.1 M822.2,103.4
	c-3.1,1.9-6.3,3.7-9.4,5.6c-0.1,0.1-0.2,0.1-0.3,0.2c-0.1,0-0.2,0.1-0.3,0.1c2.4-1.5,4.8-3.1,7.3-4.6
	C820.4,104.3,821.3,103.9,822.2,103.4 M0,99c64.7,34.2,138,60,222.1,76.6c0.9,0.5,1.7,1,2.6,1.6c-36.7-7.2-71.6-16.1-105-27
	C77.1,136.3,37.4,119.6,0,99.7V99L0,99z M1000,42.2v0.7v0.5c-0.7,0.1-1.4,0.2-2,0.3c-5.2,0.7-10.4,1.6-15.4,2.5
	c-2.5,0.4-4.9,0.9-7.3,1.4c-4.2,0.8-8.4,1.8-12.5,2.7c-2.4,0.6-4.8,1.2-7.3,1.8c-4.2,1.1-8.3,2.2-12.4,3.3c-1.2,0.3-2.3,0.7-3.4,1
	c-4,1.2-8,2.4-11.9,3.7c-0.9,0.3-1.8,0.6-2.6,0.9c-2.1,0.7-4.3,1.4-6.4,2.1c-19,6.5-37.2,14-55.2,22.1c-7.3,3.3-14.6,6.7-22,10.1
	c12.5-6.3,25-12.4,37.7-18c2.6-1.1,5.1-2.2,7.7-3.2c0.2-0.1,0.4-0.2,0.7-0.3c4-1.6,8-3.3,12.1-4.8c0.8-0.3,1.7-0.7,2.6-1
	c3.7-1.4,7.4-2.8,11.1-4.1c1.5-0.5,3.1-1.1,4.6-1.6c3.4-1.2,6.9-2.4,10.5-3.5c1.7-0.6,3.4-1.1,5.2-1.6c3.5-1.1,7.1-2.1,10.7-3.2
	c2.7-0.8,5.5-1.5,8.3-2.2c3.6-0.9,7.1-1.8,10.8-2.7c2.8-0.6,5.6-1.3,8.4-1.9c4.3-0.9,8.6-1.7,12.9-2.5c2.9-0.5,5.9-1,8.9-1.5
	C995.7,42.9,997.9,42.5,1000,42.2"/>
<path class="st0" d="M254.3,181.7c0.8,0.2,1.7,0.5,2.5,0.7c-0.2,0-0.4-0.1-0.6-0.1C255.6,182.1,254.9,181.9,254.3,181.7
	 M247.6,180.1c0.1,0,0.2,0,0.3,0.1c1.4,0.4,2.9,0.9,4.3,1.3c-0.4-0.1-0.7-0.1-1.1-0.2C249.9,180.9,248.8,180.5,247.6,180.1
	 M242.8,179c0.2,0.1,0.4,0.1,0.7,0.2c1.4,0.5,2.8,1,4.2,1.5c-0.4-0.1-0.9-0.2-1.3-0.3C245.1,179.9,243.9,179.5,242.8,179 M238.2,178
	c0.3,0.1,0.7,0.2,1,0.2c1.3,0.5,2.7,1,4,1.6c-0.5-0.1-1-0.2-1.5-0.3C240.5,178.9,239.4,178.5,238.2,178 M233.8,176.9
	c0.2,0,0.3,0.1,0.5,0.1c1.3,0.6,2.7,1.1,4,1.7c-0.3-0.1-0.7-0.1-1-0.2C236.1,178,234.9,177.5,233.8,176.9 M228.6,175.7
	c0.5,0.1,1,0.2,1.6,0.3c1.3,0.6,2.5,1.2,3.8,1.8c-0.7-0.1-1.4-0.3-2.1-0.4C230.8,176.8,229.7,176.3,228.6,175.7 M224.8,174.9
	c0.6,0.1,1.1,0.3,1.7,0.4c1.1,0.6,2.2,1.1,3.3,1.7c-0.7-0.2-1.4-0.3-2.1-0.5C226.7,176,225.8,175.4,224.8,174.9 M220.2,173.9
	c0.8,0.2,1.6,0.4,2.4,0.5c1,0.5,1.9,1.1,2.9,1.6c-0.9-0.2-1.8-0.4-2.7-0.6C221.9,174.9,221.1,174.4,220.2,173.9 M726.7,151.6
	c-0.5,0.6-1.1,1.1-1.6,1.7c-21.9,9.5-45.2,18.4-70.6,26c-55.1,16.4-114,24.5-178.8,24.5c-14.8,0-30-0.4-45.5-1.3
	c-36.8-2-71.9-5.1-105.4-9.4c-1.7-0.2-3.4-0.4-5.1-0.7c-1.5-0.2-3-0.4-4.5-0.6c-0.2,0-0.4-0.1-0.6-0.1c-1.7-0.2-3.4-0.5-5-0.7
	c-0.6-0.1-1.2-0.2-1.7-0.2c-10.4-1.8-20.7-3.7-30.8-5.8c11.6,2,23.4,3.8,35.5,5.4c0.8,0.1,1.5,0.2,2.3,0.3c1.5,0.2,3,0.4,4.5,0.6
	c0,0,0.1,0,0.1,0c1.5,0.2,3,0.4,4.5,0.6c1.6,0.2,3.1,0.4,4.7,0.6c32.3,4,66.2,7,101.5,9c16.1,0.9,31.6,1.3,46.4,1.3
	C585.2,202.8,661.4,180.4,726.7,151.6 M736.7,147.1c-0.6,0.6-1.3,1.2-1.9,1.9c-2.7,1.2-5.4,2.4-8.2,3.6c0.6-0.6,1.1-1.1,1.6-1.7
	C731.1,149.7,733.9,148.4,736.7,147.1 M746.5,142.5c-0.7,0.7-1.5,1.4-2.2,2c-2.5,1.2-5.1,2.4-7.7,3.5c0.6-0.6,1.3-1.3,1.9-1.9
	C741.2,145,743.9,143.8,746.5,142.5 M756.2,137.9c-0.9,0.8-1.7,1.5-2.6,2.3c-2.4,1.1-4.8,2.3-7.2,3.4c0.7-0.7,1.5-1.4,2.2-2.1
	C751.2,140.3,753.7,139.1,756.2,137.9 M765.8,133.2c-1,0.9-2.1,1.7-3.1,2.6c-2.2,1.1-4.4,2.1-6.6,3.2c0.9-0.8,1.8-1.5,2.6-2.3
	C761.1,135.5,763.5,134.4,765.8,133.2 M775.3,128.4c-1.3,1-2.5,2-3.8,3c-1.9,1-3.9,1.9-5.8,2.9c1.1-0.9,2.1-1.8,3.2-2.6
	C771,130.6,773.1,129.5,775.3,128.4 M784.7,123.7c-1.6,1.2-3.1,2.3-4.7,3.5c-1.6,0.8-3.2,1.6-4.9,2.5c1.3-1,2.6-2,3.9-3
	C780.9,125.6,782.8,124.6,784.7,123.7 M794,118.8c-2,1.4-4.1,2.8-6.1,4.2c-1.1,0.6-2.3,1.2-3.4,1.8c1.6-1.2,3.3-2.4,4.9-3.6
	C790.9,120.4,792.4,119.6,794,118.8 M803.4,113.9c-2.8,1.8-5.7,3.7-8.5,5.5c-0.4,0.2-0.8,0.4-1.1,0.6c2.1-1.5,4.3-2.9,6.4-4.4
	C801.3,115.1,802.3,114.5,803.4,113.9 M812.8,109c-0.7,0.4-1.5,0.9-2.2,1.3c0.5-0.3,1-0.6,1.5-1c0.1-0.1,0.3-0.1,0.4-0.2
	C812.6,109.2,812.7,109.1,812.8,109 M0,92.2c63.3,35.3,135.4,62.5,218.6,81.3c0.8,0.5,1.7,1,2.5,1.5c-35.1-7.9-68.4-17.3-100.2-28.4
	c-43.2-15-83.3-33-120.9-54.1V92.2L0,92.2z M1000,40.6v0.7v0.1c-4.7,0.6-9.4,1.3-14,2.1c-3.3,0.6-6.5,1.2-9.7,1.8
	c-4,0.8-8,1.7-12,2.6c-3,0.7-6,1.4-9,2.2c-3.3,0.8-6.5,1.7-9.7,2.6c-2.9,0.8-5.7,1.7-8.6,2.5c-3.2,1-6.3,2-9.4,3
	c-1.9,0.6-3.8,1.3-5.7,1.9c-3,1-6,2.1-9,3.2c-1.6,0.6-3.3,1.2-4.9,1.8c-3.1,1.2-6.2,2.4-9.3,3.7c-1,0.4-1.9,0.8-2.9,1.2
	c-3.3,1.4-6.6,2.7-9.8,4.2c-0.3,0.1-0.6,0.3-0.9,0.4c-2,0.9-3.9,1.7-5.9,2.6c-12.7,5.7-25.2,11.8-37.7,18c-6.5,3.3-12.9,6.6-19.4,10
	c11.6-6.5,23.3-12.8,35.2-18.8c2.1-1,4.1-2,6.2-3c0.4-0.2,0.8-0.4,1.1-0.5c3.4-1.6,6.8-3.2,10.3-4.8c1-0.5,2-0.9,3.1-1.4
	c3-1.4,6.1-2.7,9.2-4c1.5-0.6,2.9-1.2,4.4-1.9c2.9-1.2,5.8-2.4,8.7-3.6c2-0.8,3.9-1.6,5.9-2.3c2.8-1.1,5.6-2.1,8.5-3.2
	c2.2-0.8,4.4-1.6,6.6-2.3c2.9-1,5.8-2,8.8-2.9c3-1,6-1.9,9.1-2.8c3-0.9,6-1.8,9.1-2.6c3.1-0.9,6.3-1.7,9.5-2.5
	c3.6-0.9,7.3-1.8,11-2.6c3.3-0.7,6.7-1.4,10.1-2.1c4.5-0.9,9.1-1.6,13.7-2.3C995,41.3,997.5,41,1000,40.6"/>
<path class="st0" d="M246.8,179.8c0.4,0.1,0.7,0.2,1.1,0.3c-0.1,0-0.2,0-0.3-0.1C247.3,180,247.1,179.9,246.8,179.8 M240.2,178
	c1.1,0.4,2.2,0.8,3.3,1.1c-0.2-0.1-0.4-0.1-0.7-0.2C241.9,178.7,241,178.4,240.2,178 M234.9,176.6c0.1,0,0.2,0.1,0.3,0.1
	c1.3,0.5,2.6,1,4,1.5c-0.3-0.1-0.7-0.2-1-0.2C237.1,177.5,236,177,234.9,176.6 M231.5,175.9c0.9,0.4,1.8,0.8,2.7,1.1
	c-0.2,0-0.3-0.1-0.5-0.1C233,176.6,232.3,176.2,231.5,175.9 M224.9,173.9c0.4,0.1,0.9,0.2,1.3,0.4c1.3,0.6,2.5,1.2,3.8,1.8
	c-0.6-0.1-1.1-0.3-1.7-0.4C227.2,175,226.1,174.5,224.9,173.9 M221,172.8c0.5,0.1,1,0.3,1.5,0.4c1.2,0.6,2.4,1.2,3.7,1.9
	c-0.6-0.1-1.2-0.3-1.8-0.4C223.2,174,222.1,173.4,221,172.8 M216.1,171.4c0.7,0.2,1.5,0.4,2.2,0.6c1.2,0.7,2.4,1.3,3.5,2
	c-0.8-0.2-1.7-0.4-2.5-0.6C218.3,172.7,217.2,172.1,216.1,171.4 M719.3,159.3c-0.6,0.6-1.1,1.2-1.7,1.7
	c-21.5,9.9-44.4,19.1-69.3,26.7c-48.8,14.9-101,22.3-158,22.3c-21.6,0-43.9-1.1-66.9-3.2c-36.6-3.3-71.4-7.7-104.6-13.1
	c-1.6-0.3-3.3-0.5-4.9-0.8c-1.3-0.2-2.7-0.4-4-0.7c-0.3-0.1-0.6-0.1-1-0.2c-1.6-0.3-3.3-0.6-4.9-0.8c-1.4-0.2-2.8-0.5-4.2-0.7
	c-0.2,0-0.5-0.1-0.7-0.1c-0.7-0.1-1.4-0.3-2.1-0.4c-14.2-3-28.1-6.2-41.7-9.6c6.6,1.5,13.3,2.9,20.1,4.2c0.6,0.1,1.1,0.2,1.7,0.3
	c10.1,2,20.4,4,30.8,5.8c0.5,0.1,1,0.2,1.5,0.3c1.5,0.3,2.9,0.5,4.4,0.8c0.2,0,0.4,0.1,0.6,0.1c1.3,0.2,2.6,0.4,3.9,0.7
	c1.5,0.3,3.1,0.5,4.6,0.7c32.1,5.2,65.6,9.4,100.7,12.6c24,2.2,46.5,3.2,67.7,3.2C588.9,209.1,659,187.5,719.3,159.3 M729.1,154.6
	c-0.6,0.6-1.3,1.3-1.9,1.9c-2.6,1.3-5.3,2.5-7.9,3.7c0.6-0.6,1.1-1.2,1.7-1.8C723.7,157.2,726.4,155.9,729.1,154.6 M738.8,149.8
	c-0.8,0.7-1.5,1.4-2.3,2.1c-2.5,1.2-4.9,2.4-7.4,3.6c0.7-0.7,1.3-1.3,2-1.9C733.7,152.4,736.2,151.1,738.8,149.8 M748.3,144.9
	c-0.9,0.8-1.8,1.6-2.7,2.4c-2.3,1.2-4.5,2.3-6.8,3.5c0.8-0.7,1.5-1.5,2.3-2.2C743.5,147.4,745.9,146.2,748.3,144.9 M757.7,140
	c-1.1,0.9-2.2,1.9-3.3,2.8c-2,1.1-4.1,2.1-6.1,3.2c0.9-0.8,1.8-1.7,2.8-2.5C753.2,142.3,755.5,141.2,757.7,140 M766.9,135
	c-1.4,1.1-2.8,2.2-4.2,3.3c-1.7,0.9-3.5,1.9-5.2,2.8c1.1-1,2.3-1.9,3.4-2.9C763,137.2,765,136.1,766.9,135 M776.1,130
	c-1.8,1.4-3.6,2.7-5.4,4.1c-1.3,0.7-2.6,1.4-3.9,2.1c1.4-1.1,2.9-2.3,4.3-3.4C772.8,131.8,774.4,130.9,776.1,130 M785.3,124.9
	c-2.5,1.8-5,3.5-7.6,5.3c-0.6,0.3-1.2,0.6-1.8,1c1.9-1.4,3.8-2.8,5.7-4.2C782.8,126.2,784,125.6,785.3,124.9 M794.4,119.8
	c-1.4,0.9-2.8,1.8-4.2,2.7c1-0.7,1.9-1.3,2.9-2C793.5,120.3,794,120,794.4,119.8 M0,82.8c57.5,34.3,122.5,62,197,83
	c5.7,1.7,11.4,3.4,17.2,5.1c1.1,0.7,2.3,1.4,3.4,2.1c-33.5-8.5-65.3-18.4-95.5-29.6C78.3,127,37.8,107.8,0,85.4V82.8L0,82.8z
	 M1000,39v1.5c-3.4,0.4-6.8,0.9-10.2,1.4c-4.9,0.7-9.7,1.5-14.4,2.4c-3.7,0.7-7.3,1.5-11,2.3c-3.7,0.8-7.4,1.7-11.1,2.6
	c-3.4,0.9-6.8,1.8-10.1,2.7c-3,0.8-5.9,1.7-8.8,2.6c-3.2,1-6.4,2-9.5,3.1c-2.8,0.9-5.5,1.9-8.3,2.9c-2.3,0.8-4.7,1.7-6.9,2.6
	c-2.6,1-5.2,2-7.8,3c-2.1,0.8-4.1,1.7-6.1,2.5c-2.6,1.1-5.2,2.2-7.8,3.4c-1.5,0.7-3.1,1.4-4.6,2c-2.7,1.2-5.3,2.4-8,3.7
	c-1.1,0.5-2.1,1-3.2,1.5c-2.9,1.4-5.8,2.8-8.6,4.2c-0.4,0.2-0.8,0.4-1.2,0.6c-1.6,0.8-3.3,1.6-4.9,2.5c-11.9,6-23.6,12.4-35.2,18.8
	c-6.3,3.5-12.6,7-18.8,10.6c9.7-5.9,19.4-11.7,29.3-17.4c3.2-1.7,6.4-3.5,9.6-5.2c0.5-0.3,1-0.6,1.6-0.8c3-1.6,5.9-3.1,8.9-4.7
	c1.1-0.5,2.1-1.1,3.2-1.6c2.6-1.3,5.2-2.7,7.8-4c1.5-0.7,3-1.5,4.4-2.2c2.4-1.2,4.8-2.3,7.3-3.5c1.8-0.9,3.7-1.7,5.5-2.6
	c2.3-1.1,4.7-2.1,7.1-3.2c2.2-1,4.5-2,6.7-2.9c2.3-1,4.7-2,7-2.9c2.5-1,4.9-2,7.4-2.9c2.4-0.9,4.9-1.8,7.3-2.7
	c3.2-1.1,6.4-2.3,9.6-3.3c2.6-0.9,5.1-1.7,7.7-2.5c3.4-1.1,6.8-2.1,10.2-3c3.1-0.9,6.3-1.7,9.5-2.6c3.6-0.9,7.2-1.8,10.9-2.6
	c4-0.9,8-1.7,12.1-2.5C984.1,41.2,992,40,1000,39"/>
<path class="st0" d="M233.7,176.1c0.5,0.2,1,0.4,1.5,0.6c-0.1,0-0.2-0.1-0.3-0.1C234.5,176.4,234.1,176.2,233.7,176.1 M221.7,172.2
	c0.3,0.1,0.5,0.2,0.8,0.2c1.3,0.6,2.5,1.2,3.8,1.8c-0.4-0.1-0.9-0.2-1.3-0.4C223.8,173.3,222.8,172.8,221.7,172.2 M217.8,171
	c0.3,0.1,0.7,0.2,1,0.3c1.2,0.6,2.4,1.2,3.6,1.9c-0.5-0.1-1-0.3-1.5-0.4C219.9,172.2,218.9,171.6,217.8,171 M212.9,169.5
	c0.6,0.2,1.3,0.4,1.9,0.6c1.2,0.6,2.3,1.3,3.5,2c-0.7-0.2-1.5-0.4-2.2-0.6C215,170.8,214,170.1,212.9,169.5 M712.1,166.9
	c-0.6,0.6-1.2,1.3-1.8,1.9c-55.9,27.4-120.6,48.1-208.9,48.1c-26,0-54.1-1.8-84.7-5.7c-36.4-4.7-71-10.3-103.8-16.7
	c-1.6-0.3-3.2-0.6-4.8-1c-1.2-0.2-2.4-0.5-3.5-0.7c-0.4-0.1-0.8-0.2-1.3-0.3c-1.6-0.3-3.2-0.7-4.8-1c-1.2-0.3-2.5-0.5-3.7-0.8
	c-0.4-0.1-0.7-0.2-1.1-0.2c-1.6-0.3-3.2-0.7-4.8-1c-1.5-0.3-2.9-0.6-4.4-1c-0.1,0-0.2-0.1-0.4-0.1c-1.1-0.2-2.2-0.5-3.3-0.7
	c-0.5-0.1-1-0.2-1.5-0.3c-1.4-0.3-2.9-0.6-4.3-1c-15.5-4-30.6-8.2-45.4-12.6c-0.6-0.2-1.1-0.4-1.7-0.6c9,2.5,18.1,4.9,27.3,7.2
	c13.6,3.4,27.5,6.6,41.7,9.6c0.6,0.1,1.2,0.3,1.8,0.4c0.2,0,0.4,0.1,0.6,0.1c1.2,0.3,2.4,0.5,3.6,0.8c1.5,0.3,2.9,0.6,4.4,0.9
	c0.3,0.1,0.6,0.1,0.9,0.2c1.2,0.2,2.3,0.5,3.5,0.7c1.5,0.3,3,0.6,4.5,0.9c31.9,6.3,65.3,11.7,100.4,16.2c30.5,3.9,58.5,5.7,84.5,5.7
	C590.6,216,655.7,194.9,712.1,166.9 M721.7,162c-0.7,0.7-1.4,1.4-2.1,2.1c-2.5,1.3-5.1,2.6-7.6,3.8c0.6-0.6,1.2-1.3,1.8-1.9
	C716.4,164.7,719.1,163.4,721.7,162 M731.2,157c-0.8,0.8-1.7,1.6-2.5,2.4c-2.3,1.2-4.7,2.5-7.1,3.7c0.7-0.7,1.4-1.4,2.1-2.1
	C726.2,159.7,728.7,158.3,731.2,157 M740.5,151.9c-1,0.9-2,1.8-3,2.7c-2.1,1.2-4.3,2.3-6.4,3.5c0.8-0.8,1.7-1.6,2.5-2.4
	C735.9,154.5,738.2,153.2,740.5,151.9 M749.7,146.8c-0.8,0.7-1.6,1.4-2.5,2.1c-0.4,0.4-0.9,0.7-1.3,1.1c-1.8,1-3.7,2.1-5.5,3.1
	c1-0.9,2-1.8,3.1-2.7C745.5,149.1,747.6,147.9,749.7,146.8 M758.7,141.5c-0.5,0.4-0.9,0.7-1.4,1.1c-1.2,0.9-2.3,1.9-3.5,2.8
	c-1.4,0.8-2.9,1.6-4.3,2.5c1.3-1.1,2.6-2.2,3.8-3.2C755.2,143.6,757,142.6,758.7,141.5 M767.7,136.2c-0.2,0.2-0.4,0.3-0.6,0.5
	c-2,1.5-4.1,3.1-6.1,4.6c-0.8,0.5-1.6,0.9-2.3,1.4c1.7-1.3,3.4-2.7,5-4C765,137.8,766.4,137,767.7,136.2 M776.6,130.9
	c-0.1,0.1-0.2,0.1-0.2,0.2c-2,1.4-3.9,2.7-5.9,4.1c1.4-1,2.7-2,4.1-3.1C775.3,131.7,776,131.3,776.6,130.9 M0,75.6
	c55.4,34.9,118.3,63.8,190.6,86.6c6.6,2.3,13.4,4.5,20.2,6.6c1.1,0.7,2.2,1.4,3.4,2.1c-5.8-1.7-11.5-3.3-17.2-5.1
	c-25.7-7.8-50.1-16.3-73.6-25.7C78.8,122.4,37.9,101.8,0,78V75.6L0,75.6z M1000,37.3v1.1c-10.6,1.2-20.8,2.8-30.6,4.8
	c-4,0.8-7.9,1.7-11.8,2.6c-3.9,0.9-7.7,1.9-11.4,2.9c-3,0.8-6,1.7-9,2.6c-3.6,1.1-7.1,2.2-10.6,3.3c-2.4,0.8-4.8,1.6-7.2,2.5
	c-3.3,1.2-6.5,2.4-9.7,3.6c-2.3,0.9-4.5,1.8-6.7,2.7c-2.6,1-5.2,2.1-7.7,3.2c-2.1,0.9-4.2,1.8-6.4,2.8c-2.3,1-4.6,2.1-6.9,3.1
	c-2.1,1-4.2,2-6.3,3c-1.9,0.9-3.8,1.8-5.7,2.8c-2.1,1.1-4.2,2.1-6.3,3.2c-1.5,0.8-3.1,1.6-4.6,2.4c-2.2,1.2-4.4,2.4-6.7,3.5
	c-1.1,0.6-2.2,1.2-3.3,1.8c-2.4,1.3-4.9,2.7-7.3,4c-0.6,0.3-1.2,0.7-1.8,1c-2.5,1.4-5,2.8-7.4,4.2c-9.8,5.7-19.5,11.5-29.3,17.4
	c-3.1,1.9-6.2,3.7-9.3,5.6c-2.9,1.8-5.8,3.5-8.7,5.3c0.1-0.1,0.3-0.2,0.4-0.2c8.3-5.4,16.6-10.8,24.9-16.1c0.7-0.4,1.5-0.9,2.2-1.3
	c3.1-1.9,6.3-3.8,9.4-5.6c0.6-0.4,1.3-0.8,1.9-1.1c2.6-1.5,5.2-3,7.8-4.5c1.1-0.6,2.2-1.3,3.3-1.9c2.3-1.3,4.5-2.6,6.8-3.9
	c1.5-0.8,2.9-1.6,4.4-2.4c2.1-1.1,4.2-2.3,6.3-3.4c1.8-1,3.5-1.9,5.3-2.8c2-1,4-2.1,6-3.1c2.1-1.1,4.1-2.1,6.2-3.1
	c2-1,3.9-1.9,5.9-2.9c2.4-1.2,4.8-2.3,7.2-3.4c2-0.9,4-1.8,6-2.7c2.6-1.2,5.3-2.3,8-3.5c2.1-0.9,4.2-1.7,6.2-2.6
	c3.2-1.3,6.5-2.6,9.8-3.8c2.2-0.8,4.5-1.6,6.7-2.4c3.5-1.2,7-2.4,10.6-3.6c2.7-0.9,5.5-1.7,8.3-2.5c3.7-1.1,7.5-2.1,11.4-3.1
	c3.5-0.9,7.1-1.8,10.7-2.6C973.4,41.1,986.4,38.9,1000,37.3"/>
<path class="st0" d="M229.6,173.8c14.8,4.4,29.9,8.6,45.4,12.6c1.2,0.3,2.4,0.6,3.6,0.9c0.4,0.1,0.9,0.2,1.3,0.3
	c0.9,0.2,1.9,0.5,2.9,0.7c0.1,0,0.3,0.1,0.4,0.1c1.3,0.3,2.5,0.6,3.8,0.9c1.5,0.4,2.9,0.7,4.4,1.1c0.4,0.1,0.8,0.2,1.2,0.3
	c1.1,0.3,2.2,0.5,3.3,0.8c1.5,0.4,3,0.7,4.5,1.1c0.4,0.1,0.9,0.2,1.3,0.3c1.1,0.3,2.1,0.5,3.2,0.8c1.5,0.4,3,0.7,4.6,1.1
	c32,7.4,65.5,13.9,100.6,19.9c35.9,6,68.3,8.7,98,8.7c82.7,0,143.8-20.9,196.7-48.8c-0.6,0.7-1.2,1.3-1.9,2
	c-52.5,27.4-113.1,47.7-194.8,47.7c-29.7,0-62.3-2.7-98.2-8.8c-36.2-6.1-70.5-12.9-103-20.5c-1.5-0.4-3.1-0.7-4.6-1.1
	c0,0-0.1,0-0.1,0c-1.1-0.3-2.1-0.5-3.2-0.8c-0.5-0.1-1-0.2-1.5-0.4c-1.5-0.4-3-0.7-4.5-1.1c-0.1,0-0.1,0-0.2,0
	c-1.1-0.3-2.2-0.5-3.2-0.8c-0.5-0.1-1-0.2-1.4-0.4c-1.6-0.4-3.1-0.8-4.7-1.2c-1.3-0.3-2.5-0.6-3.8-1c-0.3-0.1-0.6-0.1-0.8-0.2
	c-0.9-0.2-1.9-0.5-2.8-0.7c-0.6-0.2-1.3-0.3-1.9-0.5c-1.5-0.4-3-0.8-4.5-1.2c-1.3-0.4-2.7-0.7-4-1.1c-1.5-0.4-3-0.8-4.5-1.2
	c-1.5-0.4-3-0.8-4.5-1.2c-0.9-0.2-1.7-0.5-2.5-0.7c-6.8-2.1-13.5-4.1-20.2-6.3C232.6,174.9,231.1,174.4,229.6,173.8 M218.6,170.6
	c0.1,0,0.1,0,0.2,0.1c1.2,0.6,2.5,1.2,3.7,1.8c-0.3-0.1-0.5-0.2-0.8-0.2C220.6,171.7,219.6,171.2,218.6,170.6 M714.3,169.4
	c-0.7,0.7-1.5,1.5-2.2,2.2c-2.4,1.3-4.9,2.6-7.3,3.9c0.6-0.7,1.3-1.3,1.9-2C709.2,172.2,711.8,170.8,714.3,169.4 M214.8,169.3
	c0.2,0.1,0.3,0.1,0.5,0.2c1.2,0.6,2.4,1.2,3.5,1.8c-0.3-0.1-0.7-0.2-1-0.3C216.8,170.5,215.8,169.9,214.8,169.3 M210.2,167.8
	c0.5,0.2,1,0.3,1.5,0.5c1.1,0.6,2.1,1.2,3.2,1.8c-0.6-0.2-1.3-0.4-1.9-0.6C212,168.9,211.1,168.4,210.2,167.8 M723.6,164.2
	c-0.9,0.8-1.8,1.7-2.7,2.5c-2.2,1.3-4.4,2.5-6.7,3.7c0.3-0.3,0.5-0.5,0.8-0.8c0.5-0.5,1-1,1.5-1.5
	C718.9,166.9,721.2,165.6,723.6,164.2 M732.7,158.9c-1.1,1-2.2,2-3.3,3c-1.9,1.1-3.9,2.3-5.9,3.4c0.9-0.9,1.8-1.7,2.7-2.6
	C728.4,161.4,730.6,160.2,732.7,158.9 M741.7,153.5c-1.5,1.2-2.9,2.4-4.3,3.7c-1.6,0.9-3.1,1.9-4.7,2.8c1.1-1,2.3-2,3.4-3.1
	C738,155.8,739.8,154.6,741.7,153.5 M750.6,148c-2,1.6-4,3.2-6,4.8c-1,0.6-2,1.2-2.9,1.8c1.5-1.3,3-2.5,4.5-3.8
	C747.6,149.8,749.1,148.9,750.6,148 M759.4,142.4c-2.6,1.9-5.2,3.9-7.8,5.8c1.7-1.4,3.5-2.8,5.2-4.1
	C757.6,143.5,758.5,143,759.4,142.4 M0,68.9c60.8,41,129.4,73,208.2,98.3c0.9,0.5,1.8,1.1,2.7,1.6c-6.8-2.2-13.6-4.4-20.2-6.6
	c-23-7.8-45-16.2-66-25.1C79.3,117.9,38,95.8,0,70.5V68.9L0,68.9z M1000,35.7v0.6c-17.4,1.8-33.7,4.7-49.2,8.6
	c-3.3,0.8-6.7,1.7-9.9,2.6c-3.9,1.1-7.8,2.3-11.6,3.5c-2.5,0.8-5.1,1.6-7.5,2.5c-3.6,1.2-7.2,2.5-10.7,3.9c-2,0.8-4.1,1.6-6.1,2.4
	c-3.3,1.3-6.5,2.7-9.8,4.1c-1.9,0.8-3.8,1.6-5.6,2.5c-2.7,1.2-5.4,2.5-8.1,3.7c-1.8,0.8-3.6,1.7-5.3,2.6c-2.4,1.2-4.8,2.4-7.2,3.6
	c-1.7,0.9-3.5,1.8-5.2,2.7c-2.1,1.1-4.2,2.2-6.3,3.4c-1.7,1-3.5,1.9-5.2,2.9c-1.8,1-3.6,2-5.4,3.1c-1.8,1-3.6,2.1-5.4,3.1
	c-1.5,0.9-3,1.8-4.5,2.7c-1.9,1.1-3.8,2.3-5.7,3.4c-1.2,0.7-2.3,1.4-3.5,2.1c-2.1,1.3-4.2,2.6-6.3,3.9c-0.7,0.4-1.4,0.9-2.1,1.3
	c-2.4,1.5-4.8,3-7.3,4.6c0,0-0.1,0-0.1,0.1c-0.5,0.3-1,0.6-1.5,1c-8.3,5.3-16.6,10.7-24.9,16.1c-0.1,0.1-0.3,0.2-0.4,0.2
	c-5.8,3.8-11.6,7.5-17.4,11.3c3-2.1,6-4.2,8.9-6.2c4.4-3.1,8.8-6.2,13.3-9.3c1.4-0.9,2.8-1.8,4.2-2.7c0.2-0.1,0.3-0.2,0.5-0.3
	c2.8-1.8,5.7-3.7,8.5-5.5c0.8-0.5,1.5-1,2.3-1.5c2.3-1.5,4.6-2.9,6.9-4.4c1.1-0.7,2.3-1.5,3.4-2.2c2-1.3,4-2.5,6-3.8
	c1.4-0.9,2.9-1.8,4.3-2.7c1.8-1.1,3.7-2.2,5.5-3.3c1.7-1,3.4-2,5.1-3.1c1.7-1,3.5-2,5.2-3.1c1.9-1.1,3.9-2.3,5.9-3.4
	c1.7-1,3.4-1.9,5-2.8c2.2-1.2,4.4-2.4,6.6-3.6c1.7-0.9,3.4-1.8,5-2.7c2.5-1.3,5-2.6,7.5-3.8c1.7-0.9,3.4-1.7,5.2-2.5
	c2.7-1.3,5.5-2.6,8.3-3.9c1.3-0.6,2.6-1.2,3.9-1.8c0.5-0.2,1-0.5,1.6-0.7c3.3-1.5,6.6-2.9,9.9-4.2c2-0.8,4-1.6,5.9-2.4
	c3.6-1.4,7.2-2.8,10.9-4c2.4-0.9,4.9-1.7,7.3-2.5c3.9-1.3,7.8-2.5,11.7-3.6c3.2-0.9,6.4-1.8,9.6-2.6C964,40.7,981.8,37.5,1000,35.7"
	/>
<path class="st0" d="M706.9,176.8c-0.8,0.8-1.6,1.6-2.4,2.4c-2.3,1.3-4.6,2.7-6.9,4c0.7-0.7,1.4-1.4,2-2.2
	C702.1,179.7,704.5,178.3,706.9,176.8 M234.1,175.4c6.6,2.1,13.4,4.2,20.2,6.3c0.6,0.2,1.3,0.4,1.9,0.6c1.2,0.4,2.5,0.7,3.7,1.1
	c1.3,0.4,2.7,0.8,4,1.2c1.2,0.4,2.4,0.7,3.7,1.1c1.4,0.4,2.8,0.8,4.2,1.2c0.7,0.2,1.3,0.4,2,0.6c0.8,0.2,1.6,0.5,2.4,0.7
	c0.3,0.1,0.7,0.2,1,0.3c1.1,0.3,2.3,0.6,3.4,1c1.5,0.4,2.9,0.8,4.4,1.2c0.5,0.1,1,0.3,1.5,0.4c1,0.3,1.9,0.5,2.9,0.8
	c0.1,0,0.2,0.1,0.3,0.1c1.4,0.4,2.8,0.8,4.1,1.1c0.5,0.1,1.1,0.3,1.6,0.4c1,0.3,1.9,0.5,2.9,0.8c0.1,0,0.2,0,0.3,0.1
	c1.4,0.4,2.8,0.8,4.3,1.1c31.8,8.4,65.2,16.2,100.4,23.6c40.4,8.4,76.5,12.1,109.1,12.1c77.4,0,135.1-20.9,185.2-49
	c-0.7,0.7-1.4,1.4-2,2.1c-21.2,11.7-43.7,22.2-68.3,30.2c-31.4,10.3-63.5,15.9-98.2,17.2c-5.4,0.2-10.9,0.3-16.4,0.3
	c-34.1,0-70.1-4-109.5-12.2c-36-7.5-70-15.6-102.1-24.2c-1.4-0.4-2.8-0.8-4.2-1.1c-0.1,0-0.2-0.1-0.3-0.1c-1-0.3-1.9-0.5-2.9-0.8
	c-0.6-0.2-1.1-0.3-1.7-0.5c-1.4-0.4-2.7-0.8-4.1-1.1c-0.2,0-0.3-0.1-0.5-0.1c-1-0.3-1.9-0.5-2.9-0.8c-0.6-0.2-1.1-0.3-1.7-0.5
	c-1.5-0.4-3-0.9-4.5-1.3c-1.1-0.3-2.2-0.6-3.3-1c-0.4-0.1-0.8-0.2-1.2-0.3c-0.8-0.2-1.6-0.5-2.3-0.7c-0.7-0.2-1.5-0.4-2.2-0.7
	c-1.5-0.4-2.9-0.9-4.4-1.3c-1.3-0.4-2.5-0.8-3.8-1.1c-0.1,0-0.1,0-0.2-0.1c-1.5-0.4-2.9-0.9-4.4-1.3c-1.5-0.4-2.9-0.9-4.4-1.3
	c-1.4-0.4-2.9-0.9-4.3-1.3c-0.4-0.1-0.7-0.2-1.1-0.3C242.5,178.4,238.3,176.9,234.1,175.4 M716.1,171.4c-1,0.9-2,1.9-3,2.8
	c-2,1.2-4.1,2.5-6.2,3.7c0.8-0.8,1.6-1.6,2.5-2.5C711.6,174.1,713.8,172.7,716.1,171.4 M218,170.3c0.2,0.1,0.5,0.2,0.7,0.3
	c0,0-0.1,0-0.2-0.1C218.4,170.5,218.2,170.4,218,170.3 M213.6,168.7c0.1,0,0.1,0,0.2,0.1c0.5,0.2,1,0.5,1.5,0.8
	c-0.2-0.1-0.3-0.1-0.5-0.2C214.4,169.1,214,168.9,213.6,168.7 M208.9,167.1c0.5,0.2,0.9,0.3,1.4,0.5c0.4,0.2,0.7,0.4,1.1,0.6
	c-0.5-0.2-1.1-0.4-1.6-0.6C209.5,167.4,209.2,167.2,208.9,167.1 M725,165.8c-1.3,1.2-2.6,2.3-3.9,3.5c-1.7,1.1-3.4,2.1-5.1,3.2
	c1-1,2-1.9,3.1-2.9C721,168.3,723,167,725,165.8 M733.8,160.1c-1.8,1.5-3.6,3-5.4,4.5c-1.2,0.7-2.3,1.5-3.5,2.2
	c1.3-1.2,2.7-2.4,4-3.6C730.6,162.2,732.2,161.2,733.8,160.1 M742.5,154.4c-2.6,2.1-5.3,4.2-7.9,6.2c-0.3,0.2-0.5,0.4-0.8,0.6
	c1.9-1.6,3.7-3.1,5.6-4.7C740.4,155.8,741.5,155.1,742.5,154.4 M164.9,150.8c13.6,5.4,27.5,10.5,41.8,15.5c0.3,0.2,0.6,0.3,0.8,0.5
	C192.9,161.7,178.7,156.3,164.9,150.8 M1000,34.1v0.9c-22.6,2-43.4,5.9-62.8,11.4c-3,0.9-6,1.7-9,2.7c-4,1.2-7.9,2.6-11.8,3.9
	c-2.3,0.8-4.5,1.6-6.8,2.5c-3.7,1.4-7.3,2.8-10.9,4.3c-1.8,0.8-3.7,1.5-5.5,2.3c-3.3,1.4-6.6,2.9-9.9,4.5c-1.7,0.8-3.4,1.6-5,2.4
	c-2.8,1.4-5.6,2.8-8.4,4.2c-1.6,0.8-3.2,1.6-4.7,2.5c-2.5,1.3-5.1,2.7-7.6,4.1c-1.5,0.8-3,1.7-4.6,2.5c-2.3,1.3-4.5,2.6-6.7,3.9
	c-1.5,0.9-3,1.8-4.5,2.7c-2,1.2-4,2.4-6,3.6c-1.5,0.9-3,1.9-4.6,2.8c-1.8,1.1-3.5,2.2-5.2,3.3c-1.6,1-3.1,2-4.7,3
	c-1.5,1-3,2-4.5,2.9c-1.7,1.1-3.4,2.2-5,3.3c-1.2,0.8-2.4,1.6-3.6,2.4c-1.9,1.2-3.7,2.5-5.6,3.8c-0.8,0.6-1.7,1.1-2.5,1.7
	c-2.1,1.5-4.3,2.9-6.4,4.4c-0.2,0.2-0.5,0.3-0.7,0.5c-1,0.7-1.9,1.3-2.9,2c-4.4,3.1-8.9,6.2-13.3,9.3c-3,2.1-6,4.2-8.9,6.2
	c-5.6,3.9-11.3,7.8-17,11.7c5.6-4.1,11.1-8.2,16.6-12.3c1-0.7,2-1.5,3-2.2c2-1.4,3.9-2.7,5.9-4.1c0.1-0.1,0.2-0.1,0.2-0.2
	c0.3-0.2,0.7-0.5,1.1-0.7c2.5-1.8,5-3.5,7.6-5.3c0.9-0.6,1.7-1.2,2.6-1.8c2-1.4,4.1-2.8,6.1-4.2c1.2-0.8,2.4-1.7,3.6-2.5
	c1.8-1.2,3.6-2.4,5.3-3.6c1.5-1,2.9-2,4.4-3c1.6-1.1,3.2-2.2,4.8-3.2c1.7-1.1,3.3-2.2,5-3.3c1.5-1,3-2,4.5-3
	c1.9-1.2,3.7-2.4,5.6-3.6c1.5-0.9,2.9-1.8,4.4-2.8c2.1-1.3,4.1-2.6,6.2-3.8c1.4-0.9,2.9-1.7,4.3-2.6c2.3-1.4,4.6-2.7,6.9-4
	c1.5-0.8,2.9-1.7,4.4-2.5c2.5-1.4,5.1-2.8,7.7-4.2c1.5-0.8,3-1.6,4.5-2.4c2.8-1.5,5.6-2.9,8.4-4.3c1.6-0.8,3.2-1.6,4.8-2.3
	c0.3-0.1,0.6-0.3,0.8-0.4c3-1.4,6-2.8,9-4.2c1.7-0.8,3.5-1.5,5.3-2.3c3.6-1.6,7.3-3,10.9-4.5c2.1-0.8,4.3-1.7,6.5-2.5
	c3.9-1.4,7.8-2.8,11.7-4.1c2.8-0.9,5.7-1.8,8.5-2.7C953.9,40.4,976.5,36.1,1000,34.1"/>
<path class="st0" d="M699.6,184.2c-0.9,0.9-1.9,1.9-2.8,2.8c-2.1,1.3-4.3,2.6-6.5,3.9c0.8-0.8,1.5-1.6,2.3-2.4
	C694.9,187,697.3,185.6,699.6,184.2 M708.5,178.5c-1.2,1.1-2.4,2.2-3.6,3.3c-1.8,1.2-3.7,2.3-5.5,3.5c0.9-0.9,1.9-1.9,2.8-2.8
	C704.4,181.2,706.4,179.8,708.5,178.5 M226.6,172.8c0.4,0.2,0.9,0.3,1.3,0.5c0.6,0.2,1.1,0.4,1.7,0.6c1.5,0.5,3,1.1,4.5,1.6
	c4.2,1.5,8.4,3,12.7,4.4c0.3,0.1,0.5,0.2,0.8,0.3c1.2,0.4,2.3,0.8,3.5,1.2c1.3,0.4,2.5,0.9,3.8,1.3c1.3,0.4,2.6,0.9,4,1.3
	c0.1,0,0.3,0.1,0.4,0.1c1.1,0.4,2.2,0.7,3.3,1.1c1.4,0.4,2.7,0.9,4.1,1.3c0.7,0.2,1.5,0.5,2.2,0.7c0.7,0.2,1.4,0.4,2,0.7
	c0.4,0.1,0.9,0.3,1.3,0.4c1,0.3,2,0.6,3,1c1.4,0.5,2.9,0.9,4.3,1.4c0.6,0.2,1.2,0.4,1.8,0.6c0.9,0.3,1.7,0.5,2.6,0.8
	c0.2,0.1,0.4,0.1,0.6,0.2c1.3,0.4,2.5,0.8,3.8,1.2c0.6,0.2,1.2,0.4,1.8,0.5c0.9,0.3,1.8,0.5,2.6,0.8c0.2,0,0.3,0.1,0.5,0.1
	c1.3,0.4,2.6,0.8,3.9,1.2c31.4,9.6,64.6,18.6,99.6,27.4c44.3,11.1,83.3,15.9,118.2,15.9c73.1,0,128-21.1,175.7-49.5
	c-0.8,0.8-1.5,1.6-2.3,2.4c-21.3,12.5-43.9,23.6-68.6,31.8c-31,10.3-62.9,15.7-97.4,16.3c-2.2,0-4.4,0.1-6.6,0.1
	c-36.8,0-75.9-5.3-119.1-16.1c-35.8-8.9-69.5-18.3-101.1-28c-1.3-0.4-2.6-0.8-3.9-1.2c-0.2-0.1-0.4-0.1-0.5-0.2
	c-0.9-0.3-1.7-0.5-2.6-0.8c-0.6-0.2-1.2-0.4-1.9-0.6c-1.3-0.4-2.5-0.8-3.8-1.2c-0.2-0.1-0.5-0.1-0.7-0.2c-0.9-0.3-1.7-0.5-2.6-0.8
	c-0.6-0.2-1.2-0.4-1.9-0.6c-1.5-0.5-2.9-0.9-4.4-1.4c-1-0.3-2-0.6-2.9-1c-0.5-0.2-1-0.3-1.5-0.5c-0.7-0.2-1.3-0.4-2-0.7
	c-0.8-0.3-1.6-0.5-2.4-0.8c-1.4-0.5-2.9-0.9-4.3-1.4c-1.1-0.4-2.1-0.7-3.2-1.1c-0.2-0.1-0.5-0.2-0.7-0.2c-1.4-0.5-2.9-1-4.3-1.5
	c-1.4-0.5-2.8-1-4.2-1.5c-1.4-0.5-2.8-1-4.2-1.5c-1.1-0.4-2.2-0.8-3.3-1.1C235.6,176.3,231.1,174.5,226.6,172.8 M717.3,172.6
	c-1.6,1.4-3.3,2.9-4.9,4.3c-1.3,0.9-2.7,1.8-4,2.6c1.2-1.1,2.4-2.3,3.6-3.4C713.8,175,715.5,173.8,717.3,172.6 M726,166.7
	c-2.5,2.1-5,4.2-7.6,6.2c-0.4,0.3-0.8,0.6-1.2,0.8c1.7-1.5,3.4-3,5-4.5C723.5,168.4,724.7,167.5,726,166.7 M205.3,164.9
	c0.3,0.1,0.6,0.2,0.9,0.3c0.6,0.3,1.2,0.7,1.9,1.1c-0.4-0.2-0.8-0.3-1.2-0.5C206.3,165.5,205.8,165.2,205.3,164.9 M734.6,160.6
	c-0.5,0.4-1.1,0.9-1.7,1.3c0.3-0.2,0.6-0.5,0.9-0.7C734,161,734.3,160.8,734.6,160.6 M112.8,124.4c28.2,14.1,58.1,27.2,90,39.5
	c0.5,0.3,1,0.6,1.4,0.9c-27.5-10.6-53.2-21.7-77.4-33.4C122.1,129.1,117.4,126.8,112.8,124.4 M1000,32.5v0.8
	c-28.6,2-54.3,7.3-78,14.9c-2.7,0.9-5.3,1.8-8,2.7c-4,1.4-7.9,2.9-11.8,4.4c-2,0.8-4,1.6-6,2.4c-3.7,1.5-7.3,3.1-10.9,4.7
	c-1.6,0.7-3.2,1.5-4.9,2.3c-3.3,1.6-6.6,3.2-9.8,4.8c-1.5,0.8-3,1.5-4.4,2.3c-2.9,1.5-5.7,3-8.5,4.6c-1.4,0.8-2.8,1.5-4.2,2.3
	c-2.6,1.5-5.2,3-7.7,4.5c-1.3,0.8-2.7,1.6-4,2.4c-2.3,1.4-4.6,2.8-6.9,4.3c-1.3,0.8-2.6,1.6-3.9,2.5c-2.1,1.4-4.2,2.7-6.3,4.1
	c-1.3,0.9-2.6,1.7-3.9,2.6c-1.9,1.3-3.8,2.6-5.7,3.9c-1.3,0.9-2.6,1.8-4,2.7c-1.7,1.2-3.4,2.4-5.1,3.6c-1.4,1-2.7,1.9-4.1,2.9
	c-1.5,1.1-3,2.1-4.5,3.2c-1.5,1.1-2.9,2.1-4.4,3.2c-1.3,0.9-2.5,1.8-3.8,2.8c-1.6,1.2-3.3,2.4-4.9,3.6c-0.9,0.7-1.9,1.4-2.8,2.1
	c-1.9,1.4-3.8,2.8-5.7,4.2c-0.4,0.3-0.9,0.6-1.3,1c-1.4,1-2.7,2-4.1,3.1c-1,0.7-2,1.5-3,2.2c-5.5,4.1-11,8.2-16.6,12.3
	c-5.5,4-11,8-16.5,12c5.7-4.4,11.4-8.9,17.1-13.5c2.6-1.9,5.2-3.9,7.8-5.8c0.5-0.4,1-0.8,1.6-1.2c2.1-1.5,4.1-3.1,6.1-4.6
	c0.2-0.2,0.4-0.3,0.6-0.5c1-0.7,2-1.5,3-2.2c1.8-1.3,3.6-2.7,5.4-4.1c1.3-0.9,2.5-1.9,3.8-2.8c1.6-1.2,3.1-2.3,4.7-3.5
	c1.5-1.1,3-2.2,4.4-3.3c1.4-1,2.9-2.1,4.3-3.1c1.6-1.2,3.3-2.4,5-3.6c1.3-1,2.7-1.9,4-2.9c1.8-1.3,3.6-2.6,5.5-3.8
	c1.3-0.9,2.6-1.8,3.8-2.7c2-1.4,4-2.7,5.9-4.1c1.3-0.9,2.5-1.7,3.8-2.5c2.1-1.4,4.3-2.9,6.5-4.3c1.3-0.8,2.5-1.6,3.8-2.4
	c2.3-1.5,4.7-3,7.1-4.4c1.3-0.8,2.6-1.6,3.9-2.4c2.6-1.6,5.2-3.1,7.8-4.6c1.3-0.8,2.7-1.5,4-2.3c2.8-1.6,5.7-3.2,8.5-4.7
	c1.4-0.8,2.8-1.5,4.3-2.3c3.2-1.7,6.5-3.3,9.8-4.9c1.6-0.8,3.1-1.5,4.7-2.2c3.6-1.7,7.2-3.3,10.8-4.8c1.9-0.8,3.8-1.6,5.7-2.4
	c3.8-1.6,7.7-3,11.6-4.5c2.5-0.9,5-1.8,7.6-2.7C942.4,40.5,969.6,34.7,1000,32.5"/>
<path class="st0" d="M691.5,192.1c-1,1-2,2-3,2.9c-1.9,1.3-3.8,2.5-5.8,3.7c0.8-0.8,1.5-1.6,2.3-2.4
	C687.2,195,689.4,193.6,691.5,192.1 M700.3,186.1c-1.4,1.3-2.8,2.6-4.3,3.9c-1.5,1-2.9,2-4.4,3c1-1,2.1-2,3.1-3
	C696.6,188.7,698.4,187.4,700.3,186.1 M708.9,180c-2.2,1.9-4.5,3.9-6.8,5.8c-0.6,0.4-1.2,0.8-1.7,1.2c1.5-1.4,2.9-2.7,4.4-4.1
	C706.2,181.9,707.5,181,708.9,180 M717.4,173.7c-0.9,0.7-1.8,1.5-2.7,2.2c0.4-0.4,0.9-0.8,1.3-1.2
	C716.5,174.4,716.9,174.1,717.4,173.7 M219.5,169.9c2.4,0.9,4.8,1.9,7.1,2.8c4.5,1.8,9,3.5,13.5,5.3c0.9,0.3,1.7,0.7,2.6,1
	c1.2,0.4,2.4,0.9,3.5,1.3c1.2,0.5,2.5,0.9,3.7,1.4c1.3,0.5,2.6,1,3.9,1.5c0.3,0.1,0.6,0.2,0.9,0.3c0.9,0.3,1.9,0.7,2.8,1
	c1.3,0.5,2.6,1,4,1.5c0.8,0.3,1.6,0.6,2.4,0.9c0.6,0.2,1.2,0.4,1.7,0.6c0.5,0.2,1,0.4,1.5,0.6c0.9,0.3,1.8,0.6,2.6,0.9
	c1.4,0.5,2.8,1,4.2,1.5c0.6,0.2,1.3,0.5,1.9,0.7c0.8,0.3,1.6,0.5,2.3,0.8c0.3,0.1,0.5,0.2,0.8,0.3c1.2,0.4,2.3,0.8,3.5,1.2
	c0.6,0.2,1.3,0.4,1.9,0.7c0.8,0.3,1.6,0.6,2.4,0.8c0.2,0.1,0.4,0.1,0.6,0.2c1.2,0.4,2.4,0.8,3.7,1.3c31.1,10.7,63.9,21.1,98.7,31.2
	c48.7,14.2,90.6,20.3,127.5,20.3c68.4,0,119.5-21,165.2-50.2c-0.7,0.8-1.5,1.6-2.2,2.3c-21.2,13.3-43.7,24.8-68.8,33.3
	c-30.1,10.2-61.1,15.2-94.7,15.2c-0.6,0-1.2,0-1.9,0c-38.5-0.2-79.5-6.8-125.3-20.2c-35.5-10.4-68.8-21-100.1-31.9
	c-1.2-0.4-2.4-0.9-3.7-1.3c-0.2-0.1-0.5-0.2-0.7-0.2c-0.8-0.3-1.6-0.6-2.4-0.8c-0.7-0.2-1.3-0.5-2-0.7c-1.2-0.4-2.3-0.8-3.5-1.2
	c-0.3-0.1-0.6-0.2-0.9-0.3c-0.8-0.3-1.5-0.5-2.3-0.8c-0.7-0.2-1.3-0.5-2-0.7c-1.4-0.5-2.9-1-4.3-1.6c-0.9-0.3-1.7-0.6-2.6-0.9
	c-0.6-0.2-1.1-0.4-1.7-0.6c-0.6-0.2-1.1-0.4-1.7-0.6c-0.9-0.3-1.7-0.6-2.6-1c-1.4-0.5-2.8-1-4.1-1.5c-0.9-0.3-1.8-0.7-2.7-1
	c-0.4-0.1-0.7-0.3-1.1-0.4c-1.4-0.5-2.8-1-4.1-1.6c-1.4-0.5-2.7-1-4.1-1.6c-1.3-0.5-2.7-1-4-1.6c-1.3-0.5-2.6-1-4-1.5
	c-0.5-0.2-1-0.4-1.5-0.6C228.9,174,224.2,172,219.5,169.9 M201.8,162.7c0.1,0,0.1,0,0.1,0.1c0.8,0.5,1.6,0.9,2.4,1.4
	c-0.2-0.1-0.4-0.2-0.6-0.3C203.1,163.5,202.5,163.1,201.8,162.7 M0,46.5c56.3,45.1,121.2,82,198.6,114.8c0.7,0.4,1.4,0.9,2.2,1.3
	C120.6,128.7,55.4,91,0,47V46.5L0,46.5z M1000,31v0.8c-34.9,1.9-65.5,8.6-93,18.5c-2.4,0.9-4.8,1.7-7.1,2.7c-4,1.5-7.9,3.1-11.7,4.8
	c-1.8,0.8-3.6,1.6-5.3,2.4c-3.6,1.6-7.2,3.4-10.8,5.1c-1.5,0.7-2.9,1.4-4.3,2.2c-3.3,1.7-6.5,3.4-9.7,5.1c-1.3,0.7-2.6,1.5-3.9,2.2
	c-2.9,1.6-5.7,3.3-8.5,4.9c-1.2,0.7-2.5,1.5-3.7,2.2c-2.6,1.6-5.2,3.2-7.7,4.8c-1.2,0.7-2.3,1.5-3.5,2.3c-2.4,1.5-4.7,3.1-7,4.7
	c-1.1,0.8-2.3,1.5-3.4,2.3c-2.2,1.5-4.3,3-6.5,4.5c-1.1,0.8-2.2,1.6-3.3,2.4c-2,1.4-4,2.9-6,4.3c-1.1,0.8-2.2,1.6-3.4,2.5
	c-1.8,1.4-3.7,2.7-5.5,4.1c-1.1,0.9-2.3,1.7-3.4,2.6c-1.7,1.3-3.4,2.6-5,3.8c-1.2,0.9-2.4,1.9-3.6,2.8c-1.5,1.2-3.1,2.4-4.6,3.6
	c-1.3,1-2.6,2-3.9,3c-1.3,1-2.7,2.1-4,3.1c-1.4,1.1-2.9,2.3-4.3,3.4c-1.1,0.8-2.1,1.7-3.2,2.5c-1.7,1.3-3.4,2.7-5,4
	c-0.3,0.2-0.5,0.4-0.8,0.6c-0.4,0.3-0.7,0.6-1.1,0.8c-1.7,1.4-3.5,2.8-5.2,4.1c-5.7,4.5-11.4,9-17.1,13.5c-5.7,4.4-11.3,8.7-17,13
	c5.2-4.2,10.3-8.5,15.5-12.8c0.6-0.4,1.1-0.9,1.7-1.3c2.6-2.1,5.3-4.1,7.9-6.2c0.7-0.5,1.4-1.1,2.1-1.6c2-1.6,4-3.2,6-4.8
	c1.1-0.9,2.2-1.7,3.3-2.6c1.2-0.9,2.3-1.9,3.5-2.8c0.5-0.4,0.9-0.7,1.4-1.1c1.3-1.1,2.7-2.1,4-3.2c1.4-1.1,2.8-2.2,4.2-3.3
	c1.5-1.2,3-2.4,4.6-3.6c1.3-1,2.5-2,3.8-3c1.7-1.3,3.3-2.6,5-3.9c1.2-0.9,2.4-1.8,3.6-2.8c1.8-1.4,3.5-2.7,5.3-4.1
	c1.1-0.9,2.2-1.7,3.4-2.6c1.9-1.4,3.8-2.9,5.7-4.3c1.1-0.8,2.2-1.6,3.3-2.4c2-1.5,4.1-3,6.1-4.5c1.1-0.8,2.2-1.6,3.3-2.3
	c2.2-1.6,4.4-3.1,6.6-4.6c1.1-0.8,2.2-1.5,3.3-2.3c2.4-1.6,4.7-3.2,7.1-4.8c1.1-0.7,2.3-1.5,3.4-2.2c2.6-1.7,5.2-3.3,7.8-4.9
	c1.2-0.7,2.4-1.5,3.6-2.2c2.8-1.7,5.6-3.4,8.5-5c1.3-0.7,2.5-1.5,3.8-2.2c3.2-1.8,6.4-3.5,9.6-5.2c1.4-0.7,2.8-1.5,4.2-2.2
	c3.5-1.8,7.1-3.5,10.7-5.2c1.7-0.8,3.4-1.6,5.1-2.3c3.8-1.7,7.6-3.3,11.5-4.9c2.2-0.9,4.5-1.8,6.8-2.6C931.5,40.3,963.4,33,1000,31"
	/>
<path class="st0" d="M683.9,199.5c-1.3,1.2-2.6,2.5-3.9,3.7c-1.6,1.1-3.1,2.2-4.7,3.3c0.9-1,1.9-1.9,2.8-2.9
	C680.1,202.2,682,200.8,683.9,199.5 M692.5,193.2c-2,1.8-4.1,3.7-6.2,5.5c-0.8,0.6-1.5,1.1-2.3,1.7c1.3-1.3,2.7-2.5,4-3.8
	C689.5,195.4,691,194.3,692.5,193.2 M700.9,186.8c-1.3,1.1-2.6,2.2-3.9,3.3c0.6-0.6,1.3-1.2,1.9-1.7
	C699.6,187.8,700.3,187.3,700.9,186.8 M212.5,166.8c2.3,1,4.6,2.1,7,3.1c4.7,2.1,9.4,4.1,14.2,6.2c0.4,0.2,0.8,0.3,1.2,0.5
	c1.1,0.5,2.2,0.9,3.3,1.4c1.2,0.5,2.3,1,3.5,1.5c1.2,0.5,2.4,1,3.7,1.5c1.3,0.5,2.5,1,3.8,1.6c0.4,0.2,0.8,0.3,1.2,0.5
	c0.8,0.3,1.6,0.7,2.4,1c1.3,0.5,2.6,1.1,3.9,1.6c0.8,0.3,1.7,0.7,2.6,1c0.5,0.2,1,0.4,1.5,0.6c0.6,0.2,1.1,0.5,1.7,0.7
	c0.8,0.3,1.6,0.6,2.3,0.9c1.4,0.5,2.7,1.1,4.1,1.6c0.7,0.3,1.4,0.5,2,0.8c0.7,0.3,1.4,0.5,2.1,0.8c0.3,0.1,0.6,0.2,0.9,0.4
	c1.1,0.4,2.1,0.8,3.2,1.3c0.7,0.3,1.3,0.5,2,0.8c0.7,0.3,1.5,0.6,2.2,0.8c0.3,0.1,0.5,0.2,0.8,0.3c1.1,0.4,2.3,0.9,3.4,1.3
	c30.7,11.9,63.2,23.5,97.8,35.1c51.6,17.3,95.4,24.7,133.7,24.7c65.4,0,114.5-21.5,158.5-51.4c-0.9,0.9-1.8,1.9-2.7,2.8
	c-21.3,14.2-43.9,26.4-69.3,35.1c-27.5,9.5-55.9,14.2-86.5,14.2c-3,0-6,0-9.1-0.1c-38.1-1.1-78.9-9.1-124.7-24.5
	c-35.8-12-68.7-23.9-99.2-35.7c-1.1-0.4-2.3-0.9-3.4-1.3c-0.3-0.1-0.5-0.2-0.8-0.3c-0.7-0.3-1.4-0.6-2.2-0.8
	c-0.7-0.3-1.4-0.5-2.1-0.8c-1.1-0.4-2.1-0.8-3.2-1.3c-0.3-0.1-0.7-0.3-1-0.4c-0.7-0.3-1.4-0.5-2.1-0.8c-0.7-0.3-1.4-0.6-2.1-0.9
	c-1.4-0.6-2.8-1.1-4.2-1.7c-0.8-0.3-1.6-0.6-2.3-0.9c-0.6-0.2-1.2-0.5-1.8-0.7c-0.5-0.2-1-0.4-1.4-0.6c-0.9-0.4-1.8-0.7-2.7-1.1
	c-1.4-0.6-2.7-1.1-4.1-1.7c-0.8-0.3-1.6-0.7-2.4-1c-0.5-0.2-0.9-0.4-1.4-0.6c-1.4-0.6-2.7-1.1-4.1-1.7c-1.3-0.6-2.7-1.1-4-1.7
	c-1.3-0.6-2.7-1.1-4-1.7c-0.9-0.4-1.8-0.8-2.7-1.1C225.1,172.9,218.8,169.9,212.5,166.8 M201.4,162.5c0.2,0.1,0.4,0.2,0.6,0.3
	c-0.1,0-0.1,0-0.1-0.1C201.7,162.6,201.6,162.6,201.4,162.5 M0,37.5c53.5,45.7,115.4,84,189.7,118.8c1.8,0.9,3.6,1.8,5.4,2.7
	c1,0.7,2.1,1.3,3.1,2c-24.7-11.4-47.7-23-69.4-34.9C80.5,99.6,37.9,70.7,0,38.6V37.5L0,37.5z M1000,29.8v0.8
	c-6.3,0.2-12.4,0.6-18.5,1.1c-33.2,3-62.3,10.4-88.7,20.9c-2.1,0.9-4.3,1.7-6.4,2.6c-3.9,1.7-7.7,3.4-11.5,5.1
	c-1.6,0.8-3.2,1.5-4.8,2.3c-3.6,1.8-7.1,3.6-10.6,5.4c-1.3,0.7-2.6,1.4-3.9,2.1c-3.2,1.8-6.4,3.6-9.6,5.4c-1.2,0.7-2.4,1.4-3.6,2.1
	c-2.9,1.7-5.7,3.5-8.5,5.3c-1.1,0.7-2.2,1.4-3.3,2.1c-2.6,1.7-5.2,3.4-7.7,5.1c-1,0.7-2.1,1.4-3.1,2.1c-2.4,1.7-4.8,3.3-7.1,5
	c-1,0.7-2,1.4-3,2.2c-2.2,1.6-4.4,3.2-6.6,4.9c-1,0.7-2,1.5-2.9,2.2c-2.1,1.6-4.1,3.1-6.1,4.7c-1,0.8-2,1.5-2.9,2.3
	c-1.9,1.5-3.8,3-5.8,4.6c-1,0.8-2,1.6-3,2.4c-1.8,1.4-3.6,2.9-5.4,4.4c-1,0.8-2,1.7-3.1,2.5c-1.7,1.4-3.4,2.8-5.1,4.2
	c-1.1,0.9-2.1,1.8-3.2,2.6c-1.6,1.3-3.1,2.6-4.7,3.9c-1.1,1-2.3,1.9-3.4,2.9c-1.4,1.2-2.8,2.3-4.2,3.5c-1.3,1.1-2.6,2.2-3.8,3.2
	c-0.6,0.5-1.2,1-1.9,1.6c-0.5,0.4-1.1,0.9-1.6,1.3c-1.5,1.3-3,2.5-4.5,3.8c-0.8,0.7-1.5,1.3-2.3,1.9c-1.9,1.6-3.7,3.1-5.6,4.7
	c-0.3,0.2-0.6,0.5-0.9,0.7c-5.2,4.3-10.3,8.6-15.5,12.8c-5.5,4.5-11.1,8.9-16.6,13.2c4.7-3.9,9.3-7.9,13.9-12
	c0.9-0.7,1.8-1.5,2.7-2.2c0.3-0.3,0.7-0.5,1-0.8c2.5-2.1,5-4.1,7.6-6.2c0.8-0.7,1.6-1.4,2.5-2.1c1.8-1.5,3.6-3,5.4-4.5
	c1.2-1,2.4-2,3.6-3c1.5-1.2,2.9-2.4,4.3-3.7c1.4-1.2,2.8-2.4,4.2-3.5c0.4-0.4,0.9-0.7,1.3-1.1c0.8-0.7,1.6-1.4,2.5-2.1
	c1.6-1.3,3.1-2.6,4.7-4c1.1-0.9,2.2-1.9,3.3-2.8c1.7-1.4,3.4-2.8,5-4.2c1-0.9,2.1-1.7,3.1-2.6c1.8-1.5,3.6-3,5.3-4.4
	c1-0.8,2-1.7,3-2.5c1.8-1.5,3.7-3,5.6-4.5c1-0.8,1.9-1.6,2.9-2.3c2-1.6,3.9-3.1,5.9-4.7c1-0.8,1.9-1.5,2.9-2.3
	c2.1-1.6,4.2-3.2,6.3-4.8c1-0.7,1.9-1.5,2.9-2.2c2.2-1.7,4.4-3.3,6.7-5c1-0.7,2-1.4,3-2.2c2.4-1.7,4.8-3.4,7.2-5.1
	c1-0.7,2-1.4,3.1-2.1c2.6-1.8,5.1-3.5,7.8-5.2c1.1-0.7,2.2-1.4,3.2-2.1c2.8-1.8,5.6-3.6,8.5-5.3c1.1-0.7,2.3-1.4,3.5-2.1
	c3.1-1.9,6.3-3.7,9.5-5.5c1.3-0.7,2.5-1.4,3.8-2.1c3.5-1.9,7-3.7,10.5-5.5c1.5-0.8,3.1-1.5,4.6-2.3c3.7-1.8,7.5-3.5,11.4-5.2
	c2-0.9,4.1-1.7,6.1-2.6C916.6,42,946.8,34,981.4,31C987.5,30.4,993.7,30.1,1000,29.8"/>
<path class="st0" d="M676.3,206.7c-1.8,1.7-3.6,3.4-5.4,5c-0.9,0.7-1.9,1.4-2.9,2.1c1.2-1.2,2.3-2.3,3.5-3.5
	C673.1,209.1,674.7,207.9,676.3,206.7 M684.6,200.2c-1.6,1.4-3.3,2.9-4.9,4.3c0.8-0.8,1.6-1.5,2.4-2.3
	C682.9,201.5,683.8,200.9,684.6,200.2 M197.3,159.3c5,2.5,10.1,5,15.3,7.5c6.2,3,12.6,6,19,9c0.7,0.3,1.5,0.7,2.2,1
	c1.2,0.5,2.3,1.1,3.4,1.6c1.2,0.5,2.4,1.1,3.6,1.6c1.2,0.6,2.5,1.1,3.7,1.7c0.5,0.2,0.9,0.4,1.4,0.6c0.7,0.3,1.4,0.6,2.1,0.9
	c1.3,0.6,2.5,1.1,3.8,1.7c0.9,0.4,1.8,0.8,2.6,1.2c0.4,0.2,0.8,0.4,1.3,0.6c0.6,0.3,1.2,0.5,1.8,0.8c0.7,0.3,1.4,0.6,2.1,0.9
	c1.3,0.6,2.6,1.2,4,1.8c0.7,0.3,1.4,0.6,2.1,0.9c0.6,0.3,1.2,0.5,1.9,0.8c0.4,0.2,0.7,0.3,1.1,0.5c1,0.4,2,0.9,3,1.3
	c0.7,0.3,1.4,0.6,2.1,0.9c0.7,0.3,1.3,0.6,2,0.9c0.3,0.1,0.6,0.3,0.9,0.4c1.1,0.5,2.1,0.9,3.2,1.4c30.3,13,62.5,26,96.8,39.1
	c54.1,20.6,99.5,29.3,138.8,29.3c62.9,0,110.3-22.2,152.7-52.9c-1.1,1.1-2.3,2.2-3.4,3.4c-41.5,29.4-88,50.3-149.2,50.3
	c-39.4,0-84.9-8.7-139.1-29.3c-35.5-13.5-68.1-26.7-98.1-39.7c-1.1-0.5-2.1-0.9-3.2-1.4c-0.3-0.1-0.6-0.3-0.9-0.4
	c-0.7-0.3-1.3-0.6-2-0.9c-0.7-0.3-1.4-0.6-2.1-0.9c-1-0.4-2-0.9-3-1.3c-0.4-0.2-0.8-0.3-1.1-0.5c-0.6-0.3-1.3-0.6-1.9-0.8
	c-0.7-0.3-1.5-0.7-2.2-1c-1.4-0.6-2.7-1.2-4.1-1.8c-0.7-0.3-1.4-0.6-2.1-0.9c-0.7-0.3-1.3-0.6-2-0.9c-0.4-0.2-0.8-0.4-1.2-0.6
	c-0.9-0.4-1.9-0.8-2.8-1.3c-1.3-0.6-2.6-1.2-3.9-1.8c-0.7-0.3-1.4-0.6-2.1-0.9c-0.5-0.2-1.1-0.5-1.6-0.7c-1.3-0.6-2.6-1.2-3.9-1.8
	c0,0,0,0-0.1,0c-1.3-0.6-2.5-1.2-3.8-1.7c0,0-0.1,0-0.1-0.1c-1.3-0.6-2.5-1.2-3.8-1.8c0,0,0,0-0.1,0c-1.3-0.6-2.5-1.2-3.8-1.8
	c-1.3-0.6-2.5-1.2-3.8-1.8c-1.3-0.6-2.5-1.2-3.7-1.8c-0.2-0.1-0.5-0.2-0.7-0.3c-6.2-3.2-12.4-6.4-18.4-9.7
	C198.8,160.2,198,159.8,197.3,159.3 M1000,28.6v0.8c-9.8,0.2-19.3,0.7-28.6,1.6c-35,3.5-65.5,12.1-92.8,24c-1.9,0.8-3.8,1.7-5.7,2.6
	c-3.8,1.8-7.6,3.6-11.3,5.5c-1.5,0.7-2.9,1.5-4.3,2.2c-3.5,1.9-7,3.8-10.4,5.7c-1.2,0.7-2.4,1.4-3.6,2.1c-3.2,1.9-6.3,3.8-9.4,5.7
	c-1.1,0.7-2.2,1.4-3.2,2.1c-2.8,1.8-5.6,3.7-8.4,5.5c-1,0.7-2,1.4-3,2c-2.6,1.8-5.1,3.6-7.7,5.4c-0.9,0.7-1.9,1.4-2.8,2
	c-2.4,1.8-4.8,3.5-7.1,5.3c-0.9,0.7-1.8,1.4-2.7,2.1c-2.2,1.7-4.4,3.4-6.6,5.2c-0.9,0.7-1.8,1.4-2.6,2.1c-2.1,1.7-4.2,3.4-6.2,5.1
	c-0.9,0.7-1.7,1.4-2.6,2.1c-2,1.6-3.9,3.3-5.9,4.9c-0.9,0.7-1.7,1.5-2.6,2.2c-1.9,1.6-3.7,3.2-5.6,4.8c-0.9,0.8-1.8,1.5-2.7,2.3
	c-1.8,1.6-3.6,3.1-5.4,4.7c-0.9,0.8-1.8,1.5-2.6,2.3c-1.7,1.5-3.4,3-5.1,4.5c-0.9,0.8-1.9,1.6-2.8,2.5c-1.6,1.4-3.2,2.9-4.8,4.3
	c-1,0.9-2,1.8-3.1,2.7c-1.1,1-2.1,1.9-3.2,2.9c-0.4,0.3-0.7,0.7-1.1,1c-1.1,1-2.3,2-3.4,3.1c-1.2,1.1-2.5,2.2-3.7,3.3
	c-1.3,1.2-2.7,2.4-4,3.6c-0.9,0.8-1.8,1.6-2.7,2.4c-1.7,1.5-3.4,3-5,4.5c-0.4,0.3-0.8,0.7-1.1,1c-0.4,0.4-0.9,0.8-1.3,1.2
	c-4.6,4-9.2,8-13.9,12c-5.2,4.4-10.4,8.7-15.7,12.9c4-3.5,8-7.1,12-10.7c1.3-1.1,2.6-2.2,3.9-3.3c0.4-0.3,0.8-0.7,1.2-1
	c2.3-1.9,4.5-3.9,6.8-5.8c1.2-1,2.3-2,3.5-3c1.6-1.4,3.3-2.9,4.9-4.3c1.3-1.1,2.5-2.2,3.8-3.4c1.3-1.2,2.6-2.3,3.9-3.5
	c1.5-1.3,2.9-2.6,4.4-3.9c1.1-1,2.2-2,3.3-3c1.3-1.2,2.6-2.4,3.9-3.5c0.3-0.2,0.5-0.5,0.8-0.7c1-0.9,2-1.8,3-2.7
	c1.7-1.5,3.4-3,5.1-4.6c0.9-0.8,1.8-1.6,2.7-2.4c1.8-1.6,3.6-3.2,5.3-4.8c0.9-0.8,1.7-1.5,2.6-2.3c1.9-1.6,3.7-3.3,5.6-4.9
	c0.9-0.8,1.7-1.5,2.6-2.3c1.9-1.6,3.8-3.3,5.7-4.9c0.8-0.7,1.7-1.4,2.5-2.2c2-1.7,4-3.4,6-5c0.8-0.7,1.7-1.4,2.5-2.1
	c2.1-1.7,4.2-3.5,6.3-5.2c0.9-0.7,1.7-1.4,2.6-2.1c2.2-1.8,4.4-3.5,6.7-5.3c0.9-0.7,1.8-1.4,2.7-2c2.4-1.8,4.7-3.6,7.1-5.4
	c0.9-0.7,1.8-1.4,2.8-2c2.5-1.8,5.1-3.7,7.7-5.5c1-0.7,2-1.4,2.9-2c2.8-1.9,5.5-3.7,8.4-5.6c1.1-0.7,2.1-1.4,3.2-2
	c3.1-1.9,6.2-3.9,9.3-5.7c1.2-0.7,2.3-1.4,3.5-2.1c3.4-2,6.8-3.9,10.3-5.8c1.4-0.7,2.8-1.5,4.2-2.2c3.7-1.9,7.4-3.7,11.1-5.5
	c1.8-0.9,3.7-1.7,5.5-2.5C903.6,43,935,33.9,971.3,30.3C980.7,29.4,990.3,28.8,1000,28.6 M0,28.1c50.5,46.2,108.9,85.4,179.4,122.1
	c4,2.2,8,4.4,12.1,6.7c1.2,0.7,2.4,1.5,3.6,2.2c-1.8-0.9-3.6-1.8-5.4-2.7c-21.3-10.8-41.2-21.7-60-32.7C80.5,94.9,37.6,63.9,0,29.9
	V28.1L0,28.1z"/>
<path class="st0" d="M668.4,213.9c-1.9,1.7-3.8,3.4-5.6,5c0.9-0.9,1.8-1.8,2.7-2.7C666.5,215.4,667.5,214.7,668.4,213.9
	 M199.6,160.7c6,3.2,12.2,6.4,18.4,9.7c0.2,0.1,0.4,0.2,0.6,0.3c1,0.5,2.1,1.1,3.1,1.6c1.1,0.6,2.2,1.1,3.3,1.7
	c1.1,0.6,2.3,1.2,3.4,1.7c0.1,0,0.1,0.1,0.2,0.1c1.1,0.6,2.2,1.1,3.3,1.7c0.1,0.1,0.2,0.1,0.3,0.1c1.1,0.6,2.2,1.1,3.3,1.7
	c0.1,0,0.1,0.1,0.2,0.1c1.1,0.6,2.3,1.2,3.5,1.7c0.5,0.3,1.1,0.5,1.6,0.8c0.6,0.3,1.2,0.6,1.9,0.9c1.2,0.6,2.5,1.2,3.7,1.8
	c0.9,0.5,1.8,0.9,2.8,1.4c0.4,0.2,0.7,0.4,1.1,0.5c0.7,0.3,1.3,0.6,2,1c0.6,0.3,1.3,0.6,1.9,0.9c1.3,0.6,2.6,1.3,3.9,1.9
	c0.7,0.4,1.5,0.7,2.2,1.1c0.6,0.3,1.1,0.6,1.7,0.8c0.4,0.2,0.8,0.4,1.2,0.6c0.9,0.4,1.8,0.9,2.8,1.3c0.7,0.3,1.4,0.7,2.1,1
	c0.6,0.3,1.2,0.6,1.8,0.9c0.3,0.2,0.6,0.3,1,0.5c1,0.5,2,0.9,3,1.4c29.9,14.2,61.8,28.4,95.9,43.1c56.2,24.1,102.8,34.1,143,34.1
	c60.9,0,106.8-23,147.9-54.9c-1.8,1.7-3.5,3.4-5.3,5c-21.4,16-44,29.4-69.5,38.4c-23.2,8.2-47.1,12.3-72.6,12.3
	c-6.8,0-13.7-0.3-20.7-0.9c-37.3-3-77.6-14-123-33.5c-34.9-14.9-67.1-29.4-96.9-43.6c-1-0.5-2-1-3-1.4c-0.3-0.2-0.7-0.3-1-0.5
	c-0.6-0.3-1.2-0.6-1.8-0.9c-0.7-0.4-1.5-0.7-2.2-1.1c-0.9-0.4-1.8-0.9-2.8-1.3c-0.4-0.2-0.8-0.4-1.2-0.6c-0.6-0.3-1.1-0.5-1.7-0.8
	c-0.8-0.4-1.5-0.7-2.3-1.1c-1.3-0.6-2.6-1.3-3.9-1.9c-0.6-0.3-1.3-0.6-1.9-0.9c-0.7-0.3-1.4-0.7-2-1c-0.4-0.2-0.7-0.3-1.1-0.5
	c-0.9-0.5-1.9-0.9-2.8-1.4c-1.3-0.6-2.6-1.3-3.8-1.9c-0.6-0.3-1.2-0.6-1.8-0.9c-0.6-0.3-1.2-0.6-1.8-0.9c-1.1-0.6-2.3-1.2-3.4-1.7
	c-0.1-0.1-0.2-0.1-0.4-0.2c-1.1-0.6-2.2-1.1-3.3-1.7c-0.2-0.1-0.3-0.2-0.5-0.2c-1.1-0.6-2.2-1.1-3.3-1.7c-0.1-0.1-0.3-0.1-0.4-0.2
	c-1.2-0.6-2.4-1.2-3.7-1.9c-1.2-0.6-2.4-1.2-3.6-1.9c-1.2-0.6-2.4-1.2-3.5-1.8c-0.5-0.2-1-0.5-1.5-0.8c-0.3-0.2-0.7-0.4-1-0.5
	C208.4,165.7,204,163.2,199.6,160.7 M1000,27.6v0.8c-0.1,0-0.2,0-0.4,0c-13.3,0-26.2,0.7-38.6,2.1c-36.7,4.1-68.3,13.8-96.5,27.2
	c-1.7,0.8-3.5,1.7-5.2,2.5c-3.7,1.9-7.4,3.8-11,5.8c-1.3,0.7-2.6,1.4-3.9,2.2c-3.4,1.9-6.8,3.9-10.2,6c-1.1,0.7-2.2,1.3-3.3,2
	c-3.1,1.9-6.1,3.9-9.2,5.9c-1,0.7-2,1.3-3,2c-2.8,1.9-5.5,3.8-8.3,5.8c-0.9,0.7-1.8,1.3-2.7,2c-2.6,1.9-5.1,3.8-7.6,5.7
	c-0.9,0.7-1.7,1.3-2.6,2c-2.4,1.8-4.7,3.7-7.1,5.6c-0.8,0.7-1.6,1.3-2.4,2c-2.2,1.8-4.4,3.6-6.6,5.5c-0.8,0.7-1.6,1.3-2.3,2
	c-2.1,1.8-4.2,3.6-6.3,5.4c-0.8,0.7-1.5,1.3-2.3,2c-2,1.8-4,3.5-6,5.3c-0.8,0.7-1.5,1.3-2.3,2c-1.9,1.7-3.8,3.4-5.7,5.2
	c-0.8,0.7-1.6,1.4-2.3,2.1c-1.9,1.7-3.7,3.4-5.6,5.2c-0.7,0.7-1.5,1.4-2.2,2.1c-1.8,1.7-3.6,3.4-5.4,5.1c-0.8,0.7-1.5,1.5-2.3,2.2
	c-1.7,1.6-3.4,3.3-5.2,4.9c-0.8,0.8-1.7,1.6-2.5,2.4c-1.6,1.5-3.2,3-4.8,4.6c0,0,0,0,0,0c-0.9,0.9-1.8,1.7-2.7,2.6
	c-1.5,1.4-3,2.8-4.5,4.3c-1,1-2,1.9-3.1,2.9c-1.3,1.2-2.6,2.5-4,3.7c-1.2,1.1-2.4,2.3-3.6,3.4c-1.2,1.1-2.4,2.2-3.6,3.4
	c-1.5,1.4-2.9,2.7-4.4,4.1c-0.5,0.4-1,0.9-1.5,1.3c-0.6,0.6-1.3,1.2-1.9,1.7c-4,3.6-8,7.2-12,10.7c-5.5,4.8-11,9.5-16.6,14.1
	c3.8-3.4,7.5-6.9,11.2-10.4c1.7-1.4,3.3-2.8,4.9-4.3c0.6-0.5,1.2-1,1.7-1.5c2.1-1.8,4.1-3.6,6.2-5.5c1.2-1.1,2.3-2.1,3.5-3.2
	c1.4-1.3,2.8-2.6,4.3-3.9c1.6-1.4,3.1-2.9,4.6-4.3c1.2-1.1,2.4-2.2,3.6-3.3c1.5-1.4,3-2.8,4.5-4.3c1-0.9,2-1.9,3-2.8
	c1.6-1.5,3.2-3.1,4.9-4.6c0.9-0.8,1.8-1.7,2.7-2.5c0.7-0.7,1.5-1.4,2.2-2.1c1-0.9,1.9-1.8,2.9-2.8c0.8-0.8,1.7-1.6,2.5-2.4
	c1.8-1.7,3.6-3.4,5.4-5.1c0.8-0.7,1.5-1.4,2.3-2.1c1.8-1.7,3.7-3.5,5.5-5.2c0.7-0.7,1.5-1.4,2.2-2c1.9-1.8,3.8-3.5,5.7-5.3
	c0.8-0.7,1.5-1.4,2.3-2.1c1.9-1.8,3.9-3.5,5.8-5.3c0.7-0.7,1.5-1.3,2.2-2c2-1.8,4-3.6,6-5.4c0.7-0.7,1.5-1.3,2.3-2
	c2.1-1.8,4.2-3.6,6.3-5.5c0.8-0.7,1.5-1.3,2.3-2c2.2-1.9,4.4-3.7,6.7-5.5c0.8-0.7,1.6-1.3,2.4-2c2.3-1.9,4.7-3.8,7.1-5.6
	c0.8-0.7,1.7-1.3,2.5-2c2.5-1.9,5-3.8,7.6-5.7c0.9-0.7,1.8-1.3,2.7-2c2.7-2,5.5-3.9,8.2-5.8c1-0.7,1.9-1.3,2.9-2c3-2,6-4,9.1-5.9
	c1.1-0.7,2.1-1.3,3.2-2c3.3-2,6.7-4.1,10.1-6c1.3-0.7,2.5-1.4,3.8-2.2c3.6-2,7.2-3.9,10.9-5.8c1.7-0.8,3.3-1.7,5-2.5
	c28.9-14,61.4-24.2,99.2-28.4C973.6,28.3,986.6,27.6,1000,27.6 M0,20.1c50.2,49,109.1,90.7,181.9,131c2.1,1.3,4.3,2.5,6.4,3.8
	c1,0.7,2.1,1.3,3.1,2c-4.1-2.2-8.1-4.4-12.1-6.7C104.7,108.6,47.7,67.3,0,20.8V20.1L0,20.1z"/>
<path class="st0" d="M183.1,151c4.6,2.8,9.4,5.5,14.1,8.3c0.8,0.5,1.6,0.9,2.4,1.4c4.3,2.5,8.7,5,13.2,7.5c0.3,0.2,0.5,0.3,0.8,0.5
	c0.4,0.2,0.8,0.4,1.2,0.7c1,0.6,2,1.1,3,1.7c1,0.6,2.1,1.2,3.2,1.8c1.1,0.6,2.2,1.2,3.3,1.8c0.2,0.1,0.3,0.2,0.5,0.3
	c1,0.5,1.9,1.1,2.9,1.6c0.2,0.1,0.4,0.2,0.6,0.3c1,0.5,1.9,1.1,2.9,1.6c0.2,0.1,0.3,0.2,0.5,0.3c1,0.6,2,1.1,3.1,1.7
	c0.6,0.3,1.2,0.6,1.7,1c0.5,0.3,1.1,0.6,1.6,0.9c1.2,0.7,2.4,1.3,3.6,2c0.9,0.5,1.9,1,2.8,1.5c0.3,0.2,0.6,0.3,0.9,0.5
	c0.7,0.4,1.3,0.7,2,1.1c0.6,0.3,1.1,0.6,1.7,0.9c0,0,0.1,0,0.1,0c1.2,0.7,2.4,1.3,3.7,2c0.7,0.4,1.5,0.8,2.2,1.2
	c0.5,0.3,1,0.5,1.5,0.8c0.4,0.2,0.8,0.4,1.3,0.7c0.9,0.4,1.7,0.9,2.6,1.3c0.7,0.4,1.5,0.8,2.2,1.1c0.5,0.3,1.1,0.6,1.7,0.9
	c0.4,0.2,0.7,0.4,1,0.5c0.9,0.5,1.9,1,2.8,1.5c29.4,15.3,61,30.9,94.8,47.1c57.9,27.6,105.6,39,146.3,39
	c59.5,0,104.2-24.3,144.4-57.6c-3.4,3.2-6.8,6.2-10.2,9.3c-20.6,15.9-42.3,29.2-66.7,38c-21.3,7.7-43.3,11.4-66.7,11.4
	c-8.3,0-16.8-0.5-25.4-1.4c-36.9-4-76.8-16.5-121.9-38c-34.9-16.7-66.7-32.5-95.8-47.6c-0.9-0.5-1.9-1-2.8-1.5
	c-0.4-0.2-0.7-0.4-1.1-0.6c-0.5-0.3-1.1-0.6-1.7-0.9c-0.7-0.4-1.5-0.8-2.2-1.2c-0.9-0.5-1.7-0.9-2.6-1.4c-0.4-0.2-0.9-0.5-1.3-0.7
	c-0.5-0.3-1-0.5-1.5-0.8c-0.8-0.4-1.5-0.8-2.3-1.2c-1.2-0.7-2.5-1.3-3.7-2c0,0-0.1,0-0.1-0.1c-0.6-0.3-1.1-0.6-1.7-0.9
	c-0.7-0.4-1.4-0.7-2.1-1.1c-0.3-0.2-0.6-0.3-0.9-0.5c-1-0.5-1.9-1-2.9-1.5c-1.2-0.7-2.5-1.3-3.7-2c-0.5-0.3-1.1-0.6-1.6-0.9
	c-0.6-0.3-1.3-0.7-1.9-1c-1-0.6-2.1-1.1-3.1-1.7c-0.2-0.1-0.4-0.2-0.6-0.3c-1-0.5-1.9-1.1-2.9-1.6c-0.2-0.1-0.5-0.3-0.7-0.4
	c-1-0.5-1.9-1.1-2.9-1.6c-0.2-0.1-0.5-0.3-0.7-0.4c-1.2-0.7-2.4-1.3-3.5-2c-1.2-0.7-2.3-1.3-3.5-2c-1.1-0.6-2.1-1.2-3.2-1.8
	c-0.1-0.1-0.2-0.1-0.3-0.2c-0.4-0.2-0.7-0.4-1.1-0.6c-0.8-0.4-1.5-0.9-2.3-1.3c-0.6-0.3-1.2-0.7-1.9-1.1c-0.6-0.3-1.2-0.7-1.8-1
	c-0.8-0.5-1.6-0.9-2.4-1.4c-0.2-0.1-0.4-0.2-0.6-0.3C195.2,158.7,189.1,154.8,183.1,151 M993.3,26.6c2.2,0,4.5,0,6.7,0.1v0.7
	c-2.2,0-4.5-0.1-6.7-0.1c-57.1,0-103.2,12.9-142.4,32.9c-1.6,0.8-3.1,1.6-4.7,2.4c-3.6,1.9-7.2,3.9-10.8,6c-1.2,0.7-2.4,1.4-3.6,2.1
	c-3.4,2-6.7,4.1-9.9,6.2c-1,0.7-2,1.3-3,2c-3,2-6,4-9,6.1c-0.9,0.6-1.8,1.3-2.7,1.9c-2.7,2-5.5,4-8.1,6c-0.8,0.6-1.7,1.3-2.5,1.9
	c-2.5,1.9-5,3.9-7.5,5.9c-0.8,0.6-1.6,1.3-2.3,1.9c-2.4,1.9-4.7,3.9-7,5.8c-0.7,0.6-1.5,1.3-2.2,1.9c-2.2,1.9-4.4,3.8-6.6,5.7
	c-0.7,0.6-1.4,1.3-2.1,1.9c-2.1,1.9-4.2,3.8-6.3,5.7c-0.7,0.6-1.4,1.3-2.1,1.9c-2,1.9-4,3.7-6,5.6c-0.7,0.6-1.3,1.3-2,1.9
	c-1.9,1.8-3.9,3.7-5.8,5.5c-0.7,0.7-1.4,1.3-2.1,2c-1.9,1.9-3.8,3.7-5.7,5.6c-0.6,0.6-1.3,1.3-1.9,1.9c-1.9,1.8-3.7,3.7-5.6,5.5
	c-0.7,0.6-1.3,1.3-2,1.9c-1.8,1.8-3.6,3.6-5.4,5.4c-0.7,0.7-1.4,1.4-2.1,2.1c-1.7,1.7-3.4,3.4-5.1,5.1c-0.5,0.5-1,1-1.5,1.5
	c-0.3,0.3-0.5,0.5-0.8,0.8c-1.6,1.7-3.3,3.3-4.9,4.9c-0.8,0.8-1.6,1.6-2.5,2.5c-1.5,1.5-3.1,3.1-4.6,4.6c-0.9,0.9-1.9,1.9-2.8,2.8
	c-1.6,1.6-3.1,3.1-4.7,4.6c-1,1-2.1,2-3.1,3c-1.2,1.2-2.4,2.4-3.6,3.5c-1.3,1.3-2.6,2.6-4,3.8c-0.6,0.6-1.3,1.2-1.9,1.8
	c-0.8,0.8-1.6,1.5-2.4,2.3c-3.7,3.5-7.5,7-11.2,10.4c-5.3,4.8-10.7,9.5-16.1,13.9c3.5-3.2,7-6.5,10.5-9.9c1.9-1.6,3.8-3.3,5.6-5
	c0.8-0.7,1.6-1.4,2.4-2.1c1.8-1.7,3.6-3.3,5.4-5c1.3-1.2,2.5-2.4,3.8-3.5c1.3-1.2,2.6-2.5,3.9-3.7c1.5-1.5,3-2.9,4.6-4.4
	c1-1,2-2,3-2.9c1.8-1.7,3.5-3.4,5.3-5.2c0.9-0.9,1.9-1.8,2.8-2.8c1.6-1.6,3.3-3.3,4.9-4.9c0.8-0.8,1.6-1.6,2.4-2.4
	c1.7-1.7,3.4-3.4,5.2-5.2c0.7-0.7,1.5-1.5,2.2-2.2c0.1-0.1,0.2-0.2,0.2-0.2c1.7-1.7,3.4-3.4,5.1-5.1c0.7-0.7,1.4-1.4,2.1-2.1
	c1.8-1.8,3.7-3.7,5.5-5.5c0.6-0.6,1.3-1.3,1.9-1.9c1.9-1.9,3.8-3.7,5.7-5.6c0.6-0.6,1.3-1.2,1.9-1.9c1.9-1.9,3.9-3.8,5.8-5.7
	c0.7-0.7,1.4-1.3,2.1-2c1.9-1.9,3.9-3.7,5.9-5.6c0.7-0.6,1.3-1.3,2-1.9c2-1.9,4-3.8,6.1-5.7c0.7-0.6,1.4-1.3,2-1.9
	c2.1-1.9,4.2-3.8,6.3-5.7c0.7-0.6,1.4-1.3,2.1-1.9c2.2-1.9,4.4-3.9,6.6-5.8c0.7-0.6,1.5-1.3,2.2-1.9c2.3-2,4.7-3.9,7-5.9
	c0.8-0.6,1.5-1.3,2.3-1.9c2.5-2,5-4,7.5-5.9c0.8-0.6,1.7-1.3,2.5-1.9c2.7-2,5.4-4,8.1-6c0.9-0.6,1.8-1.3,2.7-1.9
	c2.9-2.1,5.9-4.1,8.9-6.1c1-0.7,2-1.3,3-2c3.2-2.1,6.5-4.2,9.8-6.2c1.2-0.7,2.3-1.4,3.5-2.1c3.5-2.1,7-4.1,10.6-6
	c1.5-0.8,3-1.6,4.6-2.4C888.2,40,935,26.6,993.3,26.6 M0,9.5c46.9,49.5,102,92.1,170.5,134c5.8,3.8,11.7,7.6,17.8,11.5
	c-2.2-1.3-4.3-2.5-6.4-3.8c-18.2-10.8-35.1-21.5-51-32C79.2,84.6,36.9,49.7,0,11.1V9.5L0,9.5z"/>
<path class="st0" d="M0,0c48.8,55.5,107.2,102.7,183.1,151c6,3.8,12.1,7.6,18.3,11.5c0.1,0.1,0.3,0.2,0.4,0.2
	c0.6,0.4,1.3,0.8,1.9,1.2c0.5,0.3,1,0.6,1.6,1c0.5,0.3,1,0.6,1.5,0.9c0.7,0.4,1.4,0.9,2.1,1.3c0.3,0.2,0.6,0.4,0.9,0.5
	c0.1,0.1,0.3,0.2,0.4,0.2c0.9,0.5,1.8,1.1,2.7,1.6c1.1,0.6,2.1,1.3,3.2,1.9c1.1,0.7,2.2,1.3,3.3,2c0.3,0.2,0.6,0.3,0.8,0.5
	c0.8,0.5,1.7,1,2.5,1.5c0.3,0.2,0.6,0.3,0.8,0.5c0.9,0.5,1.7,1,2.6,1.6c0.2,0.1,0.5,0.3,0.7,0.4c0.9,0.5,1.9,1.1,2.8,1.7
	c0.6,0.4,1.2,0.7,1.9,1.1c0.5,0.3,1,0.6,1.5,0.9c1.2,0.7,2.4,1.4,3.5,2.1c0.9,0.6,1.9,1.1,2.8,1.6c0.3,0.2,0.5,0.3,0.8,0.5
	c0.7,0.4,1.4,0.8,2.1,1.2c0.5,0.3,1,0.6,1.6,0.9c0.1,0,0.2,0.1,0.2,0.1c1.1,0.7,2.3,1.3,3.4,2c0.8,0.4,1.5,0.9,2.3,1.3
	c0.5,0.3,0.9,0.5,1.4,0.8c0.4,0.3,0.9,0.5,1.3,0.8c0.8,0.5,1.6,0.9,2.4,1.4c0.7,0.4,1.5,0.8,2.2,1.3c0.5,0.3,1,0.6,1.5,0.9
	c0.4,0.2,0.7,0.4,1.1,0.6c0.9,0.5,1.8,1,2.6,1.5c29,16.5,60.2,33.4,93.8,51.1c56.8,30,105.7,44.7,149.5,44.7
	c21.5,0,41.9-3.6,61.3-10.6c28.3-10.3,53-27.3,76.4-47.8c3.4-3,6.8-6.1,10.2-9.3c0.5-0.5,1.1-1,1.6-1.5c1.8-1.7,3.5-3.3,5.3-5
	c1.3-1.3,2.6-2.5,3.9-3.8c1.1-1.1,2.3-2.2,3.4-3.4c1.5-1.5,3.1-3.1,4.6-4.6c0.9-0.9,1.8-1.9,2.7-2.8c1.7-1.7,3.4-3.5,5.1-5.2
	c0.7-0.8,1.5-1.6,2.2-2.3c1.9-1.9,3.7-3.9,5.6-5.8c0.8-0.8,1.5-1.6,2.3-2.4c1.7-1.8,3.4-3.6,5.1-5.4c0.7-0.7,1.4-1.4,2-2.1
	c1.8-1.9,3.5-3.7,5.3-5.6c0,0,0,0,0,0c0.6-0.7,1.2-1.3,1.9-2c1.8-1.9,3.6-3.8,5.4-5.7c0.6-0.6,1.2-1.3,1.8-1.9
	c1.9-2,3.7-3.9,5.6-5.9c0.6-0.6,1.1-1.2,1.7-1.7c1.9-2,3.8-4,5.7-6c0.5-0.6,1.1-1.1,1.6-1.7c1.9-2,3.9-4,5.9-6
	c0.6-0.6,1.2-1.3,1.8-1.9c1.9-2,3.9-3.9,5.9-5.9c0.6-0.6,1.2-1.2,1.8-1.8c2-2,4-3.9,6-5.9c0.6-0.6,1.2-1.2,1.9-1.8
	c2.1-2,4.2-4,6.3-6c0.6-0.6,1.3-1.2,1.9-1.8c2.2-2,4.4-4,6.6-6c0.7-0.6,1.3-1.2,2-1.8c2.3-2,4.6-4.1,7-6.1c0.7-0.6,1.4-1.2,2.1-1.8
	c2.4-2.1,4.9-4.1,7.4-6.1c0.8-0.6,1.5-1.2,2.3-1.9c2.6-2.1,5.3-4.2,7.9-6.2c0.8-0.6,1.7-1.3,2.5-1.9c2-1.5,4-3,6.1-4.4
	c0.9-0.6,1.7-1.3,2.6-1.9c0.9-0.7,1.8-1.3,2.8-1.9c3.2-2.2,6.4-4.3,9.6-6.4c1.1-0.7,2.2-1.4,3.3-2.1c3.4-2.2,6.9-4.2,10.3-6.2
	c1.4-0.8,2.8-1.6,4.2-2.4c32.9-18.3,67.5-29.8,104.7-34.9c15.2-2.1,30.7-3.1,46.9-3.1c4.5,0,9.1,0.1,13.6,0.2v0.8
	c-4.9-0.2-9.7-0.3-14.5-0.3c-15.9,0-31.2,1-45.9,3c-39.8,5.4-73.5,17.5-103.2,33.8c-1.4,0.8-2.8,1.6-4.3,2.4c-3.5,2-7,4.1-10.4,6.2
	c-1.1,0.7-2.2,1.4-3.3,2.1c-3.2,2.1-6.5,4.2-9.6,6.4c-0.9,0.6-1.9,1.3-2.8,1.9c-2.9,2.1-5.8,4.2-8.7,6.3c-0.8,0.6-1.7,1.3-2.5,1.9
	c-2.7,2-5.3,4.1-7.9,6.2c-0.8,0.6-1.5,1.2-2.3,1.9c-2.5,2-4.9,4-7.4,6.1c-0.7,0.6-1.4,1.2-2.1,1.8c-2.3,2-4.6,4-6.9,6
	c-0.7,0.6-1.4,1.2-2,1.8c-2.2,2-4.4,4-6.5,6c-0.6,0.6-1.3,1.2-1.9,1.8c-2.1,2-4.2,3.9-6.2,5.9c-0.6,0.6-1.2,1.2-1.9,1.8
	c-2,1.9-4,3.9-6,5.9c-0.6,0.6-1.2,1.2-1.8,1.8c-1.9,1.9-3.9,3.9-5.8,5.8c-0.6,0.6-1.2,1.3-1.9,1.9c-1.9,2-3.9,4-5.8,5.9
	c-0.6,0.6-1.1,1.1-1.6,1.7c-1.9,2-3.8,3.9-5.7,5.9c-0.6,0.6-1.1,1.2-1.7,1.8c-1.8,1.9-3.7,3.9-5.5,5.8c-0.6,0.6-1.2,1.3-1.8,1.9
	c-1.8,1.9-3.5,3.7-5.3,5.6c-0.6,0.7-1.3,1.3-1.9,2c-0.5,0.5-0.9,1-1.4,1.4c-1.3,1.3-2.5,2.7-3.8,4c-0.7,0.7-1.4,1.4-2,2.2
	c-1.7,1.7-3.3,3.5-4.9,5.2c-0.8,0.8-1.5,1.6-2.3,2.4c-1.8,1.8-3.5,3.7-5.3,5.5c-0.8,0.8-1.5,1.6-2.3,2.4c-1.5,1.6-3.1,3.2-4.6,4.8
	c-0.9,1-1.9,1.9-2.8,2.9c-1.3,1.3-2.6,2.6-3.9,3.9c-1.2,1.2-2.3,2.3-3.5,3.5c-0.8,0.8-1.6,1.6-2.5,2.4c-0.9,0.9-1.8,1.8-2.7,2.7
	c-3.5,3.4-7,6.7-10.5,9.9c-26,24-53.2,44-85,55.6c-19.6,7.1-39.8,10.6-61.2,10.6c-9.6,0-19.4-0.7-29.5-2.1
	c-36.4-5.1-75.8-19-120.6-42.7c-35-18.4-66.3-35.5-94.6-51.7c-0.9-0.5-1.8-1-2.6-1.5c-0.4-0.2-0.8-0.4-1.1-0.6
	c-0.5-0.3-1-0.6-1.5-0.9c-0.8-0.4-1.5-0.9-2.3-1.3c-0.8-0.5-1.6-0.9-2.4-1.4c-0.5-0.3-0.9-0.5-1.4-0.8c-0.5-0.3-0.9-0.5-1.4-0.8
	c-0.8-0.5-1.6-0.9-2.3-1.4c-1.2-0.7-2.3-1.3-3.5-2c-0.1-0.1-0.2-0.1-0.3-0.2c-0.5-0.3-1-0.6-1.6-0.9c-0.7-0.4-1.4-0.8-2.1-1.2
	c-0.3-0.2-0.5-0.3-0.8-0.5c-1-0.6-1.9-1.1-2.9-1.7c-1.2-0.7-2.4-1.4-3.6-2.1c-0.5-0.3-1-0.6-1.5-0.9c-0.7-0.4-1.3-0.8-2-1.2
	c-0.9-0.6-1.9-1.1-2.8-1.7c-0.3-0.2-0.5-0.3-0.8-0.5c-0.9-0.5-1.7-1-2.6-1.6c-0.3-0.2-0.6-0.4-0.9-0.6c-0.8-0.5-1.7-1-2.5-1.5
	c-0.3-0.2-0.6-0.4-0.9-0.6c-1.1-0.7-2.3-1.4-3.4-2.1c-1.1-0.7-2.3-1.4-3.4-2.1c-0.9-0.5-1.8-1.1-2.7-1.6c-0.2-0.1-0.4-0.3-0.6-0.4
	c-0.3-0.2-0.6-0.3-0.8-0.5c-0.8-0.5-1.6-1-2.4-1.5c-0.5-0.3-1-0.6-1.4-0.9c-0.7-0.4-1.4-0.8-2-1.3c-0.7-0.4-1.4-0.9-2.2-1.3
	c-0.1-0.1-0.2-0.2-0.4-0.2c-1.1-0.7-2.1-1.3-3.1-2c-1.2-0.8-2.4-1.5-3.6-2.2c-1-0.7-2.1-1.3-3.1-2c-6.1-3.9-12-7.7-17.8-11.5
	c-13.8-9-26.8-17.9-39.1-26.7C78.7,79.3,36.4,42,0,0.8V0L0,0z"/>
<path class="st0" d="M1000,716.8c-140.7,75.1-306.7,82.8-502.9,24c-93.7-28.1-178.5-43.1-259.1-45.9c-70.5-2.4-129.3,4.8-181.2,11.2
	c-19.3,2.4-38.1,4.7-56.8,6.4v1c18.6-1.8,37.4-4.1,56.9-6.5c107.7-13.3,229.8-28.3,439.9,34.6c71.7,21.5,140.2,34.3,203.6,38.1
	c13.5,0.8,26.8,1.2,40,1.2c46,0,90.1-4.9,131.7-14.5c44.5-10.3,87.5-26.5,127.9-48.1V716.8L1000,716.8z"/>
<path class="st0" d="M1000,714.6c-138.8,81.4-303.7,91.7-500.4,32.1c-212.9-64.9-333.5-55.8-439.9-47.8c-20.4,1.5-40.1,3-59.7,3.9v1
	c19.6-0.9,39.3-2.4,59.8-3.9c106.3-8,226.7-17,439.5,47.8c67.4,20.4,131.8,32.9,191.5,36.9c14.8,1,29.4,1.5,43.8,1.5
	c41.1,0,80.7-4.1,118-12.2c52.3-11.3,101.1-30.4,147.3-57.7V714.6L1000,714.6z"/>
<path class="st0" d="M1000,712c-136.9,89.4-297.5,102-497.9,40.5C285,685.4,165.8,688.5,60.7,691.2c-20.5,0.5-40.5,1-60.7,1v1
	c20.3,0,40.3-0.5,60.7-1c105.1-2.7,224.1-5.7,441.1,61.4c63.5,19.5,124.2,31.5,180.4,35.8c15.9,1.2,31.5,1.8,46.9,1.8
	c36.8,0,72.3-3.4,105.9-10.3c59.1-12,113.6-34.4,164.9-67.7V712L1000,712z"/>
<path class="st0" d="M1000,708.1C864.9,805.2,705.8,821,504.6,758.5c-100.1-31.5-187.6-52.2-267.3-63.3
	C167,685.3,111.6,684,58.1,682.7c-19.6-0.5-38.7-0.9-58.1-1.8v1c19.4,0.9,38.6,1.3,58,1.8c104.3,2.5,222.4,5.4,446.3,75.8
	c60,18.7,117.4,30.4,170.6,34.8c16.6,1.4,32.9,2.1,49,2.1c33.2,0,65.2-2.9,95.7-8.8c65.2-12.6,124.6-38.3,180.4-78.2V708.1
	L1000,708.1z"/>
<path class="st0" d="M1000,703.5c-133.2,105.7-290.6,124.9-492.8,60.9c-235.9-74.8-349-83.2-458.4-91.4c-16.3-1.2-32.4-2.4-48.8-3.8
	v1c16.6,1.4,32.7,2.6,48.7,3.8c109.3,8.2,222.3,16.6,458.2,91.3c56.9,18,111.3,29.5,161.7,34.1c17.3,1.6,34.3,2.4,51,2.4
	c29.9,0,58.7-2.5,86.2-7.6c70.9-13,134.6-42.3,194.2-89.5V703.5L1000,703.5z"/>
<path class="st0" d="M716.9,806.5c-61.4,0-130-11.4-207.2-36.2c-261.8-84.1-367.1-96.7-489.1-111.2c-6.8-0.8-13.6-1.6-20.5-2.5v1
	c6.9,0.8,13.7,1.6,20.4,2.4c122,14.5,227.3,27.1,489,111.2c54.1,17.4,105.8,28.6,153.6,33.2c17.6,1.7,34.9,2.6,51.9,2.6
	c27.2,0,53.5-2.2,78.6-6.6c33-5.8,64.4-15.3,94.6-28.8C837.5,794.1,781.1,806.5,716.9,806.5L716.9,806.5z"/>
<path class="st0" d="M1000,698.8c-6.5,5.7-13,11.2-19.7,16.5c6.2-4.9,12.4-10,18.5-15.3C999.2,699.5,999.6,699.2,1000,698.8
	L1000,698.8L1000,698.8z"/>
<path class="st1" d="M888,771.6c1.7-0.7,3.3-1.5,4.9-2.2C891.3,770.2,889.7,770.9,888,771.6L888,771.6z"/>
<path class="st0" d="M1000,690.2c-7.4,7.2-15,14.2-22.7,20.9c-124.2,107.3-272,128-465.1,65.1C230.2,684.3,135.7,663.7,0,643.4v1
	c135.6,20.2,230,40.8,511.9,132.7c51.6,16.8,100.8,27.7,146.3,32.4c17.7,1.8,35.2,2.7,52.2,2.7c24.9,0,48.9-1.9,71.9-5.8
	c72-12.2,136-43.1,195.5-94.6c7.5-6.5,14.9-13.3,22.1-20.3V690.2L1000,690.2z"/>
<path class="st0" d="M1000,681.3C888.1,801.9,743.8,857.8,514.7,782.1c-45.8-15.1-86.8-28.8-123.1-40.9
	C198.1,676.7,117.6,649.9,0,629.8v1c117.5,20.1,197.9,46.9,391.4,111.3c36.2,12.1,77.3,25.8,123.1,40.9
	c71.7,23.7,135.2,34.5,191.9,34.5c124.5,0,216.7-52.1,293.6-134.8V681.3L1000,681.3z"/>
<path class="st0" d="M1000,670.6c-19,22.8-39,43.6-60.1,61.9C827.8,829.4,693.5,847.1,517.3,788c-114.7-38.4-196.7-69.1-262.5-93.7
	C151.9,655.9,88.3,632.1,0,615.8v0.9c87.7,16.3,151.5,40.1,254.4,78.6c65.9,24.6,147.9,55.3,262.6,93.7
	c67.7,22.7,128.7,33.9,184.8,33.9c21.1,0,41.5-1.6,61.3-4.8c65.5-10.5,123.5-38.2,177.4-84.8c20.9-18.1,40.7-38.6,59.5-61.1V670.6
	L1000,670.6z"/>
<path class="st0" d="M1000,657.8c-24,31.9-49.4,60.5-77,84.5c-106.4,92.6-234.5,109-403.3,51.6c-138.9-47.2-228-85.7-299.6-116.7
	C137.4,641.4,80.6,616.8,0,601.5v1.1C81,618,138.7,643,219.8,678.1c71.6,31,160.7,69.5,299.6,116.7c65.5,22.3,124.4,33.3,178.4,33.3
	c19.5,0,38.4-1.4,56.7-4.3c62.5-9.8,117.8-36.2,169-80.8c27.4-23.8,52.6-52,76.3-83.6V657.8L1000,657.8z"/>
<path class="st0" d="M522.3,799.8C372,748,281.4,702.8,208.6,666.4C134.6,629.6,79.6,602.1,0,587v1.1
	c79.9,15.2,134.8,42.6,208.2,79.2C281,703.6,371.6,748.8,522,800.7c63.4,21.8,120.2,32.7,172.2,32.7c18.1,0,35.7-1.3,52.7-3.9
	c21.7-3.3,42.5-8.8,62.6-16.5C734.1,841.6,641.9,841,522.3,799.8L522.3,799.8z"/>
<path class="st1" d="M901,758.1c-1.3,1.1-2.6,2.2-4,3.3C898.4,760.3,899.7,759.2,901,758.1L901,758.1z"/>
<path class="st0" d="M1000,643.4c-30.2,45-62.5,84-99,114.7c2.3-1.9,4.6-3.9,6.9-5.9c31.7-27.8,61.6-62.7,92.1-107.9V643.4
	L1000,643.4z"/>
<path class="st0" d="M1000,624.5c-32.5,53.5-67.5,100.3-107.5,135.9c-95.8,85.1-212.6,99.5-367.7,45.3
	c-156.7-54.8-247-106.3-319.6-147.8C133.9,617.2,81.1,587.1,0,572.4v1.1c81.3,14.8,134.9,45.4,204.8,85.3
	c72.6,41.4,162.9,93,319.7,147.8c61,21.3,116.1,32.1,166.3,32.1c77.7,0,143.9-25.7,202.2-77.6c36.8-32.7,71-75.8,106.9-134.6V624.5
	L1000,624.5z"/>
<path class="st0" d="M1000,603.6c-36.4,66.5-74.8,123.2-121.5,165.3c-90.8,81.9-202.4,95.5-351.2,42.7
	c-160.6-57-249.8-114.7-321.5-161.1C138.4,606.9,84.5,572,0,557.9v0.5c83.4,14,136.2,48.2,205.4,92.9
	c71.7,46.4,161,104.2,321.7,161.2c59,20.9,112.1,31.4,160.4,31.4c73.9,0,136.6-24.6,191.7-74.3c37.7-34,72.4-79.6,109.3-143.6
	c3.9-6.8,7.8-13.7,11.6-20.7V603.6L1000,603.6z"/>
<path class="st0" d="M1000,578.8C899.8,779.7,789.9,911.1,529.9,817.5C366.8,758.8,279,695,208.5,643.7
	c-67.4-49-120-87.3-208.5-100.3v0.9c88.3,13,140.8,51.1,208,100.1c70.5,51.3,158.4,115.2,321.5,173.9
	c56.9,20.5,108.2,30.8,154.6,30.8c70.3,0,129.8-23.6,181.8-71.3c35.8-32.8,68.7-77,103.4-139c10.4-18.6,20.6-38,30.6-58V578.8
	L1000,578.8z"/>
<path class="st0" d="M1000,550.3c-44.6,97.2-88.4,179.9-147.1,234.8c-81.4,76.2-183.3,88.4-320.5,38.3
	c-164.7-60.1-250.7-130-319.9-186.2C146.4,583.5,94.2,541.1,1.9,529.4c-0.6-0.1-1.3-0.1-1.9-0.2v0.9c0.6,0.1,1.2,0.1,1.8,0.2
	C93.8,542,146,584.3,212,637.9c69.2,56.2,155.3,126.1,320.1,186.3c56.7,20.7,105.8,30.2,149.1,30.2c160.8,0,240-130.7,318.8-302
	V550.3L1000,550.3z"/>
<path class="st0" d="M1000,518.1c-49.3,114.8-94.4,213-159,274.8c-77,73.7-174.3,85.2-306.1,36.4C369.1,767.9,284.9,692,217.3,631
	C153.1,573.1,102.4,527.4,9.6,516.3c-3.1-0.4-6.3-0.7-9.6-1v0.9c3.2,0.3,6.4,0.6,9.5,1c92.6,11.2,143.2,56.8,207.3,114.5
	c67.7,61,151.9,137,317.9,198.5c53.5,19.8,100.8,29.6,143.5,29.6c12.9,0,25.4-0.9,37.4-2.7c47.5-7,88.7-27.8,126.1-63.5
	C906,732,951,634.4,1000,520.4V518.1L1000,518.1z"/>
<path class="st0" d="M1000,482.6c-2.8,6.9-5.7,13.8-8.5,20.6c-51.1,124.6-95.2,232.2-161.7,297.3c-72.8,71.3-165.7,82.3-292.4,34.7
	C370.9,772.6,288.7,690.7,222.7,625C160.3,562.9,111,513.8,17.6,503.1C11.9,502.5,6,502,0,501.6v0.9c6,0.4,11.8,0.8,17.5,1.5
	c93.1,10.7,142.3,59.6,204.6,121.6c66.1,65.8,148.4,147.8,315.1,210.4c51.7,19.4,97.3,29,138.3,29c12.1,0,23.8-0.8,35.1-2.5
	c45.3-6.7,84.6-26.8,119.9-61.4c66.6-65.3,110.8-172.9,161.9-297.6c2.5-6.2,5.1-12.4,7.6-18.6V482.6L1000,482.6z"/>
<path class="st0" d="M1000,444.6c-10,24.7-19.6,49.3-29.2,73.7C923.2,639.8,882,744.8,819.1,808c-68.7,69.1-157.4,79.6-279.2,33.1
	c-166.9-63.7-247.1-151.5-311.6-222C167.8,552.7,119.9,500.2,25.8,490c-8.3-0.9-16.9-1.5-25.8-1.7v0.9c8.9,0.2,17.5,0.8,25.7,1.7
	c93.7,10.2,141.5,62.5,202,128.8c64.5,70.6,144.8,158.5,311.9,222.3c49.9,19.1,93.8,28.5,133.1,28.5c11.4,0,22.4-0.8,33-2.4
	c43.3-6.4,80.6-25.8,114-59.4c63-63.4,104.2-168.4,151.9-290c9.2-23.5,18.6-47.4,28.4-71.6V444.6L1000,444.6z"/>
<path class="st0" d="M1000,405.4c-18,43.9-34.1,87-49.1,127.4c-28.3,75.9-55.1,147.5-86.4,204.4C829.7,800.3,792.8,839,748.3,859
	c-54.5,24.5-121.8,20.6-205.9-11.9c-167.1-64.7-245.3-158.4-308-233.7c-28.6-34.3-55.5-66.6-86.5-90.7
	c-34.2-26.7-70.3-41.2-113.8-45.7c-10.8-1.1-22.2-1.6-34.2-1.5v0.9c12-0.1,23.3,0.3,34.1,1.5c94.3,9.8,140.8,65.5,199.6,136.1
	c31.5,37.8,67.2,80.6,115.4,121.4c55.4,46.9,118.5,83.7,193,112.6c47.9,18.6,90.5,27.8,128.3,27.8c28.7,0,54.6-5.3,78.2-15.9
	c44.6-20.1,81.6-58.9,116.5-122.1c31.4-56.9,58.1-128.6,86.5-204.5c15.3-40.9,31-83.1,48.3-125.6V405.4L1000,405.4z"/>
<path class="st0" d="M1000,366.1c-26.4,62.2-48.3,124-68.4,180.8c-26.2,74.2-51,144.3-80.3,199.7C818.8,808,784,845.6,741.7,865
	c-51.7,23.6-116,19.7-196.7-12c-167.2-65.7-243.2-165.3-304.3-245.3c-27.7-36.3-53.9-70.6-84.4-96.1
	c-33.7-28.2-69.8-43.3-113.5-47.6c-13.4-1.3-27.7-1.6-42.8-0.8v0.9c15.1-0.8,29.3-0.5,42.7,0.8c94.9,9.3,140.1,68.5,197.3,143.4
	c30.7,40.2,65.4,85.7,112.9,128.7c54.5,49.4,117.3,87.6,191.8,116.9C591,871.9,631.9,881,668.2,881c27.2,0,51.7-5.1,73.9-15.2
	c42.5-19.4,77.4-57.1,110-118.7c29.3-55.5,54.1-125.6,80.4-199.8c19.9-56.2,41.4-117,67.6-178.7V366.1L1000,366.1z"/>
<path class="st0" d="M1000,327.8c-35.7,79.5-62.6,160-86.8,232.5c-24.2,72.6-47.1,141.1-74.4,195.2c-30.2,59.8-63,96.4-103.3,115.2
	c-49,22.8-110.5,18.9-188-11.9c-166.9-66.9-240.8-172.3-300.1-257c-26.9-38.4-52.4-74.7-82.5-101.6c-33.3-29.8-69.3-45.5-113.3-49.6
	c-16-1.5-33.1-1.4-51.6,0.3v0.9c18.5-1.7,35.6-1.8,51.5-0.3c95.6,8.9,139.5,71.6,195.2,150.9c29.8,42.5,63.6,90.7,110.3,135.9
	c53.6,51.8,115.8,91.6,190.2,121.4c44.6,17.7,83.9,26.5,118.5,26.5c25.8,0,49.1-4.9,70.2-14.7c40.4-18.8,73.3-55.5,103.7-115.5
	c27.3-54.1,50.2-122.7,74.4-195.3c24-72.1,50.5-151.4,86-230.4V327.8L1000,327.8z"/>
<path class="st0" d="M1000,291.6c-46.2,95.4-77.2,194.5-104.7,282.2c-22.2,71.1-43.2,138.2-68.6,190.9c-28.1,58.3-59,93.9-97.2,112
	c-46.4,22-105.1,18-179.5-12.1c-166.8-67.8-238.5-179-296.2-268.4c-26.1-40.5-50.8-78.8-80.5-107.1c-32.8-31.3-68.7-47.8-113.1-51.7
	c-18.4-1.6-38.5-1-60.3,1.8v0.8c21.8-2.8,41.8-3.4,60.2-1.8c96.2,8.5,138.9,74.6,192.9,158.4c29,44.9,61.8,95.8,107.7,143.1
	c52.7,54.3,114.5,95.4,188.9,125.6c43,17.4,80.8,26.1,114,26.1c24.4,0,46.4-4.7,66.1-14c38.4-18.2,69.4-53.9,97.6-112.4
	c25.4-52.8,46.4-120,68.7-191.1c27.3-87.4,57.9-185.1,103.9-280.3V291.6L1000,291.6z"/>
<path class="st0" d="M1000,258c-58.1,110-92,226.4-121.9,328.9c-20.3,69.6-39.5,135.4-63,186.9c-26,56.9-55,91.5-91.3,109
	c-43.9,21.1-99.8,17.1-171.2-12.2C385.9,802,316.3,685,260.4,590.9c-45.5-76.5-84.8-142.6-161.7-161.5c-28.2-7-60.9-7.3-98.7-1.1
	v0.8c37.7-6.3,70.3-5.9,98.5,1C175,449.1,214.2,515,259.7,591.3c28.1,47.3,60,100.9,105.2,150.3c51.8,56.7,113.1,99.1,187.4,129.7
	c41.5,17.1,77.8,25.6,109.7,25.6c23,0,43.7-4.5,62.2-13.4c36.5-17.6,65.7-52.4,91.7-109.4c23.6-51.6,42.7-117.4,63.1-187
	c29.8-102.1,63.5-217.8,121.1-327.4V258L1000,258z"/>
</svg>
