<?xml version="1.0" encoding="utf-8"?>
<!-- Generator: Adobe Illustrator 19.0.0, SVG Export Plug-In . SVG Version: 6.00 Build 0)  -->
<svg version="1.1" id="Ebene_1" xmlns="http://www.w3.org/2000/svg" xmlns:xlink="http://www.w3.org/1999/xlink" x="0px" y="0px"
	 viewBox="0 0 982 181.3" style="enable-background:new 0 0 982 181.3;" xml:space="preserve">
<style type="text/css">
	.st0{fill:#EF7D14;}
	.st1{fill:#878573;}
	.st2{fill:#FFFFFF;}
</style>
<g>
	<path class="st0" d="M26.1,96.7C33,78.9,47.8,33.2,63.6,32.4c25.6-2,50,124.9,75.2,126c17.4,0.3,28.2-40,37-61.6"/>
	<path class="st1" d="M137.6,162h-0.1l-0.1,0c-3.6-0.2-6.8-1.8-9.4-3.9c-2.6-2.1-5-4.8-7.2-8c-4.4-6.3-8.6-14.5-12.7-23.8
		C99.8,107.8,91.7,85,83.7,66.8c-5.3-12.1-10.8-22.3-15.4-27.3c-2.6-2.9-4.6-3.6-5.3-3.5l-0.1,0h0l-0.1,0c-1.1-0.1-4.1,1.5-7.4,5.8
		c-3.3,4.1-6.7,10.2-9.9,16.8c-6.4,13.4-11.7,29.1-15.3,38.1l-12.6,0c2.5-6.5,8.3-21.3,12.9-32.2c4.6-10.9,9.8-21.9,16-29.8
		c4.1-5.1,8.8-9.5,15.5-10v0c0.3,0,0.6,0,1.1,0c3.6,0,6.9,1.5,9.6,3.5c2.7,2,5.1,4.7,7.4,7.8c4.5,6.2,8.7,14.4,12.9,23.6
		c8.3,18.4,16.4,41.2,24.4,59.6c5.3,12.2,10.7,22.5,15.3,27.7c2.4,2.8,4.4,3.7,5.2,3.8h0.1c2,0,4.5-1.2,7.6-4.7
		c3-3.4,6.1-8.7,8.9-14.8c5.7-12.2,8.6-23.4,13.6-34.4l1.8-4.2l10.1,4.3c-3.2,7.8-6.8,18.5-10.9,28.9c-4.2,10.4-8.8,20.5-15,27.7
		c-4.1,4.7-9.4,8.5-16.1,8.5H137.6z"/>
	<polyline class="st1" points="168.4,108.5 539.3,108.5 539.3,96.7 168.4,96.7 	"/>
	<g>
		<path class="st0" d="M240.1,59.3c-1.7,1.5-4,3.1-7,4.7c2.1,2.4,3.1,4.9,3.1,7.5c0,1.9-0.5,4.1-1.6,6.6c-2.5,5.8-5.5,10-9.1,12.8
			c-5,3.8-11.8,5.7-20.6,5.7h-36.9L196,30.6h32.8c7.6,0,12.8,1.1,15.7,3.2c2.5,1.9,3.8,4.5,3.8,7.9c0,2.6-0.7,5.5-2.2,8.9
			C244.6,54.1,242.6,57,240.1,59.3 M213.8,71.2h-17.6l-4.4,10.3h15.4c5,0,8.3-2,10-5.9c0.5-1.1,0.7-2,0.7-2.5
			C217.9,71.8,216.6,71.2,213.8,71.2 M224.4,46H207l-4.2,9.9h15.2c5,0,8.2-1.9,9.9-5.8c0.5-1.1,0.7-1.9,0.7-2.4
			C228.5,46.6,227.1,46,224.4,46"/>
		<path class="st0" d="M318.1,45.5h-22.5c-7,0-12.6,3.4-16.9,10.3h35l-6.4,15h-35.5c-0.9,2.6-1.4,4.7-1.4,6.3c0,1,0.2,1.9,0.6,2.5
			c1,1.4,3.4,2.2,7.3,2.2h24.4l-6.4,14.9h-23c-9.6,0-16.1-2.6-19.4-7.9c-1.6-2.5-2.3-5.5-2.3-8.9c0-4.5,1.3-9.8,3.9-15.9
			c5.2-12.3,11.6-21,19.2-26.3c6.8-4.7,15.2-7,25.2-7h24.6L318.1,45.5z"/>
		<path class="st0" d="M397.2,45.5h-22.1c-8,0-14.3,3.6-18.9,10.9h36.3l-6.3,14.8h-36.6l-10.8,25.4h-17.6l13.3-31.4
			c3.3-7.9,6.1-13.5,8.2-16.8c3.7-5.8,8.2-10.1,13.5-12.9c6.4-3.3,14.5-5,24.4-5h22.8L397.2,45.5z"/>
		<path class="st0" d="M458,70.3l3.9,26.4h-18.5l-3.3-24.2h-11.9l-10.3,24.2h-17.4l28.1-66.1h33c12,0,17.9,3.8,17.9,11.5
			c0,2.8-0.8,6.2-2.5,10.1C473.1,61.5,466.8,67.5,458,70.3 M453.8,46h-14.2l-4.8,11.4h12.4c3.8,0,6.5-0.3,8-0.9
			c2.1-0.9,3.8-2.8,5.1-5.8c0.8-1.9,1-3.1,0.5-3.5C459.7,46.4,457.4,46,453.8,46"/>
		<path class="st0" d="M539.3,96.7h-18.5l0.6-14.8h-23.4l-11.7,14.8h-19.1l55.6-66.1h16.6L539.3,96.7z M510.4,66.6h11.6l0.6-15.3
			L510.4,66.6z"/>
	</g>
	<g>
		<path class="st0" d="M363.6,138.1h0.1c1-2.8,3.3-3,5.9-3c4.9,0,6.4,2,6.4,6.6v12.4h-4.5v-11.9c0-2.7-0.6-3.6-3.5-3.6
			c-3.9,0-4.5,1.9-4.5,5.2v10.3H359v-26.8h4.5V138.1z"/>
		<g>
			<path class="st0" d="M189.8,148.1c0,5.9-3.4,6.2-8.8,6.2c-7.2,0-8.6-2.3-8.6-9.5c0-6.7,1.1-9.6,8.6-9.6c7.7,0,8.8,2.3,8.8,10.4
				h-12.9c0,4,0.1,5.3,4.1,5.3c2.5,0,4.3,0,4.3-2.8H189.8z M185.3,142.7c0-3.9-0.6-4.1-4.3-4.1c-3.9,0-4.1,0.8-4.1,4.1H185.3z"/>
			<path class="st0" d="M198.2,135.3v2.8h0.1c1-2.8,3.3-3,5.9-3c4.9,0,6.4,2,6.4,6.6v12.4h-4.5v-11.9c0-2.7-0.6-3.6-3.5-3.6
				c-3.9,0-4.5,1.9-4.5,5.2v10.3h-4.5v-18.8H198.2z"/>
			<path class="st0" d="M231.9,148.1c0,5.9-3.4,6.2-8.8,6.2c-7.2,0-8.6-2.3-8.6-9.5c0-6.7,1.1-9.6,8.6-9.6c7.7,0,8.8,2.3,8.8,10.4
				H219c0,4,0.1,5.3,4.1,5.3c2.5,0,4.3,0,4.3-2.8H231.9z M227.4,142.7c0-3.9-0.6-4.1-4.3-4.1c-3.9,0-4.1,0.8-4.1,4.1H227.4z"/>
			<path class="st0" d="M239.8,135.3l-0.1,2.5h0.2c0.9-2.1,2.8-2.7,5-2.7c4,0,4.9,2.4,4.9,5.9v1.5h-4.2v-1c0-1.9-0.2-3-2.3-3
				c-2.7,0-3.5,1.5-3.4,4v11.6h-4.5v-18.8H239.8z"/>
			<path class="st0" d="M265.4,151.4h-0.1c-1.2,2.5-3.6,2.9-5.9,2.9c-6.4,0-7.2-3.5-7.2-9c0-5.8,0.2-10.1,7.2-10.1
				c2.6,0,4.7,0.6,5.9,3h0.1l-0.2-2.8h4.5V154c0,6.8-2.1,8.4-9,8.4c-4.6,0-8-0.8-7.7-6.4h4.2c0,2.6,1,3,3.5,3c3.8,0,4.6-0.8,4.6-4
				V151.4z M256.7,144.1c0,4.3,0,6.7,4,6.7c4.5,0,4.5-2.3,4.5-6.7c0-4-0.6-5.6-4.5-5.6C257.6,138.5,256.7,139.4,256.7,144.1"/>
			<path class="st0" d="M278.6,131.1h-4.5v-3.8h4.5V131.1z M278.6,154.1h-4.5v-18.8h4.5V154.1z"/>
			<path class="st0" d="M299.6,148.1c0,5.9-3.4,6.2-8.8,6.2c-7.2,0-8.6-2.3-8.6-9.5c0-6.7,1.1-9.6,8.6-9.6c7.7,0,8.8,2.3,8.8,10.4
				h-12.9c0,4,0.1,5.3,4.1,5.3c2.5,0,4.3,0,4.3-2.8H299.6z M295.1,142.7c0-3.9-0.6-4.1-4.3-4.1c-3.9,0-4.1,0.8-4.1,4.1H295.1z"/>
			<path class="st0" d="M301.1,135.3h2.4V131h4.5v4.3h7.2v3.4H308v9.6c0,1.7,0,2.5,1.9,2.5c2.5,0,2.3-2,2.3-4h4
				c0.1,5.7-1.4,7.4-6.2,7.4c-4.9,0-6.4-1.1-6.4-5.9v-9.6h-2.4V135.3z"/>
			<path class="st0" d="M335.4,148.1c0,5.9-3.4,6.2-8.8,6.2c-7.2,0-8.6-2.3-8.6-9.5c0-6.7,1.1-9.6,8.6-9.6c7.7,0,8.8,2.3,8.8,10.4
				h-12.9c0,4,0.1,5.3,4.1,5.3c2.5,0,4.3,0,4.3-2.8H335.4z M330.9,142.7c0-3.9-0.6-4.1-4.3-4.1c-3.9,0-4.1,0.8-4.1,4.1H330.9z"/>
			<path class="st0" d="M355.6,146.9c0,6.1-2.2,7.4-8.5,7.4c-6.9,0-8.4-2-8.4-9.6c0-6.6,1-9.6,8.4-9.6c5.6,0,8.5,0.9,8.5,6.8h-4.5
				c0-2.9-0.9-3.4-4-3.4c-3.9,0-3.9,1.4-3.9,6.2c0,4.7-0.1,6.1,3.9,6.1c3.7,0,4-0.6,4-3.9H355.6z"/>
			<path class="st0" d="M385.1,135.3v2.8h0.1c1-2.8,3.3-3,5.9-3c4.9,0,6.4,2,6.4,6.6v12.4H393v-11.9c0-2.7-0.6-3.6-3.5-3.6
				c-3.9,0-4.5,1.9-4.5,5.2v10.3h-4.5v-18.8H385.1z"/>
			<path class="st0" d="M406.3,131.1h-4.5v-3.8h4.5V131.1z M406.3,154.1h-4.5v-18.8h4.5V154.1z"/>
			<polygon class="st0" points="415.1,142.6 416.2,142.6 421.5,135.3 426.5,135.3 419.9,144.1 427.9,154.1 422.5,154.1 416.2,145.7 
				415.1,145.7 415.1,154.1 410.6,154.1 410.6,127.2 415.1,127.2 			"/>
			<path class="st0" d="M455.2,151.4h-0.1c-1.2,2.5-3.6,2.9-5.9,2.9c-6.4,0-7.2-3.5-7.2-9c0-5.8,0.2-10.1,7.2-10.1
				c2.6,0,4.7,0.6,5.9,3h0.1l-0.2-2.8h4.5V154c0,6.8-2.1,8.4-9,8.4c-4.6,0-8-0.8-7.7-6.4h4.2c0,2.6,1,3,3.5,3c3.8,0,4.6-0.8,4.6-4
				V151.4z M446.5,144.1c0,4.3,0,6.7,4,6.7c4.5,0,4.5-2.3,4.5-6.7c0-4-0.6-5.6-4.5-5.6C447.4,138.5,446.5,139.4,446.5,144.1"/>
			<path class="st0" d="M468.5,135.3v2.7h0.1c1-2.4,3.5-2.9,5.9-2.9s5.1,0.6,5.6,3.3h0.1c0.9-2.6,3.4-3.3,5.9-3.3
				c4.9,0,6.5,1.7,6.5,6.3v12.7h-4.5v-12.3c-0.1-2.4-0.7-3.3-3.1-3.3c-3.6,0-4.4,1.6-4.4,5v10.6h-4.5v-12.3
				c-0.1-2.4-0.7-3.3-3.1-3.3c-3.6,0-4.4,1.6-4.4,5v10.6h-4.5v-18.8H468.5z"/>
			<path class="st0" d="M497.1,127.2h4.5v10.5h0.2c1-2.3,3.4-2.7,5.6-2.7c6.4,0,7.2,3.5,7.2,9c0,5.8-0.2,10.1-7.2,10.1
				c-2.6,0-4.7-0.6-5.9-3h-0.1l0.2,2.8h-4.5V127.2z M501.6,144.1c0,4.5-0.1,6.7,4.5,6.7c4.1,0,4-2.5,4-6.7c0-4.7-0.9-5.6-4-5.6
				C502.2,138.5,501.6,140.1,501.6,144.1"/>
			<path class="st0" d="M523.1,138.1h0.1c1-2.8,3.3-3,5.9-3c4.9,0,6.4,2,6.4,6.6v12.4h-4.5v-11.9c0-2.7-0.6-3.6-3.5-3.6
				c-3.9,0-4.5,1.9-4.5,5.2v10.3h-4.5v-26.8h4.5V138.1z"/>
		</g>
	</g>
	<path class="st0" d="M811.1,123.4c0,12.2-9.9,22.1-22.1,22.1h-66.4c-12.2,0-22.1-9.9-22.1-22.1V57c0-12.2,9.9-22.1,22.1-22.1H789
		c12.2,0,22.1,9.9,22.1,22.1V123.4z"/>
	<path class="st1" d="M811.1,123.4h-4.9c0,4.8-1.9,9-5,12.2c-3.1,3.1-7.4,5-12.2,5h-66.4c-4.8,0-9-1.9-12.2-5c-3.1-3.1-5-7.4-5-12.2
		V57c0-4.8,1.9-9,5-12.2c3.1-3.1,7.4-5,12.2-5H789c4.8,0,9,1.9,12.2,5c3.1,3.1,5,7.4,5,12.2v66.4H811.1h4.9V57
		c0-7.5-3-14.3-7.9-19.1C803.3,33,796.5,30,789,30h-66.4c-7.5,0-14.3,3-19.1,7.9c-4.9,4.9-7.9,11.7-7.9,19.1v66.4
		c0,7.5,3,14.3,7.9,19.1c4.9,4.9,11.7,7.9,19.1,7.9H789c7.5,0,14.3-3,19.1-7.9c4.9-4.9,7.9-11.7,7.9-19.1H811.1z"/>
	<path class="st0" d="M944.2,123.4c0,12.2-9.9,22.1-22.1,22.1h-66.4c-12.2,0-22.1-9.9-22.1-22.1V57c0-12.2,9.9-22.1,22.1-22.1h66.4
		c12.2,0,22.1,9.9,22.1,22.1V123.4z"/>
	<path class="st1" d="M944.2,123.4h-4.9c0,4.8-1.9,9-5,12.2c-3.1,3.1-7.4,5-12.2,5h-66.4c-4.8,0-9-1.9-12.2-5c-3.1-3.1-5-7.4-5-12.2
		V57c0-4.8,1.9-9,5-12.2c3.1-3.1,7.4-5,12.2-5h66.4c4.8,0,9,1.9,12.2,5c3.1,3.1,5,7.4,5,12.2v66.4H944.2h4.9V57
		c0-7.5-3-14.3-7.9-19.1c-4.9-4.9-11.7-7.9-19.1-7.9h-66.4c-7.5,0-14.3,3-19.1,7.9c-4.9,4.9-7.9,11.7-7.9,19.1v66.4
		c0,7.5,3,14.3,7.9,19.1c4.9,4.9,11.7,7.9,19.1,7.9h66.4c7.5,0,14.3-3,19.1-7.9c4.9-4.9,7.9-11.7,7.9-19.1H944.2z"/>
	<path class="st0" d="M680.2,123.4c0,12.2-9.9,22.1-22.1,22.1h-66.4c-12.2,0-22.1-9.9-22.1-22.1V57c0-12.2,9.9-22.1,22.1-22.1H658
		c12.2,0,22.1,9.9,22.1,22.1V123.4z"/>
	<path class="st1" d="M680.2,123.4h-4.9c0,4.8-1.9,9-5,12.2c-3.1,3.1-7.4,5-12.2,5h-66.4c-4.8,0-9-1.9-12.2-5c-3.1-3.1-5-7.4-5-12.2
		V57c0-4.8,1.9-9,5-12.2c3.1-3.1,7.4-5,12.2-5H658c4.8,0,9,1.9,12.2,5c3.1,3.1,5,7.4,5,12.2v66.4H680.2h4.9V57
		c0-7.5-3-14.3-7.9-19.1C672.3,33,665.5,30,658,30h-66.4c-7.5,0-14.3,3-19.1,7.9c-4.9,4.9-7.9,11.7-7.9,19.1v66.4
		c0,7.5,3,14.3,7.9,19.1c4.9,4.9,11.7,7.9,19.1,7.9H658c7.5,0,14.3-3,19.1-7.9c4.9-4.9,7.9-11.7,7.9-19.1H680.2z"/>
	<path class="st2" d="M778.3,73.3H775c0,5.7-2.3,10.8-6,14.6c-3.7,3.7-8.9,6-14.6,6c-5.7,0-10.9-2.3-14.6-6c-3.7-3.7-6-8.9-6-14.6
		c0-5.7,2.3-10.9,6-14.6c3.7-3.7,8.9-6,14.6-6c5.7,0,10.8,2.3,14.6,6c3.7,3.7,6,8.9,6,14.6H778.3h3.2c0-7.5-3-14.2-7.9-19.1
		c-4.9-4.9-11.7-7.9-19.1-7.9c-14.9,0-27.1,12.1-27.1,27.1c0,7.5,3,14.2,7.9,19.1c4.9,4.9,11.7,7.9,19.1,7.9
		c14.9,0,27.1-12.1,27.1-27.1H778.3z"/>
	<path class="st2" d="M778.3,106.2H775c0,5.7-2.3,10.8-6,14.6c-3.7,3.7-8.9,6-14.6,6c-5.7,0-10.8-2.3-14.6-6c-3.7-3.7-6-8.9-6-14.6
		c0-5.7,2.3-10.8,6-14.6c3.7-3.7,8.9-6,14.6-6c5.7,0,10.8,2.3,14.6,6c3.7,3.7,6,8.9,6,14.6H778.3h3.2c0-7.5-3-14.2-7.9-19.1
		c-4.9-4.9-11.7-7.9-19.1-7.9c-7.5,0-14.2,3-19.1,7.9c-4.9,4.9-7.9,11.7-7.9,19.1c0,7.5,3,14.2,7.9,19.1c4.9,4.9,11.7,7.9,19.1,7.9
		c7.5,0,14.2-3,19.1-7.9c4.9-4.9,7.9-11.7,7.9-19.1H778.3z"/>
	<path class="st2" d="M641,89.6h-1.5c0,4.2-1.7,8-4.4,10.7c-2.7,2.7-6.5,4.4-10.7,4.4c-4.2,0-8-1.7-10.7-4.4
		c-2.7-2.7-4.4-6.5-4.4-10.7c0-4.2,1.7-8,4.4-10.7c2.7-2.7,6.5-4.4,10.7-4.4c4.2,0,8,1.7,10.7,4.4c2.7,2.7,4.4,6.5,4.4,10.7H641h1.5
		c0-10-8.1-18.2-18.2-18.2c-10,0-18.2,8.1-18.2,18.2c0,10,8.1,18.2,18.2,18.2c10,0,18.2-8.1,18.2-18.2H641z"/>
	<polyline class="st2" points="627.6,132.7 627.6,112.6 621,112.6 621,132.7 	"/>
	<polyline class="st2" points="627.6,67.2 627.6,47.1 621,47.1 621,67.2 	"/>
	<polyline class="st2" points="667.1,86.2 647,86.2 647,92.9 667.1,92.9 	"/>
	<polyline class="st2" points="605.5,104.4 591.3,118.6 596,123.3 610.2,109.1 	"/>
	<polyline class="st2" points="652.5,56.3 638.3,70.5 643,75.2 657.2,61 	"/>
	<polyline class="st2" points="657.9,118.4 643.7,104.2 639,109 653.2,123.1 	"/>
	<polyline class="st2" points="609.4,70.9 595.3,56.7 590.5,61.5 604.7,75.6 	"/>
	<polyline class="st2" points="601.7,86.2 581.6,86.2 581.6,92.9 601.7,92.9 	"/>
	<polygon class="st2" points="881,46.9 895.7,46.9 881.8,82.5 902.7,73.2 891.8,118.9 897.9,120.2 886.7,134.5 881,116.6 
		887.2,117.9 889.5,87.2 870.9,95.7 	"/>
</g>
</svg>
