<svg id="Ebene_1" xmlns="http://www.w3.org/2000/svg" viewBox="0 0 1000 301"><style>.st0{fill:#f4f4f0}</style><path class="st0" d="M735.9 196.8c-.9.5-1.9 1-2.8 1.5 1.5.1 3 .2 4.5.2.9-.5 1.8-1 2.6-1.5-1.4-.1-2.9-.1-4.3-.2m-5.4-.3c-1 .5-2 1-3 1.4 1.4.1 2.9.2 4.3.3.9-.5 1.9-1 2.8-1.5-1.3 0-2.7-.1-4.1-.2m-5.3-.3c-1.1.5-2.1.9-3.2 1.4 1.4.1 2.9.2 4.3.3 1-.5 2-.9 3-1.4-1.4-.2-2.8-.2-4.1-.3m-5.5-.4c-1.1.5-2.3.9-3.4 1.3 1.3.1 2.7.2 4 .3 1.1-.5 2.1-.9 3.2-1.4-1.2 0-2.5-.1-3.8-.2m-5.6-.4c-1.2.4-2.4.8-3.7 1.3l4.2.3c1.1-.4 2.3-.9 3.4-1.3l-3.9-.3m-5.5-.4l-3.9 1.2c1.4.1 2.8.2 4.2.4 1.2-.4 2.4-.8 3.7-1.3-1.4-.1-2.7-.2-4-.3m-5.5-.5l-4.2 1.2c1.4.1 2.7.3 4.1.4l3.9-1.2c-1.2-.2-2.5-.3-3.8-.4m-5.5-.5c-1.5.4-3.1.7-4.6 1.1 1.3.1 2.7.3 4 .4 1.4-.4 2.8-.7 4.3-1.1-1.2-.2-2.5-.3-3.7-.4m-5.7-.5c-1.6.3-3.2.7-4.8 1 1.1.1 2.3.2 3.4.4 1.5-.4 3-.7 4.6-1.1-1.1-.1-2.1-.2-3.2-.3m-5.8-.5c-1.6.3-3.3.5-4.9.8l2.4.3 4.5-.9c-.7-.1-1.3-.2-2-.2m-5.8-.6c-1.7.2-3.4.4-5.1.7.6.1 1.3.2 1.9.2 1.5-.2 3.1-.5 4.6-.7-.5-.1-.9-.2-1.4-.2m-5.9-.6c-1.7.2-3.5.3-5.2.5.7.1 1.4.2 2 .3 1.6-.2 3.2-.4 4.7-.6-.4-.1-1-.1-1.5-.2m-5.9-.6c-1.8.1-3.5.2-5.3.3.5.1.9.1 1.4.2 1.6-.1 3.2-.3 4.7-.4-.2-.1-.5-.1-.8-.1m-6.4-.8c-1.8.1-3.6.1-5.4.2.3 0 .7.1 1 .1 1.6-.1 3.1-.2 4.7-.3-.1.1-.2 0-.3 0m-5.9-.7h-5.5c.3 0 .6.1.9.1 1.6 0 3.2-.1 4.8-.1h-.2m343.8-25.1c-70.2 22.2-144.2 33.3-221.7 33.3-12.2 0-24.6-.3-37-.8-.9.5-1.8 1-2.6 1.5 14.1.7 28.2 1.1 42.1 1.1 37.4 0 74-2.6 109.4-7.7 37.4-5.4 74.1-13.7 109.8-24.8v-2.6zm-834.8-101l4.2 2.4c85.3 18.2 187.4 47.3 326 88.7 19.5 5.8 38.8 11.1 58 15.8 22.7 5.1 45.1 9.5 67.3 13 .7.1 1.5.2 2.2.3-41.5-7.3-83.8-17.4-127.1-30.4-143.9-43-246.5-72-330.6-89.8m-13.5-2.8c1.5.8 3.1 1.6 4.6 2.4 3.8.8 7.7 1.6 11.6 2.4-1.4-.8-2.8-1.6-4.3-2.4-4-.8-8-1.6-11.9-2.4m-13.4-2.6c1.7.8 3.4 1.6 5 2.5l10.5 2.1c-1.6-.8-3.1-1.6-4.7-2.4-3.6-.9-7.2-1.6-10.8-2.2m-13.7-2.6c1.9.8 3.7 1.7 5.5 2.5 3.5.6 7 1.3 10.6 2-1.7-.9-3.4-1.7-5.2-2.5-3.7-.7-7.3-1.4-10.9-2m-13.9-2.4c2.1.8 4.1 1.7 6.1 2.6 3.4.6 6.9 1.2 10.3 1.8-1.9-.9-3.8-1.7-5.7-2.6-3.6-.6-7.1-1.2-10.7-1.8M97.1 51c2.3.9 4.5 1.7 6.8 2.6 3.2.5 6.4 1 9.7 1.6-2.1-.9-4.2-1.8-6.4-2.6-3.4-.5-6.7-1.1-10.1-1.6m-14.6-2.1c2.6.9 5.1 1.7 7.6 2.7 3.3.5 6.7 1 10 1.5-2.3-.9-4.7-1.8-7.1-2.7-3.5-.5-7-1.1-10.5-1.5M68.3 47c2.9.9 5.7 1.7 8.5 2.7 3 .4 6.1.8 9.1 1.3-2.6-.9-5.3-1.8-8-2.7-3.2-.5-6.4-.9-9.6-1.3m-14.7-1.7c3.2.8 6.4 1.7 9.6 2.6 2.9.3 5.8.7 8.7 1.1l-9-2.7c-3.2-.3-6.2-.7-9.3-1m-14.5-1.4c3.6.8 7.2 1.7 10.7 2.6 3.1.3 6.2.7 9.3 1-3.3-.9-6.6-1.8-9.9-2.6-3.4-.4-6.7-.7-10.1-1m-15.6-1.2c4.1.8 8.1 1.6 12.1 2.5l6.9.6c-3.9-.9-7.8-1.8-11.8-2.6-2.5-.2-4.8-.4-7.2-.5m-16.1-1c4.6.7 9.2 1.5 13.7 2.3 1.1.1 2.3.2 3.5.2-4.7-.9-9.5-1.7-14.4-2.4-.9 0-1.8-.1-2.8-.1M0 41.4v1.5-.7c2.2.3 4.3.6 6.4.9 2.5.1 5 .3 7.6.4-4.6-.7-9.3-1.4-14-2.1z"/><path class="st0" d="M738.6 195.4c-.5.3-1.1.6-1.7.9 1.4 0 2.9.1 4.3.1l1.5-.9c-1.3-.1-2.7-.1-4.1-.1m-5.3-.3l-1.8.9c1.4.1 2.8.1 4.2.2.5-.3 1.1-.6 1.7-.9-1.4 0-2.7-.1-4.1-.2m-5.2-.2c-.7.3-1.3.6-2 .9 1.4.1 2.8.1 4.1.2l1.8-.9c-1.3-.1-2.6-.1-3.9-.2m-5.4-.3c-.7.3-1.4.6-2.2.8 1.3.1 2.6.1 3.8.2.7-.3 1.3-.6 2-.8-1.1 0-2.4-.1-3.6-.2m-5.5-.3c-.8.3-1.6.6-2.4.8 1.3.1 2.7.2 4 .2.7-.3 1.5-.6 2.2-.8-1.3 0-2.6-.1-3.8-.2m-5.4-.3c-.9.3-1.7.5-2.6.8 1.3.1 2.7.2 4 .3.8-.3 1.6-.6 2.4-.8-1.3-.2-2.6-.2-3.8-.3m-5.5-.4c-1 .3-1.9.5-2.9.8l3.9.3c.9-.3 1.8-.5 2.6-.8-1.1-.1-2.3-.2-3.6-.3m-5.4-.4c-1.1.2-2.1.5-3.2.7l3.9.3c1-.3 1.9-.5 2.9-.8-1.2 0-2.4-.1-3.6-.2m-5.4-.4c-1.2.2-2.4.5-3.5.7 1 .1 2.1.2 3.1.3 1.1-.2 2.1-.5 3.2-.7-.9-.2-1.9-.3-2.8-.3m-5.4-.5c-1.3.2-2.6.4-4 .7.6.1 1.3.1 1.9.2 1.2-.2 2.3-.5 3.5-.7-.4-.1-.9-.2-1.4-.2m-5.3-.5l-4.5.6c.5 0 1 .1 1.5.1 1.3-.2 2.6-.4 3.9-.7-.3.1-.6 0-.9 0m-5.3-.5c-1.7.2-3.4.3-5.1.5.5 0 1.1.1 1.6.2l4.5-.6c-.3 0-.7-.1-1-.1m-5.7-.5c-1.8.1-3.5.2-5.3.4.3 0 .5.1.8.1 1.5-.1 3.1-.3 4.6-.4 0-.1 0-.1-.1-.1m-9.7-.4c-.6 0-1.3 0-1.9.1h.3c.5-.1 1-.1 1.6-.1m-6.8-.7h-1.1 1.1M1000 160c-72.6 23.9-149.6 35.9-231 35.9-8.3 0-16.7-.1-25-.4l-1.5.9c8.3.2 16.5.4 24.7.4 42 0 83-3.1 122.4-9.4 37.7-6 74.7-14.9 110.5-26.7v-.7h-.1zM179.8 72.2l3.3 2.1c61 14.3 130.8 33.4 217.1 57 32.2 8.8 65.5 17.9 102 27.8 22 6 43.9 11.2 65.6 15.8 17.8 3.4 35.5 6.3 52.9 8.7-22.1-3.6-44.5-7.9-67.3-13-16.8-3.8-33.8-8-50.9-12.6-36.5-9.9-69.8-19-102-27.8-88.4-24.3-159.2-43.7-220.7-58m-12.9-3c1.2.7 2.4 1.4 3.5 2.1 3.7.8 7.4 1.7 11.2 2.6l-3.3-2.1c-3.9-.9-7.7-1.7-11.4-2.6m-12.7-2.8c1.3.7 2.6 1.4 3.8 2.2 3.4.7 6.7 1.5 10.1 2.3l-3.6-2.1c-3.4-.9-6.9-1.6-10.3-2.4m-13-2.8c1.4.7 2.8 1.5 4.2 2.2 3.4.7 6.8 1.4 10.2 2.2-1.3-.7-2.6-1.5-3.9-2.2-3.5-.7-7-1.4-10.5-2.2m-13-2.6c1.6.7 3.1 1.5 4.6 2.3 3.3.7 6.6 1.3 9.9 2.1-1.4-.8-2.9-1.5-4.3-2.2-3.4-.8-6.8-1.5-10.2-2.2m-12.8-2.5c1.7.8 3.4 1.5 5.1 2.3 3.1.6 6.2 1.2 9.4 1.8-1.6-.8-3.2-1.5-4.8-2.3-3.2-.6-6.5-1.2-9.7-1.8M101.8 56l5.7 2.4c3.2.6 6.4 1.2 9.7 1.8-1.8-.8-3.5-1.6-5.3-2.4-3.4-.6-6.8-1.2-10.1-1.8m-13.2-2.3c2.2.8 4.3 1.6 6.5 2.5l8.7 1.5-6-2.4c-3.1-.5-6.2-1.1-9.2-1.6m-13.8-2.1c2.4.8 4.9 1.6 7.3 2.5 2.7.4 5.5.9 8.2 1.3-2.2-.8-4.5-1.7-6.8-2.5-2.8-.4-5.8-.9-8.7-1.3m-13.6-2c2.8.8 5.5 1.7 8.3 2.5 2.9.4 5.8.9 8.8 1.3-2.5-.9-5-1.7-7.5-2.5-3.3-.4-6.4-.8-9.6-1.3m-14.7-1.8c3.2.8 6.4 1.7 9.5 2.6l6.9.9c-3-.9-6-1.8-9-2.6-2.5-.3-4.9-.6-7.4-.9m-15.3-1.7c3.7.8 7.4 1.7 11 2.6 1.4.2 2.9.3 4.3.5-3.6-.9-7.3-1.8-11.1-2.6-1.3-.2-2.7-.4-4.2-.5m-15.9-1.4c4.4.8 8.7 1.6 13 2.5 2.5.2 4.9.5 7.4.7-3.9-.9-7.9-1.8-12-2.6l-8.4-.6M0 43.6V45v-.1c.5.1 1 .1 1.5.2 1.4.1 2.8.2 4.3.3-1.9-.3-3.9-.6-5.8-.9v-.9c5.1.7 10.1 1.5 15.2 2.5.8.1 1.5.1 2.3.2-5.1-.9-10.2-1.8-15.4-2.5-.7-.1-1.4-.1-2.1-.2"/><path class="st0" d="M743.4 192.8c-.9.5-1.7.9-2.6 1.4h4.2c.8-.5 1.6-.9 2.4-1.4h-4m-5.1 0c-.9.4-1.8.9-2.8 1.3 1.3 0 2.7 0 4 .1.9-.5 1.7-.9 2.6-1.3-1.3-.1-2.6-.1-3.8-.1m-5.1-.1c-1 .4-2 .9-3 1.3 1.3 0 2.6.1 4 .1.9-.4 1.8-.9 2.8-1.3-1.3-.1-2.6-.1-3.8-.1m-5.2-.1c-1.1.4-2.1.8-3.2 1.3 1.2 0 2.4.1 3.6.1 1-.4 2-.9 3-1.3-1.1-.1-2.3-.1-3.4-.1m-5.4-.2c-1.1.4-2.3.8-3.5 1.2 1.3 0 2.6.1 3.8.1 1.1-.4 2.1-.8 3.2-1.3-1.1.1-2.3 0-3.5 0m-5.2-.2c-1.3.4-2.5.8-3.8 1.2 1.3.1 2.5.1 3.8.2 1.2-.4 2.3-.8 3.5-1.2-1.2-.1-2.4-.1-3.5-.2m-5.3-.2c-1.4.4-2.7.8-4.1 1.1.8 0 1.7.1 2.5.1.4 0 .8 0 1.3.1 1.3-.4 2.5-.8 3.8-1.2-1.2 0-2.3-.1-3.5-.1m-5.2-.2c-1.5.4-3 .7-4.5 1.1 1.2.1 2.5.1 3.7.2 1.4-.4 2.8-.8 4.1-1.1-1.1-.1-2.2-.2-3.3-.2m-5.4-.3c-1.6.3-3.2.7-4.8 1 1 .1 1.9.1 2.9.2 1.5-.4 3-.7 4.5-1.1-.9 0-1.7-.1-2.6-.1m-5.5-.2c-1.6.3-3.3.6-4.9.8.5 0 1 .1 1.5.1 1.5-.3 2.9-.6 4.4-.9h-1m-5.6-.3c-1.7.2-3.4.5-5 .7.3 0 .6 0 .9.1 1.5-.2 2.9-.5 4.4-.7-.2-.1-.2-.1-.3-.1m-15.8-.3c-.3 0-.5 0-.8.1h.1c.3 0 .5 0 .7-.1m10.2 0c-1.7.2-3.4.4-5.2.6.3 0 .7.1 1 .1l4.5-.6c-.1-.1-.2-.1-.3-.1m315.2-38.9c-77.8 27.4-160.7 41-249.1 41h-2.3c-.8.5-1.6.9-2.4 1.4h6.1c47 0 92.8-3.8 136.5-11.4 38-6.6 75.3-16.3 111.2-28.7v-2.3zM192.6 80.6c.9.6 1.8 1.3 2.8 1.9 29.5 7.5 61.2 15.9 95.9 25.1 62 16.5 132.2 35.1 217.7 55.7 25.8 6.2 51.4 11.5 76.6 15.9 17 2.6 33.9 4.8 50.5 6.5 1.8.1 3.5.3 5.3.4-6.1-.7-12.3-1.5-18.4-2.4-.7-.1-1.5-.2-2.2-.3-17.5-2.4-35.1-5.3-52.9-8.7-19.3-3.7-38.8-7.9-58.5-12.6-85.5-20.6-155.7-39.3-217.7-55.7-36-9.4-68.7-18.1-99.1-25.8m-12.4-3.1c1 .7 2 1.3 3 2 3.6.9 7.1 1.8 10.8 2.7-.9-.7-1.9-1.3-2.8-1.9-3.7-1-7.4-1.9-11-2.8m-12.1-2.9c1.1.7 2.1 1.3 3.2 2 3.3.8 6.5 1.6 9.8 2.4-1-.7-2-1.3-3-2-3.3-.8-6.7-1.6-10-2.4m-12.4-3c1.2.7 2.3 1.4 3.5 2.1l9.9 2.4c-1.1-.7-2.2-1.4-3.3-2-3.3-.9-6.7-1.7-10.1-2.5m-12.3-2.9c1.3.7 2.6 1.4 3.8 2.1 3.2.7 6.4 1.5 9.6 2.2l-3.6-2.1c-3.3-.6-6.6-1.4-9.8-2.2M131.2 66c1.4.7 2.8 1.4 4.2 2.2 3 .7 6 1.4 9.1 2.1l-3.9-2.1c-3.2-.8-6.3-1.5-9.4-2.2m-12.9-2.8c1.6.7 3.1 1.5 4.7 2.2 3.1.7 6.2 1.3 9.3 2-1.4-.7-2.9-1.5-4.3-2.2-3.3-.6-6.5-1.3-9.7-2M106 60.7c1.8.7 3.5 1.5 5.2 2.3 2.8.6 5.5 1.2 8.3 1.7-1.6-.8-3.2-1.5-4.9-2.3-2.9-.6-5.8-1.2-8.6-1.7m-13-2.6c2 .8 4 1.6 5.9 2.4 2.6.5 5.2 1 7.8 1.6-1.8-.8-3.6-1.6-5.5-2.3-2.7-.6-5.4-1.2-8.2-1.7m-12.9-2.4c2.3.8 4.5 1.6 6.7 2.4 2.7.5 5.5 1 8.2 1.6-2-.8-4-1.6-6.1-2.4-2.9-.5-5.9-1-8.8-1.6m-13.9-2.3c2.6.8 5.2 1.7 7.7 2.5 2.3.4 4.5.8 6.8 1.2-2.4-.9-4.8-1.7-7.2-2.5-2.4-.4-4.9-.8-7.3-1.2m-14.4-2.3c3 .8 6.1 1.7 9.1 2.6 1.6.2 3.1.5 4.7.8-2.9-.9-5.8-1.8-8.8-2.6-1.7-.3-3.3-.5-5-.8m-15.2-2c3.6.8 7.2 1.7 10.8 2.7 2.3.3 4.6.7 6.9 1-3.2-.9-6.4-1.8-9.7-2.6-2.7-.4-5.3-.8-8-1.1M22 47.3c4.3.8 8.6 1.7 12.8 2.7l2.4.3c-4.1-1-8.3-1.9-12.5-2.7-.8-.1-1.8-.2-2.7-.3M6 45.8c5.4.8 10.7 1.8 15.9 2.8 1.1.1 2.3.2 3.4.4-4.7-1-9.5-1.9-14.3-2.7-1.7-.2-3.3-.4-5-.5m-6-.5v1.2-1.2z"/><path class="st0" d="M736.2 191.4c-.6.3-1.3.6-1.9.8h3.8c.6-.3 1.1-.6 1.7-.8h-3.6m8.7-.1h-3.7c-.6.3-1.1.6-1.7.8h3.8c.5-.2 1.1-.5 1.6-.8m-13.8 0c-.7.3-1.4.6-2.1.8h3.4c.6-.3 1.2-.6 1.9-.8h-3.2m19.1 0h-3.9c-.5.3-1 .5-1.5.8h4.1c.3-.3.8-.6 1.3-.8m-24.4 0c-.8.3-1.5.6-2.3.8h3.7c.7-.3 1.4-.6 2.1-.8h-3.5m-5.2-.1c-.9.3-1.7.5-2.6.8 1.2 0 2.4 0 3.6.1.8-.3 1.6-.6 2.3-.8-1-.1-2.2-.1-3.3-.1m-5.1-.1c-1 .3-1.9.5-2.9.8h.9c.9 0 1.8 0 2.6.1.9-.3 1.7-.5 2.6-.8-1-.1-2.1-.1-3.2-.1m-5.2-.2c-1.1.3-2.2.5-3.2.8 1.2 0 2.3.1 3.5.1 1-.3 2-.5 2.9-.8-1.1 0-2.1-.1-3.2-.1m-18.2-.1l-1.8.3h.3l1.5-.3m13.1-.1c-1.2.3-2.4.5-3.7.8.8 0 1.7.1 2.5.1 1.1-.3 2.2-.5 3.3-.8-.7 0-1.4 0-2.1-.1m-5-.1c-1.4.2-2.8.5-4.2.7h.9c1.2-.2 2.4-.5 3.6-.8-.1.1-.2.1-.3.1m-12.7-.2l-2.7.3h.4c.7 0 1.5-.2 2.3-.3m312.5-43.5c-77.1 28.4-159.9 43.1-248.6 44.4-.5.3-.9.5-1.4.8 47.7-.7 93.9-5.3 138-13.7 38.4-7.3 75.9-17.7 112-30.9v-.6zm-796-58c.8.6 1.7 1.3 2.5 1.9 9.1 2.5 18.5 5 28.1 7.6 73 19.9 163.7 44.6 281.1 69.3 26.6 5.6 53 10.3 78.9 14 14 1.6 27.8 3 41.5 4.1-16.7-1.8-33.5-3.9-50.5-6.5-22.8-3.5-46-7.7-69.6-12.7-117.3-24.7-208.1-49.5-281-69.3-10.6-2.9-20.9-5.7-31-8.4m-11.9-3.2c.9.6 1.8 1.3 2.7 1.9 3.4.9 6.9 1.9 10.4 2.8-.8-.6-1.7-1.3-2.5-1.9-3.6-1-7.1-1.9-10.6-2.8m-11.7-3.2c1 .7 1.9 1.3 2.9 2 3.2.8 6.3 1.7 9.5 2.5-.9-.7-1.8-1.3-2.7-1.9-3.2-.8-6.5-1.7-9.7-2.6m-11.9-3.1c1.1.7 2.1 1.4 3.2 2 3.1.8 6.3 1.7 9.5 2.5-1-.7-2-1.3-3-2-3.2-.8-6.4-1.6-9.7-2.5m-11.8-3.1c1.2.7 2.3 1.4 3.5 2.1 3.1.8 6.1 1.6 9.2 2.4-1.1-.7-2.2-1.4-3.2-2.1-3.2-.7-6.4-1.5-9.5-2.4M145 73.4c1.3.7 2.6 1.4 3.8 2.2 2.9.7 5.8 1.5 8.7 2.2l-3.6-2.1c-2.9-.8-5.9-1.6-8.9-2.3m-12.2-3c1.4.7 2.9 1.5 4.3 2.3 2.9.7 5.9 1.5 8.8 2.2-1.3-.7-2.6-1.5-3.9-2.2-3.1-.8-6.2-1.6-9.2-2.3m-11.7-2.9c1.6.8 3.2 1.6 4.8 2.3 2.6.6 5.3 1.3 7.9 1.9-1.5-.8-2.9-1.5-4.4-2.3-2.8-.6-5.6-1.2-8.3-1.9m-12.2-2.8c.5.2 1 .5 1.6.7l3.9 1.8c2.5.6 4.9 1.1 7.4 1.7-1.7-.8-3.3-1.6-5-2.4-2.7-.6-5.3-1.2-7.9-1.8M96.6 62c2.1.8 4.2 1.7 6.3 2.6 2.5.6 5 1.1 7.6 1.7-1.9-.8-3.7-1.7-5.6-2.5-2.9-.6-5.6-1.2-8.3-1.8m-13.1-2.8c2.5.9 4.9 1.8 7.3 2.7 2.1.4 4.2.9 6.3 1.4-2.2-.9-4.5-1.8-6.7-2.7-2.2-.4-4.6-.9-6.9-1.4M70 56.6c2.9 1 5.9 1.9 8.8 2.9 1.5.3 3.1.6 4.6.9-2.7-1-5.5-1.9-8.3-2.9l-5.1-.9M55.6 54c3.6 1 7.2 2.1 10.7 3.2 2 .4 3.9.7 5.9 1.1-3.1-1-6.2-2-9.4-3-2.4-.5-4.8-.9-7.2-1.3m-13.7-2.3c4.4 1.1 8.8 2.2 13.2 3.4.6.1 1.2.2 1.9.3-4.1-1.2-8.2-2.3-12.4-3.3-.9-.1-1.8-.2-2.7-.4m-15-2.2c5.7 1.2 11.3 2.4 16.9 3.8.5.1 1 .2 1.6.2-4.9-1.2-9.8-2.4-14.8-3.5-1.2-.1-2.5-.3-3.7-.5M0 46.4v1.4V46.4z"/><path class="st0" d="M703 190c-.7.1-1.4.3-2.1.4h.3c.6-.1 1.2-.2 1.8-.4m9.9-.5h-1.8c-1.6.3-3.2.7-4.8 1h2.2c1.5-.3 2.9-.7 4.4-1m6.6-.1h-.1c-1 0-2 0-3 .1-1.5.4-3.1.8-4.7 1.2h3.3c1.5-.5 3-.9 4.5-1.3m5.3-.2c-1.1 0-2.1.1-3.2.1-1.5.4-3 .9-4.5 1.3H720.5c1.5-.5 2.9-.9 4.3-1.4m5.3-.1c-1.1 0-2.1.1-3.2.1-1.5.5-2.9 1-4.4 1.4h3.4l4.2-1.5m5.2-.2c-1.1 0-2.2.1-3.3.1-1.4.5-2.9 1-4.3 1.5h3.5c1.4-.5 2.7-1.1 4.1-1.6m5.1-.2c-1 0-2 .1-3 .1-1.4.6-2.8 1.1-4.2 1.7h3.2c1.4-.7 2.7-1.3 4-1.8m5.5-.3c-1.1.1-2.3.1-3.4.2-1.4.6-2.7 1.2-4.1 1.8 1.2 0 2.4 0 3.6-.1 1.3-.6 2.6-1.3 3.9-1.9m4.9-.2c-.9 0-1.9.1-2.8.1h-.6c-1.3.6-2.6 1.3-3.9 1.9 1.2 0 2.4-.1 3.7-.1 1.1-.6 2.4-1.3 3.6-1.9m5.1-.2c-1.2 0-2.4.1-3.7.2-1.2.7-2.5 1.3-3.7 2 1.3 0 2.6-.1 3.9-.1 1.2-.8 2.4-1.5 3.5-2.1m244.1-50.3c-72 28.1-152.5 45.9-242.9 50.2-1.1.7-2.3 1.3-3.5 2 46.2-1.8 90.9-7.1 133.4-15.9 38.8-8 76.6-19.2 112.9-33.2v-3.1h.1zM214.5 97c.8.6 1.5 1.2 2.3 1.9 77.9 22.5 174.4 49.6 305.7 73.3 31.4 5.7 62.4 10 92.6 13.1 18.7 1.5 37.1 2.5 55.2 3 1.4 0 2.9-.1 4.3-.1-11-.4-22.1-1.1-33.3-1.9-1.8-.1-3.5-.3-5.3-.4-13.6-1.1-27.4-2.4-41.5-4.1-23.4-2.8-47.4-6.3-71.9-10.7C390 147 292.9 119.6 214.5 97m-11.6-3.4c.8.6 1.7 1.3 2.5 1.9 3.3 1 6.7 1.9 10 2.9-.8-.6-1.5-1.2-2.3-1.9-2.9-.8-5.8-1.7-8.7-2.5-.5-.1-1-.2-1.5-.4m-11.4-3.3c.9.7 1.8 1.3 2.7 2l9.3 2.7c-.8-.6-1.7-1.3-2.5-1.9-3.2-.9-6.3-1.9-9.5-2.8M180.1 87c1 .7 2 1.4 2.9 2 3 .9 6.1 1.8 9.2 2.7-.9-.7-1.8-1.3-2.7-2-3.2-.9-6.3-1.8-9.4-2.7m-11.5-3.2c1.1.7 2.2 1.4 3.2 2.1 3 .8 5.9 1.7 8.9 2.5-1-.7-2-1.4-3-2-3-.9-6.1-1.8-9.1-2.6m-11.3-3.2c1.2.7 2.4 1.5 3.6 2.2l8.4 2.4-3.3-2.1c-2.9-.9-5.8-1.7-8.7-2.5m-11.7-3.3c1.4.8 2.7 1.5 4 2.3L158 82c-1.2-.7-2.4-1.5-3.7-2.2-2.8-.9-5.8-1.7-8.7-2.5m-11.3-3.1l4.5 2.4c2.5.7 5.1 1.4 7.6 2.1-1.4-.8-2.8-1.6-4.2-2.3-2.6-.7-5.3-1.5-7.9-2.2m-11.7-3.1c1.7.8 3.4 1.7 5.2 2.5 2.4.6 4.7 1.3 7.1 1.9-1.6-.8-3.1-1.6-4.7-2.5-2.6-.6-5.1-1.3-7.6-1.9M110.8 68l6 2.7c2.3.6 4.7 1.2 7 1.8-1.8-.9-3.5-1.7-5.3-2.6-2.6-.6-5.2-1.2-7.7-1.9m-12.5-3.1c2.4 1 4.7 1.9 7 2.9 2 .5 3.9 1 5.9 1.5-2.1-.9-4.2-1.9-6.4-2.8-2.1-.5-4.3-1-6.5-1.6m-13-3.1c2.8 1 5.7 2.1 8.5 3.2 1.4.3 2.9.7 4.3 1-2.6-1-5.2-2.1-7.8-3-1.7-.4-3.3-.8-5-1.2m-13.8-3c3.5 1.1 7 2.3 10.5 3.5 1.7.4 3.3.8 5 1.1-3-1.1-6-2.2-9-3.2-2.2-.5-4.4-1-6.5-1.4M58.3 56c3.6 1 7.1 2.1 10.7 3.1.8.2 1.6.5 2.3.7.3.1.6.1.9.2-3.9-1.3-7.9-2.5-11.9-3.7-.6 0-1.3-.1-2-.3m-14.4-2.7c4.6 1.1 9.1 2.3 13.6 3.5-3.8-1.1-7.7-2.1-11.5-3.1-.7-.1-1.4-.3-2.1-.4M0 46.9v1.2V46.9z"/><path class="st0" d="M716.7 188.5h-1.2c-1.5.3-2.9.6-4.4.9h1.8c1.3-.2 2.5-.6 3.8-.9m6.2-.1c-.9 0-1.8 0-2.7.1-1.3.3-2.5.6-3.8 1 1 0 2 0 3-.1h.1c1.1-.4 2.2-.7 3.4-1m4.9-.1c-.9 0-1.9.1-2.8.1-1.1.3-2.2.6-3.3 1 1.1 0 2.1-.1 3.2-.1.9-.4 1.9-.7 2.9-1m5-.2c-1 0-1.9.1-2.9.1-1 .3-1.9.6-2.9 1 1.1 0 2.1-.1 3.2-.1.8-.4 1.7-.7 2.6-1m4.9-.2c-1 0-2 .1-3 .1-.9.3-1.7.6-2.6 1 1.1 0 2.2-.1 3.3-.1.7-.3 1.5-.7 2.3-1m4.8-.2c-.9 0-1.8.1-2.8.1-.8.3-1.6.6-2.3.9 1 0 2-.1 3-.1l2.1-.9m5.3-.2c-1.1 0-2.2.1-3.3.2l-2.1.9c1.1 0 2.3-.1 3.4-.2.8-.3 1.4-.6 2-.9m4.8-.3c-1.1.1-2.2.1-3.3.2-.6.3-1.3.6-1.9.9h.6c1 0 1.9-.1 2.9-.2.5-.3 1.1-.6 1.7-.9m5.1-.3c-1.2.1-2.4.1-3.6.2-.6.3-1.1.6-1.7.9 1.3-.1 2.5-.1 3.8-.2l1.5-.9m242.3-53.8c-74.2 30.5-154.3 48.3-241 53.7-.5.3-1 .6-1.6.9 44.6-2.8 87.8-8.8 128.7-18 39.3-8.8 77.4-20.8 113.9-35.6v-1zm-775.9-28.2l2.1 1.8c77.3 23.7 172.5 50.2 302.9 69.7 35.3 5.3 70 8.9 103.7 11.1 10.3.4 20.5.7 30.7.9 2.3 0 4.5-.1 6.7-.1-18.1-.5-36.6-1.5-55.2-3-28-2.2-56.5-5.5-85.7-9.9-131.7-19.7-227.5-46.6-305.2-70.5m-11.3-3.5c.8.6 1.5 1.3 2.3 1.9 3.2 1 6.5 2 9.7 3l-2.1-1.8c-3.3-1-6.6-2-9.9-3.1m-11-3.4c.8.7 1.7 1.3 2.5 2 3 .9 6 1.9 9.1 2.8-.8-.6-1.6-1.3-2.3-1.9-3.2-1-6.2-1.9-9.3-2.9m-11.1-3.5c.9.7 1.8 1.3 2.8 2 2.9.9 5.9 1.8 8.9 2.8-.9-.7-1.7-1.3-2.6-2-3.1-.9-6.1-1.8-9.1-2.8m-11.1-3.4c1 .7 2 1.4 3.1 2.1 1.7.5 3.4 1.1 5.1 1.6 1.2.4 2.3.7 3.5 1.1-.9-.7-1.9-1.4-2.8-2-.1 0-.2-.1-.4-.1-2.9-1-5.7-1.8-8.5-2.7m-10.9-3.4c1.1.7 2.3 1.5 3.4 2.2 2.7.8 5.4 1.7 8.1 2.5-1-.7-2.1-1.4-3.1-2.1-2.8-.9-5.6-1.7-8.4-2.6m-11.3-3.5l3.9 2.4c2.7.8 5.3 1.6 8 2.5-1.2-.8-2.3-1.5-3.5-2.3-2.8-.9-5.6-1.7-8.4-2.6m-10.9-3.3c1.5.8 2.9 1.7 4.4 2.5 2.4.7 4.8 1.5 7.3 2.2-1.3-.8-2.6-1.6-4-2.4-2.6-.8-5.2-1.6-7.7-2.3m-11.3-3.4c1.7.9 3.4 1.8 5 2.7 2.2.7 4.5 1.3 6.7 2-1.5-.9-3-1.7-4.6-2.5-2.3-.8-4.7-1.5-7.1-2.2m-11.3-3.3c2 1 3.9 1.9 5.9 2.9 2.1.6 4.3 1.3 6.4 1.9-1.7-.9-3.5-1.8-5.2-2.7-2.3-.8-4.7-1.5-7.1-2.1M112 70.7c2.4 1 4.7 2.1 7.1 3.2 1.8.5 3.5 1 5.3 1.5l-6.3-3c-2-.5-4-1.1-6.1-1.7m-12.3-3.4l8.7 3.6c1.2.3 2.4.7 3.7 1-2.6-1.1-5.2-2.3-7.8-3.4-1.6-.4-3.1-.8-4.6-1.2m-13.1-3.4c3.7 1.3 7.4 2.7 11.1 4.1 1.1.3 2.3.6 3.4.9-3.1-1.3-6.2-2.5-9.3-3.7-1.7-.4-3.5-.9-5.2-1.3M74 60.7l7.2 2.4c-2.1-.7-4.2-1.4-6.4-2.1-.2-.1-.5-.2-.8-.3M0 47v1.3c12.2 1.5 24.1 3.3 35.9 5.5-11.8-2.4-23.7-4.4-35.9-6V47z"/><path class="st0" d="M720 187.7h-.8c-1.1.2-2.2.5-3.3.7h1.3c.9-.2 1.9-.5 2.8-.7m6.3-.3c-.8 0-1.6.1-2.5.1-.9.2-1.8.5-2.8.7h1.2c.5 0 1.1 0 1.6-.1.9-.2 1.7-.5 2.5-.7m4.9-.2c-.9 0-1.8.1-2.6.1-.8.2-1.6.5-2.3.7 1 0 2-.1 2.9-.2.6-.2 1.3-.4 2-.6m4.8-.3c-.9 0-1.8.1-2.7.2-.7.2-1.3.4-2 .7 1-.1 2-.1 3-.2.6-.3 1.1-.5 1.7-.7m4.8-.3c-.9.1-1.9.1-2.8.2-.6.2-1.1.4-1.7.6 1-.1 2-.1 3-.2l1.5-.6m4.8-.3c-.9 0-1.7.1-2.6.2-.5.2-1 .4-1.4.6.9-.1 1.8-.1 2.7-.2.5-.2.9-.4 1.3-.6m5.3-.3c-1 .1-2.1.1-3.1.2l-1.2.6c1.1-.1 2.2-.2 3.3-.2.2-.3.6-.4 1-.6m4.7-.4c-1.1.1-2.1.2-3.2.2-.4.2-.7.4-1.1.5l3.3-.3c.3 0 .6-.2 1-.4m5-.4c-1.2.1-2.3.2-3.5.3-.3.2-.6.3-.9.5l3.6-.3c.3-.2.5-.3.8-.5m101.7-14.5c-32.3 6.7-65.8 11.5-100.4 14.4-.3.2-.5.3-.8.5 34.8-3.1 68.7-8 101.2-14.9m-629.1-57.9c.7.6 1.3 1.2 2 1.8 78 25.4 169.8 50.9 300.8 66.2 33.5 3.9 66.3 6.5 98.2 7.7 3.8 0 7.6.1 11.3.1 6.1 0 12.1-.1 18.1-.1-10.1-.2-20.3-.4-30.7-.9-31.4-1.3-63.7-3.9-96.8-7.8-132.2-15.6-224.5-41.4-302.9-67m-11-3.6c.7.6 1.5 1.3 2.2 1.9 3.1 1 6.3 2.1 9.5 3.1-.7-.6-1.3-1.2-2-1.8-3.3-1.1-6.5-2.2-9.7-3.2m-10.8-3.6c.8.7 1.6 1.3 2.4 2 2.9 1 5.9 2 8.8 2.9-.7-.6-1.5-1.3-2.2-1.9l-9-3m-10.8-3.7c.9.7 1.8 1.4 2.7 2 2.9 1 5.7 1.9 8.6 2.9-.8-.7-1.6-1.3-2.4-2-3-.9-6-1.9-8.9-2.9m-10.8-3.6c1 .7 2 1.4 3 2.2 2.7.9 5.5 1.9 8.3 2.8l-2.7-2.1c-2.9-1-5.7-1.9-8.6-2.9m-10.6-3.6c1.1.8 2.2 1.5 3.3 2.3l7.8 2.7c-1-.7-2-1.5-3-2.2-2.4-.8-4.8-1.6-7.2-2.5l-.9-.3M168.4 91c1.3.8 2.5 1.6 3.8 2.4 2.5.9 5 1.7 7.6 2.6-1.1-.8-2.3-1.5-3.4-2.3-2.7-.9-5.4-1.8-8-2.7m-10.7-3.6c1.4.9 2.9 1.7 4.3 2.6 2.3.8 4.6 1.6 6.9 2.3-1.3-.8-2.6-1.7-3.9-2.5-2.4-.7-4.8-1.6-7.3-2.4m-10.8-3.6c1.7.9 3.4 1.9 5 2.8 2.1.7 4.2 1.4 6.2 2.1l-4.5-2.7c-2.2-.7-4.5-1.5-6.7-2.2M136 80.2c2 1 4 2.1 6 3.1 1.9.6 3.8 1.3 5.7 1.9-1.7-1-3.5-1.9-5.2-2.9-2.2-.7-4.3-1.4-6.5-2.1m-11.4-3.7c2.4 1.1 4.9 2.3 7.3 3.5l4.5 1.5c-2.1-1.1-4.2-2.2-6.3-3.2-1.9-.7-3.7-1.2-5.5-1.8m-11.8-3.7c3.1 1.3 6.1 2.7 9.2 4l2.7.9c-2.7-1.2-5.3-2.5-8-3.7l-3.9-1.2M100.3 69c4.1 1.6 8.1 3.2 12.1 4.8.5.2 1 .3 1.5.5-3.3-1.4-6.5-2.8-9.8-4.2-1.3-.4-2.6-.8-3.8-1.1M0 46.7v1.1c12.2 1.6 24.2 3.7 35.9 6 8.3 1.7 16.5 3.5 24.7 5.5C41.1 54.2 21 50 0 47.1v-.4z"/><path class="st0" d="M725 186.4c-1.4.3-2.9.7-4.3 1h.7c1.2-.4 2.4-.7 3.6-1m7.4-.8c-.7.1-1.5.1-2.2.2l-4.5 1.2c.8-.1 1.7-.1 2.5-.2 1.4-.3 2.8-.8 4.2-1.2m5.1-.5c-.8.1-1.6.2-2.4.2-1.5.4-2.9.9-4.4 1.3.9-.1 1.8-.1 2.7-.2 1.4-.4 2.7-.8 4.1-1.3m4.9-.5c-.8.1-1.6.2-2.5.3-1.4.5-2.8.9-4.3 1.4.9-.1 1.8-.2 2.7-.2 1.5-.6 2.8-1 4.1-1.5m4.9-.6c-.8.1-1.7.2-2.5.3-1.4.5-2.8 1-4.1 1.5.9-.1 1.9-.2 2.8-.2 1.2-.5 2.5-1 3.8-1.6m4.7-.6c-.7.1-1.4.2-2.2.3-1.4.6-2.7 1.1-4.1 1.7.8-.1 1.6-.2 2.5-.2 1.3-.6 2.6-1.2 3.8-1.8m5.4-.6c-.9.1-1.9.2-2.8.4l-3.9 1.8 3-.3c1.2-.7 2.4-1.3 3.7-1.9m4.5-.6c-1 .1-1.9.3-2.9.4-1.3.6-2.5 1.3-3.8 1.9 1-.1 2.1-.2 3.1-.3 1.2-.7 2.4-1.4 3.6-2m5.1-.7c-1.1.2-2.2.3-3.3.5-1.2.7-2.5 1.3-3.7 2 1.1-.1 2.3-.3 3.4-.4l3.6-2.1m-525.2-60.9c.6.6 1.3 1.2 1.9 1.8 76.7 26.5 168.2 51.7 299 62.7 36.5 3.1 72 4.6 106.3 4.6h8.3c12.8-.4 25.4-1 37.9-1.8l12.6-1.2c-10.9.6-21.9 1.1-33.1 1.4-1.4 0-2.9.1-4.3.1-2.2 0-4.5.1-6.7.1-6 .1-12 .1-18.1.1-3.8 0-7.5 0-11.3-.1-29.4-.3-59.9-1.7-91.3-4.4-132.2-11-224-36.5-301.2-63.3m758.2-2.9c-67.3 30.6-143.1 52.5-229 63.2-.9.1-1.8.2-2.6.4l-3.6 2.1c85.7-9.7 163.8-30.6 235.2-62.9v-2.8zm-769-.8c.7.6 1.4 1.2 2.1 1.9 3 1.1 6.1 2.1 9.2 3.2-.6-.6-1.3-1.2-1.9-1.8-3.1-1.2-6.3-2.3-9.4-3.3m-10.5-3.8c.8.7 1.5 1.3 2.3 2 2.9 1 5.7 2 8.6 3.1-.7-.6-1.4-1.3-2.1-1.9-3-1.1-5.9-2.2-8.8-3.2m-10.6-3.8c.9.7 1.7 1.4 2.6 2.1l8.4 3c-.8-.7-1.6-1.3-2.3-2-3-1.1-5.8-2.1-8.7-3.1m-10.4-3.9c1 .7 1.9 1.5 2.9 2.2 2.6 1 5.3 2 8 2.9-.9-.7-1.7-1.4-2.6-2.1-2.9-1-5.6-2-8.3-3m-10.4-3.8c1.1.8 2.2 1.6 3.3 2.3 2.5.9 5 1.8 7.5 2.8-1-.7-2-1.5-2.9-2.2-2.7-1-5.3-1.9-7.9-2.9m-10.5-3.9c1.3.8 2.5 1.7 3.8 2.5 2.4.9 4.7 1.8 7.1 2.6l-3.3-2.4c-2.5-.8-5.1-1.8-7.6-2.7m-10.3-3.8c1.5.9 2.9 1.8 4.4 2.8 1.4.5 2.9 1.1 4.3 1.6.7.3 1.4.5 2.1.8-1.3-.9-2.6-1.7-3.9-2.6-2.3-.9-4.6-1.8-6.9-2.6M157.8 90c1.7 1 3.5 2 5.2 3.1l5.7 2.1c-1.5-.9-3-1.9-4.6-2.8-2.1-.9-4.2-1.7-6.3-2.4m-10.5-3.9c2.1 1.1 4.2 2.3 6.3 3.4 1.6.6 3.3 1.2 4.9 1.8-1.8-1-3.6-2.1-5.4-3.1-1.9-.7-3.9-1.4-5.8-2.1m-11-3.9c2.6 1.3 5.2 2.6 7.8 4 1.2.4 2.3.8 3.5 1.3-2.2-1.2-4.4-2.4-6.7-3.5-1.5-.7-3-1.3-4.6-1.8m-11.3-4c3.4 1.6 6.9 3.1 10.3 4.8.4.1.8.3 1.2.4-2.9-1.4-5.7-2.8-8.6-4.2-1-.4-1.9-.7-2.9-1M113.1 74c2.6 1.1 5.1 2.1 7.7 3.2-2-.9-3.9-1.7-5.9-2.6-.7-.2-1.3-.4-1.8-.6M0 46V47.2c21 2.9 41.1 7.1 60.6 12.2 8.8 2.3 17.6 4.8 26.3 7.5C59.4 57.8 31 50.6 0 46.2V46z"/><path class="st0" d="M736.1 184.6c-.6.1-1.2.2-1.9.2-1.3.4-2.7.7-4 1.1.7-.1 1.5-.1 2.2-.2 1.2-.4 2.5-.8 3.7-1.1m4.7-.6c-.6.1-1.2.1-1.9.2-1.3.4-2.5.8-3.8 1.1.8-.1 1.6-.2 2.4-.2 1.1-.4 2.2-.7 3.3-1.1m4.4-.5c-.7.1-1.4.1-2 .2-1.1.4-2.1.7-3.2 1.1.8-.1 1.6-.2 2.5-.3.9-.3 1.8-.6 2.7-1m4.5-.5c-.7.1-1.5.2-2.2.3-.9.3-1.8.7-2.7 1 .8-.1 1.7-.2 2.5-.3.8-.3 1.6-.6 2.4-1m4.4-.5c-.6.1-1.2.1-1.9.2-.8.3-1.6.7-2.4 1 .7-.1 1.4-.2 2.2-.3l2.1-.9m5.1-.6c-.9.1-1.7.2-2.6.3l-2.1.9c.9-.1 1.9-.2 2.8-.4.7-.2 1.3-.5 1.9-.8m4.4-.6l-2.7.3-1.8.9c1-.1 1.9-.3 2.9-.4.5-.2 1-.5 1.6-.8m4.8-.7c-1 .1-2.1.3-3.1.4-.5.3-1.1.6-1.6.9 1.1-.1 2.2-.3 3.3-.5.5-.2.9-.5 1.4-.8M250 128.4c.6.6 1.2 1.2 1.9 1.8 75.7 27.7 166.8 52.7 297.6 59.3 23.2 1.2 46 1.8 68.3 1.8 13.1 0 26.1-.2 38.9-.6 1.8-.1 3.6-.1 5.4-.2.6 0 1.3 0 1.9-.1 10.5-.7 20.9-1.5 31.1-2.4-12.5.8-25.1 1.4-37.9 1.8h-.9c-1.6 0-3.2.1-4.8.1-10.4.3-20.9.4-31.6.4-22.9 0-46.5-.6-70.5-1.8-131.8-6.8-223.2-32.2-299.4-60.1m-10.5-4c.7.6 1.4 1.3 2 1.9 3 1.1 5.9 2.2 8.9 3.3-.6-.6-1.2-1.2-1.9-1.8-3-1.1-6-2.2-9-3.4m-10.4-3.9c.8.7 1.5 1.3 2.3 2 2.8 1.1 5.6 2.1 8.4 3.2-.7-.6-1.4-1.3-2.1-1.9-2.9-1.1-5.7-2.2-8.6-3.3m-10.3-4c.8.7 1.7 1.4 2.5 2.1 2.7 1 5.4 2.1 8.1 3.1-.8-.7-1.5-1.3-2.3-2-2.8-1.1-5.5-2.1-8.3-3.2m781.2-3.8c-69.8 33.7-146.1 56-230.2 67.7l-1.5.9c.9-.1 1.8-.2 2.6-.4 38.9-5.5 76.4-13.4 111.8-23.4 41.3-11.6 80.2-26.2 117.2-43.9v-.9h.1zm-791.4-.2c1 .7 1.9 1.5 2.9 2.3 2.5 1 5.1 2 7.7 3-.9-.7-1.7-1.4-2.6-2.1-2.7-1.2-5.4-2.2-8-3.2m-10.1-4.1l3.3 2.4c2.4.9 4.8 1.9 7.2 2.8-1-.8-2-1.5-2.9-2.3-2.6-.9-5.1-1.9-7.6-2.9m-10.1-4.1c1.3.9 2.6 1.8 3.8 2.7 2.2.9 4.4 1.8 6.7 2.7-1.1-.8-2.2-1.7-3.4-2.5-2.4-1-4.8-1.9-7.1-2.9m-10.1-4.1l4.5 3c2 .8 3.9 1.6 5.9 2.4l-3.9-2.7c-2.2-.9-4.4-1.8-6.5-2.7m-10.2-4.1c1.8 1.1 3.7 2.2 5.5 3.3 1.4.5 2.7 1.1 4.1 1.7.3.1.7.3 1 .4-1.6-1-3.1-2-4.7-3-2-.8-4-1.6-5.9-2.4M157.9 92c2.3 1.3 4.6 2.6 6.8 3.9 1.3.5 2.6 1.1 3.9 1.6-1.9-1.1-3.8-2.3-5.7-3.4-1.6-.8-3.3-1.4-5-2.1m-10.6-4.3c3 1.5 6 3.1 8.9 4.7.7.3 1.3.5 2 .8-2.4-1.4-4.8-2.7-7.3-4-1.1-.5-2.4-1-3.6-1.5m-10.9-4.3c2.1 1 4.1 2 6.2 3-1.6-.8-3.3-1.7-4.9-2.5-.4-.1-.9-.3-1.3-.5M0 44.9V46.3c31 4.4 59.4 11.6 86.9 20.5 9.8 3.2 19.6 6.6 29.3 10.2C97 69.3 77.7 62.5 57.5 56.8c-4.5-1.2-9-2.4-13.6-3.5h-.1c-5.6-1.3-11.2-2.6-16.9-3.8-1.7-.3-3.3-.7-5-1-5.2-1-10.5-1.9-15.9-2.8-1.5-.2-3-.5-4.5-.7-.5 0-1 0-1.5-.1"/><path class="st0" d="M740.1 183.4c-.4.1-.9.1-1.3.2l-4.5 1.2c.6-.1 1.2-.2 1.9-.2 1.2-.4 2.5-.8 3.9-1.2m5-.8c-.5.1-1.1.2-1.6.3-1.5.4-2.9.9-4.4 1.3l2.1-.3c1.3-.4 2.6-.9 3.9-1.3m4.8-.8l-1.8.3c-1.4.5-2.8 1-4.3 1.5.7-.1 1.4-.2 2.2-.3 1.4-.6 2.7-1 3.9-1.5m4.7-.8c-.6.1-1.3.2-1.9.3-1.4.5-2.8 1-4.1 1.6.8-.1 1.5-.2 2.3-.3 1.2-.6 2.5-1.1 3.7-1.6m4.6-.8l-1.5.3c-1.4.6-2.7 1.1-4.1 1.7.6-.1 1.2-.2 1.9-.3 1.2-.6 2.5-1.2 3.7-1.7m5.1-.9c-.7.1-1.5.2-2.2.3l-3.9 1.8c.9-.1 1.7-.3 2.6-.4 1.2-.5 2.4-1.1 3.5-1.7m4.1-.6c-.8.1-1.5.2-2.3.4-1.1.6-2.3 1.2-3.4 1.7.9-.1 1.8-.3 2.7-.4.9-.6 2-1.2 3-1.7m4.7-.8c-.9.2-1.9.3-2.8.5-1 .6-2.1 1.1-3.1 1.7 1-.2 2.1-.3 3.1-.5.9-.6 1.9-1.2 2.8-1.7m-515.2-41.8l1.8 1.8c74.9 29 165.5 53.8 296.5 56 8.3.1 16.5.2 24.6.2 28.3 0 55.8-.8 82.4-2.5 1.8-.1 3.5-.2 5.3-.3 1.8-.1 3.5-.2 5.3-.4.3 0 .5 0 .8-.1 14.8-1.5 29.2-3.2 43.4-5.1-3.4.4-6.8.8-10.3 1.1l-12.6 1.2c-10.2.9-20.6 1.7-31.1 2.4-.6 0-1.1.1-1.6.1-1.6.1-3.1.2-4.7.3-25.1 1.5-50.9 2.2-77.6 2.2-7.9 0-15.9-.1-23.9-.2-132.1-2.2-223.1-27.5-298.3-56.7m-10.3-4.1c.7.6 1.3 1.3 2 1.9 2.9 1.1 5.8 2.3 8.7 3.4l-1.8-1.8c-3-1.2-6-2.3-8.9-3.5m-10.2-4.2c.7.7 1.5 1.3 2.2 2 2.7 1.1 5.4 2.2 8.2 3.3-.7-.6-1.3-1.3-2-1.9-2.8-1.1-5.6-2.2-8.4-3.4m-10.1-4.2c.8.7 1.7 1.4 2.5 2.2 2.6 1.1 5.2 2.2 7.8 3.2-.8-.7-1.5-1.4-2.3-2-2.6-1.1-5.3-2.2-8-3.4m-9.9-4.2c1 .8 1.9 1.5 2.9 2.3 2.4 1 4.9 2.1 7.3 3.1-.9-.7-1.7-1.4-2.6-2.2-2.5-1-5.1-2.1-7.6-3.2m-9.9-4.3c1.1.8 2.2 1.7 3.4 2.6 2.2 1 4.5 2 6.8 2.9l-3-2.4c-2.4-1-4.8-2-7.2-3.1m-9.8-4.3c1.3.9 2.7 1.9 4 2.8 2.1.9 4.1 1.8 6.2 2.7-1.1-.9-2.3-1.7-3.4-2.6-2.4-.9-4.6-1.9-6.8-2.9m-9.9-4.3c1.6 1.1 3.2 2.1 4.8 3.2 1.8.8 3.5 1.6 5.3 2.3-1.4-1-2.7-1.9-4.1-2.9-2-.8-4-1.7-6-2.6m812.2-.9c-66.1 33.2-140.5 57.6-225.4 72-.9.6-1.8 1.1-2.8 1.7 38.3-6.4 74.8-14.9 109.8-25.5 41.9-12.7 81.2-28.3 118.4-47v-1.2zm-822.1-3.5c2 1.3 4 2.5 6 3.8 1.4.6 2.8 1.2 4.2 1.9-1.7-1.1-3.3-2.2-5-3.3-.7-.3-1.4-.6-2-.9-1.1-.6-2.1-1-3.2-1.5m-9.9-4.4l7.8 4.5c.9.4 1.7.8 2.6 1.1l-6.3-3.9c-1.3-.4-2.7-1.1-4.1-1.7m-10.2-4.4c3.2 1.7 6.4 3.5 9.6 5.2-2.5-1.4-4.9-2.8-7.4-4.2-.7-.4-1.5-.7-2.2-1M0 43.6v.9c1.9.3 3.9.6 5.8.9 1.7.3 3.4.6 5.2.8 4.8.8 9.6 1.7 14.3 2.7 1.8.4 3.5.7 5.3 1.1 5 1.1 9.9 2.3 14.8 3.5.2 0 .4.1.5.1 3.9 1 7.7 2 11.5 3.1 20.2 5.7 39.6 12.6 58.8 20.2 6.7 2.7 13.5 5.4 20.2 8.3-18-8.1-36.2-15.6-55.2-22.1L74 60.7c-.9-.3-1.8-.6-2.7-.8-.8-.2-1.6-.5-2.3-.7-3.6-1.1-7.1-2.1-10.7-3.1-1.1-.3-2.1-.6-3.2-.9-4.4-1.2-8.8-2.4-13.2-3.4-2.3-.6-4.7-1.1-7-1.7-4.3-1-8.6-1.9-12.8-2.7-2.3-.4-4.5-.9-6.8-1.3-5.2-.9-10.2-1.8-15.3-2.5"/><path class="st0" d="M743.8 182.3c-.2 0-.4.1-.6.1l-4.5 1.2c.4-.1.9-.1 1.3-.2 1.3-.4 2.6-.7 3.8-1.1m5.1-1c-.4.1-.7.1-1.1.2-1.5.4-2.9.9-4.4 1.3.5-.1 1.1-.2 1.6-.3 1.4-.4 2.6-.8 3.9-1.2m4.8-.9c-.4.1-.9.2-1.3.3-1.4.5-2.8 1-4.2 1.4l1.8-.3c1.2-.5 2.5-1 3.7-1.4m4.6-1l-1.5.3c-1.4.5-2.7 1-4.1 1.6.6-.1 1.3-.2 1.9-.3 1.3-.5 2.5-1 3.7-1.6m4.5-.9c-.3.1-.7.1-1 .2-1.3.6-2.7 1.1-4 1.7l1.5-.3c1.1-.5 2.3-1 3.5-1.6m5-1c-.6.1-1.3.2-1.9.4-1.2.6-2.5 1.2-3.8 1.7.8-.1 1.6-.3 2.4-.4 1.1-.5 2.2-1.1 3.3-1.7m4-.7c-.7.1-1.4.3-2 .4-1.1.6-2.2 1.1-3.3 1.7.8-.1 1.6-.3 2.4-.5.9-.5 1.9-1.1 2.9-1.6m4.6-.9c-.9.2-1.7.3-2.6.5-1 .5-1.9 1.1-2.9 1.6 1-.2 1.9-.4 2.9-.6.9-.5 1.7-1 2.6-1.5m-510.8-32.2c.6.6 1.2 1.3 1.8 1.9 22.5 9.3 46.5 17.9 72.6 25.5 63 18.3 130.3 27.2 205 27.2 5.9 0 11.9-.1 17.9-.2 37-.7 72.3-2.6 106.2-5.8 1.7-.2 3.5-.3 5.2-.5 1.7-.2 3.4-.3 5.1-.5h.1c1.7-.2 3.5-.4 5.2-.6l2.7-.3c12-1.7 23.8-3.5 35.5-5.4.6-.1 1.1-.2 1.7-.3l-6.6.9c-14.2 2-28.6 3.7-43.4 5.1-.2 0-.4 0-.7.1-1.5.1-3.1.3-4.6.4-1.6.1-3.1.3-4.7.4-32.4 3-66.3 4.8-101.6 5.5-6 .1-12 .2-17.8.2-122.9 0-208.6-24.3-279.6-53.6m-10.2-4.2c.7.7 1.4 1.3 2.1 2 2.8 1.2 5.6 2.4 8.4 3.5-.6-.6-1.2-1.3-1.9-1.9-2.9-1.2-5.7-2.4-8.6-3.6m-10-4.4c.8.7 1.5 1.4 2.3 2.1 2.6 1.2 5.3 2.3 8 3.4-.7-.7-1.4-1.3-2.1-2-2.7-1.1-5.4-2.3-8.2-3.5m-9.8-4.4c.9.8 1.7 1.5 2.6 2.3l7.5 3.3c-.8-.7-1.5-1.4-2.3-2.1-2.6-1.1-5.2-2.3-7.8-3.5m-9.7-4.4c1 .8 2 1.7 3 2.5 2.3 1.1 4.6 2.1 7 3.2-.9-.8-1.8-1.5-2.7-2.3-2.5-1.2-4.9-2.3-7.3-3.4m-9.7-4.5c1.2.9 2.4 1.8 3.6 2.8 2.1 1 4.2 2 6.4 2.9-1-.8-2-1.7-3.1-2.5-2.3-1.1-4.6-2.1-6.9-3.2m-9.6-4.5c1.4 1 2.9 2.1 4.3 3.1 1.9.9 3.7 1.8 5.6 2.6-1.2-.9-2.4-1.9-3.6-2.8-2.1-1-4.2-1.9-6.3-2.9m-9.6-4.6c1.8 1.2 3.6 2.4 5.3 3.6 1.5.7 3 1.4 4.5 2.2-1.5-1.1-2.9-2.1-4.4-3.2-1.7-.9-3.6-1.7-5.4-2.6m-9.6-4.6c2.3 1.5 4.6 2.9 6.9 4.4 1 .5 2 1 3 1.4-1.8-1.3-3.7-2.5-5.6-3.8-1.4-.6-2.8-1.3-4.3-2m-9.6-4.7c3.1 1.9 6.3 3.7 9.4 5.6.1.1.2.1.3.2.1 0 .2.1.3.1-2.4-1.5-4.8-3.1-7.3-4.6-.9-.4-1.8-.8-2.7-1.3M1000 99c-64.7 34.2-138 60-222.1 76.6-.9.5-1.7 1-2.6 1.6 36.7-7.2 71.6-16.1 105-27 42.5-13.8 82.2-30.6 119.6-50.5V99h.1zM0 42.2v1.2l2.1.3c5.2.7 10.4 1.6 15.4 2.5 2.5.4 4.9.9 7.3 1.4 4.2.8 8.4 1.8 12.5 2.7 2.4.6 4.9 1.2 7.3 1.8 4.2 1.1 8.3 2.2 12.4 3.3 1.1.3 2.3.7 3.4 1 4 1.2 8 2.4 11.9 3.7.9.3 1.8.6 2.6.9 2.1.7 4.3 1.4 6.4 2.1 19 6.5 37.2 14 55.2 22.1 7.3 3.3 14.6 6.7 22 10.1-12.5-6.3-25-12.4-37.7-18.1-2.6-1.1-5.1-2.2-7.7-3.2-.2-.1-.4-.2-.7-.3-4-1.6-8-3.3-12.1-4.8-.9-.3-1.7-.7-2.6-1-3.7-1.4-7.4-2.8-11.1-4.1-1.5-.5-3.1-1.1-4.6-1.6-3.5-1.2-6.9-2.4-10.5-3.5-1.7-.6-3.4-1.1-5.2-1.6C62.8 56 59.2 55 55.6 54c-2.7-.8-5.5-1.5-8.3-2.2-3.6-.9-7.1-1.8-10.8-2.7-2.8-.6-5.6-1.3-8.4-1.9-4.3-.9-8.6-1.7-13-2.5-2.9-.5-5.9-1-8.9-1.5-1.9-.3-4-.7-6.2-1"/><path class="st0" d="M745.7 181.7c-.8.2-1.7.5-2.5.7.2 0 .4-.1.6-.1.6-.2 1.3-.4 1.9-.6m6.7-1.6c-.1 0-.2 0-.3.1-1.4.4-2.9.9-4.3 1.3.4-.1.7-.1 1.1-.2 1.2-.4 2.3-.8 3.5-1.2m4.8-1.1c-.2 0-.4.1-.7.2-1.4.5-2.8 1-4.2 1.4.4-.1.9-.2 1.3-.3 1.3-.4 2.5-.8 3.6-1.3m4.6-1c-.3.1-.7.2-1 .2-1.3.5-2.7 1-4 1.5l1.5-.3c1.2-.4 2.3-.9 3.5-1.4m4.4-1.1c-.2 0-.3.1-.5.1-1.3.6-2.7 1.1-4 1.7.3-.1.7-.1 1-.2 1.2-.5 2.4-1 3.5-1.6m5.2-1.2c-.5.1-1 .2-1.6.3-1.3.6-2.5 1.2-3.8 1.8.7-.1 1.4-.3 2.1-.4 1.1-.6 2.2-1.1 3.3-1.7m3.8-.8c-.6.1-1.1.2-1.7.4-1.1.6-2.2 1.1-3.3 1.7.7-.1 1.4-.3 2.1-.5 1-.5 1.9-1.1 2.9-1.6m4.6-1c-.8.2-1.6.4-2.4.5-1 .5-1.9 1.1-2.9 1.6l2.7-.6c.9-.5 1.7-1 2.6-1.5m-506.5-22.3c.5.6 1.1 1.1 1.6 1.7 21.9 9.5 45.2 18.4 70.6 26 55.1 16.4 114 24.5 178.8 24.5 14.8 0 30-.4 45.5-1.3 36.8-2 71.9-5.1 105.4-9.4 1.7-.2 3.4-.4 5.1-.7l4.5-.6c.2 0 .4-.1.6-.1 1.7-.2 3.4-.5 5-.7l1.8-.3c10.4-1.8 20.7-3.7 30.8-5.8-11.6 2-23.4 3.8-35.5 5.4-.8.1-1.5.2-2.3.3l-4.5.6h-.1l-4.5.6c-1.6.2-3.1.4-4.7.6-32.3 4-66.2 7-101.5 9-16.1.9-31.6 1.3-46.4 1.3-108.7.1-184.9-22.3-250.2-51.1m-10-4.5c.6.6 1.3 1.2 1.9 1.9 2.7 1.2 5.4 2.4 8.2 3.6-.6-.6-1.1-1.1-1.6-1.7-2.9-1.2-5.7-2.5-8.5-3.8m-9.8-4.5c.7.7 1.5 1.4 2.2 2 2.5 1.2 5.1 2.4 7.7 3.6l-1.9-1.9c-2.7-1.3-5.4-2.5-8-3.7m-9.7-4.7c.9.8 1.7 1.5 2.6 2.3 2.4 1.1 4.8 2.3 7.2 3.4-.7-.7-1.5-1.4-2.2-2.1-2.6-1.2-5.1-2.4-7.6-3.6m-9.6-4.7c1 .9 2.1 1.7 3.1 2.6 2.2 1.1 4.4 2.1 6.6 3.2-.9-.8-1.8-1.5-2.6-2.3-2.4-1.2-4.8-2.3-7.1-3.5m-9.5-4.7c1.3 1 2.5 2 3.8 3 1.9 1 3.9 1.9 5.8 2.9-1.1-.9-2.1-1.8-3.2-2.6-2.1-1.2-4.2-2.3-6.4-3.3m-9.4-4.8c1.6 1.2 3.1 2.3 4.7 3.5 1.6.8 3.2 1.6 4.9 2.5l-3.9-3c-1.8-1.1-3.8-2.1-5.7-3m-9.3-4.9c2 1.4 4.1 2.8 6.1 4.2 1.1.6 2.3 1.2 3.4 1.8-1.6-1.2-3.3-2.4-4.9-3.6-1.5-.8-3-1.6-4.6-2.4m-9.4-4.9c2.8 1.8 5.7 3.7 8.5 5.5.4.2.8.4 1.1.6-2.1-1.5-4.3-2.9-6.4-4.4-1.1-.5-2.1-1.1-3.2-1.7m-9.4-4.9c.7.4 1.5.9 2.2 1.3-.5-.3-1-.6-1.5-1-.1-.1-.3-.1-.4-.2-.1 0-.2 0-.3-.1M1000 92.2c-63.3 35.3-135.4 62.5-218.6 81.3-.8.5-1.7 1-2.5 1.5 35.1-7.9 68.4-17.3 100.3-28.4 43.2-15 83.3-33 120.9-54.1v-.3h-.1zM0 40.6V41.4c4.7.6 9.4 1.3 14 2.1 3.3.6 6.5 1.2 9.7 1.8 4 .8 8 1.7 12 2.6 3 .7 6 1.4 9 2.2 3.3.8 6.5 1.7 9.7 2.6 2.9.8 5.7 1.7 8.6 2.5 3.2 1 6.3 2 9.4 3 1.9.6 3.8 1.3 5.7 1.9 3 1 6 2.1 9 3.2 1.6.6 3.3 1.2 4.9 1.8 3.1 1.2 6.2 2.4 9.3 3.7 1 .4 1.9.8 2.9 1.2 3.3 1.4 6.6 2.7 9.8 4.2.3.1.6.3.9.4 2 .9 3.9 1.7 5.9 2.6 12.7 5.7 25.2 11.8 37.7 18.1 6.5 3.3 12.9 6.6 19.4 10-11.6-6.5-23.3-12.8-35.2-18.8-2.1-1-4.1-2-6.2-3-.4-.2-.8-.4-1.1-.5-3.4-1.6-6.8-3.2-10.3-4.8-1-.5-2-.9-3.1-1.4-3-1.4-6.1-2.7-9.2-4-1.5-.6-2.9-1.2-4.4-1.9l-8.7-3.6c-2-.8-3.9-1.6-5.9-2.3-2.8-1.1-5.6-2.1-8.5-3.2-2.2-.8-4.4-1.6-6.6-2.3-2.9-1-5.8-2-8.8-2.9-3-1-6-1.9-9.1-2.8-3-.9-6-1.8-9.1-2.6-3.1-.9-6.3-1.7-9.5-2.5-3.6-.9-7.3-1.8-11-2.6-3.3-.7-6.7-1.4-10.1-2.1-4.5-.9-9.1-1.6-13.7-2.3C5 41.3 2.5 41 0 40.6"/><path class="st0" d="M753.2 179.8c-.4.1-.7.2-1.1.3.1 0 .2 0 .3-.1.3 0 .5-.1.8-.2m6.6-1.8l-3.3 1.2c.2-.1.4-.1.7-.2.9-.3 1.8-.6 2.6-1m5.3-1.4c-.1 0-.2.1-.3.1-1.3.5-2.6 1-4 1.5.3-.1.7-.2 1-.2 1.1-.5 2.2-1 3.3-1.4m3.4-.7c-.9.4-1.8.8-2.7 1.1.2 0 .3-.1.5-.1.7-.3 1.4-.7 2.2-1m6.6-2c-.4.1-.9.2-1.3.4-1.3.6-2.5 1.2-3.8 1.8.6-.1 1.1-.3 1.7-.4 1.1-.7 2.2-1.2 3.4-1.8m3.9-1.1c-.5.1-1 .3-1.5.4-1.2.6-2.4 1.2-3.7 1.9.6-.1 1.2-.3 1.8-.4 1.2-.7 2.3-1.3 3.4-1.9m4.9-1.4c-.7.2-1.5.4-2.2.6-1.2.7-2.4 1.3-3.5 2 .8-.2 1.7-.4 2.5-.6 1-.7 2.1-1.3 3.2-2m-503.2-12.1c.6.6 1.1 1.2 1.7 1.7 21.5 10 44.4 19.1 69.3 26.7 48.8 14.9 101 22.3 158 22.3 21.6 0 43.9-1.1 66.9-3.2 36.6-3.3 71.4-7.7 104.6-13.1 1.6-.3 3.3-.5 4.9-.8 1.3-.2 2.7-.4 4-.7.3-.1.6-.1 1-.2 1.6-.3 3.3-.6 4.9-.8 1.4-.2 2.8-.5 4.2-.7.2 0 .5-.1.7-.1.7-.1 1.4-.3 2.1-.4 14.2-3 28.1-6.2 41.7-9.6-6.6 1.5-13.3 2.9-20.1 4.2-.6.1-1.1.2-1.7.3-10.1 2-20.4 4-30.8 5.8l-1.5.3c-1.5.2-2.9.5-4.4.7-.2 0-.4.1-.6.1-1.3.2-2.6.4-3.9.7-1.5.3-3.1.5-4.6.7-32.1 5.2-65.6 9.4-100.7 12.6-24 2.2-46.5 3.2-67.7 3.2-97.6.1-167.7-21.5-228-49.7m-9.8-4.7l1.9 1.9c2.6 1.3 5.3 2.5 7.9 3.7-.6-.6-1.1-1.2-1.7-1.8-2.7-1.2-5.4-2.5-8.1-3.8m-9.7-4.8c.8.7 1.5 1.4 2.3 2.1 2.5 1.2 4.9 2.4 7.4 3.6l-2-2c-2.6-1.1-5.1-2.4-7.7-3.7m-9.5-4.9l2.7 2.4c2.3 1.2 4.5 2.3 6.8 3.5-.8-.7-1.5-1.4-2.3-2.2-2.4-1.2-4.8-2.4-7.2-3.7m-9.4-4.9c1.1.9 2.2 1.9 3.3 2.8 2 1.1 4.1 2.1 6.1 3.2-.9-.8-1.9-1.7-2.8-2.5-2.1-1.1-4.4-2.3-6.6-3.5m-9.2-5l4.2 3.3c1.7.9 3.5 1.9 5.2 2.8-1.1-1-2.3-1.9-3.4-2.9-2.1-1-4.1-2.1-6-3.2m-9.2-5c1.8 1.3 3.6 2.7 5.4 4l3.9 2.1c-1.4-1.1-2.9-2.3-4.3-3.4-1.7-.9-3.3-1.8-5-2.7m-9.2-5.1c2.5 1.8 5 3.5 7.6 5.3.6.3 1.2.7 1.8 1l-5.7-4.2c-1.2-.8-2.4-1.4-3.7-2.1m-9.1-5.1l4.2 2.7c-1-.7-1.9-1.3-2.9-2-.4-.2-.9-.5-1.3-.7m794.4-37c-57.5 34.3-122.5 62-197 83-5.7 1.7-11.4 3.4-17.2 5.1-1.1.7-2.3 1.4-3.4 2.1 33.5-8.5 65.3-18.4 95.5-29.6 43.9-16.3 84.4-35.5 122.1-58v-2.6zM0 39v1.5c3.4.4 6.8.9 10.2 1.4 4.9.7 9.7 1.5 14.4 2.4 3.7.7 7.4 1.5 11 2.3 3.7.8 7.4 1.7 11.1 2.6 3.4.9 6.8 1.8 10.1 2.7 3 .8 5.9 1.7 8.8 2.6 3.2 1 6.4 2 9.5 3.1 2.8.9 5.5 1.9 8.3 2.9 2.3.8 4.7 1.7 7 2.6l7.8 3c2.1.8 4.1 1.7 6.1 2.5 2.6 1.1 5.2 2.2 7.8 3.4 1.5.7 3.1 1.4 4.6 2 2.7 1.2 5.3 2.4 8 3.7 1.1.5 2.1 1 3.2 1.5 2.9 1.4 5.8 2.8 8.6 4.2l1.2.6c1.6.8 3.3 1.6 4.9 2.5 11.9 6 23.6 12.4 35.2 18.8 6.3 3.5 12.6 7 18.8 10.6-9.7-5.9-19.4-11.7-29.3-17.4-3.2-1.7-6.4-3.5-9.6-5.2-.5-.3-1-.6-1.6-.8-3-1.6-5.9-3.1-8.9-4.7-1.1-.5-2.1-1.1-3.2-1.6-2.6-1.3-5.2-2.7-7.8-4-1.5-.7-3-1.5-4.4-2.2-2.4-1.2-4.8-2.3-7.3-3.5-1.8-.9-3.7-1.7-5.5-2.6-2.3-1.1-4.7-2.1-7.1-3.2-2.2-1-4.5-2-6.7-2.9-2.3-1-4.7-2-7-2.9-2.5-1-4.9-2-7.4-2.9-2.4-.9-4.9-1.8-7.3-2.7-3.2-1.1-6.3-2.3-9.6-3.3-2.6-.9-5.1-1.7-7.7-2.5-3.4-1.1-6.8-2.1-10.2-3-3.1-.9-6.3-1.7-9.5-2.6-3.6-.9-7.2-1.8-10.9-2.6-4-.9-8-1.7-12.1-2.5C15.9 41.2 8 40 0 39"/><path class="st0" d="M766.3 176.1l-1.5.6c.1 0 .2 0 .3-.1.4-.2.8-.4 1.2-.5m12-3.9c-.3.1-.5.2-.8.2-1.3.6-2.5 1.2-3.8 1.8.4-.1.9-.2 1.3-.4 1.2-.5 2.2-1 3.3-1.6m3.9-1.2c-.3.1-.7.2-1 .3-1.2.6-2.4 1.2-3.6 1.9.5-.1 1-.3 1.5-.4 1-.6 2-1.2 3.1-1.8m4.9-1.5c-.6.2-1.3.4-1.9.6-1.2.6-2.3 1.3-3.5 2 .7-.2 1.5-.4 2.2-.6 1.1-.7 2.1-1.4 3.2-2M288 166.9c.6.6 1.2 1.3 1.8 1.9 55.9 27.4 120.6 48.1 208.9 48.1 26 0 54.1-1.8 84.7-5.7 36.4-4.7 71-10.3 103.8-16.7 1.6-.3 3.2-.6 4.8-1 1.2-.2 2.4-.5 3.5-.7.4-.1.8-.2 1.3-.3 1.6-.3 3.2-.7 4.8-1 1.2-.3 2.5-.5 3.7-.8.4-.1.7-.2 1.1-.2 1.6-.3 3.2-.7 4.8-1 1.5-.3 2.9-.6 4.4-.9.1 0 .2-.1.4-.1 1.1-.2 2.2-.5 3.3-.7l1.5-.3c1.4-.3 2.9-.6 4.3-1 15.5-4 30.6-8.2 45.4-12.6.6-.2 1.1-.4 1.7-.6-9 2.5-18.1 4.9-27.3 7.2-13.6 3.4-27.5 6.6-41.7 9.6-.6.1-1.2.3-1.8.4-.2 0-.4.1-.6.1-1.2.3-2.4.5-3.6.8-1.5.3-2.9.6-4.4.9-.3.1-.6.1-.9.2-1.2.2-2.3.5-3.5.7l-4.5.9c-31.9 6.3-65.3 11.7-100.4 16.2C553 214.2 525 216 499 216c-89.6 0-154.7-21.1-211-49.1m-9.7-4.9l2.1 2.1c2.5 1.3 5.1 2.6 7.6 3.9-.6-.6-1.2-1.3-1.8-1.9-2.6-1.4-5.3-2.7-7.9-4.1m-9.5-5c.8.8 1.7 1.6 2.5 2.4 2.3 1.3 4.7 2.5 7.1 3.7l-2.1-2.1c-2.5-1.3-5-2.6-7.5-4m-9.3-5.1l3 2.7c2.1 1.2 4.3 2.3 6.4 3.5-.8-.8-1.7-1.6-2.5-2.4-2.3-1.2-4.6-2.5-6.9-3.8m-9.2-5.1c.8.7 1.6 1.4 2.5 2.1.4.4.9.7 1.3 1.1 1.8 1 3.7 2.1 5.5 3.1-1-.9-2-1.8-3.1-2.7-2-1.3-4.1-2.5-6.2-3.6m-9-5.3c.5.4.9.7 1.4 1.1 1.2.9 2.3 1.9 3.5 2.8 1.4.8 2.9 1.6 4.3 2.5-1.3-1.1-2.6-2.2-3.8-3.3-1.9-1-3.7-2-5.4-3.1m-9-5.3c.2.2.4.3.6.5 2 1.5 4.1 3 6.1 4.6.8.5 1.6.9 2.3 1.4-1.7-1.3-3.4-2.7-5-4-1.3-.9-2.7-1.7-4-2.5m-8.9-5.3c.1 0 .2.1.2.2 2 1.4 3.9 2.7 5.9 4.1-1.4-1-2.7-2-4.1-3.1-.7-.4-1.4-.8-2-1.2M1000 75.6c-55.4 34.9-118.3 63.8-190.6 86.6-6.6 2.3-13.4 4.5-20.2 6.7-1.1.7-2.2 1.4-3.4 2 5.8-1.7 11.5-3.3 17.2-5.1 25.6-7.8 50.1-16.3 73.6-25.7 44.6-17.7 85.5-38.3 123.4-62.1v-2.4zM0 37.3v1.1c10.6 1.2 20.8 2.8 30.6 4.8 4 .8 7.9 1.7 11.8 2.6 3.9.9 7.7 1.9 11.5 2.9 3 .8 6 1.7 9 2.6 3.6 1.1 7.1 2.2 10.6 3.3 2.4.8 4.8 1.6 7.2 2.5 3.3 1.2 6.5 2.4 9.7 3.6 2.3.9 4.5 1.8 6.7 2.7 2.6 1 5.1 2.1 7.7 3.2 2.1.9 4.2 1.8 6.4 2.8 2.3 1 4.6 2.1 6.9 3.1l6.3 3c1.9.9 3.8 1.8 5.7 2.8 2.1 1.1 4.2 2.1 6.3 3.2 1.5.8 3.1 1.6 4.6 2.4 2.2 1.2 4.4 2.4 6.7 3.5l3.3 1.8c2.4 1.3 4.9 2.7 7.3 4 .6.3 1.2.7 1.8 1 2.5 1.4 5 2.8 7.4 4.2 9.8 5.7 19.5 11.5 29.3 17.4 3.1 1.9 6.2 3.7 9.3 5.6 2.9 1.8 5.8 3.5 8.7 5.3-.1-.1-.3-.2-.4-.2-8.3-5.4-16.6-10.8-24.9-16.1-.7-.4-1.5-.9-2.2-1.3-3.1-1.9-6.3-3.8-9.4-5.6-.6-.4-1.3-.8-1.9-1.1l-7.8-4.5c-1.1-.6-2.2-1.3-3.3-1.9-2.3-1.3-4.5-2.6-6.8-3.9-1.5-.8-2.9-1.6-4.4-2.4-2.1-1.1-4.2-2.3-6.3-3.4-1.8-1-3.5-1.9-5.3-2.8-2-1-4-2.1-6-3.1-2.1-1.1-4.1-2.1-6.2-3.1-2-1-3.9-1.9-5.9-2.9-2.4-1.2-4.8-2.3-7.2-3.4l-6-2.7c-2.6-1.2-5.3-2.3-8-3.5-2.1-.9-4.2-1.7-6.3-2.6-3.2-1.3-6.5-2.6-9.8-3.8-2.2-.8-4.4-1.6-6.7-2.4-3.5-1.2-7-2.4-10.6-3.6-2.7-.9-5.5-1.7-8.3-2.5-3.7-1.1-7.5-2.1-11.4-3.1-3.5-.9-7.1-1.8-10.7-2.6-12.4-3.1-25.4-5.3-39-6.9"/><path class="st0" d="M770.4 173.8c-14.8 4.4-29.9 8.6-45.4 12.6l-3.6.9c-.4.1-.9.2-1.4.3-.9.2-1.9.5-2.9.7-.1 0-.3.1-.4.1-1.3.3-2.5.6-3.8.9-1.5.4-2.9.7-4.4 1.1l-1.2.3c-1.1.3-2.2.5-3.3.8-1.5.4-3 .7-4.5 1.1-.4.1-.9.2-1.3.3-1.1.2-2.1.5-3.2.7-1.5.4-3 .7-4.6 1.1-32 7.4-65.5 13.9-100.6 19.9-35.9 6-68.3 8.7-98 8.7-82.7 0-143.8-20.9-196.7-48.8.6.7 1.2 1.3 1.9 2 52.5 27.4 113.1 47.8 194.8 47.8 29.7 0 62.3-2.7 98.2-8.7 36.2-6.1 70.5-12.9 103-20.5 1.5-.4 3.1-.7 4.6-1.1h.1c1.1-.2 2.1-.5 3.2-.7.5-.1 1-.2 1.5-.4 1.5-.4 3-.7 4.5-1.1h.2c1.1-.3 2.2-.5 3.2-.8.5-.1 1-.2 1.4-.4 1.6-.4 3.1-.8 4.7-1.2 1.3-.3 2.5-.6 3.8-1 .3-.1.6-.1.8-.2.9-.2 1.9-.5 2.8-.7.6-.2 1.3-.3 1.9-.5l4.5-1.2c1.3-.4 2.7-.7 4-1.1l4.5-1.2 4.5-1.2c.9-.2 1.7-.5 2.5-.7 6.8-2 13.5-4.1 20.2-6.3 1.5-.4 3-.9 4.5-1.5m11-3.2h-.2c-1.2.6-2.5 1.2-3.7 1.8.3-.1.5-.2.8-.2 1.1-.5 2.1-1 3.1-1.6m-495.7-1.2l2.2 2.2c2.4 1.3 4.9 2.6 7.3 3.9-.6-.7-1.3-1.3-1.9-2-2.5-1.3-5.1-2.7-7.6-4.1m499.5-.1c-.2.1-.3.1-.5.2-1.2.6-2.4 1.2-3.5 1.8.3-.1.7-.2 1-.3 1-.5 2-1.1 3-1.7m4.6-1.4c-.5.2-1 .3-1.5.5-1.1.6-2.1 1.2-3.2 1.8.6-.2 1.3-.4 1.9-.6 1-.7 1.9-1.2 2.8-1.7m-513.4-3.7c.9.8 1.8 1.7 2.7 2.5 2.2 1.3 4.4 2.5 6.7 3.7l-.8-.8-1.5-1.5c-2.4-1.2-4.7-2.5-7.1-3.9m-9.1-5.3l3.3 3c1.9 1.1 3.9 2.3 5.9 3.4-.9-.9-1.8-1.7-2.7-2.6-2.2-1.3-4.4-2.5-6.5-3.8m-9-5.4c1.5 1.2 2.9 2.4 4.3 3.7 1.6.9 3.1 1.9 4.7 2.8-1.1-1-2.3-2-3.4-3.1-1.9-1.1-3.7-2.3-5.6-3.4m-8.9-5.5l6 4.8c1 .6 2 1.2 2.9 1.8-1.5-1.3-3-2.5-4.5-3.8-1.4-1-2.9-1.9-4.4-2.8m-8.8-5.6c2.6 1.9 5.2 3.9 7.8 5.8-1.7-1.4-3.5-2.7-5.2-4.1-.8-.6-1.7-1.1-2.6-1.7M1000 68.9c-60.8 41-129.4 73-208.2 98.3-.9.5-1.8 1.1-2.7 1.6 6.8-2.2 13.6-4.4 20.2-6.7 23-7.8 45-16.2 66-25.1 45.3-19.2 86.6-41.3 124.6-66.6v-1.5h.1zM0 35.7v.6c17.4 1.8 33.7 4.7 49.2 8.6 3.3.8 6.7 1.7 9.9 2.6 3.9 1.1 7.8 2.3 11.6 3.5 2.5.8 5 1.6 7.5 2.5 3.6 1.2 7.2 2.5 10.7 3.9 2 .8 4.1 1.6 6.1 2.4 3.3 1.3 6.5 2.7 9.8 4.1 1.9.8 3.8 1.6 5.6 2.5 2.7 1.2 5.4 2.5 8.1 3.7 1.8.8 3.6 1.7 5.3 2.6l7.2 3.6c1.7.9 3.5 1.8 5.2 2.7 2.1 1.1 4.2 2.2 6.3 3.4 1.7 1 3.5 1.9 5.2 2.9 1.8 1 3.6 2 5.4 3.1 1.8 1 3.6 2.1 5.4 3.1l4.5 2.7c1.9 1.1 3.8 2.3 5.7 3.4 1.2.7 2.3 1.4 3.5 2.1l6.3 3.9c.7.4 1.4.9 2.1 1.3 2.4 1.5 4.8 3 7.3 4.6 0 0 .1 0 .1.1.5.3 1 .6 1.5 1 8.3 5.3 16.6 10.7 24.9 16.1.1.1.3.2.4.2 5.8 3.8 11.6 7.5 17.4 11.3-3-2.1-6-4.2-8.9-6.2-4.4-3.1-8.8-6.2-13.3-9.3l-4.2-2.7c-.2-.1-.3-.2-.5-.3-2.8-1.8-5.7-3.7-8.5-5.5-.8-.5-1.5-1-2.3-1.5-2.3-1.5-4.6-2.9-6.9-4.4-1.1-.7-2.3-1.5-3.4-2.2-2-1.3-4-2.5-6-3.8-1.4-.9-2.9-1.8-4.3-2.7-1.8-1.1-3.7-2.2-5.5-3.3-1.7-1-3.4-2-5.1-3.1-1.7-1-3.5-2-5.2-3.1-1.9-1.1-3.9-2.3-5.9-3.4-1.7-1-3.4-1.9-5-2.8l-6.6-3.6c-1.7-.9-3.4-1.8-5-2.7-2.5-1.3-5-2.6-7.5-3.8-1.7-.9-3.4-1.7-5.2-2.5-2.7-1.3-5.5-2.6-8.3-3.9l-3.9-1.8c-.5-.2-1-.5-1.6-.7-3.3-1.5-6.6-2.9-9.9-4.2-2-.8-4-1.6-5.9-2.4-3.6-1.4-7.2-2.8-10.9-4-2.4-.9-4.9-1.7-7.3-2.5-3.9-1.3-7.8-2.5-11.7-3.6-3.2-.9-6.4-1.8-9.6-2.6-17.7-4.9-35.6-8.1-53.8-9.9"/><path class="st0" d="M293.1 176.8l2.4 2.4c2.3 1.3 4.6 2.7 6.9 4-.7-.7-1.4-1.4-2-2.2-2.5-1.3-4.9-2.7-7.3-4.2m472.8-1.4c-6.6 2.1-13.4 4.2-20.2 6.3-.6.2-1.3.4-1.9.6-1.2.4-2.5.7-3.7 1.1-1.3.4-2.7.8-4 1.2-1.2.4-2.4.7-3.7 1.1l-4.2 1.2c-.7.2-1.3.4-2 .6-.8.2-1.6.5-2.4.7-.3.1-.7.2-1 .3-1.1.3-2.3.6-3.4 1-1.5.4-2.9.8-4.4 1.2-.5.1-1 .3-1.5.4-1 .3-1.9.5-2.9.8-.1 0-.2.1-.3.1-1.4.4-2.8.7-4.1 1.1-.5.1-1.1.3-1.6.4-1 .3-1.9.5-2.9.8-.1 0-.2 0-.3.1-1.4.4-2.8.8-4.3 1.1-31.8 8.4-65.2 16.2-100.4 23.6-40.4 8.4-76.5 12.1-109.1 12.1-77.4 0-135.1-20.9-185.2-49 .7.7 1.4 1.4 2 2.1 21.2 11.7 43.7 22.2 68.3 30.2 31.4 10.3 63.5 15.9 98.2 17.2 5.4.2 10.9.3 16.4.3 34.1 0 70.1-4 109.5-12.2 36-7.5 70-15.6 102.1-24.2l4.2-1.2c.1 0 .2-.1.3-.1 1-.3 1.9-.5 2.9-.8.6-.2 1.1-.3 1.7-.5 1.4-.4 2.7-.8 4.1-1.1.2 0 .3-.1.5-.1 1-.3 1.9-.5 2.9-.8.6-.2 1.1-.3 1.7-.5 1.5-.4 3-.9 4.5-1.3 1.1-.3 2.2-.6 3.3-1l1.2-.3c.8-.2 1.6-.5 2.3-.7.7-.2 1.5-.4 2.2-.7 1.5-.4 2.9-.9 4.4-1.3 1.3-.4 2.5-.7 3.8-1.1.1 0 .1 0 .2-.1 1.5-.4 2.9-.9 4.4-1.3 1.5-.4 2.9-.9 4.4-1.3 1.4-.4 2.9-.9 4.3-1.3.4-.1.7-.2 1.1-.3 4.2-1.4 8.4-2.9 12.6-4.4m-481.9-4c1 .9 2 1.9 3 2.8 2 1.2 4.1 2.5 6.2 3.7l-2.5-2.5c-2.3-1.3-4.5-2.7-6.7-4m498-1.1c-.2.1-.5.2-.7.3h.2c.1-.1.3-.2.5-.3m4.4-1.6c-.1 0-.1 0-.2.1-.5.2-1 .5-1.5.8.2-.1.3-.1.5-.2.4-.3.8-.5 1.2-.7m4.7-1.6c-.5.2-.9.3-1.4.5-.4.2-.7.4-1.1.6.5-.2 1.1-.4 1.6-.6.3-.2.6-.3.9-.5M275 165.8c1.3 1.2 2.6 2.3 3.9 3.5 1.7 1.1 3.4 2.1 5.1 3.2-1-1-2-1.9-3.1-2.9-1.9-1.3-3.9-2.6-5.9-3.8m-8.8-5.7l5.4 4.5c1.2.7 2.3 1.5 3.5 2.2-1.3-1.2-2.7-2.4-4-3.6-1.7-1-3.3-2-4.9-3.1m-8.7-5.7c2.6 2.1 5.3 4.1 7.9 6.2.3.2.5.4.8.6-1.9-1.6-3.7-3.1-5.6-4.7-1-.7-2-1.4-3.1-2.1m577.6-3.6c-13.6 5.3-27.5 10.5-41.8 15.5-.3.2-.6.3-.8.5 14.6-5.1 28.8-10.5 42.6-16M0 34.1v.9c22.6 2 43.4 5.9 62.8 11.4 3 .9 6 1.7 9 2.7 4 1.2 7.9 2.6 11.8 3.9 2.3.8 4.5 1.6 6.8 2.5 3.7 1.4 7.3 2.8 10.9 4.3 1.8.8 3.7 1.5 5.5 2.3 3.3 1.4 6.6 2.9 9.9 4.5 1.7.8 3.4 1.6 5 2.4l8.4 4.2c1.6.8 3.2 1.6 4.7 2.5 2.5 1.3 5.1 2.7 7.6 4.1 1.5.8 3 1.7 4.6 2.5 2.3 1.3 4.5 2.6 6.7 3.9l4.5 2.7 6 3.6c1.5.9 3 1.9 4.6 2.8 1.8 1.1 3.5 2.2 5.2 3.3 1.6 1 3.1 2 4.7 3 1.5 1 3 2 4.5 2.9 1.7 1.1 3.4 2.2 5 3.3l3.6 2.4c1.9 1.3 3.7 2.5 5.6 3.8.8.6 1.7 1.1 2.5 1.7 2.1 1.5 4.3 2.9 6.4 4.4.2.2.5.3.7.5 1 .7 1.9 1.3 2.9 2 4.4 3.1 8.9 6.2 13.3 9.3 3 2.1 6 4.2 8.9 6.2 5.6 3.9 11.3 7.8 17 11.7-5.6-4.1-11.1-8.2-16.6-12.3-1-.7-2-1.5-3-2.2-2-1.4-3.9-2.7-5.9-4.1-.1 0-.2-.1-.2-.2-.3-.2-.7-.5-1.1-.7-2.5-1.8-5-3.5-7.6-5.3-.9-.6-1.7-1.2-2.6-1.8-2-1.4-4.1-2.8-6.1-4.2-1.2-.8-2.4-1.7-3.6-2.5-1.8-1.2-3.6-2.4-5.3-3.6-1.5-1-2.9-2-4.4-3-1.6-1.1-3.2-2.2-4.8-3.2-1.7-1.1-3.3-2.2-5-3.3l-4.5-3c-1.9-1.2-3.7-2.4-5.6-3.6-1.5-.9-2.9-1.8-4.4-2.8-2.1-1.3-4.1-2.6-6.2-3.8-1.4-.9-2.9-1.7-4.3-2.6-2.3-1.4-4.6-2.7-6.9-4-1.5-.8-2.9-1.7-4.4-2.5-2.5-1.4-5.1-2.8-7.7-4.2l-4.5-2.4c-2.8-1.5-5.6-2.9-8.4-4.3-1.6-.8-3.2-1.6-4.8-2.3-.3-.1-.6-.3-.8-.4l-9-4.2c-1.7-.8-3.5-1.5-5.2-2.3-3.6-1.6-7.3-3-10.9-4.5-2.2-.8-4.3-1.7-6.5-2.5-3.9-1.4-7.8-2.8-11.7-4.1-2.8-.9-5.7-1.8-8.5-2.7C46.1 40.4 23.5 36.1 0 34.1"/><path class="st0" d="M300.4 184.2l2.8 2.8c2.1 1.3 4.3 2.6 6.5 3.9-.8-.8-1.5-1.6-2.3-2.4-2.3-1.5-4.7-2.9-7-4.3m-8.9-5.7l3.6 3.3c1.8 1.2 3.7 2.3 5.5 3.5l-2.8-2.8c-2.2-1.3-4.2-2.7-6.3-4m481.9-5.7c-.4.2-.9.3-1.3.5-.6.2-1.1.4-1.7.6-1.5.5-3 1.1-4.5 1.6-4.2 1.5-8.4 3-12.7 4.4-.3.1-.5.2-.8.3-1.2.4-2.3.8-3.5 1.2-1.3.4-2.5.8-3.8 1.3-1.3.4-2.6.9-4 1.3-.1 0-.3.1-.4.1-1.1.4-2.2.7-3.3 1.1-1.4.4-2.7.9-4.1 1.3-.7.2-1.5.5-2.2.7-.7.2-1.4.4-2 .7-.4.1-.9.3-1.3.4-1 .3-2 .6-3 1-1.4.5-2.9.9-4.3 1.4l-1.8.6c-.9.3-1.7.5-2.6.8-.2.1-.4.1-.6.2-1.3.4-2.5.8-3.8 1.2-.6.2-1.2.4-1.8.5-.9.3-1.8.5-2.6.8-.2 0-.3.1-.5.1l-3.9 1.2c-31.4 9.6-64.6 18.6-99.6 27.4-44.3 11.1-83.3 15.9-118.2 15.9-73.1 0-128-21.1-175.7-49.5.8.8 1.5 1.6 2.3 2.4 21.3 12.5 43.9 23.6 68.6 31.8 31 10.3 62.9 15.7 97.4 16.3 2.2 0 4.4.1 6.6.1 36.8 0 75.9-5.3 119.1-16.1 35.8-8.9 69.5-18.3 101.1-28l3.9-1.2c.2 0 .4-.1.5-.2.9-.3 1.7-.5 2.6-.8.6-.2 1.2-.4 1.9-.6 1.3-.4 2.5-.8 3.8-1.2.2-.1.5-.1.7-.2.9-.3 1.7-.6 2.6-.8.6-.2 1.2-.4 1.9-.6 1.5-.5 2.9-.9 4.4-1.4 1-.3 2-.6 2.9-1 .5-.2 1-.3 1.5-.5.7-.2 1.3-.4 2-.7.8-.3 1.6-.5 2.4-.8 1.4-.5 2.9-.9 4.3-1.4 1.1-.4 2.1-.7 3.2-1.1.2-.1.5-.2.7-.2 1.4-.5 2.9-1 4.3-1.5s2.8-1 4.2-1.4c1.4-.5 2.8-1 4.2-1.4l3.3-1.2c4.6-1.9 9.1-3.7 13.6-5.4m-490.7-.2c1.6 1.4 3.3 2.9 4.9 4.3 1.3.9 2.7 1.8 4 2.6-1.2-1.1-2.4-2.3-3.6-3.4-1.8-1.1-3.5-2.3-5.3-3.5m-8.7-5.9c2.5 2.1 5 4.2 7.6 6.2.4.3.8.6 1.2.8-1.7-1.5-3.4-3-5-4.5-1.3-.8-2.5-1.7-3.8-2.5m520.7-1.8l-.9.3c-.6.4-1.2.7-1.9 1.1.4-.2.8-.3 1.2-.5.6-.3 1.1-.6 1.6-.9m-529.3-4.3c.5.4 1.1.9 1.7 1.3-.3-.2-.6-.5-.9-.7-.2-.2-.5-.4-.8-.6m621.8-36.2c-28.2 14.1-58.1 27.2-90 39.5-.5.3-1 .6-1.4.9 27.5-10.6 53.2-21.7 77.4-33.4 4.7-2.3 9.4-4.6 14-7M0 32.5v.8c28.6 2 54.3 7.3 78 14.9 2.7.9 5.3 1.8 8 2.7 4 1.4 7.9 2.9 11.8 4.4l6 2.4c3.7 1.5 7.3 3.1 10.9 4.7 1.6.7 3.2 1.5 4.9 2.3 3.3 1.6 6.6 3.2 9.8 4.8 1.5.8 3 1.5 4.4 2.3 2.9 1.5 5.7 3 8.5 4.6 1.4.8 2.8 1.5 4.2 2.3 2.6 1.5 5.2 3 7.7 4.5 1.3.8 2.7 1.6 4 2.4 2.3 1.4 4.6 2.8 6.9 4.3 1.3.8 2.6 1.6 3.9 2.5 2.1 1.4 4.2 2.7 6.3 4.1 1.3.9 2.6 1.7 3.9 2.6l5.7 3.9 3.9 2.7 5.1 3.6c1.4 1 2.7 1.9 4.1 2.9 1.5 1.1 3 2.1 4.5 3.2s2.9 2.1 4.4 3.2c1.3.9 2.5 1.8 3.8 2.8 1.6 1.2 3.3 2.4 4.9 3.6.9.7 1.9 1.4 2.8 2.1l5.7 4.2c.4.3.9.6 1.3 1 1.4 1 2.7 2 4.1 3.1 1 .7 2 1.5 3 2.2 5.5 4.1 11 8.2 16.6 12.3l16.5 12c-5.7-4.4-11.4-8.9-17.1-13.5-2.6-1.9-5.2-3.9-7.8-5.8-.5-.4-1-.8-1.6-1.2-2.1-1.5-4.1-3.1-6.1-4.6-.2-.2-.4-.3-.6-.5-1-.7-2-1.5-3-2.2-1.8-1.3-3.6-2.7-5.4-4-1.3-.9-2.5-1.9-3.8-2.8-1.6-1.2-3.1-2.3-4.7-3.5-1.5-1.1-3-2.2-4.4-3.3-1.4-1-2.9-2.1-4.3-3.1-1.6-1.2-3.3-2.4-5-3.6-1.3-.9-2.7-1.9-4-2.8-1.8-1.3-3.6-2.6-5.5-3.9-1.3-.9-2.6-1.8-3.8-2.7-2-1.4-4-2.7-5.9-4.1-1.3-.9-2.5-1.7-3.8-2.5-2.1-1.4-4.3-2.9-6.5-4.3-1.3-.8-2.5-1.6-3.8-2.4-2.3-1.5-4.7-3-7.1-4.4l-3.9-2.4c-2.6-1.6-5.2-3.1-7.8-4.6-1.3-.8-2.7-1.5-4-2.3-2.8-1.6-5.7-3.2-8.5-4.7-1.4-.8-2.8-1.5-4.3-2.3-3.2-1.7-6.5-3.3-9.8-4.9-1.6-.8-3.1-1.5-4.7-2.2-3.6-1.7-7.2-3.3-10.8-4.8l-5.7-2.4c-3.8-1.6-7.7-3-11.6-4.5-2.5-.9-5-1.8-7.6-2.7C57.6 40.5 30.4 34.7 0 32.5"/><path class="st0" d="M308.5 192.1c1 1 2 2 3 2.9 1.9 1.3 3.8 2.5 5.8 3.7-.8-.8-1.5-1.6-2.3-2.4-2.2-1.3-4.4-2.7-6.5-4.2m-8.8-6c1.4 1.3 2.8 2.6 4.3 3.9 1.5 1 2.9 2 4.4 3-1-1-2.1-2-3.1-3-1.9-1.3-3.7-2.6-5.6-3.9m-8.6-6.1c2.2 1.9 4.5 3.9 6.8 5.8.6.4 1.2.8 1.7 1.2-1.5-1.3-2.9-2.7-4.4-4.1-1.4-1-2.7-1.9-4.1-2.9m-8.5-6.3c.9.7 1.8 1.5 2.7 2.2-.4-.4-.9-.8-1.3-1.2-.5-.3-.9-.6-1.4-1m497.9-3.8c-2.4.9-4.8 1.9-7.1 2.8-4.5 1.8-9 3.5-13.5 5.3-.9.3-1.7.7-2.6 1-1.2.5-2.4.9-3.5 1.3-1.2.5-2.5.9-3.8 1.4-1.3.5-2.6 1-3.9 1.4l-.9.3c-.9.3-1.9.7-2.8 1-1.3.5-2.7 1-4 1.5l-2.4.9c-.6.2-1.2.4-1.7.6l-1.5.6c-.9.3-1.8.6-2.6.9l-4.2 1.5c-.6.2-1.3.4-1.9.7-.8.3-1.6.6-2.3.8-.3.1-.5.2-.8.3-1.2.4-2.3.8-3.5 1.2-.6.2-1.3.4-1.9.7-.8.3-1.6.6-2.4.8-.2.1-.4.1-.6.2-1.2.4-2.4.8-3.7 1.3-31.1 10.7-63.9 21.1-98.7 31.2-48.7 14.2-90.6 20.3-127.5 20.3-68.4 0-119.5-21-165.2-50.2.7.8 1.5 1.6 2.3 2.3 21.2 13.3 43.7 24.7 68.8 33.3 30.1 10.2 61.1 15.2 94.7 15.2h1.9c38.5-.2 79.5-6.8 125.3-20.2 35.5-10.4 68.8-21 100.1-31.9 1.2-.4 2.4-.8 3.7-1.3.2-.1.5-.2.7-.2.8-.3 1.6-.6 2.4-.8.7-.2 1.3-.5 2-.7 1.2-.4 2.3-.8 3.5-1.2l.9-.3c.8-.3 1.5-.6 2.3-.8.7-.2 1.3-.5 2-.7 1.4-.5 2.9-1 4.3-1.5.9-.3 1.7-.6 2.6-1 .6-.2 1.1-.4 1.7-.6.6-.2 1.1-.4 1.7-.6.9-.3 1.7-.6 2.6-1 1.4-.5 2.8-1 4.1-1.5.9-.3 1.8-.7 2.7-1 .4-.1.7-.3 1.1-.4 1.4-.5 2.8-1 4.1-1.6 1.4-.5 2.7-1 4.1-1.6 1.3-.5 2.7-1 4-1.5 1.3-.5 2.6-1 4-1.5l1.5-.6c4.5-2 9.2-4 13.9-6.1m17.7-7.2c-.1 0-.1 0-.1.1-.8.5-1.6.9-2.4 1.4l.6-.3c.6-.4 1.2-.8 1.9-1.2M1000 46.5c-56.3 45.1-121.2 82-198.6 114.8-.7.4-1.4.9-2.2 1.3C879.4 128.7 944.6 91 1000 47v-.5zM0 31v.8c34.9 1.9 65.5 8.6 93.1 18.5 2.4.9 4.8 1.7 7.1 2.7 4 1.5 7.8 3.1 11.7 4.8 1.8.8 3.6 1.6 5.3 2.4 3.6 1.6 7.2 3.4 10.8 5.1 1.5.7 2.9 1.4 4.3 2.2 3.3 1.7 6.5 3.4 9.7 5.1 1.3.7 2.6 1.5 3.9 2.2 2.9 1.6 5.7 3.3 8.5 4.9 1.2.7 2.5 1.5 3.7 2.2 2.6 1.6 5.2 3.2 7.7 4.8 1.2.7 2.3 1.5 3.5 2.3 2.4 1.5 4.7 3.1 7 4.7 1.1.8 2.3 1.5 3.4 2.3 2.2 1.5 4.3 3 6.5 4.5l3.3 2.4c2 1.4 4 2.9 6 4.3 1.1.8 2.2 1.6 3.4 2.5 1.8 1.4 3.7 2.7 5.5 4.1 1.1.9 2.3 1.7 3.4 2.6 1.7 1.3 3.4 2.6 5 3.8 1.2.9 2.4 1.9 3.6 2.8 1.5 1.2 3 2.4 4.6 3.5l3.9 3c1.3 1 2.7 2.1 4 3.1 1.4 1.1 2.9 2.3 4.3 3.4 1.1.8 2.1 1.7 3.2 2.5 1.7 1.3 3.4 2.7 5 4 .3.2.5.4.8.6.4.3.7.6 1.1.8 1.7 1.4 3.5 2.8 5.2 4.1l17.1 13.5c5.7 4.4 11.3 8.7 17 13-5.2-4.2-10.3-8.5-15.5-12.8-.6-.4-1.1-.9-1.7-1.3-2.7-2.1-5.3-4.1-7.9-6.2-.7-.5-1.4-1.1-2.1-1.6l-6-4.8c-1.1-.9-2.2-1.7-3.3-2.6-1.2-.9-2.3-1.9-3.5-2.8-.5-.4-.9-.7-1.4-1.1-1.3-1.1-2.7-2.1-4-3.2l-4.2-3.3c-1.5-1.2-3-2.4-4.6-3.6-1.3-1-2.5-2-3.8-3-1.7-1.3-3.3-2.6-5-3.9-1.2-.9-2.4-1.8-3.6-2.8-1.8-1.4-3.5-2.7-5.3-4.1-1.1-.8-2.2-1.7-3.4-2.6-1.9-1.4-3.8-2.9-5.7-4.3l-3.3-2.4c-2-1.5-4.1-3-6.1-4.5-1.1-.8-2.2-1.6-3.3-2.3-2.2-1.6-4.4-3.1-6.6-4.6-1.1-.8-2.2-1.5-3.3-2.3-2.4-1.6-4.7-3.2-7.1-4.8-1.1-.7-2.3-1.5-3.4-2.2-2.6-1.7-5.2-3.3-7.8-4.9-1.2-.7-2.4-1.5-3.6-2.2-2.8-1.7-5.6-3.4-8.5-5-1.3-.7-2.5-1.5-3.8-2.2-3.2-1.8-6.4-3.5-9.6-5.2-1.4-.7-2.8-1.5-4.2-2.2-3.5-1.8-7.1-3.5-10.7-5.2-1.7-.8-3.4-1.6-5.1-2.3-3.8-1.7-7.6-3.3-11.5-4.9-2.2-.9-4.5-1.8-6.8-2.6C68.5 40.3 36.6 33 0 31"/><path class="st0" d="M316.1 199.5c1.3 1.2 2.6 2.5 3.9 3.7 1.6 1.1 3.1 2.2 4.7 3.3-.9-1-1.9-1.9-2.8-2.9-2-1.4-3.9-2.8-5.8-4.1m-8.6-6.3c2 1.8 4.1 3.7 6.2 5.5.8.6 1.5 1.1 2.3 1.7-1.3-1.3-2.7-2.5-4-3.8-1.5-1.2-3-2.3-4.5-3.4m-8.4-6.4l3.9 3.3c-.6-.6-1.3-1.2-1.9-1.7-.7-.6-1.4-1.1-2-1.6m488.4-20c-2.3 1-4.6 2-7 3.1-4.7 2.1-9.4 4.1-14.2 6.2-.4.2-.8.3-1.2.5-1.1.5-2.2.9-3.3 1.4-1.2.5-2.3 1-3.5 1.5-1.2.5-2.4 1-3.7 1.5-1.3.5-2.5 1-3.8 1.6-.4.2-.8.3-1.2.5-.8.3-1.6.7-2.4 1-1.3.5-2.6 1.1-3.9 1.6-.8.3-1.7.7-2.6 1l-1.5.6c-.6.2-1.1.5-1.7.7-.8.3-1.6.6-2.3.9-1.4.5-2.7 1.1-4.1 1.6-.7.3-1.4.5-2 .8-.7.3-1.4.5-2.1.8-.3.1-.6.2-.9.4-1.1.4-2.1.8-3.2 1.3-.7.3-1.3.5-2 .8-.7.3-1.5.6-2.2.8-.3.1-.5.2-.8.3-1.1.4-2.3.9-3.4 1.3-30.7 11.9-63.2 23.5-97.8 35.1-51.6 17.3-95.4 24.7-133.7 24.7-65.4 0-114.5-21.5-158.5-51.4.9.9 1.8 1.9 2.7 2.8 21.3 14.2 43.9 26.3 69.3 35.1 27.5 9.5 55.9 14.2 86.5 14.2 3 0 6 0 9.1-.1 38.1-1.1 78.9-9.1 124.7-24.5 35.8-12 68.7-23.9 99.2-35.7 1.1-.4 2.3-.9 3.4-1.3.3-.1.5-.2.8-.3.7-.3 1.4-.6 2.2-.8.7-.3 1.4-.5 2.1-.8 1.1-.4 2.1-.8 3.2-1.3.3-.1.7-.3 1-.4.7-.3 1.4-.6 2.1-.8l2.1-.9c1.4-.6 2.8-1.1 4.2-1.7.8-.3 1.6-.6 2.3-.9.6-.2 1.2-.5 1.8-.7.5-.2 1-.4 1.4-.6.9-.4 1.8-.7 2.7-1.1 1.4-.6 2.7-1.1 4.1-1.7.8-.3 1.6-.7 2.4-1 .5-.2.9-.4 1.4-.6 1.4-.6 2.7-1.1 4.1-1.7 1.3-.6 2.7-1.1 4-1.7 1.3-.6 2.7-1.1 4-1.7.9-.4 1.8-.8 2.7-1.1 6.9-3.2 13.2-6.2 19.5-9.3m11.1-4.3l-.6.3c.1 0 .1 0 .1-.1.2-.1.3-.1.5-.2m201.4-125c-53.5 45.7-115.4 84-189.7 118.9l-5.4 2.7c-1 .7-2.1 1.3-3.1 2 24.7-11.4 47.7-23 69.4-34.9 48.4-26.6 91-55.5 128.8-87.6v-1.1zM0 29.8v.8c6.3.2 12.4.6 18.5 1.1 33.2 3 62.3 10.4 88.7 20.9 2.1.9 4.3 1.7 6.4 2.6 3.9 1.7 7.7 3.4 11.5 5.1 1.6.8 3.2 1.5 4.8 2.3 3.6 1.8 7.1 3.6 10.6 5.4l3.9 2.1 9.6 5.4 3.6 2.1c2.9 1.7 5.7 3.5 8.5 5.3l3.3 2.1c2.6 1.7 5.2 3.4 7.7 5.1 1 .7 2.1 1.4 3.1 2.1 2.4 1.7 4.8 3.3 7.1 5 1 .7 2 1.4 3 2.2 2.2 1.6 4.4 3.2 6.6 4.9 1 .7 2 1.5 2.9 2.2 2.1 1.6 4.1 3.1 6.1 4.7 1 .8 2 1.5 2.9 2.3 1.9 1.5 3.8 3 5.8 4.6l3 2.4c1.8 1.4 3.6 2.9 5.4 4.4 1 .8 2 1.7 3.1 2.5l5.1 4.2c1.1.9 2.1 1.8 3.2 2.6 1.6 1.3 3.1 2.6 4.7 3.9 1.1 1 2.3 1.9 3.4 2.9 1.4 1.2 2.8 2.4 4.2 3.5 1.3 1.1 2.6 2.2 3.8 3.3.6.5 1.2 1 1.9 1.6.5.4 1.1.9 1.6 1.3 1.5 1.3 3 2.5 4.5 3.8.8.7 1.5 1.3 2.3 2 1.9 1.6 3.7 3.1 5.6 4.7.3.2.6.5.9.7 5.2 4.3 10.3 8.6 15.5 12.8 5.5 4.5 11.1 8.9 16.6 13.2-4.7-3.9-9.3-7.9-13.9-12-.9-.7-1.8-1.5-2.7-2.2-.3-.3-.7-.6-1-.8-2.5-2.1-5-4.1-7.6-6.2-.8-.7-1.6-1.4-2.5-2.1l-5.4-4.5-3.6-3c-1.5-1.2-2.9-2.4-4.3-3.7-1.4-1.2-2.8-2.4-4.2-3.5-.4-.4-.9-.7-1.3-1.1-.8-.7-1.6-1.4-2.5-2.1-1.6-1.3-3.1-2.6-4.7-4-1.1-.9-2.2-1.9-3.3-2.8-1.7-1.4-3.4-2.8-5-4.2-1-.9-2.1-1.7-3.1-2.6-1.8-1.5-3.6-3-5.3-4.4-1-.8-2-1.7-3-2.5-1.9-1.5-3.7-3-5.6-4.6-1-.8-1.9-1.6-2.9-2.3-2-1.6-3.9-3.1-5.9-4.7-1-.7-1.9-1.5-2.9-2.3l-6.3-4.8c-1-.7-1.9-1.5-2.9-2.2-2.2-1.7-4.4-3.3-6.7-5-1-.7-2-1.4-3-2.2l-7.2-5.1c-1-.7-2-1.4-3.1-2.1-2.6-1.8-5.1-3.5-7.8-5.2-1.1-.7-2.2-1.4-3.2-2.1-2.8-1.8-5.6-3.6-8.5-5.3-1.1-.7-2.3-1.4-3.5-2.1-3.1-1.9-6.3-3.7-9.5-5.5-1.3-.7-2.5-1.4-3.8-2.1-3.5-1.9-7-3.7-10.5-5.5-1.5-.8-3.1-1.5-4.6-2.3-3.7-1.8-7.5-3.5-11.4-5.2-2-.9-4.1-1.7-6.1-2.6-27.2-11-57.4-19-92-22-6.1-.6-12.3-.9-18.6-1.2"/><path class="st0" d="M323.7 206.7c1.8 1.7 3.6 3.3 5.4 5 .9.7 1.9 1.4 2.9 2.1l-3.5-3.5-4.8-3.6m-8.3-6.5c1.6 1.4 3.3 2.9 4.9 4.3-.8-.7-1.6-1.5-2.4-2.3-.8-.7-1.7-1.3-2.5-2m487.3-40.9c-5 2.5-10.1 5-15.3 7.5-6.2 3-12.6 6-19 9-.7.3-1.5.7-2.2 1-1.2.5-2.3 1.1-3.4 1.6-1.2.5-2.4 1.1-3.6 1.6-1.2.6-2.5 1.1-3.7 1.7-.5.2-.9.4-1.4.6l-2.1.9c-1.3.6-2.5 1.1-3.8 1.7-.9.4-1.8.8-2.6 1.2-.4.2-.8.4-1.3.6-.6.3-1.2.5-1.8.8l-2.1.9c-1.3.6-2.6 1.2-4 1.8l-2.1.9c-.6.3-1.2.5-1.9.8-.4.2-.7.3-1.1.5-1 .4-2 .9-3 1.3l-2.1.9c-.7.3-1.3.6-2 .8-.3.1-.6.3-.9.4-1.1.5-2.1.9-3.2 1.4-30.3 13.1-62.5 26-96.8 39.1-54.1 20.6-99.5 29.3-138.8 29.3-62.9 0-110.3-22.2-152.7-52.9 1.1 1.1 2.3 2.2 3.4 3.4 41.5 29.4 88 50.3 149.2 50.3 39.4 0 84.9-8.7 139.1-29.4 35.5-13.5 68.1-26.7 98.1-39.7 1.1-.5 2.1-.9 3.2-1.4.3-.1.6-.3.9-.4.7-.3 1.3-.6 2-.9l2.1-.9c1-.4 2-.9 3-1.3.4-.2.8-.3 1.1-.5.6-.3 1.3-.6 1.9-.8.7-.3 1.5-.7 2.2-1 1.4-.6 2.7-1.2 4.1-1.8l2.1-.9c.7-.3 1.3-.6 2-.9l1.2-.6c.9-.4 1.9-.8 2.8-1.3l3.9-1.8 2.1-.9c.5-.3 1.1-.5 1.6-.7l3.9-1.8h.1c1.3-.6 2.5-1.2 3.8-1.7 0 0 .1 0 .1-.1 1.3-.6 2.5-1.2 3.8-1.8h.1c1.3-.6 2.5-1.2 3.8-1.8 1.3-.6 2.5-1.2 3.8-1.8 1.3-.6 2.5-1.2 3.7-1.8.2-.1.5-.2.7-.3 6.2-3.2 12.4-6.4 18.4-9.6 1.2-.3 2-.7 2.7-1.2M0 28.6v.8c9.8.2 19.3.7 28.6 1.6 35 3.5 65.5 12.1 92.8 24 1.9.8 3.8 1.7 5.7 2.6 3.8 1.8 7.6 3.6 11.3 5.5 1.5.7 2.9 1.5 4.3 2.2 3.5 1.9 7 3.8 10.4 5.7l3.6 2.1c3.2 1.9 6.3 3.8 9.4 5.7 1.1.7 2.2 1.4 3.2 2.1 2.8 1.8 5.6 3.7 8.4 5.5 1 .7 2 1.4 3 2 2.6 1.8 5.1 3.6 7.7 5.4.9.7 1.9 1.4 2.8 2 2.4 1.8 4.8 3.5 7.1 5.3l2.7 2.1c2.2 1.7 4.4 3.4 6.6 5.2.9.7 1.7 1.4 2.6 2.1 2.1 1.7 4.2 3.4 6.2 5.1.9.7 1.7 1.4 2.6 2.1 2 1.6 3.9 3.3 5.9 4.9.9.7 1.7 1.4 2.6 2.2 1.9 1.6 3.7 3.2 5.6 4.8.9.8 1.8 1.5 2.7 2.3 1.8 1.6 3.6 3.1 5.4 4.7.9.8 1.8 1.5 2.6 2.3l5.1 4.5c.9.8 1.9 1.7 2.8 2.5 1.6 1.4 3.2 2.8 4.8 4.3 1 .9 2 1.8 3.1 2.7 1.1 1 2.1 1.9 3.2 2.9.4.3.7.7 1.1 1 1.1 1 2.3 2 3.4 3.1 1.2 1.1 2.5 2.2 3.7 3.3 1.3 1.2 2.7 2.4 4 3.6l2.7 2.4c1.7 1.5 3.4 3 5 4.5.4.3.8.7 1.1 1 .4.4.9.8 1.3 1.2 4.6 4 9.2 8 13.9 12 5.2 4.4 10.4 8.7 15.7 12.9-4-3.5-8-7.1-12-10.7l-3.9-3.3c-.4-.3-.8-.7-1.2-1-2.3-1.9-4.5-3.9-6.8-5.8-1.2-1-2.3-2-3.5-3-1.6-1.4-3.3-2.9-4.9-4.3-1.3-1.1-2.5-2.2-3.8-3.4-1.3-1.2-2.6-2.3-3.9-3.5-1.5-1.3-2.9-2.6-4.4-3.9l-3.3-3c-1.3-1.2-2.6-2.4-3.9-3.5-.3-.2-.5-.5-.8-.7l-3-2.7c-1.7-1.5-3.4-3-5.1-4.6l-2.7-2.4c-1.8-1.6-3.6-3.2-5.3-4.7-.9-.8-1.7-1.5-2.6-2.3-1.9-1.6-3.7-3.3-5.6-4.9-.9-.8-1.7-1.5-2.6-2.3-1.9-1.7-3.8-3.3-5.7-4.9-.8-.7-1.7-1.4-2.5-2.2l-6-5.1c-.8-.7-1.7-1.4-2.5-2.1-2.1-1.7-4.2-3.4-6.3-5.2-.9-.7-1.7-1.4-2.6-2.1-2.2-1.8-4.4-3.5-6.7-5.3-.9-.7-1.8-1.4-2.7-2-2.4-1.8-4.7-3.6-7.1-5.4-.9-.7-1.8-1.4-2.8-2-2.5-1.8-5.1-3.7-7.7-5.5-1-.7-2-1.4-2.9-2-2.8-1.9-5.5-3.7-8.4-5.6-1.1-.7-2.1-1.4-3.2-2-3.1-1.9-6.2-3.9-9.3-5.7-1.2-.7-2.3-1.4-3.5-2.1-3.4-2-6.8-3.9-10.3-5.8-1.4-.7-2.8-1.5-4.2-2.2-3.7-1.9-7.4-3.7-11.1-5.5-1.8-.9-3.7-1.7-5.5-2.5C96.4 43 65 33.9 28.7 30.3c-9.4-.9-18.9-1.5-28.7-1.7m1000-.5c-50.5 46.2-108.9 85.4-179.4 122.1-4 2.2-8 4.4-12.1 6.7-1.2.7-2.4 1.5-3.6 2.2l5.4-2.7c21.3-10.8 41.2-21.7 60-32.7 49.2-28.8 92-59.8 129.7-93.9v-1.7z"/><path class="st0" d="M331.6 213.9c1.9 1.7 3.8 3.4 5.6 5-.9-.9-1.8-1.8-2.7-2.6-1-.9-2-1.6-2.9-2.4m468.8-53.2c-6 3.2-12.2 6.4-18.4 9.6l-.6.3c-1 .5-2.1 1.1-3.1 1.6-1.1.6-2.2 1.1-3.3 1.7-1.1.6-2.3 1.2-3.4 1.7-.1 0-.1.1-.2.1-1.1.6-2.2 1.1-3.3 1.7-.1 0-.2.1-.3.1-1.1.6-2.2 1.1-3.3 1.7-.1 0-.1.1-.2.1-1.1.6-2.3 1.2-3.5 1.7-.5.3-1.1.6-1.6.8-.6.3-1.2.6-1.9.9-1.2.6-2.5 1.2-3.7 1.8-.9.5-1.8.9-2.8 1.3-.4.2-.7.4-1.1.5-.7.3-1.3.6-2 1-.6.3-1.3.6-1.9.9-1.3.6-2.6 1.3-3.9 1.9-.7.4-1.5.7-2.2 1.1-.6.3-1.1.6-1.7.8l-1.2.6c-.9.4-1.8.9-2.8 1.3-.7.4-1.4.7-2.1 1l-1.8.9c-.3.2-.6.3-1 .5-1 .5-2 1-3 1.4-29.9 14.2-61.8 28.4-95.9 43.1C574.1 265 527.5 275 487.3 275c-60.9 0-106.8-23-147.9-54.9 1.8 1.7 3.5 3.4 5.3 5 21.4 16 44 29.4 69.5 38.5 23.2 8.2 47.1 12.3 72.6 12.3 6.8 0 13.7-.3 20.7-.9 37.3-3 77.6-14 123-33.4 34.9-14.9 67.1-29.4 96.9-43.6 1-.5 2-1 3-1.4.3-.2.7-.3 1-.5l1.8-.9c.7-.4 1.5-.7 2.2-1 .9-.4 1.8-.9 2.8-1.3l1.2-.6c.6-.3 1.1-.6 1.7-.8.8-.4 1.5-.7 2.3-1.1 1.3-.6 2.6-1.3 3.9-1.9.6-.3 1.3-.6 1.9-.9.7-.3 1.4-.7 2-1 .4-.2.7-.3 1.1-.5.9-.5 1.9-.9 2.8-1.4 1.3-.6 2.6-1.3 3.8-1.9l1.8-.9 1.8-.9c1.1-.6 2.3-1.2 3.4-1.7.1-.1.2-.1.4-.2 1.1-.6 2.2-1.1 3.3-1.7.2-.1.3-.1.5-.2 1.1-.6 2.2-1.1 3.3-1.7.1-.1.3-.1.4-.2 1.2-.6 2.4-1.2 3.7-1.9 1.2-.6 2.4-1.2 3.6-1.9 1.2-.6 2.4-1.2 3.5-1.8.5-.3 1-.5 1.5-.8.3-.2.7-.4 1-.5 4.5-2.7 8.9-5.2 13.3-7.7M0 27.6v.8h.4c13.3 0 26.2.7 38.6 2.1 36.7 4.1 68.3 13.8 96.5 27.2 1.7.8 3.5 1.7 5.2 2.5 3.7 1.9 7.4 3.8 11 5.8 1.3.7 2.6 1.4 3.9 2.2 3.4 1.9 6.8 3.9 10.2 6 1.1.7 2.2 1.3 3.3 2 3.1 1.9 6.1 3.9 9.2 5.9 1 .7 2 1.3 3 2 2.8 1.9 5.5 3.8 8.3 5.8.9.7 1.8 1.3 2.7 2 2.6 1.9 5.1 3.8 7.6 5.7.9.7 1.7 1.3 2.6 2 2.4 1.8 4.7 3.7 7.1 5.6.8.7 1.6 1.3 2.4 2 2.2 1.8 4.4 3.6 6.6 5.5.8.7 1.6 1.3 2.3 2l6.3 5.4c.8.7 1.5 1.3 2.3 2 2 1.8 4 3.5 6 5.3.8.7 1.5 1.3 2.3 2 1.9 1.7 3.8 3.4 5.7 5.2.8.7 1.6 1.4 2.3 2.1 1.9 1.7 3.7 3.4 5.6 5.2.7.7 1.5 1.4 2.2 2.1 1.8 1.7 3.6 3.4 5.4 5 .8.7 1.5 1.5 2.3 2.2 1.7 1.6 3.4 3.3 5.2 4.9.8.8 1.7 1.6 2.5 2.4 1.6 1.5 3.2 3 4.8 4.6.9.9 1.8 1.7 2.7 2.6 1.5 1.4 3 2.8 4.5 4.3 1 1 2 1.9 3.1 2.9 1.3 1.3 2.6 2.5 4 3.7 1.2 1.1 2.4 2.3 3.6 3.4l3.6 3.3c1.5 1.4 2.9 2.7 4.4 4.1.5.4 1 .9 1.5 1.3.6.6 1.3 1.2 1.9 1.7 4 3.6 8 7.2 12 10.7 5.5 4.8 11 9.5 16.6 14.1-3.8-3.4-7.5-6.9-11.2-10.4-1.7-1.4-3.3-2.8-4.9-4.3-.6-.5-1.2-1-1.7-1.5-2.1-1.8-4.1-3.6-6.2-5.5-1.2-1.1-2.3-2.1-3.5-3.2-1.4-1.3-2.8-2.6-4.3-3.9-1.6-1.4-3.1-2.9-4.6-4.3l-3.6-3.3c-1.5-1.4-3-2.8-4.5-4.3-1-.9-2-1.9-3-2.8-1.6-1.5-3.2-3.1-4.9-4.6-.9-.8-1.8-1.7-2.7-2.5-.7-.7-1.5-1.4-2.2-2.1-1-.9-1.9-1.9-2.9-2.8-.8-.8-1.7-1.6-2.5-2.4l-5.4-5.1c-.8-.7-1.5-1.4-2.3-2.1-1.8-1.7-3.7-3.5-5.5-5.2-.7-.7-1.5-1.4-2.2-2-1.9-1.8-3.8-3.5-5.7-5.3-.8-.7-1.5-1.4-2.3-2.1-1.9-1.8-3.9-3.5-5.8-5.3-.7-.7-1.5-1.3-2.2-2l-6-5.4c-.7-.7-1.5-1.3-2.3-2l-6.3-5.4c-.8-.7-1.5-1.3-2.3-2-2.2-1.9-4.4-3.7-6.7-5.5-.8-.7-1.6-1.3-2.4-2-2.3-1.9-4.7-3.8-7.1-5.6-.8-.7-1.7-1.3-2.5-2-2.5-1.9-5-3.8-7.6-5.7-.9-.7-1.8-1.3-2.7-2-2.7-2-5.5-3.9-8.2-5.8-1-.7-1.9-1.3-2.9-2-3-2-6-4-9.1-5.9-1.1-.7-2.1-1.3-3.2-2-3.3-2-6.7-4.1-10.1-6-1.3-.7-2.5-1.4-3.8-2.2-3.6-2-7.2-3.9-10.9-5.8-1.7-.8-3.3-1.7-5-2.5-28.9-14-61.4-24.2-99.2-28.4-12.9-1.7-25.9-2.4-39.3-2.4m1000-7.5c-50.2 49-109.1 90.7-181.9 131-2.1 1.3-4.3 2.5-6.4 3.8-1 .7-2.1 1.3-3.1 2 4.1-2.2 8.1-4.4 12.1-6.7 74.7-41.6 131.6-82.9 179.4-129.4v-.7h-.1z"/><path class="st0" d="M816.9 151c-4.6 2.8-9.4 5.5-14.1 8.3-.8.5-1.6.9-2.4 1.4-4.3 2.5-8.7 5-13.2 7.5-.3.1-.5.3-.8.5-.4.2-.8.4-1.2.7-1 .6-2 1.1-3 1.7-1 .6-2.1 1.2-3.2 1.8l-3.3 1.8c-.2.1-.3.2-.5.3-1 .5-1.9 1-2.9 1.6l-.6.3c-1 .5-1.9 1.1-2.9 1.6-.2.1-.3.2-.5.3-1 .6-2 1.1-3.1 1.7-.6.3-1.2.6-1.7 1-.5.3-1.1.6-1.6.9-1.2.7-2.4 1.3-3.6 2-.9.5-1.9 1-2.8 1.5-.3.2-.6.3-.9.5-.7.4-1.3.7-2 1.1-.6.3-1.1.6-1.7.9h-.1c-1.2.7-2.4 1.3-3.7 2-.7.4-1.5.8-2.2 1.2-.5.3-1 .5-1.5.8-.4.2-.8.4-1.3.7-.9.5-1.7.9-2.6 1.3-.7.4-1.5.8-2.2 1.1-.5.3-1.1.6-1.7.9-.4.2-.7.4-1 .6-.9.5-1.9 1-2.8 1.5-29.4 15.4-61 30.9-94.8 47.1-57.9 27.6-105.6 39-146.3 39-59.5 0-104.2-24.3-144.4-57.6 3.4 3.2 6.8 6.2 10.2 9.3 20.6 15.9 42.3 29.2 66.7 38 21.3 7.7 43.3 11.4 66.7 11.4 8.3 0 16.8-.5 25.4-1.4 36.9-4 76.7-16.5 121.9-38 34.9-16.7 66.7-32.5 95.8-47.6.9-.5 1.9-1 2.8-1.5.4-.2.7-.4 1.1-.6.5-.3 1.1-.6 1.7-.9.7-.4 1.5-.8 2.2-1.2.9-.5 1.7-.9 2.6-1.4.4-.2.9-.5 1.3-.7.5-.3 1-.5 1.5-.8.8-.4 1.5-.8 2.3-1.2 1.2-.7 2.5-1.3 3.7-2 0 0 .1 0 .1-.1.6-.3 1.1-.6 1.7-.9.7-.4 1.4-.7 2.1-1.1.3-.2.6-.3.9-.5 1-.5 1.9-1 2.9-1.5 1.2-.7 2.5-1.3 3.7-2 .5-.3 1.1-.6 1.6-.9.6-.3 1.3-.7 1.9-1 1-.6 2.1-1.1 3.1-1.7l.6-.3c1-.5 1.9-1.1 2.9-1.6.2-.1.5-.3.7-.4 1-.5 1.9-1.1 2.9-1.6.2-.1.5-.3.7-.4 1.2-.7 2.4-1.3 3.5-2 1.2-.7 2.3-1.3 3.5-2 1.1-.6 2.1-1.2 3.2-1.8.1 0 .2-.1.3-.1.4-.2.7-.4 1.1-.6.8-.4 1.5-.9 2.3-1.3.6-.3 1.2-.7 1.9-1.1.6-.3 1.2-.7 1.8-1 .8-.5 1.6-.9 2.4-1.4l.6-.3c6.2-4.2 12.3-8 18.3-11.8M6.7 26.6c-2.2 0-4.5 0-6.7.1v.7c2.2 0 4.5-.1 6.7-.1 57.1 0 103.2 12.9 142.4 32.9 1.6.8 3.1 1.6 4.7 2.4 3.6 1.9 7.2 3.9 10.8 6l3.6 2.1c3.4 2 6.7 4.1 9.9 6.2 1 .7 2 1.3 3 2 3 2 6 4 9 6.1.9.6 1.8 1.3 2.7 1.9 2.7 2 5.5 4 8.1 6 .8.6 1.7 1.3 2.5 1.9 2.5 1.9 5 3.9 7.5 5.9.8.6 1.6 1.3 2.3 1.9 2.4 1.9 4.7 3.9 7 5.8.7.6 1.5 1.3 2.2 1.9l6.6 5.7c.7.6 1.4 1.3 2.1 1.9l6.3 5.7c.7.6 1.4 1.3 2.1 1.9 2 1.9 4 3.7 6 5.6.7.6 1.3 1.3 2 1.9 1.9 1.8 3.9 3.7 5.8 5.5.7.7 1.4 1.3 2.1 2 1.9 1.9 3.8 3.7 5.7 5.6l1.9 1.9c1.9 1.8 3.7 3.7 5.6 5.5l2 2 5.4 5.4 2.1 2.1 5.1 5.1 1.5 1.5.8.8c1.6 1.7 3.3 3.3 4.9 4.9l2.5 2.5 4.6 4.6 2.8 2.8c1.6 1.5 3.1 3.1 4.7 4.6 1 1 2.1 2 3.1 3 1.2 1.2 2.4 2.4 3.6 3.5 1.3 1.3 2.6 2.6 4 3.8.6.6 1.3 1.2 1.9 1.9.8.8 1.6 1.5 2.4 2.3 3.7 3.5 7.5 7 11.2 10.4 5.3 4.8 10.7 9.4 16.1 13.9-3.5-3.2-7-6.6-10.5-9.9-1.9-1.6-3.8-3.3-5.6-5l-2.4-2.1c-1.8-1.7-3.6-3.3-5.4-5-1.3-1.2-2.5-2.4-3.8-3.5-1.3-1.2-2.6-2.5-3.9-3.7-1.5-1.5-3-2.9-4.6-4.4-1-1-2-2-3-2.9-1.8-1.7-3.5-3.4-5.3-5.2-.9-.9-1.9-1.8-2.8-2.8l-4.9-4.9-2.4-2.4-5.2-5.2-2.2-2.2-.2-.2-5.1-5.1-2.1-2.1-5.5-5.5c-.6-.7-1.3-1.3-1.9-1.9-1.9-1.9-3.8-3.7-5.7-5.6-.6-.6-1.3-1.2-1.9-1.9-1.9-1.9-3.9-3.8-5.8-5.7-.7-.7-1.4-1.3-2.1-2-1.9-1.9-3.9-3.7-5.9-5.6-.7-.6-1.3-1.3-2-1.9-2-1.9-4-3.8-6.1-5.7-.7-.6-1.4-1.3-2-1.9l-6.3-5.7c-.7-.6-1.4-1.3-2.1-1.9-2.2-2-4.4-3.9-6.6-5.8-.7-.6-1.5-1.3-2.2-1.9-2.3-2-4.7-3.9-7-5.9-.8-.6-1.5-1.3-2.3-1.9-2.5-2-5-4-7.5-5.9-.8-.6-1.7-1.3-2.5-1.9l-8.1-6c-.9-.6-1.8-1.3-2.7-1.9-2.9-2.1-5.9-4.1-8.9-6.1-1-.7-2-1.3-3-2-3.2-2.1-6.5-4.2-9.8-6.2-1.2-.7-2.3-1.4-3.5-2.1-3.5-2.1-7-4.1-10.6-6-1.5-.8-3-1.6-4.6-2.4C111.8 40 65 26.6 6.7 26.6M1000 9.5c-46.9 49.5-102 92.1-170.5 134-5.8 3.8-11.7 7.6-17.8 11.5 2.2-1.3 4.3-2.5 6.4-3.8 18.2-10.8 35.1-21.5 51-32 51.7-34.5 94.1-69.3 131-107.9V9.5h-.1z"/><path class="st0" d="M1000 0c-48.8 55.5-107.2 102.7-183.1 151-6 3.8-12.1 7.6-18.3 11.5-.1.1-.3.2-.4.2-.6.4-1.3.8-1.9 1.2-.5.3-1 .6-1.6 1l-1.5.9c-.7.4-1.4.9-2.1 1.3-.3.2-.6.4-.9.5-.1.1-.3.2-.4.2-.9.6-1.8 1.1-2.7 1.6-1.1.6-2.1 1.3-3.2 1.9-1.1.7-2.2 1.3-3.3 2-.3.2-.6.3-.8.5-.8.5-1.7 1-2.5 1.5-.3.2-.6.3-.8.5-.9.5-1.7 1-2.6 1.5-.2.1-.5.3-.7.4-.9.6-1.9 1.1-2.8 1.7-.6.4-1.2.7-1.9 1.1l-1.5.9c-1.2.7-2.4 1.4-3.5 2.1-.9.6-1.9 1.1-2.8 1.6-.3.2-.5.3-.8.5l-2.1 1.2c-.5.3-1 .6-1.6.9-.1 0-.2.1-.2.1-1.1.7-2.3 1.3-3.4 2-.8.5-1.5.9-2.3 1.3-.5.3-.9.5-1.4.8-.4.3-.9.5-1.3.8-.8.5-1.6.9-2.4 1.4-.7.4-1.5.8-2.2 1.3l-1.5.9c-.4.2-.7.4-1.1.6-.9.5-1.8 1-2.6 1.5-29 16.5-60.2 33.4-93.8 51.1-56.8 30-105.7 44.7-149.5 44.7-21.5 0-41.9-3.6-61.3-10.6-28.3-10.3-53-27.3-76.4-47.8-3.4-3-6.8-6.1-10.2-9.3-.5-.5-1.1-1-1.6-1.5-1.8-1.7-3.5-3.3-5.3-5-1.3-1.3-2.6-2.6-3.9-3.8-1.1-1.1-2.3-2.2-3.4-3.4l-4.6-4.6c-.9-.9-1.8-1.9-2.7-2.8-1.7-1.7-3.4-3.5-5.1-5.2-.7-.8-1.5-1.6-2.3-2.3-1.9-1.9-3.7-3.9-5.6-5.8-.8-.8-1.5-1.6-2.3-2.4l-5.1-5.4c-.7-.7-1.4-1.4-2-2.1-1.8-1.9-3.5-3.7-5.3-5.6-.6-.7-1.2-1.3-1.9-2l-5.4-5.7c-.6-.6-1.2-1.3-1.8-1.9-1.9-2-3.7-3.9-5.6-5.9-.6-.6-1.1-1.2-1.7-1.7l-5.7-6c-.5-.6-1.1-1.1-1.6-1.7-1.9-2-3.9-4-5.9-6-.6-.6-1.2-1.3-1.8-1.9-1.9-2-3.9-3.9-5.9-5.9l-1.8-1.8c-2-2-4-4-6-5.9-.6-.6-1.2-1.2-1.9-1.8l-6.3-6c-.6-.6-1.3-1.2-1.9-1.8l-6.6-6c-.7-.6-1.3-1.2-2-1.8-2.3-2-4.6-4.1-7-6.1l-2.1-1.8c-2.4-2.1-4.9-4.1-7.4-6.1-.8-.6-1.5-1.2-2.3-1.9-2.6-2.1-5.3-4.2-7.9-6.2-.8-.6-1.7-1.3-2.5-1.9-2-1.5-4-3-6.1-4.4-.9-.6-1.7-1.2-2.6-1.9-.9-.7-1.8-1.3-2.8-1.9-3.2-2.2-6.4-4.3-9.6-6.4l-3.3-2.1c-3.4-2.2-6.9-4.2-10.3-6.2l-4.2-2.4c-33.2-18.2-67.7-29.7-105-34.8-15.1-2.1-30.7-3.1-46.9-3.1-4.5 0-9.1.1-13.6.2v.8c4.9-.2 9.7-.3 14.5-.3 15.9 0 31.2 1 45.9 3 39.8 5.4 73.5 17.5 103.2 33.8 1.4.8 2.8 1.6 4.3 2.4 3.5 2 7 4.1 10.4 6.2l3.3 2.1c3.2 2.1 6.5 4.2 9.6 6.4.9.6 1.9 1.3 2.8 1.9l8.7 6.3c.8.6 1.7 1.3 2.5 1.9 2.7 2 5.3 4.1 7.9 6.2.8.6 1.5 1.2 2.3 1.9 2.5 2 4.9 4 7.4 6.1l2.1 1.8 6.9 6c.7.6 1.4 1.2 2 1.8 2.2 2 4.4 4 6.5 6 .6.6 1.3 1.2 1.9 1.8 2.1 2 4.2 3.9 6.2 5.9.6.6 1.2 1.2 1.9 1.8 2 1.9 4 3.9 6 5.9l1.8 1.8 5.8 5.8c.6.6 1.2 1.3 1.9 1.9 1.9 2 3.9 4 5.8 5.9.6.6 1.1 1.1 1.6 1.7 1.9 2 3.8 3.9 5.7 5.9.6.6 1.1 1.2 1.7 1.8 1.8 1.9 3.7 3.9 5.5 5.8.6.6 1.2 1.3 1.8 1.9 1.8 1.9 3.5 3.7 5.3 5.6.6.7 1.3 1.3 1.9 2 .5.5.9 1 1.4 1.4 1.3 1.3 2.5 2.7 3.8 4 .7.7 1.4 1.4 2 2.2 1.7 1.7 3.3 3.5 4.9 5.2.8.8 1.5 1.6 2.3 2.4 1.8 1.8 3.5 3.7 5.3 5.5.8.8 1.5 1.6 2.3 2.4 1.5 1.6 3.1 3.2 4.6 4.8.9 1 1.9 1.9 2.8 2.9l3.9 3.9 3.5 3.5c.8.8 1.6 1.6 2.5 2.4.9.9 1.8 1.8 2.7 2.6 3.5 3.4 6.9 6.7 10.5 9.9 26 24 53.2 44 85 55.6 19.6 7.1 39.8 10.6 61.2 10.6 9.6 0 19.4-.7 29.5-2.1 36.4-5.1 75.8-19 120.6-42.7 35-18.4 66.3-35.5 94.6-51.7.9-.5 1.8-1 2.6-1.5.4-.2.8-.4 1.1-.7l1.5-.9c.8-.4 1.5-.9 2.3-1.3.8-.5 1.6-.9 2.4-1.4.5-.3.9-.5 1.4-.8.5-.3.9-.5 1.4-.8.8-.5 1.6-.9 2.3-1.4 1.2-.7 2.3-1.3 3.5-2 .1 0 .2-.1.3-.2.5-.3 1-.6 1.6-.9l2.1-1.2c.3-.2.5-.3.8-.5 1-.6 1.9-1.1 2.9-1.7l3.6-2.1 1.5-.9c.7-.4 1.3-.8 2-1.2.9-.6 1.9-1.1 2.8-1.7.3-.2.5-.3.8-.5.9-.5 1.7-1 2.6-1.6l.9-.6c.8-.5 1.7-1 2.5-1.5l.9-.6c1.1-.7 2.3-1.4 3.4-2.1 1.1-.7 2.3-1.4 3.4-2 .9-.6 1.8-1.1 2.7-1.6.2-.1.4-.3.6-.4.3-.2.6-.3.8-.5l2.4-1.5c.5-.3 1-.6 1.4-.9.7-.4 1.4-.8 2-1.3.7-.5 1.4-.9 2.2-1.3.1-.1.2-.2.4-.2 1.1-.7 2.1-1.3 3.1-2 1.2-.7 2.4-1.5 3.6-2.2 1-.7 2.1-1.3 3.1-2 6.1-3.9 12-7.7 17.8-11.5 13.8-9 26.8-17.9 39.1-26.7 52.7-37.5 95-74.8 131.4-116V0h.3z"/></svg>