<svg version="1.1" id="Ebene_1" xmlns="http://www.w3.org/2000/svg" x="0" y="0" viewBox="0 0 1000 1000" xml:space="preserve"><style>.st0{fill:#fefffa}.st1{fill:#fdcf8f}</style><path class="st0" d="M264.1 196.8c.9.5 1.9 1 2.8 1.5-1.5.1-3 .2-4.5.2-.9-.5-1.8-1-2.6-1.5 1.4-.1 2.9-.1 4.3-.2m5.4-.3c1 .5 2 1 3 1.4-1.4.1-2.9.2-4.3.3-.9-.5-1.9-1-2.8-1.5 1.3-.1 2.7-.1 4.1-.2m5.3-.3c1.1.5 2.1.9 3.2 1.4-1.4.1-2.9.2-4.3.3-1-.5-2-.9-3-1.4 1.4-.2 2.8-.2 4.1-.3m5.5-.4c1.1.4 2.3.9 3.4 1.3-1.3.1-2.7.2-4 .3-1.1-.5-2.1-.9-3.2-1.4 1.2 0 2.5-.1 3.8-.2m5.6-.4c1.2.4 2.4.9 3.7 1.3l-4.2.3c-1.1-.4-2.3-.9-3.4-1.3l3.9-.3m5.5-.4l3.9 1.2c-1.4.1-2.8.2-4.2.4-1.2-.4-2.4-.8-3.7-1.3 1.4-.1 2.7-.2 4-.3m5.5-.5c1.4.4 2.8.8 4.2 1.1-1.4.1-2.7.3-4.1.4l-3.9-1.2c1.2-.1 2.5-.2 3.8-.3m5.5-.5c1.5.4 3.1.7 4.6 1.1-1.3.1-2.7.3-4 .4-1.4-.4-2.8-.8-4.3-1.1 1.2-.2 2.5-.3 3.7-.4m5.7-.5c1.6.3 3.2.6 4.8 1-1.1.1-2.3.2-3.4.4-1.5-.4-3-.7-4.6-1.1 1.1-.1 2.1-.2 3.2-.3m5.8-.5c1.6.3 3.3.5 4.9.8l-2.4.3-4.5-.9c.7-.1 1.3-.2 2-.2m5.8-.6c1.7.2 3.4.4 5.1.7-.6.1-1.3.2-1.9.2-1.5-.2-3.1-.5-4.6-.7.5-.1.9-.2 1.4-.2m5.9-.6c1.7.2 3.5.3 5.2.5-.7.1-1.4.2-2 .3-1.6-.2-3.2-.4-4.7-.6.4-.1 1-.1 1.5-.2m5.9-.6c1.8.1 3.5.2 5.3.3-.5.1-.9.1-1.4.2-1.6-.1-3.2-.3-4.7-.4.2-.1.5-.1.8-.1m6.4-.8c1.8.1 3.6.1 5.4.2-.3 0-.7.1-1 .1-1.6-.1-3.1-.2-4.7-.3h.3m5.9-.7h5.5c-.3 0-.6.1-.9.1-1.6 0-3.2-.1-4.8-.1h.2M0 164.6c70.2 22.2 144.2 33.3 221.7 33.3 12.2 0 24.6-.3 37-.8.9.5 1.8 1 2.6 1.5-14.1.7-28.2 1.1-42.1 1.1-37.4 0-74-2.6-109.4-7.7-37.3-5.4-74.1-13.8-109.8-24.9v-2.5zm834.8-101l-4.2 2.4c-85.3 18.2-187.4 47.2-326 88.7-19.5 5.8-38.8 11.1-58 15.8-22.7 5.1-45.1 9.5-67.3 13-.7.1-1.5.2-2.2.3 41.5-7.3 83.8-17.4 127.1-30.3 143.9-43.1 246.5-72.1 330.6-89.9m13.5-2.8c-1.5.8-3.1 1.6-4.6 2.4-3.8.8-7.7 1.6-11.6 2.4 1.4-.8 2.8-1.6 4.3-2.4 4-.8 8-1.6 11.9-2.4m13.4-2.6c-1.7.8-3.4 1.6-5 2.5l-10.5 2.1c1.6-.8 3.1-1.6 4.7-2.4 3.6-.9 7.2-1.6 10.8-2.2m13.7-2.6c-1.9.8-3.7 1.7-5.5 2.5-3.5.6-7 1.3-10.6 2 1.7-.9 3.4-1.7 5.2-2.5 3.7-.7 7.3-1.4 10.9-2m13.9-2.4c-2.1.8-4.1 1.7-6.1 2.6-3.4.6-6.9 1.2-10.3 1.8 1.9-.9 3.8-1.7 5.7-2.6 3.6-.6 7.1-1.2 10.7-1.8m13.6-2.2c-2.3.9-4.5 1.7-6.8 2.6-3.2.5-6.4 1-9.7 1.6 2.1-.9 4.2-1.8 6.4-2.6 3.4-.5 6.8-1.1 10.1-1.6m14.6-2.1c-2.6.9-5.1 1.7-7.6 2.7-3.3.5-6.7 1-10 1.5 2.3-.9 4.7-1.8 7.1-2.7 3.5-.5 7-1.1 10.5-1.5m14.2-1.9c-2.8.9-5.7 1.7-8.5 2.7-3 .4-6.1.8-9.1 1.3 2.6-.9 5.3-1.8 8-2.7 3.2-.5 6.4-.9 9.6-1.3m14.7-1.7c-3.2.8-6.4 1.7-9.6 2.6-2.9.3-5.8.7-8.7 1.1l9-2.7c3.2-.3 6.2-.7 9.3-1m14.5-1.4c-3.6.8-7.2 1.7-10.7 2.6-3.1.3-6.2.7-9.3 1 3.3-.9 6.6-1.8 9.9-2.6 3.4-.4 6.7-.7 10.1-1m15.6-1.2c-4.1.8-8.1 1.6-12.1 2.5l-6.9.6c3.9-.9 7.8-1.8 11.8-2.6 2.5-.2 4.8-.4 7.2-.5m16.1-1c-4.6.7-9.2 1.5-13.7 2.3-1.2.1-2.3.2-3.5.2 4.7-.9 9.5-1.7 14.4-2.4.9 0 1.9-.1 2.8-.1m7.4-.3v1.5-.7c-2.1.3-4.3.6-6.4.9-2.5.1-5 .3-7.6.4 4.6-.7 9.3-1.4 14-2.1z"/><path class="st0" d="M261.4 195.3c.5.3 1.1.6 1.7.9-1.4.1-2.9.1-4.3.1l-1.5-.9c1.3 0 2.7 0 4.1-.1m5.3-.2l1.8.9c-1.4.1-2.8.1-4.2.2-.5-.3-1.1-.6-1.7-.9 1.4 0 2.7-.1 4.1-.2m5.2-.2c.7.3 1.3.6 2 .9-1.4.1-2.8.1-4.1.2l-1.8-.9c1.3-.1 2.6-.1 3.9-.2m5.4-.3c.7.3 1.4.6 2.2.8-1.3.1-2.6.1-3.8.2-.7-.3-1.3-.6-2-.9 1.1.1 2.4 0 3.6-.1m5.5-.3c.8.3 1.6.6 2.4.8-1.3.1-2.7.2-4 .2-.7-.3-1.5-.6-2.2-.8 1.3 0 2.6-.1 3.8-.2m5.4-.3c.9.3 1.7.5 2.6.8-1.3.1-2.7.2-4 .3-.8-.3-1.6-.6-2.4-.8 1.3-.2 2.6-.2 3.8-.3m5.5-.4c1 .3 1.9.5 2.9.8l-3.9.3c-.9-.3-1.8-.5-2.6-.8 1.1-.1 2.3-.2 3.6-.3m5.4-.4c1.1.3 2.1.5 3.2.8l-3.9.3c-1-.3-1.9-.5-2.9-.8l3.6-.3m5.4-.4c1.2.2 2.4.5 3.5.7-1 .1-2.1.2-3.1.3-1.1-.2-2.1-.5-3.2-.8.9-.1 1.9-.2 2.8-.2m5.4-.5c1.3.2 2.7.4 4 .7-.6.1-1.3.1-1.9.2-1.2-.2-2.3-.5-3.5-.7.4-.1.9-.2 1.4-.2m5.3-.5l4.5.6c-.5 0-1 .1-1.5.1-1.3-.2-2.6-.4-3.9-.7.3.1.6 0 .9 0m5.3-.5c1.7.2 3.4.3 5.1.5-.5.1-1.1.1-1.6.2l-4.5-.6c.3-.1.7-.1 1-.1m5.7-.5c1.8.1 3.5.3 5.3.4-.3 0-.5.1-.8.1-1.5-.1-3.1-.3-4.6-.4 0-.1 0-.1.1-.1m9.7-.4c.6 0 1.3 0 1.9.1h-.3c-.5-.1-1-.1-1.6-.1m6.9-.7h1.1-1.1M0 160.1c72.6 23.9 149.6 35.8 231 35.8 8.3 0 16.7-.1 25-.4l1.5.9c-8.3.2-16.5.4-24.7.4-42 0-83-3.1-122.4-9.4-37.7-6-74.7-14.9-110.5-26.7v-.6H0zm820.2-87.9l-3.3 2.1c-61 14.3-130.8 33.4-217.1 57-32.2 8.8-65.5 17.9-102 27.8-22 6-43.9 11.2-65.6 15.8-17.8 3.4-35.5 6.3-52.9 8.7 22.1-3.6 44.5-7.9 67.3-13 16.8-3.8 33.8-8 50.9-12.6 36.5-9.9 69.8-19 102-27.8 88.4-24.3 159.2-43.7 220.7-58m12.9-3c-1.2.7-2.4 1.4-3.5 2.1-3.7.8-7.4 1.7-11.2 2.6l3.3-2.1c3.9-.9 7.7-1.7 11.4-2.6m12.7-2.8c-1.3.7-2.6 1.4-3.8 2.2-3.4.7-6.7 1.5-10.1 2.3l3.6-2.1c3.4-.9 6.9-1.6 10.3-2.4m13-2.8c-1.4.7-2.8 1.5-4.2 2.2-3.4.7-6.8 1.4-10.2 2.2 1.3-.7 2.6-1.5 3.9-2.2 3.5-.7 7-1.4 10.5-2.2m13-2.6c-1.6.7-3.1 1.5-4.6 2.3-3.3.7-6.6 1.3-9.9 2.1 1.4-.8 2.9-1.5 4.3-2.2 3.4-.8 6.8-1.5 10.2-2.2m12.8-2.5c-1.7.8-3.4 1.5-5.1 2.3-3.1.6-6.2 1.2-9.4 1.8 1.6-.8 3.2-1.5 4.8-2.3 3.2-.6 6.5-1.2 9.7-1.8m13.7-2.5l-5.7 2.4c-3.2.6-6.4 1.2-9.7 1.8 1.8-.8 3.5-1.6 5.3-2.4 3.3-.6 6.7-1.2 10.1-1.8m13.1-2.3c-2.2.8-4.3 1.6-6.5 2.5l-8.7 1.5 6-2.4c3.1-.5 6.2-1.1 9.2-1.6m13.8-2.1c-2.4.8-4.9 1.6-7.3 2.5-2.7.4-5.5.9-8.2 1.3 2.2-.8 4.5-1.7 6.8-2.5 2.8-.4 5.8-.9 8.7-1.3m13.6-2c-2.8.8-5.5 1.7-8.3 2.5-2.9.4-5.8.9-8.8 1.3 2.5-.9 5-1.7 7.5-2.5 3.3-.4 6.4-.8 9.6-1.3m14.7-1.8c-3.2.8-6.4 1.7-9.5 2.6l-6.9.9c3-.9 6-1.8 9-2.6 2.5-.3 4.9-.6 7.4-.9m15.3-1.7c-3.7.8-7.4 1.7-11 2.6-1.4.2-2.9.3-4.4.5 3.7-.9 7.3-1.8 11.1-2.6 1.4-.2 2.8-.4 4.3-.5m15.9-1.4c-4.4.8-8.7 1.6-12.9 2.5-2.5.2-4.9.5-7.4.7 3.9-.9 7.9-1.8 12-2.6 2.7-.2 5.5-.4 8.3-.6m15.3-1.1V45v-.1c-.5.1-1 .1-1.5.2-1.4.1-2.8.2-4.3.3 1.9-.3 3.9-.6 5.8-.9v-.9c-5.1.7-10.1 1.5-15.2 2.5-.8.1-1.5.1-2.3.2 5.1-.9 10.2-1.8 15.4-2.5.7-.1 1.4-.1 2.1-.2"/><path class="st0" d="M256.6 192.8c.9.5 1.7.9 2.6 1.4H255c-.8-.5-1.6-.9-2.4-1.4h4m5.1 0c.9.4 1.8.9 2.8 1.3-1.3 0-2.7 0-4 .1-.9-.4-1.7-.9-2.6-1.3 1.3-.1 2.6-.1 3.8-.1m5.1-.1c1 .4 2 .9 3 1.3-1.3 0-2.6.1-4 .1-.9-.4-1.8-.9-2.8-1.3 1.3-.1 2.6-.1 3.8-.1m5.2-.1c1.1.4 2.1.8 3.2 1.3-1.2 0-2.4.1-3.6.1-1-.4-2-.9-3-1.3 1.1-.1 2.3-.1 3.4-.1m5.4-.2c1.1.4 2.3.8 3.5 1.2-1.3 0-2.6.1-3.8.1-1.1-.4-2.1-.8-3.2-1.3 1.1.1 2.3 0 3.5 0m5.2-.2c1.3.4 2.5.8 3.8 1.2-1.3.1-2.5.1-3.8.2-1.2-.4-2.3-.8-3.5-1.2 1.2-.1 2.4-.1 3.5-.2m5.3-.2c1.4.4 2.7.8 4.1 1.1-.8 0-1.7.1-2.5.1-.4 0-.8 0-1.3.1-1.3-.4-2.5-.8-3.8-1.2 1.2 0 2.3-.1 3.5-.1m5.2-.3c1.5.4 3 .7 4.5 1.1-1.2.1-2.5.1-3.7.2-1.4-.4-2.8-.8-4.1-1.1 1.1 0 2.2-.1 3.3-.2m5.4-.2c1.6.3 3.2.7 4.8 1-1 .1-1.9.1-2.9.2-1.5-.4-3-.7-4.5-1.1.9 0 1.7-.1 2.6-.1m5.5-.2c1.6.3 3.3.6 4.9.8-.5 0-1 .1-1.5.1-1.5-.3-2.9-.6-4.4-.9h1m5.6-.3c1.7.2 3.4.5 5 .7-.3 0-.6 0-.9.1-1.5-.2-2.9-.5-4.4-.8h.3m15.8-.3c.3 0 .5 0 .8.1h-.1c-.3 0-.5 0-.7-.1m-10.2 0c1.7.2 3.4.4 5.2.5-.3 0-.7.1-1 .1l-4.5-.6h.3M0 151.8c77.8 27.4 160.7 41 249.1 41h2.3c.8.5 1.6.9 2.4 1.4h-6.1c-47 0-92.8-3.8-136.5-11.4-38-6.6-75.2-16.3-111.2-28.7v-2.3zm807.4-71.2c-.9.6-1.8 1.3-2.8 1.9-29.5 7.5-61.2 15.9-95.9 25.1-62 16.5-132.2 35.1-217.7 55.7-25.8 6.2-51.4 11.5-76.6 15.9-17 2.6-33.9 4.8-50.5 6.5-1.8.1-3.5.3-5.3.4 6.1-.7 12.3-1.5 18.4-2.4.7-.1 1.5-.2 2.2-.3 17.5-2.4 35.1-5.3 52.9-8.7 19.3-3.6 38.8-7.9 58.5-12.6 85.5-20.6 155.7-39.3 217.7-55.7 36-9.4 68.7-18.1 99.1-25.8m12.4-3.1c-1 .7-2 1.3-3 2-3.6.9-7.1 1.8-10.8 2.7.9-.7 1.9-1.3 2.8-1.9 3.7-1 7.4-1.9 11-2.8m12.1-2.9c-1.1.7-2.1 1.3-3.2 2-3.3.8-6.5 1.6-9.8 2.4 1-.7 2-1.3 3-2 3.3-.8 6.7-1.6 10-2.4m12.4-3c-1.2.7-2.3 1.4-3.5 2.1l-9.9 2.4c1.1-.7 2.2-1.4 3.3-2 3.4-.9 6.7-1.7 10.1-2.5m12.3-2.9c-1.3.7-2.6 1.4-3.8 2.1-3.2.7-6.4 1.5-9.6 2.2l3.6-2.1c3.3-.6 6.6-1.4 9.8-2.2m12.2-2.7c-1.4.7-2.8 1.4-4.2 2.2-3 .7-6 1.4-9.1 2.1l3.9-2.1c3.2-.8 6.3-1.5 9.4-2.2m12.9-2.8c-1.6.7-3.1 1.5-4.7 2.2-3.1.7-6.2 1.3-9.3 2 1.4-.7 2.9-1.5 4.3-2.2 3.3-.6 6.5-1.3 9.7-2m12.4-2.5c-1.8.7-3.5 1.5-5.3 2.3-2.8.6-5.5 1.2-8.3 1.7 1.6-.8 3.2-1.5 4.9-2.3 2.9-.6 5.8-1.2 8.7-1.7m12.9-2.6c-2 .8-4 1.6-5.9 2.4-2.6.5-5.2 1-7.8 1.6 1.8-.8 3.6-1.6 5.5-2.3 2.7-.6 5.4-1.2 8.2-1.7m12.9-2.4c-2.2.8-4.5 1.6-6.7 2.4-2.7.5-5.5 1-8.2 1.6 2-.8 4-1.6 6.1-2.4 2.9-.5 5.9-1 8.8-1.6m13.9-2.3c-2.6.8-5.2 1.7-7.7 2.5-2.3.4-4.5.8-6.8 1.2 2.4-.9 4.8-1.7 7.2-2.5 2.4-.4 4.9-.8 7.3-1.2m14.4-2.3c-3 .8-6.1 1.7-9.1 2.6-1.6.2-3.2.5-4.7.8 2.9-.9 5.8-1.8 8.8-2.6 1.7-.3 3.3-.5 5-.8m15.2-2c-3.6.8-7.2 1.7-10.8 2.7-2.3.3-4.6.7-6.9 1 3.2-.9 6.4-1.8 9.7-2.6 2.7-.4 5.3-.8 8-1.1m14.6-1.8c-4.3.8-8.6 1.7-12.8 2.7l-2.4.3c4.1-1 8.3-1.9 12.5-2.7.8-.1 1.8-.2 2.7-.3m16-1.5c-5.4.8-10.6 1.8-15.9 2.8-1.1.1-2.3.2-3.4.4 4.7-1 9.5-1.9 14.3-2.7 1.7-.2 3.4-.4 5-.5m6-.5v1.2-1.2z"/><path class="st0" d="M263.8 191.3c.6.3 1.3.6 1.9.8h-3.8c-.6-.3-1.1-.5-1.7-.8h1.4c.7.1 1.5 0 2.2 0m-8.7 0h3.7c.6.3 1.1.5 1.7.8h-3.8c-.5-.2-1.1-.5-1.6-.8m13.8 0c.7.3 1.4.6 2.1.8h-3.4c-.6-.3-1.2-.5-1.9-.8h3.2m-19.1 0h3.9c.5.3 1 .5 1.5.8h-4.1c-.4-.3-.8-.6-1.3-.8m24.4 0c.8.3 1.5.5 2.3.8h-3.7c-.7-.3-1.4-.5-2.1-.8h3.5m5.2-.1c.9.3 1.7.5 2.6.8-1.2 0-2.4 0-3.6.1-.8-.3-1.6-.5-2.3-.8 1-.1 2.2-.1 3.3-.1m5.1-.1c1 .3 1.9.5 2.9.8h-.9c-.9 0-1.8 0-2.6.1-.9-.3-1.7-.5-2.6-.8 1-.1 2.1-.1 3.2-.1m5.2-.2c1.1.3 2.2.5 3.2.8-1.2 0-2.3.1-3.5.1-1-.3-2-.5-2.9-.8 1.1 0 2.1-.1 3.2-.1m18.2-.1c.6.1 1.2.2 1.7.2h-.3c-.4-.1-.9-.1-1.4-.2m-13.1-.1c1.2.3 2.4.5 3.7.8-.8 0-1.7.1-2.5.1-1.1-.3-2.2-.5-3.3-.8.7 0 1.4 0 2.1-.1m5-.2c1.4.2 2.8.5 4.2.7h-.9c-1.2-.3-2.4-.5-3.6-.8.1.2.2.2.3.1m12.7-.1l2.7.3h-.4c-.7-.1-1.5-.2-2.3-.3M0 146.9c77.1 28.4 159.9 43.1 248.6 44.4.5.3.9.5 1.4.8-47.7-.7-93.9-5.3-138-13.7-38.4-7.4-75.9-17.7-112-30.9v-.6zm796-58c-.8.6-1.7 1.3-2.5 1.9-9.1 2.5-18.5 5-28.1 7.6-73 19.9-163.7 44.6-281.1 69.3-26.6 5.6-53 10.3-78.9 14-14 1.7-27.8 3-41.5 4.1 16.7-1.8 33.5-3.9 50.5-6.5 22.8-3.5 46-7.7 69.6-12.7 117.3-24.7 208.1-49.5 281-69.3 10.6-2.9 20.9-5.7 31-8.4m11.9-3.2c-.9.6-1.8 1.3-2.7 1.9-3.4.9-6.9 1.9-10.4 2.8.8-.6 1.7-1.3 2.5-1.9 3.6-1 7.1-1.9 10.6-2.8m11.7-3.2c-1 .7-1.9 1.3-2.9 2-3.2.8-6.3 1.7-9.5 2.6.9-.7 1.8-1.3 2.7-1.9 3.2-.9 6.5-1.8 9.7-2.7m11.9-3.1c-1.1.7-2.1 1.4-3.2 2-3.1.8-6.3 1.7-9.5 2.5 1-.7 2-1.3 3-2 3.2-.8 6.4-1.6 9.7-2.5m11.8-3.1c-1.2.7-2.3 1.4-3.5 2.1-3.1.8-6.1 1.6-9.2 2.4 1.1-.7 2.2-1.4 3.2-2.1 3.2-.7 6.4-1.6 9.5-2.4m11.7-2.9c-1.3.7-2.6 1.4-3.8 2.2-2.9.7-5.8 1.5-8.7 2.2l3.6-2.1c2.9-.8 5.9-1.6 8.9-2.3m12.2-3c-1.4.7-2.9 1.5-4.3 2.3-2.9.7-5.9 1.5-8.8 2.2 1.3-.7 2.6-1.5 3.9-2.2 3.1-.9 6.2-1.6 9.2-2.3m11.7-2.9c-1.6.8-3.2 1.6-4.8 2.3-2.6.6-5.3 1.3-7.9 1.9 1.5-.8 2.9-1.5 4.4-2.3 2.8-.6 5.6-1.2 8.3-1.9m12.2-2.8c-.5.2-1 .5-1.6.7l-3.9 1.8c-2.5.6-4.9 1.1-7.4 1.7 1.7-.8 3.3-1.6 5-2.4 2.7-.6 5.3-1.2 7.9-1.8m12.3-2.7c-2.1.8-4.2 1.7-6.2 2.6-2.5.6-5 1.1-7.6 1.7 1.9-.8 3.7-1.7 5.6-2.5 2.8-.6 5.5-1.2 8.2-1.8m13.1-2.8c-2.5.9-4.9 1.8-7.3 2.7-2.1.4-4.2.9-6.3 1.4 2.2-.9 4.5-1.8 6.7-2.7 2.2-.4 4.6-.9 6.9-1.4m13.5-2.6c-2.9 1-5.9 1.9-8.8 2.9-1.5.3-3.1.6-4.6.9 2.7-1 5.5-1.9 8.3-2.9l5.1-.9m14.4-2.6c-3.6 1-7.2 2.1-10.7 3.2-2 .4-3.9.7-5.9 1.1 3.1-1 6.2-2 9.4-3 2.4-.5 4.8-.9 7.2-1.3m13.7-2.3c-4.4 1.1-8.8 2.2-13.2 3.4-.6.1-1.2.2-1.9.3 4.1-1.2 8.2-2.3 12.4-3.3.9-.1 1.8-.2 2.7-.4m15-2.2c-5.7 1.2-11.3 2.4-16.9 3.8-.5.1-1 .2-1.6.2 4.9-1.2 9.8-2.4 14.8-3.5 1.3-.1 2.5-.3 3.7-.5m26.9-3.1v1.4-1.4z"/><path class="st0" d="M297 190c.7.1 1.4.3 2.1.4h-.3c-.6-.1-1.2-.2-1.8-.4m-9.9-.5h1.8c1.6.3 3.2.7 4.8 1h-2.2c-1.5-.3-2.9-.7-4.4-1m-6.6-.2h.1c1 0 2 0 3 .1 1.5.4 3.1.8 4.7 1.2H285c-1.5-.4-3-.8-4.5-1.3m-5.3-.1c1.1 0 2.1.1 3.2.1 1.5.4 3 .9 4.5 1.3h-3.4c-1.5-.5-2.9-.9-4.3-1.4m-5.3-.1c1.1 0 2.1.1 3.2.1 1.5.5 2.9 1 4.4 1.4h-3.4l-4.2-1.5m-5.2-.2c1.1 0 2.2.1 3.3.1 1.4.5 2.9 1 4.3 1.6h-3.5c-1.4-.6-2.7-1.2-4.1-1.7m-5.1-.2c1 0 2 .1 3 .1 1.4.6 2.8 1.1 4.2 1.7-1.1 0-2.1 0-3.2-.1-1.4-.6-2.7-1.2-4-1.7m-5.5-.3c1.1.1 2.3.1 3.4.2 1.4.6 2.7 1.2 4.1 1.8-1.2 0-2.4-.1-3.6-.1-1.3-.6-2.6-1.3-3.9-1.9m-4.9-.2c.9 0 1.9.1 2.8.1h.6c1.3.6 2.6 1.3 3.9 1.9-1.2 0-2.4-.1-3.7-.1-1.1-.6-2.4-1.3-3.6-1.9m-5.1-.2c1.2.1 2.4.1 3.7.2 1.2.7 2.5 1.3 3.7 2-1.3 0-2.6-.1-3.9-.1-1.2-.8-2.4-1.5-3.5-2.1M0 137.7c72 28 152.5 45.9 242.9 50.2 1.1.7 2.3 1.3 3.5 2-46.2-1.8-90.9-7.1-133.4-15.9-38.8-8-76.7-19.2-112.9-33.2v-3.1H0zM785.5 97c-.8.6-1.5 1.2-2.3 1.9-77.9 22.5-174.4 49.6-305.7 73.3-31.4 5.7-62.4 10-92.6 13.1-18.7 1.5-37.1 2.5-55.2 3-1.4 0-2.9-.1-4.3-.1 11-.4 22.1-1.1 33.3-1.9 1.8-.1 3.5-.3 5.3-.4 13.6-1.1 27.4-2.4 41.5-4.1 23.4-2.8 47.4-6.3 71.9-10.8 132.7-24 229.7-51.4 308.1-74m11.6-3.4c-.8.6-1.7 1.3-2.5 1.9-3.3 1-6.7 1.9-10 2.9.8-.6 1.5-1.2 2.3-1.9 2.9-.8 5.8-1.7 8.7-2.5.5-.1 1-.2 1.5-.4m11.4-3.3c-.9.7-1.8 1.3-2.7 2l-9.3 2.7c.8-.6 1.7-1.3 2.5-1.9 3.2-.9 6.3-1.9 9.5-2.8m11.4-3.3c-1 .7-2 1.4-2.9 2-3 .9-6.1 1.8-9.2 2.7.9-.7 1.8-1.3 2.7-2 3.2-.9 6.3-1.8 9.4-2.7m11.5-3.2c-1.1.7-2.2 1.4-3.2 2.1-2.9.8-5.9 1.7-8.9 2.5 1-.7 2-1.4 3-2 3-.9 6.1-1.8 9.1-2.6m11.3-3.2c-1.2.7-2.4 1.5-3.6 2.2l-8.4 2.4 3.3-2.1c2.9-.9 5.8-1.7 8.7-2.5m11.7-3.3c-1.4.8-2.7 1.5-4 2.3L842 82c1.2-.7 2.4-1.5 3.7-2.2 2.8-.9 5.8-1.7 8.7-2.5m11.3-3.1l-4.5 2.4c-2.5.7-5.1 1.4-7.6 2.1 1.4-.8 2.8-1.6 4.2-2.3 2.6-.7 5.3-1.5 7.9-2.2m11.7-3.1c-1.7.8-3.4 1.7-5.2 2.5-2.4.6-4.7 1.3-7.1 1.9 1.6-.8 3.1-1.6 4.7-2.5 2.6-.6 5.1-1.3 7.6-1.9m11.8-3.1l-6 2.7c-2.3.6-4.7 1.2-7 1.8 1.8-.9 3.5-1.7 5.3-2.6 2.6-.6 5.2-1.2 7.7-1.9m12.5-3.1c-2.4 1-4.7 1.9-7 2.9-2 .5-3.9 1-5.9 1.5 2.1-.9 4.2-1.9 6.4-2.8 2.1-.5 4.3-1.1 6.5-1.6m13-3.1c-2.8 1-5.7 2.1-8.5 3.2-1.4.3-2.9.7-4.3 1 2.6-1 5.2-2.1 7.8-3 1.7-.4 3.3-.8 5-1.2m13.8-3c-3.5 1.1-7 2.3-10.5 3.5-1.7.4-3.3.8-5 1.1 3-1.1 6-2.2 9-3.2 2.2-.5 4.4-1 6.5-1.4m13.2-2.8c-3.6 1-7.1 2.1-10.7 3.1-.8.2-1.6.5-2.3.7-.3.1-.6.1-.9.2 3.9-1.3 7.9-2.5 11.9-3.7.6 0 1.3-.1 2-.3m14.4-2.7c-4.6 1.1-9.1 2.3-13.6 3.5 3.8-1.1 7.7-2.1 11.5-3.1.8-.1 1.4-.3 2.1-.4m43.9-6.4v1.2-1.2z"/><path class="st0" d="M283.3 188.5h1.2c1.5.3 2.9.6 4.4 1h-1.8c-1.3-.4-2.5-.7-3.8-1m-6.2-.1c.9 0 1.8 0 2.7.1 1.3.3 2.5.6 3.8 1-1 0-2 0-3-.1h-.1c-1.1-.4-2.2-.7-3.4-1m-4.9-.1c.9 0 1.9.1 2.8.1 1.1.3 2.2.6 3.3 1-1.1 0-2.1-.1-3.2-.1-.9-.4-1.9-.7-2.9-1m-4.9-.2c1 0 1.9.1 2.9.1 1 .3 1.9.6 2.9 1-1.1 0-2.1-.1-3.2-.1-.9-.4-1.8-.7-2.6-1m-4.9-.2c1 0 2 .1 3 .1.9.3 1.7.6 2.6.9-1.1 0-2.2-.1-3.3-.1-.8-.2-1.6-.6-2.3-.9m-4.9-.2c.9 0 1.8.1 2.8.1.8.3 1.6.6 2.3.9-1 0-2-.1-3-.1l-2.1-.9m-5.3-.2c1.1.1 2.2.1 3.3.2l2.1.9c-1.1-.1-2.3-.1-3.4-.2-.8-.3-1.4-.6-2-.9m-4.8-.3c1.1.1 2.2.1 3.3.2.6.3 1.3.6 1.9.9h-.6c-1-.1-1.9-.1-2.9-.2-.6-.3-1.1-.6-1.7-.9m-5.1-.3c1.2.1 2.4.1 3.6.2.6.3 1.1.6 1.7.9-1.3-.1-2.5-.1-3.8-.2l-1.5-.9M0 133.1c74.2 30.5 154.3 48.3 241 53.7.5.3 1 .6 1.6.9-44.6-2.8-87.8-8.9-128.7-18-39.3-8.8-77.4-20.8-113.9-35.6v-1zm775.9-28.2l-2.1 1.8c-77.3 23.7-172.5 50.2-302.9 69.7-35.3 5.3-70 9-103.7 11.1-10.3.4-20.5.7-30.7.9-2.3 0-4.5-.1-6.7-.1 18.1-.5 36.6-1.5 55.2-3 28-2.2 56.5-5.5 85.7-9.9 131.7-19.7 227.5-46.6 305.2-70.5m11.3-3.5c-.8.6-1.5 1.3-2.3 1.9-3.2 1-6.5 2-9.7 3l2.1-1.8c3.3-1 6.6-2 9.9-3.1m11-3.4c-.8.7-1.7 1.3-2.5 2-3 .9-6 1.9-9.1 2.8.8-.6 1.6-1.3 2.3-1.9 3.2-1 6.2-1.9 9.3-2.9m11.1-3.5c-.9.7-1.8 1.3-2.8 2-2.9.9-5.9 1.8-8.9 2.8.9-.7 1.7-1.3 2.6-2 3.1-.9 6.1-1.8 9.1-2.8m11.1-3.4c-1 .7-2 1.4-3.1 2.1-1.7.5-3.4 1.1-5.1 1.6-1.2.4-2.3.7-3.5 1.1.9-.7 1.9-1.4 2.8-2 .1 0 .2-.1.4-.1 2.9-1 5.7-1.8 8.5-2.7m10.9-3.4c-1.1.7-2.3 1.5-3.4 2.2-2.7.8-5.4 1.7-8.1 2.5 1-.7 2.1-1.4 3.1-2.1 2.8-.9 5.6-1.7 8.4-2.6m11.3-3.5l-3.9 2.4c-2.7.8-5.3 1.6-8 2.5 1.2-.8 2.3-1.5 3.5-2.3 2.8-.9 5.6-1.7 8.4-2.6m10.9-3.3c-1.5.8-2.9 1.7-4.4 2.5-2.4.7-4.8 1.5-7.3 2.2 1.3-.8 2.6-1.6 4-2.4 2.6-.8 5.2-1.6 7.7-2.3m11.3-3.4c-1.7.9-3.4 1.8-5 2.7-2.2.7-4.5 1.3-6.7 2 1.5-.9 3-1.7 4.6-2.5 2.3-.8 4.7-1.5 7.1-2.2m11.3-3.4c-2 1-3.9 1.9-5.9 2.9-2.1.6-4.3 1.3-6.4 1.9 1.7-.9 3.5-1.8 5.2-2.7 2.3-.7 4.7-1.4 7.1-2.1m11.9-3.4c-2.4 1-4.7 2.1-7.1 3.2-1.8.5-3.5 1-5.3 1.5l6.3-3c2-.5 4.1-1.1 6.1-1.7m12.3-3.4l-8.7 3.6c-1.2.3-2.4.7-3.7 1 2.6-1.1 5.2-2.3 7.8-3.4 1.6-.4 3.1-.8 4.6-1.2m13.1-3.4c-3.7 1.3-7.4 2.7-11.1 4.1-1.1.3-2.3.6-3.4.9 3.1-1.3 6.2-2.5 9.3-3.7 1.7-.4 3.5-.9 5.2-1.3m12.6-3.2l-7.2 2.4c2.1-.7 4.2-1.4 6.4-2.1.2-.1.5-.2.8-.3m74-13.7v1.3c-12.2 1.5-24.1 3.3-35.9 5.5 11.8-2.4 23.7-4.4 35.9-6V47z"/><path class="st0" d="M280 187.7h.8c1.1.2 2.2.5 3.3.7-.4 0-.9 0-1.3-.1-.9-.1-1.9-.4-2.8-.6m-6.3-.3c.8 0 1.6.1 2.5.1.9.2 1.9.5 2.8.7-.4 0-.8 0-1.2-.1-.5 0-1.1-.1-1.6-.1-.9-.1-1.7-.4-2.5-.6m-4.9-.2c.9 0 1.8.1 2.6.1.8.2 1.6.5 2.3.7-1 0-2-.1-2.9-.2-.6-.2-1.3-.4-2-.6m-4.8-.3c.9.1 1.8.1 2.7.1.7.2 1.3.4 2 .7-1-.1-2-.1-3-.2-.6-.2-1.1-.4-1.7-.6m-4.8-.3c.9.1 1.9.1 2.8.2.6.2 1.1.4 1.7.6-1-.1-2-.1-3-.2l-1.5-.6m-4.8-.3c.9.1 1.7.1 2.6.2.5.2 1 .4 1.4.6-.9-.1-1.8-.1-2.7-.2-.5-.2-.9-.4-1.3-.6m-5.3-.3c1 .1 2.1.1 3.1.2l1.2.6c-1.1-.1-2.2-.2-3.3-.2-.2-.3-.6-.4-1-.6m-4.7-.4c1.1.1 2.1.2 3.2.2.4.2.7.4 1.1.5l-3.3-.3c-.3 0-.6-.2-1-.4m-5-.4c1.2.1 2.3.2 3.5.3.3.2.6.3.9.5l-3.6-.3c-.3-.2-.5-.3-.8-.5m-101.7-14.5c32.3 6.7 65.8 11.5 100.4 14.4.3.2.5.3.8.5-34.8-3.1-68.7-8-101.2-14.9m629.1-57.9c-.7.6-1.3 1.2-2 1.8-78 25.4-169.8 50.9-300.8 66.2-33.5 3.9-66.3 6.5-98.2 7.7-3.8 0-7.6.1-11.3.1-6.1 0-12.1 0-18.1-.1 10.1-.1 20.3-.4 30.7-.9 31.4-1.3 63.7-3.9 96.8-7.8 132.2-15.6 224.5-41.4 302.9-67m11-3.6c-.7.6-1.5 1.2-2.2 1.9-3.1 1-6.3 2.1-9.5 3.1.7-.6 1.3-1.2 2-1.8 3.3-1.1 6.5-2.2 9.7-3.2m10.8-3.6c-.8.6-1.6 1.3-2.4 2-2.9 1-5.9 2-8.8 2.9.7-.6 1.5-1.3 2.2-1.9l9-3m10.8-3.7c-.9.7-1.8 1.4-2.7 2-2.9 1-5.7 1.9-8.6 2.9.8-.7 1.6-1.3 2.4-2 3-.9 6-1.9 8.9-2.9m10.8-3.6c-1 .7-2 1.4-3 2.2-2.7.9-5.5 1.9-8.3 2.8l2.7-2.1c2.9-1 5.7-1.9 8.6-2.9m10.6-3.6c-1.1.8-2.2 1.5-3.3 2.3l-7.8 2.7c1-.7 2-1.5 3-2.2 2.4-.8 4.8-1.6 7.2-2.5l.9-.3m10.8-3.7c-1.3.8-2.5 1.6-3.8 2.4-2.5.9-5 1.7-7.6 2.6 1.1-.8 2.3-1.5 3.4-2.3 2.7-.9 5.4-1.8 8-2.7m10.7-3.6c-1.4.9-2.9 1.7-4.3 2.6-2.3.8-4.6 1.6-6.9 2.3 1.3-.8 2.6-1.7 3.9-2.5 2.4-.8 4.8-1.6 7.3-2.4m10.8-3.6c-1.7.9-3.4 1.9-5 2.8-2.1.7-4.2 1.4-6.2 2.1l4.5-2.7c2.2-.7 4.5-1.5 6.7-2.2m10.9-3.6c-2 1-4 2.1-6 3.1-1.9.6-3.8 1.3-5.7 1.9 1.7-1 3.5-1.9 5.2-2.9 2.2-.7 4.3-1.4 6.5-2.1m11.4-3.7c-2.4 1.1-4.9 2.3-7.3 3.5l-4.5 1.5c2.1-1.1 4.2-2.2 6.3-3.2 1.9-.7 3.7-1.2 5.5-1.8m11.8-3.7c-3.1 1.3-6.1 2.7-9.2 4l-2.7.9c2.7-1.2 5.3-2.5 8-3.7l3.9-1.2m12.5-3.8c-4.1 1.6-8.1 3.2-12.1 4.8-.5.2-1 .3-1.5.5 3.3-1.4 6.5-2.8 9.8-4.2 1.3-.4 2.6-.8 3.8-1.1M1000 46.7v1.1c-12.2 1.6-24.2 3.7-35.9 6-8.3 1.7-16.5 3.5-24.7 5.5C959 54.2 979 50 1000 47.1v-.4z"/><path class="st0" d="M275 186.4c1.4.3 2.9.6 4.3 1h-.7c-1.2-.4-2.4-.7-3.6-1m-7.4-.8c.7.1 1.5.1 2.2.2l4.5 1.2c-.8-.1-1.7-.1-2.5-.2l-4.2-1.2m-5.1-.5l2.4.3c1.5.4 2.9.9 4.4 1.3-.9-.1-1.8-.1-2.7-.2-1.4-.5-2.7-.9-4.1-1.4m-4.9-.5c.8.1 1.6.2 2.5.3 1.4.5 2.8.9 4.3 1.4-.9-.1-1.8-.2-2.7-.2-1.5-.6-2.8-1-4.1-1.5m-4.9-.6c.8.1 1.7.2 2.5.3 1.4.5 2.8 1 4.1 1.5-.9-.1-1.9-.2-2.8-.2-1.2-.5-2.5-1.1-3.8-1.6m-4.7-.6c.7.1 1.4.2 2.2.3 1.4.6 2.7 1.1 4.1 1.7-.8-.1-1.6-.2-2.5-.2-1.3-.6-2.6-1.2-3.8-1.8m-5.4-.6c.9.1 1.9.2 2.8.4l3.9 1.8-3-.3c-1.2-.7-2.4-1.3-3.7-1.9m-4.5-.6c1 .1 1.9.3 2.9.4 1.3.6 2.5 1.3 3.8 1.9-1-.1-2.1-.2-3.1-.3-1.2-.7-2.4-1.4-3.6-2m-5.1-.7c1.1.1 2.2.3 3.3.4 1.2.7 2.5 1.3 3.7 2-1.1-.1-2.3-.2-3.4-.4-1.2-.6-2.4-1.3-3.6-2m525.2-60.9c-.6.6-1.3 1.2-1.9 1.8-76.7 26.5-168.2 51.7-299 62.7-36.5 3.1-72 4.6-106.3 4.6h-8.3c-12.8-.4-25.4-1-37.9-1.8l-12.6-1.2c10.9.6 21.9 1.1 33.1 1.4 1.4 0 2.9.1 4.3.1 2.2.1 4.5.1 6.7.1 6 .1 12 .1 18.1.1 3.8 0 7.5 0 11.3-.1 29.4-.3 59.9-1.7 91.3-4.4 132.2-11 224-36.5 301.2-63.3M0 117.7c67.3 30.6 143.1 52.5 229 63.2.9.1 1.8.2 2.6.4l3.6 2.1C149.6 173.7 71.4 152.8 0 120.5v-2.8zm769-.8c-.7.6-1.4 1.2-2.1 1.9-3 1.1-6.1 2.1-9.2 3.2.6-.6 1.3-1.2 1.9-1.8 3.1-1.2 6.3-2.3 9.4-3.3m10.5-3.8c-.8.7-1.5 1.3-2.3 2-2.9 1-5.7 2-8.6 3.1.7-.6 1.4-1.3 2.1-1.9 3-1.1 5.9-2.2 8.8-3.2m10.6-3.8c-.9.7-1.7 1.4-2.6 2.1l-8.4 3c.8-.7 1.6-1.3 2.3-2 3-1.1 5.8-2.1 8.7-3.1m10.4-3.9c-1 .7-1.9 1.5-2.9 2.2-2.6 1-5.3 1.9-8 2.9.9-.7 1.7-1.4 2.6-2.1 2.9-1 5.6-2 8.3-3m10.4-3.8c-1.1.8-2.2 1.6-3.3 2.3-2.5.9-5 1.8-7.5 2.8 1-.7 2-1.5 2.9-2.2 2.7-1 5.3-1.9 7.9-2.9m10.5-3.9c-1.3.8-2.5 1.7-3.8 2.5-2.4.9-4.7 1.8-7.1 2.6l3.3-2.4c2.5-.8 5.1-1.8 7.6-2.7m10.3-3.8c-1.5.9-2.9 1.8-4.4 2.8-1.4.5-2.9 1.1-4.3 1.6-.7.3-1.4.5-2.1.8 1.3-.9 2.6-1.7 3.9-2.6 2.3-.9 4.6-1.8 6.9-2.6m10.5-3.9c-1.7 1-3.5 2-5.2 3.1l-5.7 2.1c1.5-.9 3-1.9 4.6-2.8 2.1-.9 4.2-1.7 6.3-2.4m10.5-3.9c-2.1 1.1-4.2 2.3-6.3 3.4-1.6.6-3.3 1.2-4.9 1.8 1.8-1 3.6-2.1 5.4-3.1 1.9-.7 3.9-1.4 5.8-2.1m11-3.9c-2.6 1.3-5.2 2.6-7.8 4-1.2.4-2.3.8-3.5 1.3 2.2-1.2 4.4-2.4 6.7-3.5 1.5-.7 3-1.3 4.6-1.8m11.3-4c-3.4 1.6-6.9 3.1-10.3 4.8-.4.1-.8.3-1.2.4 2.9-1.4 5.7-2.8 8.6-4.2 1-.4 2-.7 2.9-1m11.9-4.2c-2.6 1.1-5.1 2.1-7.7 3.2 2-.9 3.9-1.7 5.9-2.6.7-.2 1.3-.4 1.8-.6M1000 46v1.2c-21 2.9-41.1 7.1-60.6 12.2-8.8 2.3-17.6 4.8-26.3 7.5 27.6-8.9 56-16.2 86.9-20.5V46z"/><path class="st0" d="M263.9 184.6c.6.1 1.2.2 1.9.2 1.3.4 2.7.7 4 1.1-.7-.1-1.5-.1-2.2-.2-1.2-.4-2.5-.8-3.7-1.1m-4.7-.6c.6.1 1.2.1 1.9.2 1.3.4 2.5.8 3.8 1.1l-2.4-.3c-1.1-.2-2.2-.6-3.3-1m-4.4-.5c.7.1 1.4.2 2 .2 1.1.4 2.1.7 3.2 1.1-.8-.1-1.6-.2-2.5-.3-.9-.3-1.8-.6-2.7-1m-4.5-.5c.7.1 1.5.2 2.2.3.9.3 1.8.7 2.7 1-.8-.1-1.7-.2-2.5-.3-.8-.3-1.6-.6-2.4-1m-4.4-.5c.6.1 1.2.2 1.9.2.8.3 1.6.7 2.4 1-.7-.1-1.4-.2-2.2-.3l-2.1-.9m-5.1-.6c.9.1 1.7.2 2.6.3l2.1.9c-.9-.1-1.9-.2-2.8-.4-.7-.2-1.3-.5-1.9-.8m-4.4-.6l2.7.3 1.8.9c-1-.1-1.9-.3-2.9-.4-.5-.2-1-.5-1.6-.8m-4.8-.7c1 .1 2.1.3 3.1.4.5.3 1.1.6 1.6.9-1.1-.1-2.2-.3-3.3-.4-.5-.3-.9-.6-1.4-.9M750 128.4c-.6.6-1.2 1.2-1.9 1.8-75.7 27.7-166.8 52.7-297.6 59.3-23.2 1.2-46 1.8-68.3 1.8-13.1 0-26.1-.2-38.9-.6-1.8-.1-3.6-.1-5.4-.2-.6 0-1.3 0-1.9-.1-10.5-.7-20.9-1.5-31.1-2.4 12.5.8 25.1 1.4 37.9 1.8h.9c1.6 0 3.2.1 4.8.1 10.4.3 20.9.4 31.6.4 22.9 0 46.5-.6 70.5-1.8 131.8-6.8 223.2-32.2 299.4-60.1m10.5-4c-.7.6-1.4 1.3-2 1.9-3 1.1-5.9 2.2-8.9 3.3.6-.6 1.2-1.2 1.9-1.8 3-1.1 6-2.2 9-3.4m10.4-3.9c-.8.7-1.5 1.3-2.3 2-2.8 1.1-5.6 2.1-8.4 3.2.7-.6 1.4-1.3 2.1-1.9 2.9-1.1 5.7-2.2 8.6-3.3m10.3-4c-.8.7-1.7 1.4-2.5 2.1-2.7 1-5.4 2.1-8.1 3.1.8-.7 1.5-1.3 2.3-2 2.8-1.1 5.5-2.1 8.3-3.2M0 112.7c69.8 33.7 146.1 56 230.2 67.7l1.5.9c-.9-.1-1.8-.2-2.6-.4-38.9-5.6-76.4-13.4-111.8-23.4C75.9 145.9 37 131.4 0 113.7v-1zm791.4-.3c-1 .7-1.9 1.5-2.9 2.3-2.5 1-5.1 2-7.7 3 .9-.7 1.7-1.4 2.6-2.1 2.7-1.1 5.4-2.1 8-3.2m10.1-4l-3.3 2.4c-2.4 1-4.8 1.9-7.2 2.9 1-.8 1.9-1.5 2.9-2.3 2.6-1 5.1-2 7.6-3m10.1-4.1c-1.3.9-2.6 1.8-3.8 2.7-2.2.9-4.4 1.8-6.7 2.7 1.1-.8 2.2-1.7 3.4-2.5 2.4-1 4.8-1.9 7.1-2.9m10.1-4.1l-4.5 3c-2 .8-3.9 1.6-5.9 2.4 1.3-.9 2.6-1.8 4-2.7 2.1-.9 4.3-1.8 6.4-2.7m10.2-4.1c-1.8 1.1-3.7 2.2-5.5 3.3-1.4.5-2.7 1.1-4.1 1.7-.3.1-.7.3-1 .4 1.6-1 3.1-2 4.7-3 2-.8 4-1.6 5.9-2.4m10.2-4.1c-2.3 1.3-4.6 2.6-6.8 3.9-1.3.5-2.6 1.1-3.9 1.6 1.9-1.1 3.8-2.3 5.7-3.4 1.6-.8 3.3-1.5 5-2.1m10.6-4.3c-3 1.5-5.9 3.1-8.9 4.7-.7.3-1.3.5-2 .8 2.4-1.4 4.8-2.7 7.3-4 1.1-.5 2.4-1 3.6-1.5m10.9-4.3c-2.1 1-4.1 2-6.2 3 1.6-.8 3.3-1.7 4.9-2.5.4-.1.9-.3 1.3-.5M1000 44.9v1.4c-30.9 4.4-59.4 11.6-86.9 20.5-9.9 3.2-19.6 6.6-29.3 10.2 19.2-7.6 38.6-14.5 58.8-20.2 4.5-1.2 9-2.4 13.6-3.5h.1c5.6-1.3 11.2-2.6 16.9-3.8 1.7-.3 3.3-.7 5-1 5.2-1 10.5-1.9 15.9-2.8 1.5-.2 3-.5 4.5-.7.4 0 .9 0 1.4-.1"/><path class="st0" d="M259.9 183.4c.4.1.9.1 1.3.2l4.5 1.2c-.6-.1-1.2-.2-1.9-.2-1.2-.4-2.5-.8-3.9-1.2m-5-.8c.5.1 1.1.2 1.6.3 1.5.4 2.9.9 4.4 1.3l-2.1-.3c-1.3-.4-2.6-.9-3.9-1.3m-4.8-.8l1.8.3c1.4.5 2.8 1 4.3 1.5-.7-.1-1.4-.2-2.2-.3-1.4-.6-2.7-1-3.9-1.5m-4.7-.8c.6.1 1.3.2 1.9.3 1.4.5 2.8 1 4.1 1.6-.8-.1-1.5-.2-2.3-.3-1.2-.6-2.5-1.1-3.7-1.6m-4.6-.8l1.5.3c1.4.6 2.7 1.1 4.1 1.7-.6-.1-1.2-.2-1.9-.3-1.2-.6-2.5-1.2-3.7-1.7m-5.1-.9c.7.1 1.5.2 2.2.3l3.9 1.8c-.9-.1-1.7-.3-2.6-.4-1.2-.5-2.4-1.1-3.5-1.7m-4.1-.6c.8.1 1.5.3 2.3.4 1.1.6 2.3 1.2 3.4 1.7-.9-.1-1.8-.3-2.7-.4-.9-.6-2-1.2-3-1.7m-4.7-.8c.9.2 1.9.3 2.8.5 1 .6 2.1 1.1 3.1 1.7-1-.2-2.1-.3-3.1-.5-.9-.6-1.9-1.2-2.8-1.7m515.2-41.8l-1.8 1.8c-74.9 29-165.5 53.8-296.5 56-8.3.1-16.5.2-24.6.2-28.3 0-55.8-.8-82.4-2.5-1.8-.1-3.5-.2-5.3-.3-1.8-.1-3.5-.2-5.3-.4-.3 0-.5 0-.8-.1-14.8-1.5-29.2-3.2-43.4-5.1 3.4.4 6.8.8 10.3 1.1l12.6 1.2c10.2.9 20.6 1.7 31.1 2.4.6 0 1.1.1 1.6.1 1.6.1 3.1.2 4.7.3 25.1 1.5 50.9 2.2 77.6 2.2 7.9 0 15.9-.1 23.9-.2 132.1-2.2 223.1-27.5 298.3-56.7m10.3-4.1c-.7.6-1.3 1.3-2 1.9-2.9 1.1-5.8 2.3-8.7 3.4l1.8-1.8c3-1.2 6-2.4 8.9-3.5m10.2-4.2c-.7.7-1.5 1.3-2.2 2-2.7 1.1-5.4 2.2-8.2 3.3.7-.6 1.3-1.3 2-1.9 2.8-1.1 5.6-2.2 8.4-3.4m10.1-4.2c-.8.7-1.7 1.4-2.5 2.2-2.6 1.1-5.2 2.2-7.8 3.2.8-.7 1.5-1.4 2.3-2 2.6-1.1 5.3-2.2 8-3.4m9.9-4.2c-1 .8-1.9 1.6-2.9 2.3-2.4 1-4.9 2.1-7.3 3.1.9-.7 1.7-1.5 2.6-2.2 2.5-1 5.1-2.1 7.6-3.2m9.9-4.3c-1.1.9-2.2 1.7-3.4 2.6-2.2 1-4.5 1.9-6.8 2.9l3-2.4c2.4-1 4.8-2 7.2-3.1m9.9-4.3c-1.3 1-2.7 1.9-4 2.9-2.1.9-4.1 1.8-6.2 2.7 1.1-.9 2.3-1.7 3.4-2.6 2.3-1 4.5-2 6.8-3m9.8-4.3c-1.6 1.1-3.2 2.2-4.8 3.2-1.8.8-3.5 1.6-5.3 2.3 1.4-1 2.7-1.9 4.1-2.9 2-.8 4-1.7 6-2.6M0 105.6c66.1 33.2 140.5 57.6 225.4 72 .9.6 1.8 1.1 2.8 1.7-38.3-6.4-74.8-14.9-109.8-25.5-41.9-12.7-81.2-28.3-118.4-47v-1.2zm822.1-3.5c-2 1.3-4 2.5-6 3.8-1.4.6-2.8 1.2-4.2 1.9 1.7-1.1 3.3-2.2 5-3.3.7-.3 1.4-.6 2-.9 1.1-.6 2.1-1 3.2-1.5m9.9-4.4l-7.8 4.5c-.9.4-1.7.8-2.6 1.1l6.3-3.9c1.3-.5 2.7-1.1 4.1-1.7m10.2-4.4c-3.2 1.7-6.4 3.5-9.6 5.2 2.5-1.4 4.9-2.8 7.4-4.2.7-.4 1.5-.7 2.2-1M1000 43.6v.9c-1.9.3-3.9.6-5.8.9-1.7.3-3.4.6-5.2.8-4.8.8-9.6 1.7-14.3 2.7-1.8.4-3.5.7-5.3 1.1-5 1.1-9.9 2.3-14.8 3.5-.2 0-.4.1-.5.1-3.9 1-7.7 2-11.5 3.1-20.2 5.7-39.6 12.6-58.8 20.2-6.7 2.7-13.5 5.4-20.2 8.3 18-8.1 36.2-15.6 55.2-22.1l7.2-2.4c.9-.3 1.8-.6 2.7-.8.8-.2 1.6-.5 2.3-.7 3.6-1.1 7.2-2.1 10.7-3.1 1.1-.3 2.1-.6 3.2-.9 4.4-1.2 8.8-2.4 13.2-3.4 2.3-.6 4.7-1.1 7-1.7 4.3-1 8.6-1.9 12.8-2.7 2.3-.4 4.5-.9 6.8-1.3 5.2-.9 10.2-1.8 15.3-2.5"/><path class="st0" d="M256.2 182.3c.2 0 .4.1.6.1l4.5 1.2c-.4-.1-.9-.1-1.3-.2-1.3-.4-2.6-.8-3.8-1.1m-5.1-1c.4.1.7.1 1.1.2 1.5.4 2.9.9 4.4 1.3-.5-.1-1.1-.2-1.6-.3-1.4-.4-2.6-.8-3.9-1.2m-4.8-.9c.4.1.9.2 1.3.3l4.2 1.5-1.8-.3c-1.2-.6-2.5-1.1-3.7-1.5m-4.6-1l1.5.3c1.4.5 2.7 1 4.1 1.6-.6-.1-1.3-.2-1.9-.3-1.3-.5-2.5-1-3.7-1.6m-4.5-.9c.3.1.7.1 1 .2 1.3.6 2.7 1.1 4 1.7l-1.5-.3c-1.1-.5-2.3-1-3.5-1.6m-5-1c.6.1 1.3.2 1.9.4 1.2.6 2.5 1.2 3.8 1.7-.8-.1-1.6-.3-2.4-.4-1.1-.5-2.2-1.1-3.3-1.7m-4-.7c.7.1 1.4.3 2 .4 1.1.6 2.2 1.1 3.3 1.7-.8-.1-1.6-.3-2.4-.5-.9-.5-1.9-1.1-2.9-1.6m-4.6-.9c.9.2 1.7.3 2.6.5 1 .5 1.9 1.1 2.9 1.6-1-.2-1.9-.4-2.9-.6-.9-.5-1.7-1-2.6-1.5m510.8-32.2c-.6.6-1.2 1.3-1.8 1.9-22.5 9.2-46.5 17.9-72.6 25.5-63 18.3-130.3 27.2-205 27.2-5.9 0-11.9-.1-17.9-.2-37-.7-72.3-2.6-106.2-5.8-1.7-.2-3.5-.3-5.2-.5-1.7-.2-3.4-.3-5.1-.5h-.1c-1.7-.2-3.5-.4-5.2-.5l-2.7-.3c-12-1.7-23.8-3.5-35.5-5.4-.6-.1-1.1-.2-1.7-.3l6.6.9c14.2 2 28.6 3.7 43.4 5.1.2 0 .4 0 .7.1 1.5.2 3.1.3 4.6.4 1.6.2 3.1.3 4.7.4 32.4 3 66.3 4.8 101.6 5.5 6 .1 12 .2 17.8.2 122.9-.1 208.6-24.4 279.6-53.7m10.2-4.2c-.7.7-1.4 1.3-2.1 2-2.8 1.2-5.6 2.4-8.4 3.5.6-.6 1.2-1.3 1.9-1.9 2.9-1.2 5.7-2.4 8.6-3.6m10-4.4c-.8.7-1.5 1.4-2.3 2.1-2.6 1.2-5.3 2.3-8 3.4.7-.7 1.4-1.3 2.1-2 2.7-1.1 5.5-2.3 8.2-3.5m9.8-4.4c-.9.8-1.7 1.5-2.6 2.3l-7.5 3.3c.8-.7 1.5-1.4 2.3-2.1 2.6-1.1 5.2-2.3 7.8-3.5m9.8-4.4c-1 .8-2 1.7-3 2.5-2.3 1.1-4.6 2.1-7 3.2.9-.8 1.8-1.5 2.7-2.3 2.4-1.2 4.8-2.3 7.3-3.4m9.6-4.5c-1.2.9-2.4 1.8-3.6 2.8-2.1 1-4.2 2-6.4 2.9 1-.8 2-1.7 3.1-2.5 2.3-1.1 4.6-2.1 6.9-3.2m9.6-4.5c-1.4 1-2.9 2.1-4.3 3.1-1.9.9-3.7 1.8-5.6 2.6 1.2-.9 2.4-1.9 3.6-2.8 2.1-1 4.2-2 6.3-2.9m9.6-4.6c-1.8 1.2-3.6 2.4-5.3 3.6-1.5.7-3 1.4-4.5 2.2 1.5-1.1 2.9-2.1 4.4-3.2 1.7-.9 3.6-1.7 5.4-2.6m9.6-4.6c-2.3 1.5-4.6 2.9-6.9 4.4-1 .5-2 1-3 1.4 1.8-1.3 3.7-2.5 5.6-3.8 1.4-.6 2.8-1.3 4.3-2m9.6-4.7c-3.1 1.9-6.3 3.7-9.4 5.6-.1.1-.2.1-.3.2-.1 0-.2.1-.3.1 2.4-1.5 4.8-3.1 7.3-4.6.9-.4 1.8-.8 2.7-1.3M0 99c64.7 34.2 138 60 222.1 76.6.9.5 1.7 1 2.6 1.6-36.7-7.2-71.6-16.1-105-27C77.1 136.3 37.4 119.6 0 99.7V99zm1000-56.8v1.2c-.7.1-1.4.2-2 .3-5.2.7-10.4 1.6-15.4 2.5-2.5.4-4.9.9-7.3 1.4-4.2.8-8.4 1.8-12.5 2.7-2.4.6-4.8 1.2-7.3 1.8a2134 2134 0 0 0-12.4 3.3c-1.2.3-2.3.7-3.4 1-4 1.2-8 2.4-11.9 3.7-.9.3-1.8.6-2.6.9-2.1.7-4.3 1.4-6.4 2.1-19 6.5-37.2 14-55.2 22.1-7.3 3.3-14.6 6.7-22 10.1 12.5-6.3 25-12.4 37.7-18 2.6-1.1 5.1-2.2 7.7-3.2.2-.1.4-.2.7-.3 4-1.6 8-3.3 12.1-4.8.8-.3 1.7-.7 2.6-1 3.7-1.4 7.4-2.8 11.1-4.1 1.5-.5 3.1-1.1 4.6-1.6 3.4-1.2 6.9-2.4 10.5-3.5 1.7-.6 3.4-1.1 5.2-1.6 3.5-1.1 7.1-2.1 10.7-3.2 2.7-.8 5.5-1.5 8.3-2.2 3.6-.9 7.1-1.8 10.8-2.7 2.8-.6 5.6-1.3 8.4-1.9 4.3-.9 8.6-1.7 12.9-2.5 2.9-.5 5.9-1 8.9-1.5 1.9-.3 4.1-.7 6.2-1"/><path class="st0" d="M254.3 181.7c.8.2 1.7.5 2.5.7-.2 0-.4-.1-.6-.1-.6-.2-1.3-.4-1.9-.6m-6.7-1.6c.1 0 .2 0 .3.1 1.4.4 2.9.9 4.3 1.3-.4-.1-.7-.1-1.1-.2-1.2-.4-2.3-.8-3.5-1.2m-4.8-1.1c.2.1.4.1.7.2l4.2 1.5c-.4-.1-.9-.2-1.3-.3-1.3-.5-2.5-.9-3.6-1.4m-4.6-1c.3.1.7.2 1 .2 1.3.5 2.7 1 4 1.6l-1.5-.3c-1.2-.6-2.3-1-3.5-1.5m-4.4-1.1c.2 0 .3.1.5.1 1.3.6 2.7 1.1 4 1.7-.3-.1-.7-.1-1-.2-1.2-.5-2.4-1-3.5-1.6m-5.2-1.2c.5.1 1 .2 1.6.3 1.3.6 2.5 1.2 3.8 1.8-.7-.1-1.4-.3-2.1-.4-1.1-.6-2.2-1.1-3.3-1.7m-3.8-.8c.6.1 1.1.3 1.7.4 1.1.6 2.2 1.1 3.3 1.7-.7-.2-1.4-.3-2.1-.5-1-.5-1.9-1.1-2.9-1.6m-4.6-1c.8.2 1.6.4 2.4.5 1 .5 1.9 1.1 2.9 1.6l-2.7-.6c-.9-.5-1.7-1-2.6-1.5m506.5-22.3c-.5.6-1.1 1.1-1.6 1.7-21.9 9.5-45.2 18.4-70.6 26-55.1 16.4-114 24.5-178.8 24.5-14.8 0-30-.4-45.5-1.3-36.8-2-71.9-5.1-105.4-9.4-1.7-.2-3.4-.4-5.1-.7l-4.5-.6c-.2 0-.4-.1-.6-.1-1.7-.2-3.4-.5-5-.7-.6-.1-1.2-.2-1.7-.2-10.4-1.8-20.7-3.7-30.8-5.8 11.6 2 23.4 3.8 35.5 5.4.8.1 1.5.2 2.3.3l4.5.6h.1l4.5.6c1.6.2 3.1.4 4.7.6 32.3 4 66.2 7 101.5 9 16.1.9 31.6 1.3 46.4 1.3 108.6 0 184.8-22.4 250.1-51.2m10-4.5c-.6.6-1.3 1.2-1.9 1.9-2.7 1.2-5.4 2.4-8.2 3.6.6-.6 1.1-1.1 1.6-1.7 2.9-1.2 5.7-2.5 8.5-3.8m9.8-4.6c-.7.7-1.5 1.4-2.2 2-2.5 1.2-5.1 2.4-7.7 3.5l1.9-1.9c2.7-1.1 5.4-2.3 8-3.6m9.7-4.6c-.9.8-1.7 1.5-2.6 2.3-2.4 1.1-4.8 2.3-7.2 3.4.7-.7 1.5-1.4 2.2-2.1 2.6-1.2 5.1-2.4 7.6-3.6m9.6-4.7c-1 .9-2.1 1.7-3.1 2.6-2.2 1.1-4.4 2.1-6.6 3.2.9-.8 1.8-1.5 2.6-2.3 2.4-1.2 4.8-2.3 7.1-3.5m9.5-4.8c-1.3 1-2.5 2-3.8 3-1.9 1-3.9 1.9-5.8 2.9 1.1-.9 2.1-1.8 3.2-2.6 2.1-1.1 4.2-2.2 6.4-3.3m9.4-4.7c-1.6 1.2-3.1 2.3-4.7 3.5-1.6.8-3.2 1.6-4.9 2.5l3.9-3c1.9-1.1 3.8-2.1 5.7-3m9.3-4.9c-2 1.4-4.1 2.8-6.1 4.2-1.1.6-2.3 1.2-3.4 1.8 1.6-1.2 3.3-2.4 4.9-3.6 1.5-.8 3-1.6 4.6-2.4m9.4-4.9c-2.8 1.8-5.7 3.7-8.5 5.5-.4.2-.8.4-1.1.6 2.1-1.5 4.3-2.9 6.4-4.4 1.1-.5 2.1-1.1 3.2-1.7m9.4-4.9c-.7.4-1.5.9-2.2 1.3.5-.3 1-.6 1.5-1 .1-.1.3-.1.4-.2.1.1.2 0 .3-.1M0 92.2c63.3 35.3 135.4 62.5 218.6 81.3.8.5 1.7 1 2.5 1.5-35.1-7.9-68.4-17.3-100.2-28.4-43.2-15-83.3-33-120.9-54.1v-.3zm1000-51.6v.8c-4.7.6-9.4 1.3-14 2.1-3.3.6-6.5 1.2-9.7 1.8-4 .8-8 1.7-12 2.6-3 .7-6 1.4-9 2.2-3.3.8-6.5 1.7-9.7 2.6-2.9.8-5.7 1.7-8.6 2.5-3.2 1-6.3 2-9.4 3-1.9.6-3.8 1.3-5.7 1.9-3 1-6 2.1-9 3.2-1.6.6-3.3 1.2-4.9 1.8-3.1 1.2-6.2 2.4-9.3 3.7-1 .4-1.9.8-2.9 1.2-3.3 1.4-6.6 2.7-9.8 4.2-.3.1-.6.3-.9.4-2 .9-3.9 1.7-5.9 2.6-12.7 5.7-25.2 11.8-37.7 18-6.5 3.3-12.9 6.6-19.4 10 11.6-6.5 23.3-12.8 35.2-18.8 2.1-1 4.1-2 6.2-3 .4-.2.8-.4 1.1-.5 3.4-1.6 6.8-3.2 10.3-4.8 1-.5 2-.9 3.1-1.4 3-1.4 6.1-2.7 9.2-4 1.5-.6 2.9-1.2 4.4-1.9l8.7-3.6c2-.8 3.9-1.6 5.9-2.3 2.8-1.1 5.6-2.1 8.5-3.2 2.2-.8 4.4-1.6 6.6-2.3 2.9-1 5.8-2 8.8-2.9 3-1 6-1.9 9.1-2.8 3-.9 6-1.8 9.1-2.6 3.1-.9 6.3-1.7 9.5-2.5 3.6-.9 7.3-1.8 11-2.6 3.3-.7 6.7-1.4 10.1-2.1 4.5-.9 9.1-1.6 13.7-2.3 2.4-.3 4.9-.6 7.4-1"/><path class="st0" d="M246.8 179.8c.4.1.7.2 1.1.3-.1 0-.2 0-.3-.1-.3 0-.5-.1-.8-.2m-6.6-1.8c1.1.4 2.2.8 3.3 1.1-.2-.1-.4-.1-.7-.2-.9-.2-1.8-.5-2.6-.9m-5.3-1.4c.1 0 .2.1.3.1 1.3.5 2.6 1 4 1.5-.3-.1-.7-.2-1-.2-1.1-.5-2.2-1-3.3-1.4m-3.4-.7c.9.4 1.8.8 2.7 1.1-.2 0-.3-.1-.5-.1-.7-.3-1.4-.7-2.2-1m-6.6-2c.4.1.9.2 1.3.4 1.3.6 2.5 1.2 3.8 1.8-.6-.1-1.1-.3-1.7-.4-1.1-.7-2.2-1.2-3.4-1.8m-3.9-1.1c.5.1 1 .3 1.5.4 1.2.6 2.4 1.2 3.7 1.9-.6-.1-1.2-.3-1.8-.4-1.2-.7-2.3-1.3-3.4-1.9m-4.9-1.4c.7.2 1.5.4 2.2.6 1.2.7 2.4 1.3 3.5 2-.8-.2-1.7-.4-2.5-.6-1-.7-2.1-1.3-3.2-2m503.2-12.1c-.6.6-1.1 1.2-1.7 1.7-21.5 9.9-44.4 19.1-69.3 26.7-48.8 14.9-101 22.3-158 22.3-21.6 0-43.9-1.1-66.9-3.2-36.6-3.3-71.4-7.7-104.6-13.1-1.6-.3-3.3-.5-4.9-.8-1.3-.2-2.7-.4-4-.7-.3-.1-.6-.1-1-.2-1.6-.3-3.3-.6-4.9-.8-1.4-.2-2.8-.5-4.2-.7-.2 0-.5-.1-.7-.1-.7-.1-1.4-.3-2.1-.4-14.2-3-28.1-6.2-41.7-9.6 6.6 1.5 13.3 2.9 20.1 4.2.6.1 1.1.2 1.7.3 10.1 2 20.4 4 30.8 5.8l1.5.3c1.5.3 2.9.5 4.4.8.2 0 .4.1.6.1 1.3.2 2.6.4 3.9.7 1.5.3 3.1.5 4.6.7 32.1 5.2 65.6 9.4 100.7 12.6 24 2.2 46.5 3.2 67.7 3.2 97.6 0 167.7-21.6 228-49.8m9.8-4.7l-1.9 1.9c-2.6 1.3-5.3 2.5-7.9 3.7.6-.6 1.1-1.2 1.7-1.8 2.7-1.2 5.4-2.5 8.1-3.8m9.7-4.8c-.8.7-1.5 1.4-2.3 2.1-2.5 1.2-4.9 2.4-7.4 3.6.7-.7 1.3-1.3 2-1.9 2.6-1.2 5.1-2.5 7.7-3.8m9.5-4.9l-2.7 2.4c-2.3 1.2-4.5 2.3-6.8 3.5.8-.7 1.5-1.5 2.3-2.2 2.4-1.2 4.8-2.4 7.2-3.7m9.4-4.9c-1.1.9-2.2 1.9-3.3 2.8-2 1.1-4.1 2.1-6.1 3.2.9-.8 1.8-1.7 2.8-2.5 2.1-1.2 4.4-2.3 6.6-3.5m9.2-5l-4.2 3.3c-1.7.9-3.5 1.9-5.2 2.8 1.1-1 2.3-1.9 3.4-2.9 2.1-1 4.1-2.1 6-3.2m9.2-5c-1.8 1.4-3.6 2.7-5.4 4.1l-3.9 2.1c1.4-1.1 2.9-2.3 4.3-3.4 1.7-1 3.3-1.9 5-2.8m9.2-5.1c-2.5 1.8-5 3.5-7.6 5.3-.6.3-1.2.6-1.8 1l5.7-4.2c1.2-.8 2.4-1.4 3.7-2.1m9.1-5.1l-4.2 2.7c1-.7 1.9-1.3 2.9-2 .4-.2.9-.5 1.3-.7M0 82.8c57.5 34.3 122.5 62 197 83 5.7 1.7 11.4 3.4 17.2 5.1 1.1.7 2.3 1.4 3.4 2.1-33.5-8.5-65.3-18.4-95.5-29.6C78.3 127 37.8 107.8 0 85.4v-2.6zM1000 39v1.5c-3.4.4-6.8.9-10.2 1.4-4.9.7-9.7 1.5-14.4 2.4-3.7.7-7.3 1.5-11 2.3-3.7.8-7.4 1.7-11.1 2.6-3.4.9-6.8 1.8-10.1 2.7-3 .8-5.9 1.7-8.8 2.6-3.2 1-6.4 2-9.5 3.1-2.8.9-5.5 1.9-8.3 2.9-2.3.8-4.7 1.7-6.9 2.6l-7.8 3c-2.1.8-4.1 1.7-6.1 2.5-2.6 1.1-5.2 2.2-7.8 3.4-1.5.7-3.1 1.4-4.6 2-2.7 1.2-5.3 2.4-8 3.7-1.1.5-2.1 1-3.2 1.5-2.9 1.4-5.8 2.8-8.6 4.2l-1.2.6c-1.6.8-3.3 1.6-4.9 2.5-11.9 6-23.6 12.4-35.2 18.8-6.3 3.5-12.6 7-18.8 10.6 9.7-5.9 19.4-11.7 29.3-17.4 3.2-1.7 6.4-3.5 9.6-5.2.5-.3 1-.6 1.6-.8 3-1.6 5.9-3.1 8.9-4.7 1.1-.5 2.1-1.1 3.2-1.6 2.6-1.3 5.2-2.7 7.8-4 1.5-.7 3-1.5 4.4-2.2 2.4-1.2 4.8-2.3 7.3-3.5 1.8-.9 3.7-1.7 5.5-2.6 2.3-1.1 4.7-2.1 7.1-3.2 2.2-1 4.5-2 6.7-2.9 2.3-1 4.7-2 7-2.9 2.5-1 4.9-2 7.4-2.9 2.4-.9 4.9-1.8 7.3-2.7 3.2-1.1 6.4-2.3 9.6-3.3 2.6-.9 5.1-1.7 7.7-2.5 3.4-1.1 6.8-2.1 10.2-3 3.1-.9 6.3-1.7 9.5-2.6 3.6-.9 7.2-1.8 10.9-2.6 4-.9 8-1.7 12.1-2.5 7.5-1.6 15.4-2.8 23.4-3.8"/><path class="st0" d="M233.7 176.1l1.5.6c-.1 0-.2-.1-.3-.1-.4-.2-.8-.4-1.2-.5m-12-3.9c.3.1.5.2.8.2 1.3.6 2.5 1.2 3.8 1.8-.4-.1-.9-.2-1.3-.4-1.2-.5-2.2-1-3.3-1.6m-3.9-1.2c.3.1.7.2 1 .3 1.2.6 2.4 1.2 3.6 1.9-.5-.1-1-.3-1.5-.4-1-.6-2-1.2-3.1-1.8m-4.9-1.5c.6.2 1.3.4 1.9.6 1.2.6 2.3 1.3 3.5 2-.7-.2-1.5-.4-2.2-.6-1.1-.7-2.1-1.4-3.2-2m499.2-2.6c-.6.6-1.2 1.3-1.8 1.9-55.9 27.4-120.6 48.1-208.9 48.1-26 0-54.1-1.8-84.7-5.7-36.4-4.7-71-10.3-103.8-16.7-1.6-.3-3.2-.6-4.8-1-1.2-.2-2.4-.5-3.5-.7-.4-.1-.8-.2-1.3-.3-1.6-.3-3.2-.7-4.8-1-1.2-.3-2.5-.5-3.7-.8-.4-.1-.7-.2-1.1-.2-1.6-.3-3.2-.7-4.8-1-1.5-.3-2.9-.6-4.4-1-.1 0-.2-.1-.4-.1-1.1-.2-2.2-.5-3.3-.7l-1.5-.3c-1.4-.3-2.9-.6-4.3-1-15.5-4-30.6-8.2-45.4-12.6-.6-.2-1.1-.4-1.7-.6 9 2.5 18.1 4.9 27.3 7.2 13.6 3.4 27.5 6.6 41.7 9.6.6.1 1.2.3 1.8.4.2 0 .4.1.6.1 1.2.3 2.4.5 3.6.8 1.5.3 2.9.6 4.4.9.3.1.6.1.9.2 1.2.2 2.3.5 3.5.7l4.5.9c31.9 6.3 65.3 11.7 100.4 16.2 30.5 3.9 58.5 5.7 84.5 5.7 89.5.1 154.6-21 211-49m9.6-4.9l-2.1 2.1c-2.5 1.3-5.1 2.6-7.6 3.8.6-.6 1.2-1.3 1.8-1.9 2.6-1.3 5.3-2.6 7.9-4m9.5-5c-.8.8-1.7 1.6-2.5 2.4-2.3 1.2-4.7 2.5-7.1 3.7l2.1-2.1c2.5-1.3 5-2.7 7.5-4m9.3-5.1l-3 2.7c-2.1 1.2-4.3 2.3-6.4 3.5.8-.8 1.7-1.6 2.5-2.4 2.3-1.2 4.6-2.5 6.9-3.8m9.2-5.1c-.8.7-1.6 1.4-2.5 2.1-.4.4-.9.7-1.3 1.1-1.8 1-3.7 2.1-5.5 3.1 1-.9 2-1.8 3.1-2.7 2-1.3 4.1-2.5 6.2-3.6m9-5.3c-.5.4-.9.7-1.4 1.1-1.2.9-2.3 1.9-3.5 2.8-1.4.8-2.9 1.6-4.3 2.5 1.3-1.1 2.6-2.2 3.8-3.2 1.9-1.1 3.7-2.1 5.4-3.2m9-5.3c-.2.2-.4.3-.6.5-2 1.5-4.1 3.1-6.1 4.6-.8.5-1.6.9-2.3 1.4 1.7-1.3 3.4-2.7 5-4 1.3-.9 2.7-1.7 4-2.5m8.9-5.3c-.1.1-.2.1-.2.2-2 1.4-3.9 2.7-5.9 4.1 1.4-1 2.7-2 4.1-3.1.7-.4 1.4-.8 2-1.2M0 75.6c55.4 34.9 118.3 63.8 190.6 86.6 6.6 2.3 13.4 4.5 20.2 6.6 1.1.7 2.2 1.4 3.4 2.1-5.8-1.7-11.5-3.3-17.2-5.1-25.7-7.8-50.1-16.3-73.6-25.7C78.8 122.4 37.9 101.8 0 78v-2.4zm1000-38.3v1.1c-10.6 1.2-20.8 2.8-30.6 4.8-4 .8-7.9 1.7-11.8 2.6-3.9.9-7.7 1.9-11.4 2.9-3 .8-6 1.7-9 2.6-3.6 1.1-7.1 2.2-10.6 3.3-2.4.8-4.8 1.6-7.2 2.5-3.3 1.2-6.5 2.4-9.7 3.6-2.3.9-4.5 1.8-6.7 2.7-2.6 1-5.2 2.1-7.7 3.2-2.1.9-4.2 1.8-6.4 2.8-2.3 1-4.6 2.1-6.9 3.1l-6.3 3c-1.9.9-3.8 1.8-5.7 2.8-2.1 1.1-4.2 2.1-6.3 3.2-1.5.8-3.1 1.6-4.6 2.4-2.2 1.2-4.4 2.4-6.7 3.5l-3.3 1.8c-2.4 1.3-4.9 2.7-7.3 4-.6.3-1.2.7-1.8 1-2.5 1.4-5 2.8-7.4 4.2-9.8 5.7-19.5 11.5-29.3 17.4-3.1 1.9-6.2 3.7-9.3 5.6-2.9 1.8-5.8 3.5-8.7 5.3.1-.1.3-.2.4-.2 8.3-5.4 16.6-10.8 24.9-16.1.7-.4 1.5-.9 2.2-1.3 3.1-1.9 6.3-3.8 9.4-5.6.6-.4 1.3-.8 1.9-1.1l7.8-4.5c1.1-.6 2.2-1.3 3.3-1.9 2.3-1.3 4.5-2.6 6.8-3.9 1.5-.8 2.9-1.6 4.4-2.4 2.1-1.1 4.2-2.3 6.3-3.4 1.8-1 3.5-1.9 5.3-2.8 2-1 4-2.1 6-3.1 2.1-1.1 4.1-2.1 6.2-3.1 2-1 3.9-1.9 5.9-2.9 2.4-1.2 4.8-2.3 7.2-3.4l6-2.7c2.6-1.2 5.3-2.3 8-3.5 2.1-.9 4.2-1.7 6.2-2.6 3.2-1.3 6.5-2.6 9.8-3.8 2.2-.8 4.5-1.6 6.7-2.4 3.5-1.2 7-2.4 10.6-3.6 2.7-.9 5.5-1.7 8.3-2.5 3.7-1.1 7.5-2.1 11.4-3.1 3.5-.9 7.1-1.8 10.7-2.6 12.4-3.1 25.4-5.3 39-6.9"/><path class="st0" d="M229.6 173.8c14.8 4.4 29.9 8.6 45.4 12.6l3.6.9c.4.1.9.2 1.3.3.9.2 1.9.5 2.9.7.1 0 .3.1.4.1 1.3.3 2.5.6 3.8.9 1.5.4 2.9.7 4.4 1.1l1.2.3c1.1.3 2.2.5 3.3.8 1.5.4 3 .7 4.5 1.1.4.1.9.2 1.3.3 1.1.3 2.1.5 3.2.8 1.5.4 3 .7 4.6 1.1 32 7.4 65.5 13.9 100.6 19.9 35.9 6 68.3 8.7 98 8.7 82.7 0 143.8-20.9 196.7-48.8-.6.7-1.2 1.3-1.9 2-52.5 27.4-113.1 47.7-194.8 47.7-29.7 0-62.3-2.7-98.2-8.8-36.2-6.1-70.5-12.9-103-20.5-1.5-.4-3.1-.7-4.6-1.1h-.1c-1.1-.3-2.1-.5-3.2-.8-.5-.1-1-.2-1.5-.4-1.5-.4-3-.7-4.5-1.1h-.2c-1.1-.3-2.2-.5-3.2-.8-.5-.1-1-.2-1.4-.4-1.6-.4-3.1-.8-4.7-1.2-1.3-.3-2.5-.6-3.8-1-.3-.1-.6-.1-.8-.2-.9-.2-1.9-.5-2.8-.7-.6-.2-1.3-.3-1.9-.5l-4.5-1.2c-1.3-.4-2.7-.7-4-1.1l-4.5-1.2-4.5-1.2c-.9-.2-1.7-.5-2.5-.7-6.8-2.1-13.5-4.1-20.2-6.3-1.4-.2-2.9-.7-4.4-1.3m-11-3.2c.1 0 .1 0 .2.1 1.2.6 2.5 1.2 3.7 1.8-.3-.1-.5-.2-.8-.2-1.1-.6-2.1-1.1-3.1-1.7m495.7-1.2l-2.2 2.2c-2.4 1.3-4.9 2.6-7.3 3.9.6-.7 1.3-1.3 1.9-2 2.5-1.3 5.1-2.7 7.6-4.1m-499.5-.1c.2.1.3.1.5.2 1.2.6 2.4 1.2 3.5 1.8-.3-.1-.7-.2-1-.3-1-.5-2-1.1-3-1.7m-4.6-1.5c.5.2 1 .3 1.5.5 1.1.6 2.1 1.2 3.2 1.8-.6-.2-1.3-.4-1.9-.6-1-.6-1.9-1.1-2.8-1.7m513.4-3.6c-.9.8-1.8 1.7-2.7 2.5-2.2 1.3-4.4 2.5-6.7 3.7l.8-.8 1.5-1.5c2.4-1.2 4.7-2.5 7.1-3.9m9.1-5.3l-3.3 3c-1.9 1.1-3.9 2.3-5.9 3.4.9-.9 1.8-1.7 2.7-2.6 2.2-1.3 4.4-2.5 6.5-3.8m9-5.4c-1.5 1.2-2.9 2.4-4.3 3.7-1.6.9-3.1 1.9-4.7 2.8 1.1-1 2.3-2 3.4-3.1 1.9-1.1 3.7-2.3 5.6-3.4m8.9-5.5l-6 4.8c-1 .6-2 1.2-2.9 1.8 1.5-1.3 3-2.5 4.5-3.8 1.4-1 2.9-1.9 4.4-2.8m8.8-5.6c-2.6 1.9-5.2 3.9-7.8 5.8 1.7-1.4 3.5-2.8 5.2-4.1.8-.6 1.7-1.1 2.6-1.7M0 68.9c60.8 41 129.4 73 208.2 98.3.9.5 1.8 1.1 2.7 1.6-6.8-2.2-13.6-4.4-20.2-6.6-23-7.8-45-16.2-66-25.1C79.3 117.9 38 95.8 0 70.5v-1.6zm1000-33.2v.6c-17.4 1.8-33.7 4.7-49.2 8.6-3.3.8-6.7 1.7-9.9 2.6-3.9 1.1-7.8 2.3-11.6 3.5-2.5.8-5.1 1.6-7.5 2.5-3.6 1.2-7.2 2.5-10.7 3.9-2 .8-4.1 1.6-6.1 2.4-3.3 1.3-6.5 2.7-9.8 4.1-1.9.8-3.8 1.6-5.6 2.5-2.7 1.2-5.4 2.5-8.1 3.7-1.8.8-3.6 1.7-5.3 2.6l-7.2 3.6c-1.7.9-3.5 1.8-5.2 2.7-2.1 1.1-4.2 2.2-6.3 3.4-1.7 1-3.5 1.9-5.2 2.9-1.8 1-3.6 2-5.4 3.1-1.8 1-3.6 2.1-5.4 3.1l-4.5 2.7c-1.9 1.1-3.8 2.3-5.7 3.4-1.2.7-2.3 1.4-3.5 2.1l-6.3 3.9c-.7.4-1.4.9-2.1 1.3-2.4 1.5-4.8 3-7.3 4.6 0 0-.1 0-.1.1-.5.3-1 .6-1.5 1-8.3 5.3-16.6 10.7-24.9 16.1-.1.1-.3.2-.4.2-5.8 3.8-11.6 7.5-17.4 11.3 3-2.1 6-4.2 8.9-6.2 4.4-3.1 8.8-6.2 13.3-9.3l4.2-2.7c.2-.1.3-.2.5-.3 2.8-1.8 5.7-3.7 8.5-5.5.8-.5 1.5-1 2.3-1.5 2.3-1.5 4.6-2.9 6.9-4.4 1.1-.7 2.3-1.5 3.4-2.2 2-1.3 4-2.5 6-3.8 1.4-.9 2.9-1.8 4.3-2.7 1.8-1.1 3.7-2.2 5.5-3.3 1.7-1 3.4-2 5.1-3.1 1.7-1 3.5-2 5.2-3.1 1.9-1.1 3.9-2.3 5.9-3.4 1.7-1 3.4-1.9 5-2.8l6.6-3.6c1.7-.9 3.4-1.8 5-2.7 2.5-1.3 5-2.6 7.5-3.8 1.7-.9 3.4-1.7 5.2-2.5 2.7-1.3 5.5-2.6 8.3-3.9l3.9-1.8c.5-.2 1-.5 1.6-.7 3.3-1.5 6.6-2.9 9.9-4.2 2-.8 4-1.6 5.9-2.4 3.6-1.4 7.2-2.8 10.9-4 2.4-.9 4.9-1.7 7.3-2.5 3.9-1.3 7.8-2.5 11.7-3.6 3.2-.9 6.4-1.8 9.6-2.6 17.8-4.9 35.6-8.1 53.8-9.9"/><path class="st0" d="M706.9 176.8l-2.4 2.4c-2.3 1.3-4.6 2.7-6.9 4 .7-.7 1.4-1.4 2-2.2 2.5-1.3 4.9-2.7 7.3-4.2m-472.8-1.4c6.6 2.1 13.4 4.2 20.2 6.3.6.2 1.3.4 1.9.6 1.2.4 2.5.7 3.7 1.1 1.3.4 2.7.8 4 1.2 1.2.4 2.4.7 3.7 1.1l4.2 1.2c.7.2 1.3.4 2 .6.8.2 1.6.5 2.4.7.3.1.7.2 1 .3 1.1.3 2.3.6 3.4 1 1.5.4 2.9.8 4.4 1.2.5.1 1 .3 1.5.4 1 .3 1.9.5 2.9.8.1 0 .2.1.3.1 1.4.4 2.8.8 4.1 1.1.5.1 1.1.3 1.6.4 1 .3 1.9.5 2.9.8.1 0 .2 0 .3.1 1.4.4 2.8.8 4.3 1.1 31.8 8.4 65.2 16.2 100.4 23.6 40.4 8.4 76.5 12.1 109.1 12.1 77.4 0 135.1-20.9 185.2-49-.7.7-1.4 1.4-2 2.1-21.2 11.7-43.7 22.2-68.3 30.2-31.4 10.3-63.5 15.9-98.2 17.2-5.4.2-10.9.3-16.4.3-34.1 0-70.1-4-109.5-12.2-36-7.5-70-15.6-102.1-24.2-1.4-.4-2.8-.8-4.2-1.1-.1 0-.2-.1-.3-.1-1-.3-1.9-.5-2.9-.8-.6-.2-1.1-.3-1.7-.5-1.4-.4-2.7-.8-4.1-1.1-.2 0-.3-.1-.5-.1-1-.3-1.9-.5-2.9-.8-.6-.2-1.1-.3-1.7-.5-1.5-.4-3-.9-4.5-1.3-1.1-.3-2.2-.6-3.3-1l-1.2-.3c-.8-.2-1.6-.5-2.3-.7-.7-.2-1.5-.4-2.2-.7-1.5-.4-2.9-.9-4.4-1.3-1.3-.4-2.5-.8-3.8-1.1-.1 0-.1 0-.2-.1-1.5-.4-2.9-.9-4.4-1.3-1.5-.4-2.9-.9-4.4-1.3-1.4-.4-2.9-.9-4.3-1.3-.4-.1-.7-.2-1.1-.3l-12.6-4.5m482-4c-1 .9-2 1.9-3 2.8-2 1.2-4.1 2.5-6.2 3.7l2.5-2.5c2.2-1.3 4.4-2.7 6.7-4M218 170.3c.2.1.5.2.7.3 0 0-.1 0-.2-.1-.1 0-.3-.1-.5-.2m-4.4-1.6c.1 0 .1 0 .2.1.5.2 1 .5 1.5.8-.2-.1-.3-.1-.5-.2-.4-.3-.8-.5-1.2-.7m-4.7-1.6c.5.2.9.3 1.4.5.4.2.7.4 1.1.6-.5-.2-1.1-.4-1.6-.6-.3-.2-.6-.4-.9-.5m516.1-1.3c-1.3 1.2-2.6 2.3-3.9 3.5-1.7 1.1-3.4 2.1-5.1 3.2 1-1 2-1.9 3.1-2.9 1.9-1.3 3.9-2.6 5.9-3.8m8.8-5.7l-5.4 4.5c-1.2.7-2.3 1.5-3.5 2.2 1.3-1.2 2.7-2.4 4-3.6 1.7-1 3.3-2 4.9-3.1m8.7-5.7c-2.6 2.1-5.3 4.2-7.9 6.2-.3.2-.5.4-.8.6 1.9-1.6 3.7-3.1 5.6-4.7 1-.7 2.1-1.4 3.1-2.1m-577.6-3.6c13.6 5.4 27.5 10.5 41.8 15.5.3.2.6.3.8.5-14.6-5.1-28.8-10.5-42.6-16M1000 34.1v.9c-22.6 2-43.4 5.9-62.8 11.4-3 .9-6 1.7-9 2.7-4 1.2-7.9 2.6-11.8 3.9-2.3.8-4.5 1.6-6.8 2.5-3.7 1.4-7.3 2.8-10.9 4.3-1.8.8-3.7 1.5-5.5 2.3-3.3 1.4-6.6 2.9-9.9 4.5-1.7.8-3.4 1.6-5 2.4l-8.4 4.2c-1.6.8-3.2 1.6-4.7 2.5-2.5 1.3-5.1 2.7-7.6 4.1-1.5.8-3 1.7-4.6 2.5-2.3 1.3-4.5 2.6-6.7 3.9l-4.5 2.7-6 3.6c-1.5.9-3 1.9-4.6 2.8-1.8 1.1-3.5 2.2-5.2 3.3-1.6 1-3.1 2-4.7 3-1.5 1-3 2-4.5 2.9-1.7 1.1-3.4 2.2-5 3.3l-3.6 2.4c-1.9 1.2-3.7 2.5-5.6 3.8-.8.6-1.7 1.1-2.5 1.7-2.1 1.5-4.3 2.9-6.4 4.4-.2.2-.5.3-.7.5-1 .7-1.9 1.3-2.9 2-4.4 3.1-8.9 6.2-13.3 9.3-3 2.1-6 4.2-8.9 6.2-5.6 3.9-11.3 7.8-17 11.7 5.6-4.1 11.1-8.2 16.6-12.3 1-.7 2-1.5 3-2.2 2-1.4 3.9-2.7 5.9-4.1.1-.1.2-.1.2-.2.3-.2.7-.5 1.1-.7 2.5-1.8 5-3.5 7.6-5.3.9-.6 1.7-1.2 2.6-1.8 2-1.4 4.1-2.8 6.1-4.2 1.2-.8 2.4-1.7 3.6-2.5 1.8-1.2 3.6-2.4 5.3-3.6 1.5-1 2.9-2 4.4-3 1.6-1.1 3.2-2.2 4.8-3.2 1.7-1.1 3.3-2.2 5-3.3l4.5-3c1.9-1.2 3.7-2.4 5.6-3.6 1.5-.9 2.9-1.8 4.4-2.8 2.1-1.3 4.1-2.6 6.2-3.8 1.4-.9 2.9-1.7 4.3-2.6 2.3-1.4 4.6-2.7 6.9-4 1.5-.8 2.9-1.7 4.4-2.5 2.5-1.4 5.1-2.8 7.7-4.2l4.5-2.4c2.8-1.5 5.6-2.9 8.4-4.3 1.6-.8 3.2-1.6 4.8-2.3.3-.1.6-.3.8-.4l9-4.2c1.7-.8 3.5-1.5 5.3-2.3 3.6-1.6 7.3-3 10.9-4.5 2.1-.8 4.3-1.7 6.5-2.5 3.9-1.4 7.8-2.8 11.7-4.1 2.8-.9 5.7-1.8 8.5-2.7 22.4-6.8 45-11.1 68.5-13.1"/><path class="st0" d="M699.6 184.2l-2.8 2.8c-2.1 1.3-4.3 2.6-6.5 3.9.8-.8 1.5-1.6 2.3-2.4 2.3-1.5 4.7-2.9 7-4.3m8.9-5.7l-3.6 3.3c-1.8 1.2-3.7 2.3-5.5 3.5l2.8-2.8c2.2-1.3 4.2-2.7 6.3-4m-481.9-5.7c.4.2.9.3 1.3.5.6.2 1.1.4 1.7.6 1.5.5 3 1.1 4.5 1.6 4.2 1.5 8.4 3 12.7 4.4.3.1.5.2.8.3 1.2.4 2.3.8 3.5 1.2 1.3.4 2.5.9 3.8 1.3 1.3.4 2.6.9 4 1.3.1 0 .3.1.4.1 1.1.4 2.2.7 3.3 1.1 1.4.4 2.7.9 4.1 1.3.7.2 1.5.5 2.2.7.7.2 1.4.4 2 .7.4.1.9.3 1.3.4 1 .3 2 .6 3 1 1.4.5 2.9.9 4.3 1.4l1.8.6c.9.3 1.7.5 2.6.8.2.1.4.1.6.2 1.3.4 2.5.8 3.8 1.2.6.2 1.2.4 1.8.5.9.3 1.8.5 2.6.8.2 0 .3.1.5.1l3.9 1.2c31.4 9.6 64.6 18.6 99.6 27.4 44.3 11.1 83.3 15.9 118.2 15.9 73.1 0 128-21.1 175.7-49.5-.8.8-1.5 1.6-2.3 2.4-21.3 12.5-43.9 23.6-68.6 31.8-31 10.3-62.9 15.7-97.4 16.3-2.2 0-4.4.1-6.6.1-36.8 0-75.9-5.3-119.1-16.1-35.8-8.9-69.5-18.3-101.1-28l-3.9-1.2c-.2-.1-.4-.1-.5-.2-.9-.3-1.7-.5-2.6-.8-.6-.2-1.2-.4-1.9-.6-1.3-.4-2.5-.8-3.8-1.2-.2-.1-.5-.1-.7-.2-.9-.3-1.7-.5-2.6-.8-.6-.2-1.2-.4-1.9-.6-1.5-.5-2.9-.9-4.4-1.4-1-.3-2-.6-2.9-1-.5-.2-1-.3-1.5-.5-.7-.2-1.3-.4-2-.7-.8-.3-1.6-.5-2.4-.8-1.4-.5-2.9-.9-4.3-1.4-1.1-.4-2.1-.7-3.2-1.1-.2-.1-.5-.2-.7-.2-1.4-.5-2.9-1-4.3-1.5l-4.2-1.5-4.2-1.5c-1.1-.4-2.2-.8-3.3-1.1-4.6-1.8-9.1-3.6-13.6-5.3m490.7-.2c-1.6 1.4-3.3 2.9-4.9 4.3-1.3.9-2.7 1.8-4 2.6 1.2-1.1 2.4-2.3 3.6-3.4 1.8-1.1 3.5-2.3 5.3-3.5m8.7-5.9c-2.5 2.1-5 4.2-7.6 6.2-.4.3-.8.6-1.2.8 1.7-1.5 3.4-3 5-4.5 1.3-.8 2.5-1.7 3.8-2.5m-520.7-1.8l.9.3c.6.3 1.2.7 1.9 1.1-.4-.2-.8-.3-1.2-.5-.6-.3-1.1-.6-1.6-.9m529.3-4.3c-.5.4-1.1.9-1.7 1.3.3-.2.6-.5.9-.7.2-.2.5-.4.8-.6m-621.8-36.2c28.2 14.1 58.1 27.2 90 39.5.5.3 1 .6 1.4.9-27.5-10.6-53.2-21.7-77.4-33.4-4.7-2.3-9.4-4.6-14-7M1000 32.5v.8c-28.6 2-54.3 7.3-78 14.9-2.7.9-5.3 1.8-8 2.7-4 1.4-7.9 2.9-11.8 4.4l-6 2.4c-3.7 1.5-7.3 3.1-10.9 4.7-1.6.7-3.2 1.5-4.9 2.3-3.3 1.6-6.6 3.2-9.8 4.8-1.5.8-3 1.5-4.4 2.3-2.9 1.5-5.7 3-8.5 4.6-1.4.8-2.8 1.5-4.2 2.3-2.6 1.5-5.2 3-7.7 4.5-1.3.8-2.7 1.6-4 2.4-2.3 1.4-4.6 2.8-6.9 4.3-1.3.8-2.6 1.6-3.9 2.5-2.1 1.4-4.2 2.7-6.3 4.1-1.3.9-2.6 1.7-3.9 2.6l-5.7 3.9c-1.3.9-2.6 1.8-4 2.7l-5.1 3.6c-1.4 1-2.7 1.9-4.1 2.9-1.5 1.1-3 2.1-4.5 3.2s-2.9 2.1-4.4 3.2c-1.3.9-2.5 1.8-3.8 2.8-1.6 1.2-3.3 2.4-4.9 3.6-.9.7-1.9 1.4-2.8 2.1l-5.7 4.2c-.4.3-.9.6-1.3 1-1.4 1-2.7 2-4.1 3.1-1 .7-2 1.5-3 2.2-5.5 4.1-11 8.2-16.6 12.3l-16.5 12c5.7-4.4 11.4-8.9 17.1-13.5 2.6-1.9 5.2-3.9 7.8-5.8.5-.4 1-.8 1.6-1.2 2.1-1.5 4.1-3.1 6.1-4.6.2-.2.4-.3.6-.5 1-.7 2-1.5 3-2.2 1.8-1.3 3.6-2.7 5.4-4.1 1.3-.9 2.5-1.9 3.8-2.8 1.6-1.2 3.1-2.3 4.7-3.5 1.5-1.1 3-2.2 4.4-3.3 1.4-1 2.9-2.1 4.3-3.1 1.6-1.2 3.3-2.4 5-3.6 1.3-1 2.7-1.9 4-2.9 1.8-1.3 3.6-2.6 5.5-3.8 1.3-.9 2.6-1.8 3.8-2.7 2-1.4 4-2.7 5.9-4.1 1.3-.9 2.5-1.7 3.8-2.5 2.1-1.4 4.3-2.9 6.5-4.3 1.3-.8 2.5-1.6 3.8-2.4 2.3-1.5 4.7-3 7.1-4.4l3.9-2.4c2.6-1.6 5.2-3.1 7.8-4.6 1.3-.8 2.7-1.5 4-2.3 2.8-1.6 5.7-3.2 8.5-4.7 1.4-.8 2.8-1.5 4.3-2.3 3.2-1.7 6.5-3.3 9.8-4.9 1.6-.8 3.1-1.5 4.7-2.2 3.6-1.7 7.2-3.3 10.8-4.8L898 56c3.8-1.6 7.7-3 11.6-4.5 2.5-.9 5-1.8 7.6-2.7 25.2-8.3 52.4-14.1 82.8-16.3"/><path class="st0" d="M691.5 192.1c-1 1-2 2-3 2.9-1.9 1.3-3.8 2.5-5.8 3.7.8-.8 1.5-1.6 2.3-2.4 2.2-1.3 4.4-2.7 6.5-4.2m8.8-6c-1.4 1.3-2.8 2.6-4.3 3.9-1.5 1-2.9 2-4.4 3 1-1 2.1-2 3.1-3 1.9-1.3 3.7-2.6 5.6-3.9m8.6-6.1c-2.2 1.9-4.5 3.9-6.8 5.8-.6.4-1.2.8-1.7 1.2 1.5-1.4 2.9-2.7 4.4-4.1 1.4-1 2.7-1.9 4.1-2.9m8.5-6.3c-.9.7-1.8 1.5-2.7 2.2.4-.4.9-.8 1.3-1.2.5-.3.9-.6 1.4-1m-497.9-3.8c2.4.9 4.8 1.9 7.1 2.8 4.5 1.8 9 3.5 13.5 5.3.9.3 1.7.7 2.6 1 1.2.4 2.4.9 3.5 1.3 1.2.5 2.5.9 3.7 1.4l3.9 1.5.9.3c.9.3 1.9.7 2.8 1 1.3.5 2.6 1 4 1.5l2.4.9c.6.2 1.2.4 1.7.6l1.5.6c.9.3 1.8.6 2.6.9l4.2 1.5c.6.2 1.3.5 1.9.7.8.3 1.6.5 2.3.8.3.1.5.2.8.3 1.2.4 2.3.8 3.5 1.2.6.2 1.3.4 1.9.7.8.3 1.6.6 2.4.8.2.1.4.1.6.2 1.2.4 2.4.8 3.7 1.3 31.1 10.7 63.9 21.1 98.7 31.2 48.7 14.2 90.6 20.3 127.5 20.3 68.4 0 119.5-21 165.2-50.2-.7.8-1.5 1.6-2.2 2.3-21.2 13.3-43.7 24.8-68.8 33.3-30.1 10.2-61.1 15.2-94.7 15.2h-1.9c-38.5-.2-79.5-6.8-125.3-20.2-35.5-10.4-68.8-21-100.1-31.9-1.2-.4-2.4-.9-3.7-1.3-.2-.1-.5-.2-.7-.2-.8-.3-1.6-.6-2.4-.8-.7-.2-1.3-.5-2-.7-1.2-.4-2.3-.8-3.5-1.2l-.9-.3c-.8-.3-1.5-.5-2.3-.8-.7-.2-1.3-.5-2-.7-1.4-.5-2.9-1-4.3-1.6-.9-.3-1.7-.6-2.6-.9-.6-.2-1.1-.4-1.7-.6-.6-.2-1.1-.4-1.7-.6-.9-.3-1.7-.6-2.6-1-1.4-.5-2.8-1-4.1-1.5-.9-.3-1.8-.7-2.7-1-.4-.1-.7-.3-1.1-.4-1.4-.5-2.8-1-4.1-1.6-1.4-.5-2.7-1-4.1-1.6-1.3-.5-2.7-1-4-1.6-1.3-.5-2.6-1-4-1.5l-1.5-.6c-4.5-2-9.2-4-13.9-6.1m-17.7-7.2c.1 0 .1 0 .1.1.8.5 1.6.9 2.4 1.4l-.6-.3c-.6-.4-1.2-.8-1.9-1.2M0 46.5c56.3 45.1 121.2 82 198.6 114.8.7.4 1.4.9 2.2 1.3C120.6 128.7 55.4 91 0 47v-.5zM1000 31v.8c-34.9 1.9-65.5 8.6-93 18.5-2.4.9-4.8 1.7-7.1 2.7-4 1.5-7.9 3.1-11.7 4.8-1.8.8-3.6 1.6-5.3 2.4-3.6 1.6-7.2 3.4-10.8 5.1-1.5.7-2.9 1.4-4.3 2.2-3.3 1.7-6.5 3.4-9.7 5.1-1.3.7-2.6 1.5-3.9 2.2-2.9 1.6-5.7 3.3-8.5 4.9-1.2.7-2.5 1.5-3.7 2.2-2.6 1.6-5.2 3.2-7.7 4.8-1.2.7-2.3 1.5-3.5 2.3-2.4 1.5-4.7 3.1-7 4.7-1.1.8-2.3 1.5-3.4 2.3-2.2 1.5-4.3 3-6.5 4.5l-3.3 2.4c-2 1.4-4 2.9-6 4.3-1.1.8-2.2 1.6-3.4 2.5-1.8 1.4-3.7 2.7-5.5 4.1-1.1.9-2.3 1.7-3.4 2.6-1.7 1.3-3.4 2.6-5 3.8-1.2.9-2.4 1.9-3.6 2.8-1.5 1.2-3.1 2.4-4.6 3.6l-3.9 3c-1.3 1-2.7 2.1-4 3.1-1.4 1.1-2.9 2.3-4.3 3.4-1.1.8-2.1 1.7-3.2 2.5-1.7 1.3-3.4 2.7-5 4-.3.2-.5.4-.8.6-.4.3-.7.6-1.1.8-1.7 1.4-3.5 2.8-5.2 4.1l-17.1 13.5c-5.7 4.4-11.3 8.7-17 13 5.2-4.2 10.3-8.5 15.5-12.8.6-.4 1.1-.9 1.7-1.3 2.6-2.1 5.3-4.1 7.9-6.2.7-.5 1.4-1.1 2.1-1.6l6-4.8c1.1-.9 2.2-1.7 3.3-2.6 1.2-.9 2.3-1.9 3.5-2.8.5-.4.9-.7 1.4-1.1 1.3-1.1 2.7-2.1 4-3.2l4.2-3.3c1.5-1.2 3-2.4 4.6-3.6 1.3-1 2.5-2 3.8-3 1.7-1.3 3.3-2.6 5-3.9 1.2-.9 2.4-1.8 3.6-2.8 1.8-1.4 3.5-2.7 5.3-4.1 1.1-.9 2.2-1.7 3.4-2.6 1.9-1.4 3.8-2.9 5.7-4.3l3.3-2.4c2-1.5 4.1-3 6.1-4.5 1.1-.8 2.2-1.6 3.3-2.3 2.2-1.6 4.4-3.1 6.6-4.6 1.1-.8 2.2-1.5 3.3-2.3 2.4-1.6 4.7-3.2 7.1-4.8 1.1-.7 2.3-1.5 3.4-2.2 2.6-1.7 5.2-3.3 7.8-4.9 1.2-.7 2.4-1.5 3.6-2.2 2.8-1.7 5.6-3.4 8.5-5 1.3-.7 2.5-1.5 3.8-2.2 3.2-1.8 6.4-3.5 9.6-5.2 1.4-.7 2.8-1.5 4.2-2.2 3.5-1.8 7.1-3.5 10.7-5.2 1.7-.8 3.4-1.6 5.1-2.3 3.8-1.7 7.6-3.3 11.5-4.9 2.2-.9 4.5-1.8 6.8-2.6C931.5 40.3 963.4 33 1000 31"/><path class="st0" d="M683.9 199.5c-1.3 1.2-2.6 2.5-3.9 3.7-1.6 1.1-3.1 2.2-4.7 3.3.9-1 1.9-1.9 2.8-2.9 2-1.4 3.9-2.8 5.8-4.1m8.6-6.3c-2 1.8-4.1 3.7-6.2 5.5-.8.6-1.5 1.1-2.3 1.7 1.3-1.3 2.7-2.5 4-3.8 1.5-1.2 3-2.3 4.5-3.4m8.4-6.4l-3.9 3.3c.6-.6 1.3-1.2 1.9-1.7.7-.6 1.4-1.1 2-1.6m-488.4-20c2.3 1 4.6 2.1 7 3.1 4.7 2.1 9.4 4.1 14.2 6.2.4.2.8.3 1.2.5 1.1.5 2.2.9 3.3 1.4 1.2.5 2.3 1 3.5 1.5 1.2.5 2.4 1 3.7 1.5 1.3.5 2.5 1 3.8 1.6.4.2.8.3 1.2.5.8.3 1.6.7 2.4 1 1.3.5 2.6 1.1 3.9 1.6.8.3 1.7.7 2.6 1l1.5.6c.6.2 1.1.5 1.7.7.8.3 1.6.6 2.3.9 1.4.5 2.7 1.1 4.1 1.6.7.3 1.4.5 2 .8.7.3 1.4.5 2.1.8.3.1.6.2.9.4 1.1.4 2.1.8 3.2 1.3.7.3 1.3.5 2 .8.7.3 1.5.6 2.2.8.3.1.5.2.8.3 1.1.4 2.3.9 3.4 1.3 30.7 11.9 63.2 23.5 97.8 35.1 51.6 17.3 95.4 24.7 133.7 24.7 65.4 0 114.5-21.5 158.5-51.4-.9.9-1.8 1.9-2.7 2.8-21.3 14.2-43.9 26.4-69.3 35.1-27.5 9.5-55.9 14.2-86.5 14.2-3 0-6 0-9.1-.1-38.1-1.1-78.9-9.1-124.7-24.5-35.8-12-68.7-23.9-99.2-35.7-1.1-.4-2.3-.9-3.4-1.3-.3-.1-.5-.2-.8-.3-.7-.3-1.4-.6-2.2-.8-.7-.3-1.4-.5-2.1-.8-1.1-.4-2.1-.8-3.2-1.3-.3-.1-.7-.3-1-.4-.7-.3-1.4-.5-2.1-.8l-2.1-.9c-1.4-.6-2.8-1.1-4.2-1.7-.8-.3-1.6-.6-2.3-.9-.6-.2-1.2-.5-1.8-.7-.5-.2-1-.4-1.4-.6-.9-.4-1.8-.7-2.7-1.1-1.4-.6-2.7-1.1-4.1-1.7-.8-.3-1.6-.7-2.4-1-.5-.2-.9-.4-1.4-.6-1.4-.6-2.7-1.1-4.1-1.7-1.3-.6-2.7-1.1-4-1.7-1.3-.6-2.7-1.1-4-1.7-.9-.4-1.8-.8-2.7-1.1-6.9-3.2-13.2-6.2-19.5-9.3m-11.1-4.3l.6.3c-.1 0-.1 0-.1-.1-.2-.1-.3-.1-.5-.2M0 37.5c53.5 45.7 115.4 84 189.7 118.8l5.4 2.7c1 .7 2.1 1.3 3.1 2-24.7-11.4-47.7-23-69.4-34.9C80.5 99.6 37.9 70.7 0 38.6v-1.1zm1000-7.7v.8c-6.3.2-12.4.6-18.5 1.1-33.2 3-62.3 10.4-88.7 20.9-2.1.9-4.3 1.7-6.4 2.6-3.9 1.7-7.7 3.4-11.5 5.1-1.6.8-3.2 1.5-4.8 2.3-3.6 1.8-7.1 3.6-10.6 5.4l-3.9 2.1-9.6 5.4-3.6 2.1c-2.9 1.7-5.7 3.5-8.5 5.3l-3.3 2.1c-2.6 1.7-5.2 3.4-7.7 5.1-1 .7-2.1 1.4-3.1 2.1-2.4 1.7-4.8 3.3-7.1 5-1 .7-2 1.4-3 2.2-2.2 1.6-4.4 3.2-6.6 4.9-1 .7-2 1.5-2.9 2.2-2.1 1.6-4.1 3.1-6.1 4.7-1 .8-2 1.5-2.9 2.3-1.9 1.5-3.8 3-5.8 4.6l-3 2.4c-1.8 1.4-3.6 2.9-5.4 4.4-1 .8-2 1.7-3.1 2.5l-5.1 4.2c-1.1.9-2.1 1.8-3.2 2.6-1.6 1.3-3.1 2.6-4.7 3.9-1.1 1-2.3 1.9-3.4 2.9-1.4 1.2-2.8 2.3-4.2 3.5-1.3 1.1-2.6 2.2-3.8 3.2-.6.5-1.2 1-1.9 1.6-.5.4-1.1.9-1.6 1.3-1.5 1.3-3 2.5-4.5 3.8-.8.7-1.5 1.3-2.3 1.9-1.9 1.6-3.7 3.1-5.6 4.7-.3.2-.6.5-.9.7-5.2 4.3-10.3 8.6-15.5 12.8-5.5 4.5-11.1 8.9-16.6 13.2 4.7-3.9 9.3-7.9 13.9-12 .9-.7 1.8-1.5 2.7-2.2.3-.3.7-.5 1-.8 2.5-2.1 5-4.1 7.6-6.2.8-.7 1.6-1.4 2.5-2.1l5.4-4.5 3.6-3c1.5-1.2 2.9-2.4 4.3-3.7 1.4-1.2 2.8-2.4 4.2-3.5.4-.4.9-.7 1.3-1.1.8-.7 1.6-1.4 2.5-2.1 1.6-1.3 3.1-2.6 4.7-4 1.1-.9 2.2-1.9 3.3-2.8 1.7-1.4 3.4-2.8 5-4.2 1-.9 2.1-1.7 3.1-2.6 1.8-1.5 3.6-3 5.3-4.4 1-.8 2-1.7 3-2.5 1.8-1.5 3.7-3 5.6-4.5 1-.8 1.9-1.6 2.9-2.3 2-1.6 3.9-3.1 5.9-4.7 1-.8 1.9-1.5 2.9-2.3l6.3-4.8c1-.7 1.9-1.5 2.9-2.2 2.2-1.7 4.4-3.3 6.7-5 1-.7 2-1.4 3-2.2l7.2-5.1c1-.7 2-1.4 3.1-2.1 2.6-1.8 5.1-3.5 7.8-5.2 1.1-.7 2.2-1.4 3.2-2.1 2.8-1.8 5.6-3.6 8.5-5.3 1.1-.7 2.3-1.4 3.5-2.1 3.1-1.9 6.3-3.7 9.5-5.5 1.3-.7 2.5-1.4 3.8-2.1 3.5-1.9 7-3.7 10.5-5.5 1.5-.8 3.1-1.5 4.6-2.3 3.7-1.8 7.5-3.5 11.4-5.2 2-.9 4.1-1.7 6.1-2.6C916.6 42 946.8 34 981.4 31c6.1-.6 12.3-.9 18.6-1.2"/><path class="st0" d="M676.3 206.7c-1.8 1.7-3.6 3.4-5.4 5-.9.7-1.9 1.4-2.9 2.1l3.5-3.5 4.8-3.6m8.3-6.5c-1.6 1.4-3.3 2.9-4.9 4.3.8-.8 1.6-1.5 2.4-2.3.8-.7 1.7-1.3 2.5-2m-487.3-40.9c5 2.5 10.1 5 15.3 7.5 6.2 3 12.6 6 19 9 .7.3 1.5.7 2.2 1 1.2.5 2.3 1.1 3.4 1.6 1.2.5 2.4 1.1 3.6 1.6 1.2.6 2.5 1.1 3.7 1.7.5.2.9.4 1.4.6l2.1.9c1.3.6 2.5 1.1 3.8 1.7.9.4 1.8.8 2.6 1.2.4.2.8.4 1.3.6.6.3 1.2.5 1.8.8l2.1.9c1.3.6 2.6 1.2 4 1.8l2.1.9c.6.3 1.2.5 1.9.8.4.2.7.3 1.1.5 1 .4 2 .9 3 1.3l2.1.9c.7.3 1.3.6 2 .9.3.1.6.3.9.4 1.1.5 2.1.9 3.2 1.4 30.3 13 62.5 26 96.8 39.1 54.1 20.6 99.5 29.3 138.8 29.3 62.9 0 110.3-22.2 152.7-52.9-1.1 1.1-2.3 2.2-3.4 3.4-41.5 29.4-88 50.3-149.2 50.3-39.4 0-84.9-8.7-139.1-29.3-35.5-13.5-68.1-26.7-98.1-39.7-1.1-.5-2.1-.9-3.2-1.4-.3-.1-.6-.3-.9-.4-.7-.3-1.3-.6-2-.9l-2.1-.9c-1-.4-2-.9-3-1.3-.4-.2-.8-.3-1.1-.5-.6-.3-1.3-.6-1.9-.8-.7-.3-1.5-.7-2.2-1-1.4-.6-2.7-1.2-4.1-1.8l-2.1-.9c-.7-.3-1.3-.6-2-.9l-1.2-.6c-.9-.4-1.9-.8-2.8-1.3l-3.9-1.8-2.1-.9c-.5-.2-1.1-.5-1.6-.7l-3.9-1.8h-.1c-1.3-.6-2.5-1.2-3.8-1.7 0 0-.1 0-.1-.1-1.3-.6-2.5-1.2-3.8-1.8h-.1c-1.3-.6-2.5-1.2-3.8-1.8-1.3-.6-2.5-1.2-3.8-1.8-1.3-.6-2.5-1.2-3.7-1.8-.2-.1-.5-.2-.7-.3-6.2-3.2-12.4-6.4-18.4-9.7-1.2-.4-2-.8-2.7-1.3M1000 28.6v.8c-9.8.2-19.3.7-28.6 1.6-35 3.5-65.5 12.1-92.8 24-1.9.8-3.8 1.7-5.7 2.6-3.8 1.8-7.6 3.6-11.3 5.5-1.5.7-2.9 1.5-4.3 2.2-3.5 1.9-7 3.8-10.4 5.7l-3.6 2.1c-3.2 1.9-6.3 3.8-9.4 5.7-1.1.7-2.2 1.4-3.2 2.1-2.8 1.8-5.6 3.7-8.4 5.5-1 .7-2 1.4-3 2-2.6 1.8-5.1 3.6-7.7 5.4-.9.7-1.9 1.4-2.8 2-2.4 1.8-4.8 3.5-7.1 5.3l-2.7 2.1c-2.2 1.7-4.4 3.4-6.6 5.2-.9.7-1.8 1.4-2.6 2.1-2.1 1.7-4.2 3.4-6.2 5.1-.9.7-1.7 1.4-2.6 2.1-2 1.6-3.9 3.3-5.9 4.9-.9.7-1.7 1.5-2.6 2.2-1.9 1.6-3.7 3.2-5.6 4.8-.9.8-1.8 1.5-2.7 2.3-1.8 1.6-3.6 3.1-5.4 4.7-.9.8-1.8 1.5-2.6 2.3l-5.1 4.5c-.9.8-1.9 1.6-2.8 2.5-1.6 1.4-3.2 2.9-4.8 4.3-1 .9-2 1.8-3.1 2.7-1.1 1-2.1 1.9-3.2 2.9-.4.3-.7.7-1.1 1-1.1 1-2.3 2-3.4 3.1-1.2 1.1-2.5 2.2-3.7 3.3-1.3 1.2-2.7 2.4-4 3.6l-2.7 2.4c-1.7 1.5-3.4 3-5 4.5-.4.3-.8.7-1.1 1-.4.4-.9.8-1.3 1.2-4.6 4-9.2 8-13.9 12-5.2 4.4-10.4 8.7-15.7 12.9 4-3.5 8-7.1 12-10.7l3.9-3.3c.4-.3.8-.7 1.2-1 2.3-1.9 4.5-3.9 6.8-5.8 1.2-1 2.3-2 3.5-3 1.6-1.4 3.3-2.9 4.9-4.3 1.3-1.1 2.5-2.2 3.8-3.4 1.3-1.2 2.6-2.3 3.9-3.5 1.5-1.3 2.9-2.6 4.4-3.9l3.3-3c1.3-1.2 2.6-2.4 3.9-3.5.3-.2.5-.5.8-.7l3-2.7c1.7-1.5 3.4-3 5.1-4.6l2.7-2.4c1.8-1.6 3.6-3.2 5.3-4.8.9-.8 1.7-1.5 2.6-2.3 1.9-1.6 3.7-3.3 5.6-4.9.9-.8 1.7-1.5 2.6-2.3 1.9-1.6 3.8-3.3 5.7-4.9.8-.7 1.7-1.4 2.5-2.2 2-1.7 4-3.4 6-5 .8-.7 1.7-1.4 2.5-2.1 2.1-1.7 4.2-3.5 6.3-5.2.9-.7 1.7-1.4 2.6-2.1 2.2-1.8 4.4-3.5 6.7-5.3.9-.7 1.8-1.4 2.7-2 2.4-1.8 4.7-3.6 7.1-5.4.9-.7 1.8-1.4 2.8-2 2.5-1.8 5.1-3.7 7.7-5.5 1-.7 2-1.4 2.9-2 2.8-1.9 5.5-3.7 8.4-5.6 1.1-.7 2.1-1.4 3.2-2 3.1-1.9 6.2-3.9 9.3-5.7 1.2-.7 2.3-1.4 3.5-2.1 3.4-2 6.8-3.9 10.3-5.8 1.4-.7 2.8-1.5 4.2-2.2 3.7-1.9 7.4-3.7 11.1-5.5 1.8-.9 3.7-1.7 5.5-2.5 28-12.6 59.4-21.7 95.7-25.3 9.4-.9 19-1.5 28.7-1.7M0 28.1c50.5 46.2 108.9 85.4 179.4 122.1 4 2.2 8 4.4 12.1 6.7 1.2.7 2.4 1.5 3.6 2.2l-5.4-2.7a1134.1 1134.1 0 0 1-60-32.7C80.5 94.9 37.6 63.9 0 29.9v-1.8z"/><path class="st0" d="M668.4 213.9c-1.9 1.7-3.8 3.4-5.6 5l2.7-2.7c1-.8 2-1.5 2.9-2.3m-468.8-53.2c6 3.2 12.2 6.4 18.4 9.7l.6.3c1 .5 2.1 1.1 3.1 1.6 1.1.6 2.2 1.1 3.3 1.7 1.1.6 2.3 1.2 3.4 1.7.1 0 .1.1.2.1 1.1.6 2.2 1.1 3.3 1.7.1.1.2.1.3.1 1.1.6 2.2 1.1 3.3 1.7.1 0 .1.1.2.1 1.1.6 2.3 1.2 3.5 1.7.5.3 1.1.5 1.6.8.6.3 1.2.6 1.9.9 1.2.6 2.5 1.2 3.7 1.8.9.5 1.8.9 2.8 1.4.4.2.7.4 1.1.5.7.3 1.3.6 2 1 .6.3 1.3.6 1.9.9 1.3.6 2.6 1.3 3.9 1.9.7.4 1.5.7 2.2 1.1.6.3 1.1.6 1.7.8l1.2.6c.9.4 1.8.9 2.8 1.3.7.3 1.4.7 2.1 1l1.8.9c.3.2.6.3 1 .5 1 .5 2 .9 3 1.4 29.9 14.2 61.8 28.4 95.9 43.1 56.2 24.1 102.8 34.1 143 34.1 60.9 0 106.8-23 147.9-54.9-1.8 1.7-3.5 3.4-5.3 5-21.4 16-44 29.4-69.5 38.4-23.2 8.2-47.1 12.3-72.6 12.3-6.8 0-13.7-.3-20.7-.9-37.3-3-77.6-14-123-33.5-34.9-14.9-67.1-29.4-96.9-43.6-1-.5-2-1-3-1.4-.3-.2-.7-.3-1-.5l-1.8-.9c-.7-.4-1.5-.7-2.2-1.1-.9-.4-1.8-.9-2.8-1.3l-1.2-.6c-.6-.3-1.1-.5-1.7-.8-.8-.4-1.5-.7-2.3-1.1-1.3-.6-2.6-1.3-3.9-1.9-.6-.3-1.3-.6-1.9-.9-.7-.3-1.4-.7-2-1-.4-.2-.7-.3-1.1-.5-.9-.5-1.9-.9-2.8-1.4-1.3-.6-2.6-1.3-3.8-1.9l-1.8-.9-1.8-.9c-1.1-.6-2.3-1.2-3.4-1.7-.1-.1-.2-.1-.4-.2-1.1-.6-2.2-1.1-3.3-1.7-.2-.1-.3-.2-.5-.2-1.1-.6-2.2-1.1-3.3-1.7-.1-.1-.3-.1-.4-.2-1.2-.6-2.4-1.2-3.7-1.9-1.2-.6-2.4-1.2-3.6-1.9-1.2-.6-2.4-1.2-3.5-1.8-.5-.2-1-.5-1.5-.8-.3-.2-.7-.4-1-.5-4.6-2.5-9-5-13.4-7.5M1000 27.6v.8h-.4c-13.3 0-26.2.7-38.6 2.1-36.7 4.1-68.3 13.8-96.5 27.2-1.7.8-3.5 1.7-5.2 2.5-3.7 1.9-7.4 3.8-11 5.8-1.3.7-2.6 1.4-3.9 2.2-3.4 1.9-6.8 3.9-10.2 6-1.1.7-2.2 1.3-3.3 2-3.1 1.9-6.1 3.9-9.2 5.9-1 .7-2 1.3-3 2-2.8 1.9-5.5 3.8-8.3 5.8-.9.7-1.8 1.3-2.7 2-2.6 1.9-5.1 3.8-7.6 5.7-.9.7-1.7 1.3-2.6 2-2.4 1.8-4.7 3.7-7.1 5.6-.8.7-1.6 1.3-2.4 2-2.2 1.8-4.4 3.6-6.6 5.5-.8.7-1.6 1.3-2.3 2l-6.3 5.4c-.8.7-1.5 1.3-2.3 2-2 1.8-4 3.5-6 5.3-.8.7-1.5 1.3-2.3 2-1.9 1.7-3.8 3.4-5.7 5.2-.8.7-1.6 1.4-2.3 2.1-1.9 1.7-3.7 3.4-5.6 5.2-.7.7-1.5 1.4-2.2 2.1l-5.4 5.1c-.8.7-1.5 1.5-2.3 2.2-1.7 1.6-3.4 3.3-5.2 4.9-.8.8-1.7 1.6-2.5 2.4-1.6 1.5-3.2 3-4.8 4.6-.9.9-1.8 1.7-2.7 2.6-1.5 1.4-3 2.8-4.5 4.3-1 1-2 1.9-3.1 2.9-1.3 1.2-2.6 2.5-4 3.7-1.2 1.1-2.4 2.3-3.6 3.4-1.2 1.1-2.4 2.2-3.6 3.4-1.5 1.4-2.9 2.7-4.4 4.1-.5.4-1 .9-1.5 1.3-.6.6-1.3 1.2-1.9 1.7-4 3.6-8 7.2-12 10.7-5.5 4.8-11 9.5-16.6 14.1 3.8-3.4 7.5-6.9 11.2-10.4 1.7-1.4 3.3-2.8 4.9-4.3.6-.5 1.2-1 1.7-1.5 2.1-1.8 4.1-3.6 6.2-5.5 1.2-1.1 2.3-2.1 3.5-3.2 1.4-1.3 2.8-2.6 4.3-3.9 1.6-1.4 3.1-2.9 4.6-4.3l3.6-3.3c1.5-1.4 3-2.8 4.5-4.3 1-.9 2-1.9 3-2.8 1.6-1.5 3.2-3.1 4.9-4.6.9-.8 1.8-1.7 2.7-2.5.7-.7 1.5-1.4 2.2-2.1 1-.9 1.9-1.8 2.9-2.8.8-.8 1.7-1.6 2.5-2.4l5.4-5.1c.8-.7 1.5-1.4 2.3-2.1 1.8-1.7 3.7-3.5 5.5-5.2.7-.7 1.5-1.4 2.2-2 1.9-1.8 3.8-3.5 5.7-5.3.8-.7 1.5-1.4 2.3-2.1 1.9-1.8 3.9-3.5 5.8-5.3.7-.7 1.5-1.3 2.2-2l6-5.4c.7-.7 1.5-1.3 2.3-2 2.1-1.8 4.2-3.6 6.3-5.5.8-.7 1.5-1.3 2.3-2 2.2-1.9 4.4-3.7 6.7-5.5.8-.7 1.6-1.3 2.4-2 2.3-1.9 4.7-3.8 7.1-5.6.8-.7 1.7-1.3 2.5-2 2.5-1.9 5-3.8 7.6-5.7.9-.7 1.8-1.3 2.7-2 2.7-2 5.5-3.9 8.2-5.8 1-.7 1.9-1.3 2.9-2 3-2 6-4 9.1-5.9 1.1-.7 2.1-1.3 3.2-2 3.3-2 6.7-4.1 10.1-6 1.3-.7 2.5-1.4 3.8-2.2 3.6-2 7.2-3.9 10.9-5.8 1.7-.8 3.3-1.7 5-2.5 28.9-14 61.4-24.2 99.2-28.4 12.9-1.8 25.9-2.5 39.3-2.5M0 20.1c50.2 49 109.1 90.7 181.9 131 2.1 1.3 4.3 2.5 6.4 3.8 1 .7 2.1 1.3 3.1 2-4.1-2.2-8.1-4.4-12.1-6.7C104.7 108.6 47.7 67.3 0 20.8v-.7z"/><path class="st0" d="M183.1 151c4.6 2.8 9.4 5.5 14.1 8.3.8.5 1.6.9 2.4 1.4 4.3 2.5 8.7 5 13.2 7.5.3.2.5.3.8.5.4.2.8.4 1.2.7 1 .6 2 1.1 3 1.7 1 .6 2.1 1.2 3.2 1.8l3.3 1.8c.2.1.3.2.5.3 1 .5 1.9 1.1 2.9 1.6l.6.3c1 .5 1.9 1.1 2.9 1.6.2.1.3.2.5.3 1 .6 2 1.1 3.1 1.7.6.3 1.2.6 1.7 1 .5.3 1.1.6 1.6.9 1.2.7 2.4 1.3 3.6 2 .9.5 1.9 1 2.8 1.5.3.2.6.3.9.5.7.4 1.3.7 2 1.1.6.3 1.1.6 1.7.9h.1c1.2.7 2.4 1.3 3.7 2 .7.4 1.5.8 2.2 1.2.5.3 1 .5 1.5.8.4.2.8.4 1.3.7.9.4 1.7.9 2.6 1.3.7.4 1.5.8 2.2 1.1.5.3 1.1.6 1.7.9.4.2.7.4 1 .5.9.5 1.9 1 2.8 1.5 29.4 15.3 61 30.9 94.8 47.1 57.9 27.6 105.6 39 146.3 39 59.5 0 104.2-24.3 144.4-57.6-3.4 3.2-6.8 6.2-10.2 9.3-20.6 15.9-42.3 29.2-66.7 38-21.3 7.7-43.3 11.4-66.7 11.4-8.3 0-16.8-.5-25.4-1.4-36.9-4-76.8-16.5-121.9-38-34.9-16.7-66.7-32.5-95.8-47.6-.9-.5-1.9-1-2.8-1.5-.4-.2-.7-.4-1.1-.6-.5-.3-1.1-.6-1.7-.9-.7-.4-1.5-.8-2.2-1.2-.9-.5-1.7-.9-2.6-1.4-.4-.2-.9-.5-1.3-.7-.5-.3-1-.5-1.5-.8-.8-.4-1.5-.8-2.3-1.2-1.2-.7-2.5-1.3-3.7-2 0 0-.1 0-.1-.1-.6-.3-1.1-.6-1.7-.9-.7-.4-1.4-.7-2.1-1.1-.3-.2-.6-.3-.9-.5-1-.5-1.9-1-2.9-1.5-1.2-.7-2.5-1.3-3.7-2-.5-.3-1.1-.6-1.6-.9-.6-.3-1.3-.7-1.9-1-1-.6-2.1-1.1-3.1-1.7l-.6-.3c-1-.5-1.9-1.1-2.9-1.6-.2-.1-.5-.3-.7-.4-1-.5-1.9-1.1-2.9-1.6-.2-.1-.5-.3-.7-.4-1.2-.7-2.4-1.3-3.5-2-1.2-.7-2.3-1.3-3.5-2-1.1-.6-2.1-1.2-3.2-1.8-.1-.1-.2-.1-.3-.2-.4-.2-.7-.4-1.1-.6-.8-.4-1.5-.9-2.3-1.3-.6-.3-1.2-.7-1.9-1.1-.6-.3-1.2-.7-1.8-1-.8-.5-1.6-.9-2.4-1.4l-.6-.3c-6.2-3.9-12.3-7.8-18.3-11.6M993.3 26.6c2.2 0 4.5 0 6.7.1v.7c-2.2 0-4.5-.1-6.7-.1-57.1 0-103.2 12.9-142.4 32.9-1.6.8-3.1 1.6-4.7 2.4-3.6 1.9-7.2 3.9-10.8 6l-3.6 2.1c-3.4 2-6.7 4.1-9.9 6.2-1 .7-2 1.3-3 2-3 2-6 4-9 6.1-.9.6-1.8 1.3-2.7 1.9-2.7 2-5.5 4-8.1 6-.8.6-1.7 1.3-2.5 1.9-2.5 1.9-5 3.9-7.5 5.9-.8.6-1.6 1.3-2.3 1.9-2.4 1.9-4.7 3.9-7 5.8-.7.6-1.5 1.3-2.2 1.9L771 116c-.7.6-1.4 1.3-2.1 1.9l-6.3 5.7c-.7.6-1.4 1.3-2.1 1.9-2 1.9-4 3.7-6 5.6-.7.6-1.3 1.3-2 1.9-1.9 1.8-3.9 3.7-5.8 5.5-.7.7-1.4 1.3-2.1 2-1.9 1.9-3.8 3.7-5.7 5.6L737 148c-1.9 1.8-3.7 3.7-5.6 5.5-.7.6-1.3 1.3-2 1.9l-5.4 5.4-2.1 2.1-5.1 5.1-1.5 1.5-.8.8c-1.6 1.7-3.3 3.3-4.9 4.9l-2.5 2.5-4.6 4.6-2.8 2.8c-1.6 1.6-3.1 3.1-4.7 4.6-1 1-2.1 2-3.1 3-1.2 1.2-2.4 2.4-3.6 3.5-1.3 1.3-2.6 2.6-4 3.8-.6.6-1.3 1.2-1.9 1.8-.8.8-1.6 1.5-2.4 2.3-3.7 3.5-7.5 7-11.2 10.4-5.3 4.8-10.7 9.5-16.1 13.9 3.5-3.2 7-6.5 10.5-9.9 1.9-1.6 3.8-3.3 5.6-5l2.4-2.1c1.8-1.7 3.6-3.3 5.4-5 1.3-1.2 2.5-2.4 3.8-3.5 1.3-1.2 2.6-2.5 3.9-3.7 1.5-1.5 3-2.9 4.6-4.4 1-1 2-2 3-2.9 1.8-1.7 3.5-3.4 5.3-5.2.9-.9 1.9-1.8 2.8-2.8l4.9-4.9 2.4-2.4 5.2-5.2 2.2-2.2.2-.2 5.1-5.1 2.1-2.1 5.5-5.5 1.9-1.9c1.9-1.9 3.8-3.7 5.7-5.6.6-.6 1.3-1.2 1.9-1.9 1.9-1.9 3.9-3.8 5.8-5.7.7-.7 1.4-1.3 2.1-2 1.9-1.9 3.9-3.7 5.9-5.6.7-.6 1.3-1.3 2-1.9 2-1.9 4-3.8 6.1-5.7.7-.6 1.4-1.3 2-1.9l6.3-5.7c.7-.6 1.4-1.3 2.1-1.9 2.2-1.9 4.4-3.9 6.6-5.8.7-.6 1.5-1.3 2.2-1.9 2.3-2 4.7-3.9 7-5.9.8-.6 1.5-1.3 2.3-1.9 2.5-2 5-4 7.5-5.9.8-.6 1.7-1.3 2.5-1.9l8.1-6c.9-.6 1.8-1.3 2.7-1.9 2.9-2.1 5.9-4.1 8.9-6.1 1-.7 2-1.3 3-2 3.2-2.1 6.5-4.2 9.8-6.2 1.2-.7 2.3-1.4 3.5-2.1 3.5-2.1 7-4.1 10.6-6 1.5-.8 3-1.6 4.6-2.4C888.2 40 935 26.6 993.3 26.6M0 9.5c46.9 49.5 102 92.1 170.5 134 5.8 3.8 11.7 7.6 17.8 11.5-2.2-1.3-4.3-2.5-6.4-3.8-18.2-10.8-35.1-21.5-51-32C79.2 84.6 36.9 49.7 0 11.1V9.5z"/><path class="st0" d="M0 0c48.8 55.5 107.2 102.7 183.1 151 6 3.8 12.1 7.6 18.3 11.5.1.1.3.2.4.2.6.4 1.3.8 1.9 1.2.5.3 1 .6 1.6 1l1.5.9c.7.4 1.4.9 2.1 1.3.3.2.6.4.9.5.1.1.3.2.4.2.9.5 1.8 1.1 2.7 1.6 1.1.6 2.1 1.3 3.2 1.9 1.1.7 2.2 1.3 3.3 2 .3.2.6.3.8.5.8.5 1.7 1 2.5 1.5.3.2.6.3.8.5.9.5 1.7 1 2.6 1.6.2.1.5.3.7.4.9.5 1.9 1.1 2.8 1.7.6.4 1.2.7 1.9 1.1l1.5.9c1.2.7 2.4 1.4 3.5 2.1.9.6 1.9 1.1 2.8 1.6.3.2.5.3.8.5l2.1 1.2c.5.3 1 .6 1.6.9.1 0 .2.1.2.1 1.1.7 2.3 1.3 3.4 2 .8.4 1.5.9 2.3 1.3.5.3.9.5 1.4.8.4.3.9.5 1.3.8.8.5 1.6.9 2.4 1.4.7.4 1.5.8 2.2 1.3l1.5.9c.4.2.7.4 1.1.6.9.5 1.8 1 2.6 1.5 29 16.5 60.2 33.4 93.8 51.1 56.8 30 105.7 44.7 149.5 44.7 21.5 0 41.9-3.6 61.3-10.6 28.3-10.3 53-27.3 76.4-47.8 3.4-3 6.8-6.1 10.2-9.3.5-.5 1.1-1 1.6-1.5 1.8-1.7 3.5-3.3 5.3-5 1.3-1.3 2.6-2.5 3.9-3.8 1.1-1.1 2.3-2.2 3.4-3.4l4.6-4.6c.9-.9 1.8-1.9 2.7-2.8 1.7-1.7 3.4-3.5 5.1-5.2.7-.8 1.5-1.6 2.2-2.3 1.9-1.9 3.7-3.9 5.6-5.8.8-.8 1.5-1.6 2.3-2.4l5.1-5.4c.7-.7 1.4-1.4 2-2.1 1.8-1.9 3.5-3.7 5.3-5.6.6-.7 1.2-1.3 1.9-2l5.4-5.7c.6-.6 1.2-1.3 1.8-1.9 1.9-2 3.7-3.9 5.6-5.9.6-.6 1.1-1.2 1.7-1.7l5.7-6c.5-.6 1.1-1.1 1.6-1.7 1.9-2 3.9-4 5.9-6 .6-.6 1.2-1.3 1.8-1.9 1.9-2 3.9-3.9 5.9-5.9l1.8-1.8c2-2 4-3.9 6-5.9.6-.6 1.2-1.2 1.9-1.8l6.3-6c.6-.6 1.3-1.2 1.9-1.8l6.6-6c.7-.6 1.3-1.2 2-1.8 2.3-2 4.6-4.1 7-6.1l2.1-1.8c2.4-2.1 4.9-4.1 7.4-6.1.8-.6 1.5-1.2 2.3-1.9 2.6-2.1 5.3-4.2 7.9-6.2.8-.6 1.7-1.3 2.5-1.9 2-1.5 4-3 6.1-4.4.9-.6 1.7-1.3 2.6-1.9.9-.7 1.8-1.3 2.8-1.9 3.2-2.2 6.4-4.3 9.6-6.4l3.3-2.1c3.4-2.2 6.9-4.2 10.3-6.2l4.2-2.4c32.9-18.3 67.5-29.8 104.7-34.9 15.2-2.1 30.7-3.1 46.9-3.1 4.5 0 9.1.1 13.6.2v.8c-4.9-.2-9.7-.3-14.5-.3-15.9 0-31.2 1-45.9 3-39.8 5.4-73.5 17.5-103.2 33.8-1.4.8-2.8 1.6-4.3 2.4-3.5 2-7 4.1-10.4 6.2l-3.3 2.1c-3.2 2.1-6.5 4.2-9.6 6.4-.9.6-1.9 1.3-2.8 1.9l-8.7 6.3c-.8.6-1.7 1.3-2.5 1.9-2.7 2-5.3 4.1-7.9 6.2-.8.6-1.5 1.2-2.3 1.9-2.5 2-4.9 4-7.4 6.1l-2.1 1.8-6.9 6c-.7.6-1.4 1.2-2 1.8-2.2 2-4.4 4-6.5 6-.6.6-1.3 1.2-1.9 1.8-2.1 2-4.2 3.9-6.2 5.9-.6.6-1.2 1.2-1.9 1.8-2 1.9-4 3.9-6 5.9l-1.8 1.8-5.8 5.8c-.6.6-1.2 1.3-1.9 1.9-1.9 2-3.9 4-5.8 5.9-.6.6-1.1 1.1-1.6 1.7-1.9 2-3.8 3.9-5.7 5.9-.6.6-1.1 1.2-1.7 1.8-1.8 1.9-3.7 3.9-5.5 5.8-.6.6-1.2 1.3-1.8 1.9-1.8 1.9-3.5 3.7-5.3 5.6-.6.7-1.3 1.3-1.9 2-.5.5-.9 1-1.4 1.4-1.3 1.3-2.5 2.7-3.8 4-.7.7-1.4 1.4-2 2.2-1.7 1.7-3.3 3.5-4.9 5.2-.8.8-1.5 1.6-2.3 2.4-1.8 1.8-3.5 3.7-5.3 5.5-.8.8-1.5 1.6-2.3 2.4-1.5 1.6-3.1 3.2-4.6 4.8-.9 1-1.9 1.9-2.8 2.9l-3.9 3.9-3.5 3.5c-.8.8-1.6 1.6-2.5 2.4l-2.7 2.7c-3.5 3.4-7 6.7-10.5 9.9-26 24-53.2 44-85 55.6-19.6 7.1-39.8 10.6-61.2 10.6-9.6 0-19.4-.7-29.5-2.1-36.4-5.1-75.8-19-120.6-42.7-35-18.4-66.3-35.5-94.6-51.7-.9-.5-1.8-1-2.6-1.5-.4-.2-.8-.4-1.1-.6l-1.5-.9c-.8-.4-1.5-.9-2.3-1.3-.8-.5-1.6-.9-2.4-1.4-.5-.3-.9-.5-1.4-.8-.5-.3-.9-.5-1.4-.8-.8-.5-1.6-.9-2.3-1.4-1.2-.7-2.3-1.3-3.5-2-.1-.1-.2-.1-.3-.2-.5-.3-1-.6-1.6-.9l-2.1-1.2c-.3-.2-.5-.3-.8-.5-1-.6-1.9-1.1-2.9-1.7l-3.6-2.1-1.5-.9c-.7-.4-1.3-.8-2-1.2-.9-.6-1.9-1.1-2.8-1.7-.3-.2-.5-.3-.8-.5-.9-.5-1.7-1-2.6-1.6l-.9-.6c-.8-.5-1.7-1-2.5-1.5l-.9-.6c-1.1-.7-2.3-1.4-3.4-2.1-1.1-.7-2.3-1.4-3.4-2.1-.9-.5-1.8-1.1-2.7-1.6-.2-.1-.4-.3-.6-.4-.3-.2-.6-.3-.8-.5l-2.4-1.5c-.5-.3-1-.6-1.4-.9-.7-.4-1.4-.8-2-1.3-.7-.4-1.4-.9-2.2-1.3-.1-.1-.2-.2-.4-.2-1.1-.7-2.1-1.3-3.1-2-1.2-.8-2.4-1.5-3.6-2.2-1-.7-2.1-1.3-3.1-2-6.1-3.9-12-7.7-17.8-11.5-13.8-9-26.8-17.9-39.1-26.7C78.7 79.3 36.4 42 0 .8V0zm1000 716.8c-140.7 75.1-306.7 82.8-502.9 24-93.7-28.1-178.5-43.1-259.1-45.9-70.5-2.4-129.3 4.8-181.2 11.2-19.3 2.4-38.1 4.7-56.8 6.4v1c18.6-1.8 37.4-4.1 56.9-6.5 107.7-13.3 229.8-28.3 439.9 34.6 71.7 21.5 140.2 34.3 203.6 38.1 13.5.8 26.8 1.2 40 1.2 46 0 90.1-4.9 131.7-14.5 44.5-10.3 87.5-26.5 127.9-48.1v-1.5z"/><path class="st0" d="M1000 714.6c-138.8 81.4-303.7 91.7-500.4 32.1-212.9-64.9-333.5-55.8-439.9-47.8-20.4 1.5-40.1 3-59.7 3.9v1c19.6-.9 39.3-2.4 59.8-3.9 106.3-8 226.7-17 439.5 47.8 67.4 20.4 131.8 32.9 191.5 36.9 14.8 1 29.4 1.5 43.8 1.5 41.1 0 80.7-4.1 118-12.2 52.3-11.3 101.1-30.4 147.3-57.7v-1.6h.1z"/><path class="st0" d="M1000 712c-136.9 89.4-297.5 102-497.9 40.5-217.1-67.1-336.3-64-441.4-61.3-20.5.5-40.5 1-60.7 1v1c20.3 0 40.3-.5 60.7-1 105.1-2.7 224.1-5.7 441.1 61.4 63.5 19.5 124.2 31.5 180.4 35.8 15.9 1.2 31.5 1.8 46.9 1.8 36.8 0 72.3-3.4 105.9-10.3 59.1-12 113.6-34.4 164.9-67.7V712h.1z"/><path class="st0" d="M1000 708.1C864.9 805.2 705.8 821 504.6 758.5 404.5 727 317 706.3 237.3 695.2 167 685.3 111.6 684 58.1 682.7c-19.6-.5-38.7-.9-58.1-1.8v1c19.4.9 38.6 1.3 58 1.8 104.3 2.5 222.4 5.4 446.3 75.8 60 18.7 117.4 30.4 170.6 34.8 16.6 1.4 32.9 2.1 49 2.1 33.2 0 65.2-2.9 95.7-8.8 65.2-12.6 124.6-38.3 180.4-78.2v-1.3z"/><path class="st0" d="M1000 703.5c-133.2 105.7-290.6 124.9-492.8 60.9-235.9-74.8-349-83.2-458.4-91.4-16.3-1.2-32.4-2.4-48.8-3.8v1c16.6 1.4 32.7 2.6 48.7 3.8 109.3 8.2 222.3 16.6 458.2 91.3 56.9 18 111.3 29.5 161.7 34.1 17.3 1.6 34.3 2.4 51 2.4 29.9 0 58.7-2.5 86.2-7.6 70.9-13 134.6-42.3 194.2-89.5v-1.2z"/><path class="st0" d="M716.9 806.5c-61.4 0-130-11.4-207.2-36.2-261.8-84.1-367.1-96.7-489.1-111.2-6.8-.8-13.6-1.6-20.5-2.5v1c6.9.8 13.7 1.6 20.4 2.4 122 14.5 227.3 27.1 489 111.2 54.1 17.4 105.8 28.6 153.6 33.2 17.6 1.7 34.9 2.6 51.9 2.6 27.2 0 53.5-2.2 78.6-6.6 33-5.8 64.4-15.3 94.6-28.8-50.7 22.5-107.1 34.9-171.3 34.9zM1000 698.8c-6.5 5.7-13 11.2-19.7 16.5 6.2-4.9 12.4-10 18.5-15.3.4-.5.8-.8 1.2-1.2z"/><path class="st1" d="M888 771.6c1.7-.7 3.3-1.5 4.9-2.2-1.6.8-3.2 1.5-4.9 2.2z"/><path class="st0" d="M1000 690.2c-7.4 7.2-15 14.2-22.7 20.9-124.2 107.3-272 128-465.1 65.1C230.2 684.3 135.7 663.7 0 643.4v1c135.6 20.2 230 40.8 511.9 132.7 51.6 16.8 100.8 27.7 146.3 32.4 17.7 1.8 35.2 2.7 52.2 2.7 24.9 0 48.9-1.9 71.9-5.8 72-12.2 136-43.1 195.5-94.6 7.5-6.5 14.9-13.3 22.1-20.3v-1.3h.1z"/><path class="st0" d="M1000 681.3C888.1 801.9 743.8 857.8 514.7 782.1c-45.8-15.1-86.8-28.8-123.1-40.9-193.5-64.5-274-91.3-391.6-111.4v1c117.5 20.1 197.9 46.9 391.4 111.3 36.2 12.1 77.3 25.8 123.1 40.9 71.7 23.7 135.2 34.5 191.9 34.5 124.5 0 216.7-52.1 293.6-134.8v-1.4z"/><path class="st0" d="M1000 670.6c-19 22.8-39 43.6-60.1 61.9-112.1 96.9-246.4 114.6-422.6 55.5-114.7-38.4-196.7-69.1-262.5-93.7C151.9 655.9 88.3 632.1 0 615.8v.9c87.7 16.3 151.5 40.1 254.4 78.6 65.9 24.6 147.9 55.3 262.6 93.7 67.7 22.7 128.7 33.9 184.8 33.9 21.1 0 41.5-1.6 61.3-4.8 65.5-10.5 123.5-38.2 177.4-84.8 20.9-18.1 40.7-38.6 59.5-61.1v-1.6z"/><path class="st0" d="M1000 657.8c-24 31.9-49.4 60.5-77 84.5-106.4 92.6-234.5 109-403.3 51.6-138.9-47.2-228-85.7-299.6-116.7C137.4 641.4 80.6 616.8 0 601.5v1.1C81 618 138.7 643 219.8 678.1c71.6 31 160.7 69.5 299.6 116.7 65.5 22.3 124.4 33.3 178.4 33.3 19.5 0 38.4-1.4 56.7-4.3 62.5-9.8 117.8-36.2 169-80.8 27.4-23.8 52.6-52 76.3-83.6v-1.6h.2z"/><path class="st0" d="M522.3 799.8C372 748 281.4 702.8 208.6 666.4c-74-36.8-129-64.3-208.6-79.4v1.1c79.9 15.2 134.8 42.6 208.2 79.2C281 703.6 371.6 748.8 522 800.7c63.4 21.8 120.2 32.7 172.2 32.7 18.1 0 35.7-1.3 52.7-3.9 21.7-3.3 42.5-8.8 62.6-16.5-75.4 28.6-167.6 28-287.2-13.2z"/><path class="st1" d="M901 758.1c-1.3 1.1-2.6 2.2-4 3.3 1.4-1.1 2.7-2.2 4-3.3z"/><path class="st0" d="M1000 643.4c-30.2 45-62.5 84-99 114.7 2.3-1.9 4.6-3.9 6.9-5.9 31.7-27.8 61.6-62.7 92.1-107.9v-.9z"/><path class="st0" d="M1000 624.5c-32.5 53.5-67.5 100.3-107.5 135.9-95.8 85.1-212.6 99.5-367.7 45.3-156.7-54.8-247-106.3-319.6-147.8C133.9 617.2 81.1 587.1 0 572.4v1.1c81.3 14.8 134.9 45.4 204.8 85.3 72.6 41.4 162.9 93 319.7 147.8 61 21.3 116.1 32.1 166.3 32.1 77.7 0 143.9-25.7 202.2-77.6 36.8-32.7 71-75.8 106.9-134.6v-2h.1z"/><path class="st0" d="M1000 603.6c-36.4 66.5-74.8 123.2-121.5 165.3-90.8 81.9-202.4 95.5-351.2 42.7-160.6-57-249.8-114.7-321.5-161.1C138.4 606.9 84.5 572 0 557.9v.5c83.4 14 136.2 48.2 205.4 92.9 71.7 46.4 161 104.2 321.7 161.2 59 20.9 112.1 31.4 160.4 31.4 73.9 0 136.6-24.6 191.7-74.3 37.7-34 72.4-79.6 109.3-143.6 3.9-6.8 7.8-13.7 11.6-20.7v-1.7h-.1z"/><path class="st0" d="M1000 578.8C899.8 779.7 789.9 911.1 529.9 817.5 366.8 758.8 279 695 208.5 643.7c-67.4-49-120-87.3-208.5-100.3v.9c88.3 13 140.8 51.1 208 100.1 70.5 51.3 158.4 115.2 321.5 173.9 56.9 20.5 108.2 30.8 154.6 30.8 70.3 0 129.8-23.6 181.8-71.3 35.8-32.8 68.7-77 103.4-139 10.4-18.6 20.6-38 30.6-58v-2h.1z"/><path class="st0" d="M1000 550.3c-44.6 97.2-88.4 179.9-147.1 234.8-81.4 76.2-183.3 88.4-320.5 38.3-164.7-60.1-250.7-130-319.9-186.2-66.1-53.7-118.3-96.1-210.6-107.8-.6-.1-1.3-.1-1.9-.2v.9c.6.1 1.2.1 1.8.2 92 11.7 144.2 54 210.2 107.6 69.2 56.2 155.3 126.1 320.1 186.3 56.7 20.7 105.8 30.2 149.1 30.2 160.8 0 240-130.7 318.8-302v-2.1z"/><path class="st0" d="M1000 518.1c-49.3 114.8-94.4 213-159 274.8-77 73.7-174.3 85.2-306.1 36.4C369.1 767.9 284.9 692 217.3 631 153.1 573.1 102.4 527.4 9.6 516.3c-3.1-.4-6.3-.7-9.6-1v.9c3.2.3 6.4.6 9.5 1 92.6 11.2 143.2 56.8 207.3 114.5 67.7 61 151.9 137 317.9 198.5 53.5 19.8 100.8 29.6 143.5 29.6 12.9 0 25.4-.9 37.4-2.7 47.5-7 88.7-27.8 126.1-63.5C906 732 951 634.4 1000 520.4v-2.3z"/><path class="st0" d="M1000 482.6c-2.8 6.9-5.7 13.8-8.5 20.6-51.1 124.6-95.2 232.2-161.7 297.3-72.8 71.3-165.7 82.3-292.4 34.7C370.9 772.6 288.7 690.7 222.7 625 160.3 562.9 111 513.8 17.6 503.1 11.9 502.5 6 502 0 501.6v.9c6 .4 11.8.8 17.5 1.5 93.1 10.7 142.3 59.6 204.6 121.6 66.1 65.8 148.4 147.8 315.1 210.4 51.7 19.4 97.3 29 138.3 29 12.1 0 23.8-.8 35.1-2.5 45.3-6.7 84.6-26.8 119.9-61.4 66.6-65.3 110.8-172.9 161.9-297.6 2.5-6.2 5.1-12.4 7.6-18.6v-2.3z"/><path class="st0" d="M1000 444.6c-10 24.7-19.6 49.3-29.2 73.7C923.2 639.8 882 744.8 819.1 808c-68.7 69.1-157.4 79.6-279.2 33.1-166.9-63.7-247.1-151.5-311.6-222C167.8 552.7 119.9 500.2 25.8 490c-8.3-.9-16.9-1.5-25.8-1.7v.9c8.9.2 17.5.8 25.7 1.7 93.7 10.2 141.5 62.5 202 128.8 64.5 70.6 144.8 158.5 311.9 222.3 49.9 19.1 93.8 28.5 133.1 28.5 11.4 0 22.4-.8 33-2.4 43.3-6.4 80.6-25.8 114-59.4 63-63.4 104.2-168.4 151.9-290 9.2-23.5 18.6-47.4 28.4-71.6v-2.5z"/><path class="st0" d="M1000 405.4c-18 43.9-34.1 87-49.1 127.4-28.3 75.9-55.1 147.5-86.4 204.4C829.7 800.3 792.8 839 748.3 859c-54.5 24.5-121.8 20.6-205.9-11.9-167.1-64.7-245.3-158.4-308-233.7-28.6-34.3-55.5-66.6-86.5-90.7C113.7 496 77.6 481.5 34.1 477c-10.8-1.1-22.2-1.6-34.2-1.5v.9c12-.1 23.3.3 34.1 1.5 94.3 9.8 140.8 65.5 199.6 136.1 31.5 37.8 67.2 80.6 115.4 121.4 55.4 46.9 118.5 83.7 193 112.6 47.9 18.6 90.5 27.8 128.3 27.8 28.7 0 54.6-5.3 78.2-15.9 44.6-20.1 81.6-58.9 116.5-122.1 31.4-56.9 58.1-128.6 86.5-204.5 15.3-40.9 31-83.1 48.3-125.6v-2.3h.2z"/><path class="st0" d="M1000 366.1c-26.4 62.2-48.3 124-68.4 180.8-26.2 74.2-51 144.3-80.3 199.7-32.5 61.4-67.3 99-109.6 118.4-51.7 23.6-116 19.7-196.7-12-167.2-65.7-243.2-165.3-304.3-245.3-27.7-36.3-53.9-70.6-84.4-96.1-33.7-28.2-69.8-43.3-113.5-47.6-13.4-1.3-27.7-1.6-42.8-.8v.9c15.1-.8 29.3-.5 42.7.8 94.9 9.3 140.1 68.5 197.3 143.4 30.7 40.2 65.4 85.7 112.9 128.7 54.5 49.4 117.3 87.6 191.8 116.9 46.3 18 87.2 27.1 123.5 27.1 27.2 0 51.7-5.1 73.9-15.2 42.5-19.4 77.4-57.1 110-118.7 29.3-55.5 54.1-125.6 80.4-199.8 19.9-56.2 41.4-117 67.6-178.7v-2.5h-.1z"/><path class="st0" d="M1000 327.8c-35.7 79.5-62.6 160-86.8 232.5-24.2 72.6-47.1 141.1-74.4 195.2-30.2 59.8-63 96.4-103.3 115.2-49 22.8-110.5 18.9-188-11.9-166.9-66.9-240.8-172.3-300.1-257-26.9-38.4-52.4-74.7-82.5-101.6-33.3-29.8-69.3-45.5-113.3-49.6-16-1.5-33.1-1.4-51.6.3v.9c18.5-1.7 35.6-1.8 51.5-.3 95.6 8.9 139.5 71.6 195.2 150.9 29.8 42.5 63.6 90.7 110.3 135.9 53.6 51.8 115.8 91.6 190.2 121.4 44.6 17.7 83.9 26.5 118.5 26.5 25.8 0 49.1-4.9 70.2-14.7 40.4-18.8 73.3-55.5 103.7-115.5 27.3-54.1 50.2-122.7 74.4-195.3 24-72.1 50.5-151.4 86-230.4v-2.5z"/><path class="st0" d="M1000 291.6c-46.2 95.4-77.2 194.5-104.7 282.2-22.2 71.1-43.2 138.2-68.6 190.9-28.1 58.3-59 93.9-97.2 112-46.4 22-105.1 18-179.5-12.1-166.8-67.8-238.5-179-296.2-268.4-26.1-40.5-50.8-78.8-80.5-107.1-32.8-31.3-68.7-47.8-113.1-51.7-18.4-1.6-38.5-1-60.3 1.8v.8c21.8-2.8 41.8-3.4 60.2-1.8 96.2 8.5 138.9 74.6 192.9 158.4 29 44.9 61.8 95.8 107.7 143.1 52.7 54.3 114.5 95.4 188.9 125.6 43 17.4 80.8 26.1 114 26.1 24.4 0 46.4-4.7 66.1-14 38.4-18.2 69.4-53.9 97.6-112.4 25.4-52.8 46.4-120 68.7-191.1 27.3-87.4 57.9-185.1 103.9-280.3v-2h.1z"/><path class="st0" d="M1000 258c-58.1 110-92 226.4-121.9 328.9-20.3 69.6-39.5 135.4-63 186.9-26 56.9-55 91.5-91.3 109-43.9 21.1-99.8 17.1-171.2-12.2C385.9 802 316.3 685 260.4 590.9c-45.5-76.5-84.8-142.6-161.7-161.5-28.2-7-60.9-7.3-98.7-1.1v.8c37.7-6.3 70.3-5.9 98.5 1 76.5 19 115.7 84.9 161.2 161.2 28.1 47.3 60 100.9 105.2 150.3 51.8 56.7 113.1 99.1 187.4 129.7 41.5 17.1 77.8 25.6 109.7 25.6 23 0 43.7-4.5 62.2-13.4 36.5-17.6 65.7-52.4 91.7-109.4 23.6-51.6 42.7-117.4 63.1-187 29.8-102.1 63.5-217.8 121.1-327.4V258h-.1z"/></svg>