<svg id="Ebene_1" xmlns="http://www.w3.org/2000/svg" viewBox="0 0 982 181.3"><style>.st0{fill:#ef7d14}.st1{fill:#878573}.st2{fill:#fff}</style><path class="st0" d="M26.1 96.7C33 78.9 47.8 33.2 63.6 32.4c25.6-2 50 124.9 75.2 126 17.4.3 28.2-40 37-61.6"/><path class="st1" d="M137.6 162h-.2c-3.6-.2-6.8-1.8-9.4-3.9-2.6-2.1-5-4.8-7.2-8-4.4-6.3-8.6-14.5-12.7-23.8-8.3-18.5-16.4-41.3-24.4-59.5-5.3-12.1-10.8-22.3-15.4-27.3-2.6-2.9-4.6-3.6-5.3-3.5h-.2c-1.1-.1-4.1 1.5-7.4 5.8-3.3 4.1-6.7 10.2-9.9 16.8C39.1 72 33.8 87.7 30.2 96.7H17.6c2.5-6.5 8.3-21.3 12.9-32.2 4.6-10.9 9.8-21.9 16-29.8 4.1-5.1 8.8-9.5 15.5-10h1.1c3.6 0 6.9 1.5 9.6 3.5 2.7 2 5.1 4.7 7.4 7.8 4.5 6.2 8.7 14.4 12.9 23.6 8.3 18.4 16.4 41.2 24.4 59.6 5.3 12.2 10.7 22.5 15.3 27.7 2.4 2.8 4.4 3.7 5.2 3.8h.1c2 0 4.5-1.2 7.6-4.7 3-3.4 6.1-8.7 8.9-14.8 5.7-12.2 8.6-23.4 13.6-34.4l1.8-4.2 10.1 4.3c-3.2 7.8-6.8 18.5-10.9 28.9-4.2 10.4-8.8 20.5-15 27.7-4.1 4.7-9.4 8.5-16.1 8.5h-.4z"/><path class="st1" d="M168.4 108.5h370.9V96.7H168.4"/><path class="st0" d="M240.1 59.3c-1.7 1.5-4 3.1-7 4.7 2.1 2.4 3.1 4.9 3.1 7.5 0 1.9-.5 4.1-1.6 6.6-2.5 5.8-5.5 10-9.1 12.8-5 3.8-11.8 5.7-20.6 5.7H168l28-66h32.8c7.6 0 12.8 1.1 15.7 3.2 2.5 1.9 3.8 4.5 3.8 7.9 0 2.6-.7 5.5-2.2 8.9-1.5 3.5-3.5 6.4-6 8.7m-26.3 11.9h-17.6l-4.4 10.3h15.4c5 0 8.3-2 10-5.9.5-1.1.7-2 .7-2.5 0-1.3-1.3-1.9-4.1-1.9M224.4 46H207l-4.2 9.9H218c5 0 8.2-1.9 9.9-5.8.5-1.1.7-1.9.7-2.4-.1-1.1-1.5-1.7-4.2-1.7M318.1 45.5h-22.5c-7 0-12.6 3.4-16.9 10.3h35l-6.4 15h-35.5c-.9 2.6-1.4 4.7-1.4 6.3 0 1 .2 1.9.6 2.5 1 1.4 3.4 2.2 7.3 2.2h24.4l-6.4 14.9h-23c-9.6 0-16.1-2.6-19.4-7.9-1.6-2.5-2.3-5.5-2.3-8.9 0-4.5 1.3-9.8 3.9-15.9 5.2-12.3 11.6-21 19.2-26.3 6.8-4.7 15.2-7 25.2-7h24.6l-6.4 14.8zM397.2 45.5h-22.1c-8 0-14.3 3.6-18.9 10.9h36.3l-6.3 14.8h-36.6l-10.8 25.4h-17.6l13.3-31.4c3.3-7.9 6.1-13.5 8.2-16.8 3.7-5.8 8.2-10.1 13.5-12.9 6.4-3.3 14.5-5 24.4-5h22.8l-6.2 15zM458 70.3l3.9 26.4h-18.5l-3.3-24.2h-11.9l-10.3 24.2h-17.4l28.1-66.1h33c12 0 17.9 3.8 17.9 11.5 0 2.8-.8 6.2-2.5 10.1-3.9 9.3-10.2 15.3-19 18.1M453.8 46h-14.2l-4.8 11.4h12.4c3.8 0 6.5-.3 8-.9 2.1-.9 3.8-2.8 5.1-5.8.8-1.9 1-3.1.5-3.5-1.1-.8-3.4-1.2-7-1.2M539.3 96.7h-18.5l.6-14.8H498l-11.7 14.8h-19.1l55.6-66.1h16.6l-.1 66.1zm-28.9-30.1H522l.6-15.3-12.2 15.3zM363.6 138.1h.1c1-2.8 3.3-3 5.9-3 4.9 0 6.4 2 6.4 6.6v12.4h-4.5v-11.9c0-2.7-.6-3.6-3.5-3.6-3.9 0-4.5 1.9-4.5 5.2v10.3H359v-26.8h4.5v10.8zM189.8 148.1c0 5.9-3.4 6.2-8.8 6.2-7.2 0-8.6-2.3-8.6-9.5 0-6.7 1.1-9.6 8.6-9.6 7.7 0 8.8 2.3 8.8 10.4h-12.9c0 4 .1 5.3 4.1 5.3 2.5 0 4.3 0 4.3-2.8h4.5zm-4.5-5.4c0-3.9-.6-4.1-4.3-4.1-3.9 0-4.1.8-4.1 4.1h8.4zM198.2 135.3v2.8h.1c1-2.8 3.3-3 5.9-3 4.9 0 6.4 2 6.4 6.6v12.4h-4.5v-11.9c0-2.7-.6-3.6-3.5-3.6-3.9 0-4.5 1.9-4.5 5.2v10.3h-4.5v-18.8h4.6zM231.9 148.1c0 5.9-3.4 6.2-8.8 6.2-7.2 0-8.6-2.3-8.6-9.5 0-6.7 1.1-9.6 8.6-9.6 7.7 0 8.8 2.3 8.8 10.4H219c0 4 .1 5.3 4.1 5.3 2.5 0 4.3 0 4.3-2.8h4.5zm-4.5-5.4c0-3.9-.6-4.1-4.3-4.1-3.9 0-4.1.8-4.1 4.1h8.4zM239.8 135.3l-.1 2.5h.2c.9-2.1 2.8-2.7 5-2.7 4 0 4.9 2.4 4.9 5.9v1.5h-4.2v-1c0-1.9-.2-3-2.3-3-2.7 0-3.5 1.5-3.4 4v11.6h-4.5v-18.8h4.4zM265.4 151.4h-.1c-1.2 2.5-3.6 2.9-5.9 2.9-6.4 0-7.2-3.5-7.2-9 0-5.8.2-10.1 7.2-10.1 2.6 0 4.7.6 5.9 3h.1l-.2-2.8h4.5V154c0 6.8-2.1 8.4-9 8.4-4.6 0-8-.8-7.7-6.4h4.2c0 2.6 1 3 3.5 3 3.8 0 4.6-.8 4.6-4v-3.6zm-8.7-7.3c0 4.3 0 6.7 4 6.7 4.5 0 4.5-2.3 4.5-6.7 0-4-.6-5.6-4.5-5.6-3.1 0-4 .9-4 5.6M278.6 131.1h-4.5v-3.8h4.5v3.8zm0 23h-4.5v-18.8h4.5v18.8zM299.6 148.1c0 5.9-3.4 6.2-8.8 6.2-7.2 0-8.6-2.3-8.6-9.5 0-6.7 1.1-9.6 8.6-9.6 7.7 0 8.8 2.3 8.8 10.4h-12.9c0 4 .1 5.3 4.1 5.3 2.5 0 4.3 0 4.3-2.8h4.5zm-4.5-5.4c0-3.9-.6-4.1-4.3-4.1-3.9 0-4.1.8-4.1 4.1h8.4zM301.1 135.3h2.4V131h4.5v4.3h7.2v3.4H308v9.6c0 1.7 0 2.5 1.9 2.5 2.5 0 2.3-2 2.3-4h4c.1 5.7-1.4 7.4-6.2 7.4-4.9 0-6.4-1.1-6.4-5.9v-9.6h-2.4v-3.4zM335.4 148.1c0 5.9-3.4 6.2-8.8 6.2-7.2 0-8.6-2.3-8.6-9.5 0-6.7 1.1-9.6 8.6-9.6 7.7 0 8.8 2.3 8.8 10.4h-12.9c0 4 .1 5.3 4.1 5.3 2.5 0 4.3 0 4.3-2.8h4.5zm-4.5-5.4c0-3.9-.6-4.1-4.3-4.1-3.9 0-4.1.8-4.1 4.1h8.4zM355.6 146.9c0 6.1-2.2 7.4-8.5 7.4-6.9 0-8.4-2-8.4-9.6 0-6.6 1-9.6 8.4-9.6 5.6 0 8.5.9 8.5 6.8h-4.5c0-2.9-.9-3.4-4-3.4-3.9 0-3.9 1.4-3.9 6.2 0 4.7-.1 6.1 3.9 6.1 3.7 0 4-.6 4-3.9h4.5zM385.1 135.3v2.8h.1c1-2.8 3.3-3 5.9-3 4.9 0 6.4 2 6.4 6.6v12.4H393v-11.9c0-2.7-.6-3.6-3.5-3.6-3.9 0-4.5 1.9-4.5 5.2v10.3h-4.5v-18.8h4.6zM406.3 131.1h-4.5v-3.8h4.5v3.8zm0 23h-4.5v-18.8h4.5v18.8zM415.1 142.6h1.1l5.3-7.3h5l-6.6 8.8 8 10h-5.4l-6.3-8.4h-1.1v8.4h-4.5v-26.9h4.5zM455.2 151.4h-.1c-1.2 2.5-3.6 2.9-5.9 2.9-6.4 0-7.2-3.5-7.2-9 0-5.8.2-10.1 7.2-10.1 2.6 0 4.7.6 5.9 3h.1l-.2-2.8h4.5V154c0 6.8-2.1 8.4-9 8.4-4.6 0-8-.8-7.7-6.4h4.2c0 2.6 1 3 3.5 3 3.8 0 4.6-.8 4.6-4v-3.6zm-8.7-7.3c0 4.3 0 6.7 4 6.7 4.5 0 4.5-2.3 4.5-6.7 0-4-.6-5.6-4.5-5.6-3.1 0-4 .9-4 5.6M468.5 135.3v2.7h.1c1-2.4 3.5-2.9 5.9-2.9s5.1.6 5.6 3.3h.1c.9-2.6 3.4-3.3 5.9-3.3 4.9 0 6.5 1.7 6.5 6.3v12.7h-4.5v-12.3c-.1-2.4-.7-3.3-3.1-3.3-3.6 0-4.4 1.6-4.4 5v10.6h-4.5v-12.3c-.1-2.4-.7-3.3-3.1-3.3-3.6 0-4.4 1.6-4.4 5v10.6h-4.5v-18.8h4.4zM497.1 127.2h4.5v10.5h.2c1-2.3 3.4-2.7 5.6-2.7 6.4 0 7.2 3.5 7.2 9 0 5.8-.2 10.1-7.2 10.1-2.6 0-4.7-.6-5.9-3h-.1l.2 2.8h-4.5v-26.7zm4.5 16.9c0 4.5-.1 6.7 4.5 6.7 4.1 0 4-2.5 4-6.7 0-4.7-.9-5.6-4-5.6-3.9 0-4.5 1.6-4.5 5.6M523.1 138.1h.1c1-2.8 3.3-3 5.9-3 4.9 0 6.4 2 6.4 6.6v12.4H531v-11.9c0-2.7-.6-3.6-3.5-3.6-3.9 0-4.5 1.9-4.5 5.2v10.3h-4.5v-26.8h4.5v10.8zM811.1 123.4c0 12.2-9.9 22.1-22.1 22.1h-66.4c-12.2 0-22.1-9.9-22.1-22.1V57c0-12.2 9.9-22.1 22.1-22.1H789c12.2 0 22.1 9.9 22.1 22.1v66.4z"/><path class="st1" d="M811.1 123.4h-4.9c0 4.8-1.9 9-5 12.2-3.1 3.1-7.4 5-12.2 5h-66.4c-4.8 0-9-1.9-12.2-5-3.1-3.1-5-7.4-5-12.2V57c0-4.8 1.9-9 5-12.2 3.1-3.1 7.4-5 12.2-5H789c4.8 0 9 1.9 12.2 5 3.1 3.1 5 7.4 5 12.2v66.4h9.8V57c0-7.5-3-14.3-7.9-19.1C803.3 33 796.5 30 789 30h-66.4c-7.5 0-14.3 3-19.1 7.9-4.9 4.9-7.9 11.7-7.9 19.1v66.4c0 7.5 3 14.3 7.9 19.1 4.9 4.9 11.7 7.9 19.1 7.9H789c7.5 0 14.3-3 19.1-7.9 4.9-4.9 7.9-11.7 7.9-19.1h-4.9z"/><path class="st0" d="M944.2 123.4c0 12.2-9.9 22.1-22.1 22.1h-66.4c-12.2 0-22.1-9.9-22.1-22.1V57c0-12.2 9.9-22.1 22.1-22.1h66.4c12.2 0 22.1 9.9 22.1 22.1v66.4z"/><path class="st1" d="M944.2 123.4h-4.9c0 4.8-1.9 9-5 12.2-3.1 3.1-7.4 5-12.2 5h-66.4c-4.8 0-9-1.9-12.2-5-3.1-3.1-5-7.4-5-12.2V57c0-4.8 1.9-9 5-12.2 3.1-3.1 7.4-5 12.2-5h66.4c4.8 0 9 1.9 12.2 5 3.1 3.1 5 7.4 5 12.2v66.4h9.8V57c0-7.5-3-14.3-7.9-19.1-4.9-4.9-11.7-7.9-19.1-7.9h-66.4c-7.5 0-14.3 3-19.1 7.9-4.9 4.9-7.9 11.7-7.9 19.1v66.4c0 7.5 3 14.3 7.9 19.1 4.9 4.9 11.7 7.9 19.1 7.9h66.4c7.5 0 14.3-3 19.1-7.9 4.9-4.9 7.9-11.7 7.9-19.1h-4.9z"/><path class="st0" d="M680.2 123.4c0 12.2-9.9 22.1-22.1 22.1h-66.4c-12.2 0-22.1-9.9-22.1-22.1V57c0-12.2 9.9-22.1 22.1-22.1H658c12.2 0 22.1 9.9 22.1 22.1v66.4z"/><path class="st1" d="M680.2 123.4h-4.9c0 4.8-1.9 9-5 12.2-3.1 3.1-7.4 5-12.2 5h-66.4c-4.8 0-9-1.9-12.2-5-3.1-3.1-5-7.4-5-12.2V57c0-4.8 1.9-9 5-12.2 3.1-3.1 7.4-5 12.2-5H658c4.8 0 9 1.9 12.2 5 3.1 3.1 5 7.4 5 12.2v66.4h9.9V57c0-7.5-3-14.3-7.9-19.1C672.3 33 665.5 30 658 30h-66.4c-7.5 0-14.3 3-19.1 7.9-4.9 4.9-7.9 11.7-7.9 19.1v66.4c0 7.5 3 14.3 7.9 19.1 4.9 4.9 11.7 7.9 19.1 7.9H658c7.5 0 14.3-3 19.1-7.9 4.9-4.9 7.9-11.7 7.9-19.1h-4.8z"/><path class="st2" d="M778.3 73.3H775c0 5.7-2.3 10.8-6 14.6-3.7 3.7-8.9 6-14.6 6-5.7 0-10.9-2.3-14.6-6-3.7-3.7-6-8.9-6-14.6 0-5.7 2.3-10.9 6-14.6 3.7-3.7 8.9-6 14.6-6 5.7 0 10.8 2.3 14.6 6 3.7 3.7 6 8.9 6 14.6h6.5c0-7.5-3-14.2-7.9-19.1-4.9-4.9-11.7-7.9-19.1-7.9-14.9 0-27.1 12.1-27.1 27.1 0 7.5 3 14.2 7.9 19.1 4.9 4.9 11.7 7.9 19.1 7.9 14.9 0 27.1-12.1 27.1-27.1h-3.2z"/><path class="st2" d="M778.3 106.2H775c0 5.7-2.3 10.8-6 14.6-3.7 3.7-8.9 6-14.6 6-5.7 0-10.8-2.3-14.6-6-3.7-3.7-6-8.9-6-14.6 0-5.7 2.3-10.8 6-14.6 3.7-3.7 8.9-6 14.6-6 5.7 0 10.8 2.3 14.6 6 3.7 3.7 6 8.9 6 14.6h6.5c0-7.5-3-14.2-7.9-19.1-4.9-4.9-11.7-7.9-19.1-7.9-7.5 0-14.2 3-19.1 7.9-4.9 4.9-7.9 11.7-7.9 19.1 0 7.5 3 14.2 7.9 19.1 4.9 4.9 11.7 7.9 19.1 7.9 7.5 0 14.2-3 19.1-7.9 4.9-4.9 7.9-11.7 7.9-19.1h-3.2zM641 89.6h-1.5c0 4.2-1.7 8-4.4 10.7-2.7 2.7-6.5 4.4-10.7 4.4-4.2 0-8-1.7-10.7-4.4-2.7-2.7-4.4-6.5-4.4-10.7 0-4.2 1.7-8 4.4-10.7 2.7-2.7 6.5-4.4 10.7-4.4 4.2 0 8 1.7 10.7 4.4 2.7 2.7 4.4 6.5 4.4 10.7h3c0-10-8.1-18.2-18.2-18.2-10 0-18.2 8.1-18.2 18.2 0 10 8.1 18.2 18.2 18.2 10 0 18.2-8.1 18.2-18.2H641zM627.6 132.7v-20.1H621v20.1M627.6 67.2V47.1H621v20.1M667.1 86.2H647v6.7h20.1M605.5 104.4l-14.2 14.2 4.7 4.7 14.2-14.2M652.5 56.3l-14.2 14.2 4.7 4.7L657.2 61M657.9 118.4l-14.2-14.2-4.7 4.8 14.2 14.1M609.4 70.9l-14.1-14.2-4.8 4.8 14.2 14.1M601.7 86.2h-20.1v6.7h20.1M881 46.9h14.7l-13.9 35.6 20.9-9.3-10.9 45.7 6.1 1.3-11.2 14.3-5.7-17.9 6.2 1.3 2.3-30.7-18.6 8.5z"/></svg>